%
M48
M72
T01C0.0236
T02C0.0276
T03C0.0320
T04C0.0360
T05C0.0362
T06C0.0400
T07C0.0512
T08C0.0906
T09C0.1260
%
T01
X5381Y3481
X7581Y4031
X7581Y4881
X8331Y5101
X7581Y5781
X10681Y5881
X8321Y7111
X9081Y7531
X11081Y8031
X10081Y8531
X8331Y8531
X6881Y9981
X3921Y5931
X17831Y4531
T02
X6723Y4510
X6723Y5199
X6723Y6281
X6723Y7364
X6723Y8053
X31081Y7531
X31081Y6531
X31081Y5531
T03
X29081Y5031
X28081Y5031
X27081Y5031
X26081Y5031
X25081Y5031
X24081Y5031
X23081Y5031
X22081Y5031
X25081Y3531
X28081Y3531
X28081Y8031
X29081Y8031
X27081Y8031
X26081Y8031
X25081Y8031
X24081Y8031
X23081Y8031
X22081Y8031
T04
X14331Y7281
X13331Y7281
X13331Y6281
X14331Y6281
X14331Y5281
X13331Y5281
T05
X5935Y5789
X5148Y5789
X5148Y6774
X5935Y6774
T06
X19831Y6531
X19831Y5531
X19831Y7531
T07
X35831Y7781
X35831Y9750
X35831Y5000
X35831Y3031
T08
X4081Y3911
X4081Y8651
T09
X2631Y1431
X2631Y11431
X39131Y11431
X39131Y1431
M30
