G75*
G70*
%OFA0B0*%
%FSLAX24Y24*%
%IPPOS*%
%LPD*%
%AMOC8*
5,1,8,0,0,1.08239X$1,22.5*
%
%ADD10C,0.0000*%
%ADD11R,0.1306X0.1306*%
%ADD12R,0.0562X0.0562*%
%ADD13R,0.0476X0.0476*%
%ADD14OC8,0.0630*%
%ADD15R,0.0098X0.0394*%
%ADD16R,0.0276X0.0354*%
%ADD17R,0.0354X0.0276*%
%ADD18R,0.0394X0.0551*%
%ADD19OC8,0.0520*%
%ADD20C,0.0600*%
%ADD21OC8,0.0560*%
%ADD22R,0.0800X0.0800*%
%ADD23C,0.0800*%
%ADD24C,0.0400*%
%ADD25C,0.0160*%
%ADD26C,0.0300*%
%ADD27C,0.0356*%
%ADD28C,0.0240*%
%ADD29R,0.0356X0.0356*%
%ADD30C,0.0100*%
%ADD31C,0.0080*%
D10*
X001381Y000181D02*
X001381Y012681D01*
X040381Y012681D01*
X040381Y000181D01*
X001381Y000181D01*
X002001Y001431D02*
X002003Y001481D01*
X002009Y001531D01*
X002019Y001580D01*
X002033Y001628D01*
X002050Y001675D01*
X002071Y001720D01*
X002096Y001764D01*
X002124Y001805D01*
X002156Y001844D01*
X002190Y001881D01*
X002227Y001915D01*
X002267Y001945D01*
X002309Y001972D01*
X002353Y001996D01*
X002399Y002017D01*
X002446Y002033D01*
X002494Y002046D01*
X002544Y002055D01*
X002593Y002060D01*
X002644Y002061D01*
X002694Y002058D01*
X002743Y002051D01*
X002792Y002040D01*
X002840Y002025D01*
X002886Y002007D01*
X002931Y001985D01*
X002974Y001959D01*
X003015Y001930D01*
X003054Y001898D01*
X003090Y001863D01*
X003122Y001825D01*
X003152Y001785D01*
X003179Y001742D01*
X003202Y001698D01*
X003221Y001652D01*
X003237Y001604D01*
X003249Y001555D01*
X003257Y001506D01*
X003261Y001456D01*
X003261Y001406D01*
X003257Y001356D01*
X003249Y001307D01*
X003237Y001258D01*
X003221Y001210D01*
X003202Y001164D01*
X003179Y001120D01*
X003152Y001077D01*
X003122Y001037D01*
X003090Y000999D01*
X003054Y000964D01*
X003015Y000932D01*
X002974Y000903D01*
X002931Y000877D01*
X002886Y000855D01*
X002840Y000837D01*
X002792Y000822D01*
X002743Y000811D01*
X002694Y000804D01*
X002644Y000801D01*
X002593Y000802D01*
X002544Y000807D01*
X002494Y000816D01*
X002446Y000829D01*
X002399Y000845D01*
X002353Y000866D01*
X002309Y000890D01*
X002267Y000917D01*
X002227Y000947D01*
X002190Y000981D01*
X002156Y001018D01*
X002124Y001057D01*
X002096Y001098D01*
X002071Y001142D01*
X002050Y001187D01*
X002033Y001234D01*
X002019Y001282D01*
X002009Y001331D01*
X002003Y001381D01*
X002001Y001431D01*
X002001Y011431D02*
X002003Y011481D01*
X002009Y011531D01*
X002019Y011580D01*
X002033Y011628D01*
X002050Y011675D01*
X002071Y011720D01*
X002096Y011764D01*
X002124Y011805D01*
X002156Y011844D01*
X002190Y011881D01*
X002227Y011915D01*
X002267Y011945D01*
X002309Y011972D01*
X002353Y011996D01*
X002399Y012017D01*
X002446Y012033D01*
X002494Y012046D01*
X002544Y012055D01*
X002593Y012060D01*
X002644Y012061D01*
X002694Y012058D01*
X002743Y012051D01*
X002792Y012040D01*
X002840Y012025D01*
X002886Y012007D01*
X002931Y011985D01*
X002974Y011959D01*
X003015Y011930D01*
X003054Y011898D01*
X003090Y011863D01*
X003122Y011825D01*
X003152Y011785D01*
X003179Y011742D01*
X003202Y011698D01*
X003221Y011652D01*
X003237Y011604D01*
X003249Y011555D01*
X003257Y011506D01*
X003261Y011456D01*
X003261Y011406D01*
X003257Y011356D01*
X003249Y011307D01*
X003237Y011258D01*
X003221Y011210D01*
X003202Y011164D01*
X003179Y011120D01*
X003152Y011077D01*
X003122Y011037D01*
X003090Y010999D01*
X003054Y010964D01*
X003015Y010932D01*
X002974Y010903D01*
X002931Y010877D01*
X002886Y010855D01*
X002840Y010837D01*
X002792Y010822D01*
X002743Y010811D01*
X002694Y010804D01*
X002644Y010801D01*
X002593Y010802D01*
X002544Y010807D01*
X002494Y010816D01*
X002446Y010829D01*
X002399Y010845D01*
X002353Y010866D01*
X002309Y010890D01*
X002267Y010917D01*
X002227Y010947D01*
X002190Y010981D01*
X002156Y011018D01*
X002124Y011057D01*
X002096Y011098D01*
X002071Y011142D01*
X002050Y011187D01*
X002033Y011234D01*
X002019Y011282D01*
X002009Y011331D01*
X002003Y011381D01*
X002001Y011431D01*
X038501Y011431D02*
X038503Y011481D01*
X038509Y011531D01*
X038519Y011580D01*
X038533Y011628D01*
X038550Y011675D01*
X038571Y011720D01*
X038596Y011764D01*
X038624Y011805D01*
X038656Y011844D01*
X038690Y011881D01*
X038727Y011915D01*
X038767Y011945D01*
X038809Y011972D01*
X038853Y011996D01*
X038899Y012017D01*
X038946Y012033D01*
X038994Y012046D01*
X039044Y012055D01*
X039093Y012060D01*
X039144Y012061D01*
X039194Y012058D01*
X039243Y012051D01*
X039292Y012040D01*
X039340Y012025D01*
X039386Y012007D01*
X039431Y011985D01*
X039474Y011959D01*
X039515Y011930D01*
X039554Y011898D01*
X039590Y011863D01*
X039622Y011825D01*
X039652Y011785D01*
X039679Y011742D01*
X039702Y011698D01*
X039721Y011652D01*
X039737Y011604D01*
X039749Y011555D01*
X039757Y011506D01*
X039761Y011456D01*
X039761Y011406D01*
X039757Y011356D01*
X039749Y011307D01*
X039737Y011258D01*
X039721Y011210D01*
X039702Y011164D01*
X039679Y011120D01*
X039652Y011077D01*
X039622Y011037D01*
X039590Y010999D01*
X039554Y010964D01*
X039515Y010932D01*
X039474Y010903D01*
X039431Y010877D01*
X039386Y010855D01*
X039340Y010837D01*
X039292Y010822D01*
X039243Y010811D01*
X039194Y010804D01*
X039144Y010801D01*
X039093Y010802D01*
X039044Y010807D01*
X038994Y010816D01*
X038946Y010829D01*
X038899Y010845D01*
X038853Y010866D01*
X038809Y010890D01*
X038767Y010917D01*
X038727Y010947D01*
X038690Y010981D01*
X038656Y011018D01*
X038624Y011057D01*
X038596Y011098D01*
X038571Y011142D01*
X038550Y011187D01*
X038533Y011234D01*
X038519Y011282D01*
X038509Y011331D01*
X038503Y011381D01*
X038501Y011431D01*
X038501Y001431D02*
X038503Y001481D01*
X038509Y001531D01*
X038519Y001580D01*
X038533Y001628D01*
X038550Y001675D01*
X038571Y001720D01*
X038596Y001764D01*
X038624Y001805D01*
X038656Y001844D01*
X038690Y001881D01*
X038727Y001915D01*
X038767Y001945D01*
X038809Y001972D01*
X038853Y001996D01*
X038899Y002017D01*
X038946Y002033D01*
X038994Y002046D01*
X039044Y002055D01*
X039093Y002060D01*
X039144Y002061D01*
X039194Y002058D01*
X039243Y002051D01*
X039292Y002040D01*
X039340Y002025D01*
X039386Y002007D01*
X039431Y001985D01*
X039474Y001959D01*
X039515Y001930D01*
X039554Y001898D01*
X039590Y001863D01*
X039622Y001825D01*
X039652Y001785D01*
X039679Y001742D01*
X039702Y001698D01*
X039721Y001652D01*
X039737Y001604D01*
X039749Y001555D01*
X039757Y001506D01*
X039761Y001456D01*
X039761Y001406D01*
X039757Y001356D01*
X039749Y001307D01*
X039737Y001258D01*
X039721Y001210D01*
X039702Y001164D01*
X039679Y001120D01*
X039652Y001077D01*
X039622Y001037D01*
X039590Y000999D01*
X039554Y000964D01*
X039515Y000932D01*
X039474Y000903D01*
X039431Y000877D01*
X039386Y000855D01*
X039340Y000837D01*
X039292Y000822D01*
X039243Y000811D01*
X039194Y000804D01*
X039144Y000801D01*
X039093Y000802D01*
X039044Y000807D01*
X038994Y000816D01*
X038946Y000829D01*
X038899Y000845D01*
X038853Y000866D01*
X038809Y000890D01*
X038767Y000917D01*
X038727Y000947D01*
X038690Y000981D01*
X038656Y001018D01*
X038624Y001057D01*
X038596Y001098D01*
X038571Y001142D01*
X038550Y001187D01*
X038533Y001234D01*
X038519Y001282D01*
X038509Y001331D01*
X038503Y001381D01*
X038501Y001431D01*
D11*
X004081Y003911D03*
X004081Y008651D03*
D12*
X005148Y006774D03*
X005935Y006774D03*
X005935Y005789D03*
X005148Y005789D03*
D13*
X006723Y006281D03*
X006723Y005199D03*
X006723Y004510D03*
X006723Y007364D03*
X006723Y008053D03*
X031081Y007531D03*
X031081Y006531D03*
X031081Y005531D03*
D14*
X029081Y005031D03*
X028081Y005031D03*
X027081Y005031D03*
X026081Y005031D03*
X025081Y005031D03*
X024081Y005031D03*
X023081Y005031D03*
X022081Y005031D03*
X022081Y008031D03*
X023081Y008031D03*
X024081Y008031D03*
X025081Y008031D03*
X026081Y008031D03*
X027081Y008031D03*
X028081Y008031D03*
X029081Y008031D03*
D15*
X009474Y007113D03*
X009278Y007113D03*
X009081Y007113D03*
X008884Y007113D03*
X008687Y007113D03*
X008687Y005449D03*
X008884Y005449D03*
X009081Y005449D03*
X009278Y005449D03*
X009474Y005449D03*
D16*
X009875Y005431D03*
X010387Y005431D03*
X009337Y007981D03*
X008825Y007981D03*
X022825Y004031D03*
X023337Y004031D03*
D17*
X010031Y006026D03*
X010031Y006537D03*
X009831Y009276D03*
X009831Y009787D03*
X007331Y009787D03*
X007331Y009276D03*
D18*
X008207Y009098D03*
X008955Y009098D03*
X008581Y009964D03*
D19*
X025081Y003531D03*
X028081Y003531D03*
D20*
X020131Y005531D02*
X019531Y005531D01*
X019531Y006531D02*
X020131Y006531D01*
X020131Y007531D02*
X019531Y007531D01*
D21*
X014331Y007281D03*
X013331Y007281D03*
X013331Y006281D03*
X014331Y006281D03*
X014331Y005281D03*
X013331Y005281D03*
D22*
X035831Y003031D03*
X035831Y007781D03*
D23*
X035831Y009750D03*
X035831Y005000D03*
D24*
X035331Y003531D02*
X035831Y003031D01*
X035331Y003531D02*
X028081Y003531D01*
X028081Y005031D01*
X029081Y005031D02*
X031081Y005031D01*
X031081Y005531D01*
X031081Y006531D02*
X029081Y006531D01*
X029081Y008031D01*
X028081Y008031D02*
X027081Y008031D01*
X022081Y008031D02*
X022081Y007531D01*
X019831Y007531D01*
X022081Y008031D02*
X022081Y009740D01*
X035831Y009750D01*
X025081Y006031D02*
X025081Y005031D01*
X024081Y005031D02*
X024081Y004031D01*
X024081Y003531D01*
X025081Y003531D01*
X022081Y004531D02*
X022081Y004781D01*
X022081Y005031D01*
X023081Y005031D01*
X022081Y004531D02*
X018581Y004531D01*
X017831Y004531D01*
X018581Y004531D02*
X018581Y006531D01*
X019831Y006531D01*
X021081Y006031D02*
X025081Y006031D01*
X021081Y006031D02*
X021081Y005531D01*
X019831Y005531D01*
X008581Y009964D02*
X008581Y009981D01*
D25*
X022081Y004781D02*
X022081Y004031D01*
X022825Y004031D01*
X023337Y004031D02*
X024081Y004031D01*
D26*
X010681Y005431D02*
X010681Y005881D01*
X010681Y006026D01*
X010031Y006026D01*
X009875Y005431D02*
X009581Y005431D01*
X009581Y005281D01*
X010387Y005431D02*
X010681Y005431D01*
X009581Y007081D02*
X009581Y008031D01*
X009337Y007981D01*
X009831Y009787D02*
X009831Y010031D01*
X008581Y010031D01*
X008581Y009981D01*
X008581Y010031D02*
X007331Y010031D01*
X007331Y009787D01*
D27*
X008331Y008531D03*
X010081Y008531D03*
X011081Y008031D03*
X009081Y007531D03*
X010681Y005881D03*
X008331Y005101D03*
X007581Y004881D03*
X007581Y004031D03*
X005381Y003481D03*
X007581Y005781D03*
X017831Y004531D03*
D28*
X008581Y009981D02*
X006881Y009981D01*
D29*
X006881Y009981D03*
X008321Y007111D03*
X003921Y005931D03*
D30*
X008321Y007111D02*
X008323Y007113D01*
X008687Y007113D01*
X008884Y007113D01*
X008321Y007111D02*
X008321Y007771D01*
X008531Y007981D01*
X008825Y007981D01*
X009337Y007981D02*
X009337Y009098D01*
X008955Y009098D01*
X009831Y009098D01*
X009831Y009276D01*
X008331Y009098D02*
X008331Y008531D01*
X008081Y009031D02*
X007331Y009031D01*
X007331Y009276D01*
X008081Y009098D02*
X008081Y009031D01*
X008081Y009098D02*
X008207Y009098D01*
X008331Y009098D01*
X010031Y008531D02*
X010031Y006537D01*
X010081Y008531D02*
X010031Y008531D01*
D31*
X011081Y008031D02*
X011081Y004781D01*
X009474Y004781D01*
X009474Y005449D01*
X009278Y005449D02*
X009278Y004510D01*
X006723Y004510D01*
X007581Y004781D02*
X007581Y004881D01*
X007581Y004781D02*
X009081Y004781D01*
X009081Y005449D01*
X008884Y005449D02*
X008884Y005101D01*
X008331Y005101D01*
X008687Y005449D02*
X006723Y005449D01*
X006723Y005199D01*
X006091Y005031D02*
X004331Y005031D01*
X004331Y006781D01*
X005148Y006781D01*
X005148Y006774D01*
X004441Y007731D02*
X003921Y007211D01*
X003921Y005931D01*
X006091Y005031D02*
X006091Y004031D01*
X007581Y004031D01*
X005381Y003481D02*
X013851Y003481D01*
X013851Y006281D01*
X013331Y006281D01*
X010031Y006537D02*
X009278Y006537D01*
X009278Y007113D01*
X009081Y007113D02*
X009081Y007531D01*
X007581Y007364D02*
X007581Y005781D01*
X007581Y007364D02*
X006723Y007364D01*
X006181Y008041D02*
X005871Y007731D01*
X004441Y007731D01*
X006181Y008041D02*
X006711Y008041D01*
X006723Y008053D01*
M02*
