G75*
G70*
%OFA0B0*%
%FSLAX24Y24*%
%IPPOS*%
%LPD*%
%AMOC8*
5,1,8,0,0,1.08239X$1,22.5*
%
%ADD10C,0.1300*%
%ADD11R,0.1346X0.1346*%
%ADD12R,0.0602X0.0602*%
%ADD13R,0.0516X0.0516*%
%ADD14OC8,0.0670*%
%ADD15R,0.0138X0.0434*%
%ADD16R,0.0316X0.0394*%
%ADD17R,0.0394X0.0316*%
%ADD18R,0.0434X0.0591*%
%ADD19OC8,0.0560*%
%ADD20C,0.0640*%
%ADD21OC8,0.0600*%
%ADD22R,0.0840X0.0840*%
%ADD23C,0.0840*%
D10*
X002631Y001431D03*
X002631Y011431D03*
X039131Y011431D03*
X039131Y001431D03*
D11*
X004081Y003911D03*
X004081Y008651D03*
D12*
X005148Y006774D03*
X005935Y006774D03*
X005935Y005789D03*
X005148Y005789D03*
D13*
X006723Y006281D03*
X006723Y005199D03*
X006723Y004510D03*
X006723Y007364D03*
X006723Y008053D03*
X031081Y007531D03*
X031081Y006531D03*
X031081Y005531D03*
D14*
X029081Y005031D03*
X028081Y005031D03*
X027081Y005031D03*
X026081Y005031D03*
X025081Y005031D03*
X024081Y005031D03*
X023081Y005031D03*
X022081Y005031D03*
X022081Y008031D03*
X023081Y008031D03*
X024081Y008031D03*
X025081Y008031D03*
X026081Y008031D03*
X027081Y008031D03*
X028081Y008031D03*
X029081Y008031D03*
D15*
X009474Y007113D03*
X009278Y007113D03*
X009081Y007113D03*
X008884Y007113D03*
X008687Y007113D03*
X008687Y005449D03*
X008884Y005449D03*
X009081Y005449D03*
X009278Y005449D03*
X009474Y005449D03*
D16*
X009875Y005431D03*
X010387Y005431D03*
X009337Y007981D03*
X008825Y007981D03*
X022825Y004031D03*
X023337Y004031D03*
D17*
X010031Y006026D03*
X010031Y006537D03*
X009831Y009276D03*
X009831Y009787D03*
X007331Y009787D03*
X007331Y009276D03*
D18*
X008207Y009098D03*
X008955Y009098D03*
X008581Y009964D03*
D19*
X025081Y003531D03*
X028081Y003531D03*
D20*
X020131Y005531D02*
X019531Y005531D01*
X019531Y006531D02*
X020131Y006531D01*
X020131Y007531D02*
X019531Y007531D01*
D21*
X014331Y007281D03*
X013331Y007281D03*
X013331Y006281D03*
X014331Y006281D03*
X014331Y005281D03*
X013331Y005281D03*
D22*
X035831Y003031D03*
X035831Y007781D03*
D23*
X035831Y009750D03*
X035831Y005000D03*
M02*
