G75*
G70*
%OFA0B0*%
%FSLAX24Y24*%
%IPPOS*%
%LPD*%
%AMOC8*
5,1,8,0,0,1.08239X$1,22.5*
%
%ADD10R,0.0098X0.0098*%
%ADD11C,0.0060*%
%ADD12C,0.0030*%
%ADD13R,0.0060X0.0020*%
%ADD14R,0.0020X0.0020*%
%ADD15R,0.0100X0.0020*%
%ADD16R,0.0040X0.0020*%
%ADD17R,0.0080X0.0020*%
%ADD18R,0.0120X0.0020*%
%ADD19R,0.0140X0.0020*%
%ADD20R,0.0200X0.0020*%
%ADD21R,0.0160X0.0020*%
%ADD22R,0.0180X0.0020*%
%ADD23R,0.0220X0.0020*%
%ADD24R,0.0360X0.0020*%
%ADD25R,0.0340X0.0020*%
%ADD26R,0.0320X0.0020*%
%ADD27R,0.0420X0.0020*%
%ADD28R,0.0440X0.0020*%
%ADD29R,0.0400X0.0020*%
%ADD30R,0.0380X0.0020*%
%ADD31R,0.0300X0.0020*%
%ADD32R,0.0460X0.0020*%
%ADD33R,0.0480X0.0020*%
%ADD34R,0.0520X0.0020*%
%ADD35R,0.0540X0.0020*%
%ADD36R,0.0260X0.0020*%
%ADD37R,0.0580X0.0020*%
%ADD38R,0.0800X0.0020*%
%ADD39R,0.0280X0.0020*%
%ADD40R,0.0240X0.0020*%
%ADD41R,0.0500X0.0020*%
%ADD42R,0.0620X0.0020*%
%ADD43R,0.0760X0.0020*%
%ADD44R,0.0840X0.0020*%
%ADD45R,0.0780X0.0020*%
%ADD46R,0.0680X0.0020*%
%ADD47R,0.0660X0.0020*%
%ADD48R,0.0880X0.0020*%
%ADD49R,0.1080X0.0020*%
%ADD50R,0.1180X0.0020*%
%ADD51R,0.1240X0.0020*%
%ADD52R,0.1200X0.0020*%
%ADD53R,0.1100X0.0020*%
%ADD54R,0.1060X0.0020*%
%ADD55R,0.1040X0.0020*%
%ADD56R,0.1020X0.0020*%
%ADD57R,0.0700X0.0020*%
%ADD58R,0.0600X0.0020*%
%ADD59R,0.0560X0.0020*%
D10*
X018714Y009416D03*
X018714Y009515D03*
X018616Y009613D03*
X018714Y009712D03*
X018813Y009712D03*
X018813Y009810D03*
X019009Y009810D03*
X019009Y009908D03*
X019009Y010007D03*
X018911Y010007D03*
X018911Y010105D03*
X019009Y010105D03*
X019009Y010204D03*
X018911Y010204D03*
X018813Y010204D03*
X018813Y010302D03*
X018813Y010401D03*
X018911Y010401D03*
X018813Y010499D03*
X018714Y010499D03*
X018714Y010597D03*
X018714Y010696D03*
X018714Y010794D03*
X018616Y010794D03*
X018616Y010893D03*
X018714Y010893D03*
X018813Y010991D03*
X018911Y010991D03*
X018911Y011090D03*
X018813Y011188D03*
X018714Y011188D03*
X018616Y011286D03*
X018616Y011385D03*
X018714Y011385D03*
X018714Y011582D03*
X018616Y011582D03*
X018616Y011680D03*
X018616Y011779D03*
X018616Y011877D03*
X018616Y011975D03*
X018616Y012074D03*
X018616Y012172D03*
X018714Y012172D03*
X018813Y012172D03*
X018911Y012172D03*
X019009Y012172D03*
X019108Y012172D03*
X019206Y012172D03*
X019206Y012074D03*
X019206Y011975D03*
X019206Y011877D03*
X019206Y011779D03*
X019206Y011680D03*
X019206Y011582D03*
X019108Y011582D03*
X019009Y011582D03*
X018911Y011582D03*
X018813Y011582D03*
X018911Y011385D03*
X019009Y011286D03*
X019108Y011286D03*
X019108Y011188D03*
X019108Y011090D03*
X019206Y011090D03*
X019305Y011090D03*
X019305Y011188D03*
X019403Y011188D03*
X019403Y011090D03*
X019501Y011090D03*
X019403Y010991D03*
X019305Y010991D03*
X019206Y010893D03*
X019108Y010794D03*
X019108Y010696D03*
X019206Y010696D03*
X019108Y010597D03*
X019108Y010499D03*
X019009Y010597D03*
X019009Y010696D03*
X018911Y010794D03*
X018813Y010794D03*
X019305Y010794D03*
X019403Y010794D03*
X019403Y010696D03*
X019403Y010597D03*
X019403Y010499D03*
X019305Y010499D03*
X019305Y010597D03*
X019501Y010794D03*
X019501Y010893D03*
X019698Y010893D03*
X019797Y010893D03*
X019797Y010794D03*
X019797Y010696D03*
X019797Y010597D03*
X019797Y010499D03*
X019797Y010401D03*
X019895Y010401D03*
X019994Y010401D03*
X019994Y010499D03*
X019994Y010597D03*
X019895Y010597D03*
X019994Y010696D03*
X020092Y010794D03*
X020190Y010794D03*
X020190Y010696D03*
X020387Y010597D03*
X020289Y010499D03*
X020190Y010499D03*
X020092Y010401D03*
X020092Y010302D03*
X020092Y010204D03*
X019994Y010204D03*
X019994Y010302D03*
X019797Y010204D03*
X019797Y010105D03*
X019895Y010105D03*
X019895Y010007D03*
X019895Y009908D03*
X019994Y009908D03*
X020092Y009908D03*
X020190Y009908D03*
X020289Y009908D03*
X020387Y009908D03*
X020486Y009908D03*
X020584Y009908D03*
X020584Y010007D03*
X020486Y010007D03*
X020387Y010007D03*
X020289Y010007D03*
X020387Y010105D03*
X020387Y010204D03*
X020387Y010302D03*
X020289Y010302D03*
X020387Y010401D03*
X020486Y010401D03*
X020584Y010401D03*
X020584Y010499D03*
X020486Y010302D03*
X020486Y010204D03*
X020584Y010105D03*
X020683Y010204D03*
X020781Y010204D03*
X020879Y010204D03*
X020879Y010302D03*
X020781Y010401D03*
X020879Y010499D03*
X020879Y010597D03*
X020781Y010597D03*
X020683Y010696D03*
X020584Y010696D03*
X020584Y010794D03*
X020486Y010893D03*
X020486Y010991D03*
X020584Y010991D03*
X020486Y011090D03*
X020486Y011188D03*
X020584Y011188D03*
X020683Y011188D03*
X020781Y011188D03*
X020683Y011286D03*
X020683Y011385D03*
X020781Y011385D03*
X020879Y011385D03*
X020879Y011286D03*
X020978Y011286D03*
X020978Y011188D03*
X020879Y011090D03*
X020781Y010991D03*
X020683Y011090D03*
X020486Y011286D03*
X020387Y011188D03*
X020289Y011188D03*
X020289Y011286D03*
X020190Y011286D03*
X020092Y011286D03*
X020092Y011188D03*
X020190Y011188D03*
X020190Y011090D03*
X020289Y011090D03*
X020289Y010991D03*
X020387Y010893D03*
X019994Y010893D03*
X019994Y010991D03*
X019895Y010991D03*
X019797Y011090D03*
X019797Y011188D03*
X019895Y011286D03*
X019994Y011286D03*
X020092Y011385D03*
X020190Y011385D03*
X020190Y011483D03*
X020190Y011582D03*
X020190Y011680D03*
X020092Y011680D03*
X019994Y011582D03*
X019895Y011680D03*
X019797Y011680D03*
X019797Y011582D03*
X019797Y011483D03*
X019895Y011483D03*
X019895Y011385D03*
X019698Y011483D03*
X019600Y011483D03*
X019501Y011483D03*
X019403Y011582D03*
X019600Y011582D03*
X019206Y011385D03*
X019206Y011286D03*
X019600Y011188D03*
X019698Y011286D03*
X019698Y011090D03*
X020387Y011385D03*
X020387Y011582D03*
X020584Y011582D03*
X020584Y011483D03*
X020781Y011582D03*
X020781Y011680D03*
X020781Y011779D03*
X020781Y011877D03*
X020781Y011975D03*
X020781Y012074D03*
X020781Y012172D03*
X020879Y012172D03*
X020978Y012172D03*
X021076Y012172D03*
X021175Y012172D03*
X021273Y012172D03*
X021372Y012172D03*
X021372Y012074D03*
X021372Y011975D03*
X021372Y011877D03*
X021372Y011779D03*
X021372Y011680D03*
X021372Y011582D03*
X021273Y011582D03*
X021175Y011582D03*
X021076Y011582D03*
X020978Y011582D03*
X020879Y011582D03*
X021076Y011385D03*
X021175Y011385D03*
X021372Y011385D03*
X021175Y011188D03*
X021175Y011090D03*
X021273Y011090D03*
X021175Y010991D03*
X021273Y010893D03*
X021372Y010893D03*
X021372Y010794D03*
X021273Y010794D03*
X021273Y010696D03*
X021175Y010794D03*
X021076Y010794D03*
X021076Y010696D03*
X020978Y010696D03*
X020978Y010597D03*
X021175Y010597D03*
X021175Y010499D03*
X021273Y010499D03*
X021273Y010401D03*
X021175Y010401D03*
X021273Y010302D03*
X021372Y010302D03*
X021372Y010204D03*
X021372Y010007D03*
X021372Y009908D03*
X021372Y009810D03*
X021372Y009712D03*
X021372Y009613D03*
X021372Y009515D03*
X021372Y009416D03*
X021273Y009416D03*
X021175Y009416D03*
X021076Y009416D03*
X020978Y009416D03*
X020879Y009416D03*
X020781Y009416D03*
X020781Y009515D03*
X020781Y009613D03*
X020781Y009712D03*
X020781Y009810D03*
X020781Y009908D03*
X020781Y010007D03*
X020879Y010007D03*
X020978Y010007D03*
X021076Y010007D03*
X021175Y010007D03*
X021273Y010007D03*
X021175Y009810D03*
X021175Y009712D03*
X021076Y009712D03*
X021076Y009810D03*
X020978Y009810D03*
X020978Y009712D03*
X020978Y009613D03*
X021076Y009613D03*
X021175Y009613D03*
X020584Y009613D03*
X020584Y009712D03*
X020289Y009712D03*
X020190Y009712D03*
X020190Y009613D03*
X020092Y009613D03*
X020092Y009515D03*
X020092Y009416D03*
X020289Y009416D03*
X020387Y009416D03*
X020387Y009515D03*
X020289Y009515D03*
X020289Y009613D03*
X020486Y009515D03*
X020584Y009416D03*
X019895Y009515D03*
X019698Y009515D03*
X019600Y009515D03*
X019600Y009613D03*
X019698Y009613D03*
X019600Y009712D03*
X019600Y009810D03*
X019600Y009908D03*
X019698Y010007D03*
X019600Y010105D03*
X019600Y010204D03*
X019501Y010302D03*
X019403Y010302D03*
X019403Y010204D03*
X019305Y010204D03*
X019206Y010204D03*
X019206Y010302D03*
X019108Y010204D03*
X019009Y010302D03*
X019305Y010401D03*
X019403Y010401D03*
X019600Y010499D03*
X019698Y010499D03*
X019698Y010597D03*
X019895Y010794D03*
X020781Y010794D03*
X020879Y010794D03*
X021372Y010597D03*
X021372Y010499D03*
X020190Y010105D03*
X019994Y010007D03*
X019797Y009810D03*
X019501Y009712D03*
X019501Y009613D03*
X019403Y009515D03*
X019403Y009416D03*
X019305Y009416D03*
X019206Y009416D03*
X019206Y009515D03*
X019108Y009515D03*
X019009Y009515D03*
X018911Y009515D03*
X018911Y009613D03*
X018813Y009613D03*
X018911Y009416D03*
X019009Y009712D03*
X019108Y009712D03*
X019108Y009810D03*
X019206Y009810D03*
X019305Y009810D03*
X019403Y009810D03*
X019403Y009908D03*
X019403Y010007D03*
X019403Y010105D03*
X019501Y010007D03*
X019206Y010007D03*
X018813Y010105D03*
X018714Y010105D03*
X018714Y010007D03*
X018616Y010105D03*
X018616Y009908D03*
X019305Y009712D03*
X019501Y009416D03*
X019600Y009416D03*
X019698Y009416D03*
X019698Y010401D03*
X018616Y011090D03*
X018813Y011779D03*
X018813Y011877D03*
X018911Y011877D03*
X018911Y011975D03*
X019009Y011975D03*
X019009Y011877D03*
X019009Y011779D03*
X018911Y011779D03*
X018813Y011975D03*
X019501Y011975D03*
X019600Y012074D03*
X019698Y012172D03*
X019797Y012074D03*
X019797Y011975D03*
X019698Y011975D03*
X019895Y011877D03*
X019994Y011877D03*
X019994Y011779D03*
X020190Y011779D03*
X020289Y011779D03*
X020387Y011779D03*
X020486Y011877D03*
X020584Y011877D03*
X020486Y011975D03*
X020486Y012074D03*
X020584Y012074D03*
X020584Y012172D03*
X020486Y012172D03*
X020387Y012172D03*
X020387Y012074D03*
X020190Y012172D03*
X020092Y012172D03*
X020092Y012074D03*
X019994Y012172D03*
X019895Y012172D03*
X020190Y011975D03*
X019797Y011779D03*
X019698Y011779D03*
X020978Y011779D03*
X020978Y011877D03*
X021076Y011877D03*
X021076Y011975D03*
X020978Y011975D03*
X021175Y011975D03*
X021175Y011877D03*
X021175Y011779D03*
X021076Y011779D03*
D11*
X018241Y011872D02*
X017921Y011872D01*
X017814Y011765D01*
X017814Y011658D01*
X017921Y011551D01*
X018241Y011551D01*
X018241Y012192D01*
X017921Y012192D01*
X017814Y012085D01*
X017814Y011978D01*
X017921Y011872D01*
X017596Y011872D02*
X017490Y011978D01*
X017276Y011978D01*
X017169Y011872D01*
X017169Y011658D01*
X017276Y011551D01*
X017490Y011551D01*
X017596Y011658D01*
X017596Y011872D01*
X016952Y011872D02*
X016845Y011765D01*
X016631Y011765D01*
X016525Y011658D01*
X016631Y011551D01*
X016952Y011551D01*
X016307Y011292D02*
X016307Y010651D01*
X016307Y010865D02*
X015987Y010651D01*
X015770Y010758D02*
X015770Y010972D01*
X015663Y011078D01*
X015450Y011078D01*
X015343Y010972D01*
X015343Y010865D01*
X015770Y010865D01*
X015770Y010758D02*
X015663Y010651D01*
X015450Y010651D01*
X015019Y010758D02*
X014912Y010651D01*
X015019Y010758D02*
X015019Y011185D01*
X015126Y011078D02*
X014912Y011078D01*
X014051Y011292D02*
X013624Y011292D01*
X013838Y011292D02*
X013838Y010651D01*
X013407Y010758D02*
X013407Y010972D01*
X013300Y011078D01*
X013087Y011078D01*
X012980Y010972D01*
X012980Y010865D01*
X013407Y010865D01*
X013407Y010758D02*
X013300Y010651D01*
X013087Y010651D01*
X012762Y010758D02*
X012656Y010865D01*
X012335Y010865D01*
X012335Y010972D02*
X012335Y010651D01*
X012656Y010651D01*
X012762Y010758D01*
X012442Y011078D02*
X012335Y010972D01*
X012442Y011078D02*
X012656Y011078D01*
X012118Y011078D02*
X012011Y011078D01*
X011904Y010972D01*
X011798Y011078D01*
X011691Y010972D01*
X011691Y010651D01*
X011904Y010651D02*
X011904Y010972D01*
X012118Y011078D02*
X012118Y010651D01*
X012012Y011551D02*
X011798Y011978D01*
X011581Y011872D02*
X011474Y011978D01*
X011260Y011978D01*
X011154Y011872D01*
X011154Y011765D01*
X011581Y011765D01*
X011581Y011658D02*
X011581Y011872D01*
X011581Y011658D02*
X011474Y011551D01*
X011260Y011551D01*
X010936Y011551D02*
X010936Y011978D01*
X010936Y011765D02*
X010723Y011978D01*
X010616Y011978D01*
X010399Y011872D02*
X010292Y011978D01*
X009972Y011978D01*
X009755Y011978D02*
X009648Y011978D01*
X009648Y011551D01*
X009755Y011551D02*
X009541Y011551D01*
X009218Y011658D02*
X009111Y011551D01*
X009218Y011658D02*
X009218Y012085D01*
X009325Y011978D02*
X009111Y011978D01*
X008895Y011978D02*
X008895Y011658D01*
X008788Y011551D01*
X008468Y011551D01*
X008468Y011445D02*
X008575Y011338D01*
X008682Y011338D01*
X008468Y011445D02*
X008468Y011978D01*
X009648Y012192D02*
X009648Y012299D01*
X010292Y011765D02*
X010399Y011872D01*
X010292Y011765D02*
X010079Y011765D01*
X009972Y011658D01*
X010079Y011551D01*
X010399Y011551D01*
X012012Y011551D02*
X012225Y011978D01*
X012548Y011978D02*
X012548Y011551D01*
X012655Y011551D02*
X012441Y011551D01*
X012872Y011551D02*
X012872Y011872D01*
X012979Y011978D01*
X013299Y011978D01*
X013299Y011551D01*
X013517Y011658D02*
X013517Y012192D01*
X013944Y012192D02*
X013944Y011658D01*
X013837Y011551D01*
X013624Y011551D01*
X013517Y011658D01*
X012655Y011978D02*
X012548Y011978D01*
X012548Y012192D02*
X012548Y012299D01*
X014806Y011872D02*
X014806Y011551D01*
X015233Y011551D02*
X015233Y011978D01*
X014913Y011978D01*
X014806Y011872D01*
X015451Y011872D02*
X015451Y011658D01*
X015557Y011551D01*
X015771Y011551D01*
X015878Y011658D01*
X015878Y011872D01*
X015771Y011978D01*
X015557Y011978D01*
X015451Y011872D01*
X016094Y011978D02*
X016307Y011978D01*
X016200Y012085D02*
X016200Y011658D01*
X016094Y011551D01*
X015987Y011078D02*
X016307Y010865D01*
X016845Y011078D02*
X016952Y010972D01*
X016952Y010758D01*
X016845Y010651D01*
X016525Y010651D01*
X017169Y010758D02*
X017276Y010651D01*
X017490Y010651D01*
X017596Y010758D01*
X017596Y010972D01*
X017490Y011078D01*
X017276Y011078D01*
X017169Y010972D01*
X017169Y010758D01*
X017814Y010651D02*
X018027Y010865D01*
X017921Y010865D02*
X018241Y010865D01*
X017921Y010865D02*
X017814Y010972D01*
X017814Y011185D01*
X017921Y011292D01*
X018241Y011292D01*
X018241Y010651D01*
X016845Y011078D02*
X016525Y011078D01*
X016952Y011872D02*
X016845Y011978D01*
X016525Y011978D01*
D12*
X013284Y009263D02*
X013160Y009386D01*
X013222Y009386D01*
X013222Y009448D01*
X013160Y009448D01*
X013160Y009386D01*
X013405Y009510D02*
X013652Y009510D01*
X013652Y009448D02*
X013652Y009572D01*
X013590Y009633D01*
X013467Y009633D01*
X013405Y009572D01*
X013405Y009510D01*
X013467Y009386D02*
X013590Y009386D01*
X013652Y009448D01*
X013774Y009633D02*
X013836Y009633D01*
X013959Y009510D01*
X013959Y009633D02*
X013959Y009386D01*
X014080Y009448D02*
X014142Y009386D01*
X014266Y009386D01*
X014327Y009448D01*
X014327Y009572D01*
X014266Y009633D01*
X014142Y009633D01*
X014080Y009572D01*
X014080Y009448D01*
X014449Y009386D02*
X014449Y009572D01*
X014510Y009633D01*
X014572Y009572D01*
X014572Y009386D01*
X014696Y009386D02*
X014696Y009633D01*
X014634Y009633D01*
X014572Y009572D01*
X014817Y009572D02*
X014817Y009510D01*
X015064Y009510D01*
X015064Y009448D02*
X015064Y009572D01*
X015002Y009633D01*
X014879Y009633D01*
X014817Y009572D01*
X015002Y009386D02*
X015064Y009448D01*
X015002Y009386D02*
X014879Y009386D01*
X015186Y009386D02*
X015248Y009448D01*
X015248Y009695D01*
X015309Y009633D02*
X015186Y009633D01*
X015431Y009633D02*
X015555Y009633D01*
X015493Y009695D02*
X015493Y009448D01*
X015431Y009386D01*
X015677Y009386D02*
X015800Y009386D01*
X015739Y009386D02*
X015739Y009633D01*
X015800Y009633D01*
X015922Y009572D02*
X015922Y009386D01*
X016169Y009386D02*
X016169Y009757D01*
X016290Y009757D02*
X016290Y009386D01*
X016414Y009510D01*
X016537Y009386D01*
X016537Y009757D01*
X016169Y009572D02*
X016107Y009633D01*
X015984Y009633D01*
X015922Y009572D01*
X015739Y009757D02*
X015739Y009818D01*
X015677Y009936D02*
X015739Y009998D01*
X015739Y010122D01*
X015677Y010183D01*
X015554Y010183D01*
X015492Y010122D01*
X015492Y009998D01*
X015554Y009936D01*
X015677Y009936D01*
X015861Y009936D02*
X016046Y009936D01*
X016107Y009998D01*
X016107Y010122D01*
X016046Y010183D01*
X015861Y010183D01*
X016229Y010122D02*
X016291Y010183D01*
X016414Y010183D01*
X016476Y010122D01*
X016476Y009998D01*
X016414Y009936D01*
X016291Y009936D01*
X016229Y009998D01*
X016229Y010122D01*
X016597Y010122D02*
X016597Y009936D01*
X016721Y009936D02*
X016721Y010122D01*
X016659Y010183D01*
X016597Y010122D01*
X016721Y010122D02*
X016782Y010183D01*
X016844Y010183D01*
X016844Y009936D01*
X017151Y009936D02*
X017151Y010183D01*
X017151Y010060D02*
X017027Y010183D01*
X016966Y010183D01*
X017272Y010122D02*
X017272Y010060D01*
X017519Y010060D01*
X017519Y010122D02*
X017457Y010183D01*
X017334Y010183D01*
X017272Y010122D01*
X017334Y009936D02*
X017457Y009936D01*
X017519Y009998D01*
X017519Y010122D01*
X017641Y010122D02*
X017641Y009936D01*
X017641Y010122D02*
X017702Y010183D01*
X017826Y010183D01*
X017887Y010122D01*
X017887Y010307D02*
X017887Y009936D01*
X018132Y009936D02*
X018132Y010307D01*
X018009Y010307D02*
X018256Y010307D01*
X018132Y009757D02*
X018009Y009633D01*
X018009Y009386D01*
X017887Y009386D02*
X017764Y009386D01*
X017826Y009386D02*
X017826Y009757D01*
X017887Y009757D01*
X018009Y009572D02*
X018256Y009572D01*
X018256Y009633D02*
X018132Y009757D01*
X018256Y009633D02*
X018256Y009386D01*
X017642Y009448D02*
X017642Y009572D01*
X017580Y009633D01*
X017457Y009633D01*
X017395Y009572D01*
X017395Y009510D01*
X017642Y009510D01*
X017642Y009448D02*
X017580Y009386D01*
X017457Y009386D01*
X017274Y009386D02*
X017027Y009633D01*
X017274Y009633D02*
X017027Y009386D01*
X015371Y009998D02*
X015309Y009936D01*
X015124Y009936D01*
X015124Y010183D01*
X015002Y010183D02*
X014817Y010183D01*
X014756Y010122D01*
X014756Y009998D01*
X014817Y009936D01*
X015002Y009936D01*
X015002Y009813D02*
X015002Y010183D01*
X015371Y010183D02*
X015371Y009998D01*
X014634Y009936D02*
X014511Y009936D01*
X014572Y009936D02*
X014572Y010307D01*
X014634Y010307D01*
X014389Y010122D02*
X014327Y010183D01*
X014203Y010183D01*
X014142Y010122D01*
X014142Y010060D01*
X014389Y010060D01*
X014389Y009998D02*
X014389Y010122D01*
X014389Y009998D02*
X014327Y009936D01*
X014203Y009936D01*
X013652Y009936D02*
X013467Y009936D01*
X013405Y009998D01*
X013405Y010245D01*
X013467Y010307D01*
X013652Y010307D01*
X013652Y009936D01*
X013284Y009936D02*
X013160Y009936D01*
X013222Y009936D02*
X013222Y010183D01*
X013284Y010183D01*
X013222Y010307D02*
X013222Y010368D01*
X012976Y010183D02*
X013038Y010122D01*
X013038Y009998D01*
X012976Y009936D01*
X012791Y009936D01*
X012791Y009875D02*
X012791Y010183D01*
X012976Y010183D01*
X012670Y010183D02*
X012608Y010183D01*
X012608Y009936D01*
X012670Y009936D02*
X012546Y009936D01*
X012363Y009998D02*
X012301Y009936D01*
X012363Y009998D02*
X012363Y010245D01*
X012424Y010183D02*
X012301Y010183D01*
X012179Y010183D02*
X012117Y010183D01*
X012117Y009936D01*
X012179Y009936D02*
X012055Y009936D01*
X011933Y009936D02*
X011686Y009936D01*
X011565Y009998D02*
X011565Y010122D01*
X011503Y010183D01*
X011380Y010183D01*
X011318Y010122D01*
X011318Y010060D01*
X011565Y010060D01*
X011565Y009998D02*
X011503Y009936D01*
X011380Y009936D01*
X011503Y009818D02*
X011503Y009695D01*
X011565Y009633D01*
X011381Y009633D02*
X011257Y009757D01*
X011257Y009386D01*
X011134Y009386D02*
X011381Y009386D01*
X011013Y009386D02*
X010766Y009633D01*
X010766Y009695D01*
X010827Y009757D01*
X010951Y009757D01*
X011013Y009695D01*
X011197Y009936D02*
X011197Y010183D01*
X011197Y010060D02*
X011073Y010183D01*
X011012Y010183D01*
X011686Y010183D02*
X011933Y009936D01*
X012055Y009757D02*
X012302Y009757D01*
X012302Y009386D01*
X012055Y009386D01*
X012423Y009386D02*
X012670Y009386D01*
X012670Y009757D01*
X012423Y009757D01*
X012302Y009572D02*
X012178Y009572D01*
X012547Y009572D02*
X012670Y009572D01*
X012853Y009813D02*
X012791Y009875D01*
X012853Y009813D02*
X012915Y009813D01*
X011933Y010183D02*
X011686Y010183D01*
X012117Y010307D02*
X012117Y010368D01*
X012608Y010368D02*
X012608Y010307D01*
X010522Y010183D02*
X010522Y009936D01*
X010522Y010060D02*
X010398Y010183D01*
X010336Y010183D01*
X010215Y010183D02*
X010091Y010307D01*
X010091Y009936D01*
X009968Y009936D02*
X010215Y009936D01*
X009846Y009936D02*
X009785Y009936D01*
X009785Y009998D01*
X009846Y009998D01*
X009846Y009936D01*
X009662Y009998D02*
X009415Y010245D01*
X009415Y009998D01*
X009477Y009936D01*
X009601Y009936D01*
X009662Y009998D01*
X009662Y010245D01*
X009601Y010307D01*
X009477Y010307D01*
X009415Y010245D01*
X010766Y009386D02*
X011013Y009386D01*
D13*
X022281Y010491D03*
X022941Y010751D03*
X022661Y010911D03*
X022781Y011171D03*
X022721Y011191D03*
X023361Y011071D03*
X023341Y010911D03*
X023301Y010791D03*
X023461Y010791D03*
X023421Y010651D03*
X023721Y010471D03*
X023181Y010211D03*
X023201Y010171D03*
X023221Y010151D03*
X023221Y010131D03*
X023261Y010071D03*
X023281Y010051D03*
X023441Y009331D03*
X023381Y009291D03*
X023581Y009371D03*
X023661Y009271D03*
X023701Y009251D03*
X023741Y009271D03*
X024621Y011051D03*
X024661Y011071D03*
X024721Y011091D03*
X024761Y011111D03*
X024861Y011151D03*
X024901Y011171D03*
X024961Y011191D03*
X025021Y011231D03*
X023341Y011331D03*
X023341Y011351D03*
X023261Y011371D03*
X023061Y011351D03*
X023081Y011571D03*
X023141Y011831D03*
X023241Y011851D03*
X023461Y012211D03*
X023401Y012251D03*
X023381Y012271D03*
X023341Y012291D03*
X023281Y012331D03*
X023241Y012291D03*
X023261Y012271D03*
D14*
X023181Y012331D03*
X023221Y011831D03*
X023081Y011771D03*
X022921Y011731D03*
X023061Y011551D03*
X023001Y011471D03*
X022921Y011451D03*
X022761Y011431D03*
X023041Y011331D03*
X023241Y011411D03*
X023341Y011451D03*
X023381Y011391D03*
X023401Y011371D03*
X023401Y011351D03*
X023401Y011331D03*
X022661Y011151D03*
X022641Y011111D03*
X022641Y011091D03*
X022641Y011071D03*
X022641Y011051D03*
X022641Y011031D03*
X022641Y011011D03*
X022641Y010991D03*
X022641Y010971D03*
X022661Y010951D03*
X022661Y010931D03*
X022821Y010891D03*
X022821Y010871D03*
X022841Y010851D03*
X023161Y010891D03*
X023201Y010911D03*
X023161Y010951D03*
X023561Y010811D03*
X023581Y010791D03*
X023601Y010811D03*
X023541Y010791D03*
X023561Y010611D03*
X023581Y010591D03*
X023601Y010571D03*
X023601Y010551D03*
X023621Y010511D03*
X023621Y010491D03*
X023621Y010471D03*
X023721Y010491D03*
X023721Y010511D03*
X023721Y010531D03*
X023721Y010551D03*
X023721Y010571D03*
X023721Y010591D03*
X023701Y010611D03*
X023701Y010631D03*
X023681Y010651D03*
X023301Y010511D03*
X023261Y010551D03*
X023141Y010451D03*
X022961Y010511D03*
X023001Y010591D03*
X022521Y010691D03*
X022461Y010631D03*
X022361Y010551D03*
X022341Y010531D03*
X022321Y010511D03*
X022081Y010571D03*
X022081Y010591D03*
X022081Y010611D03*
X022101Y010631D03*
X022061Y010551D03*
X022061Y010531D03*
X022061Y010511D03*
X022041Y010491D03*
X022061Y010811D03*
X022061Y010831D03*
X022041Y010851D03*
X022041Y010871D03*
X022021Y010891D03*
X022021Y010911D03*
X022001Y010931D03*
X022001Y010951D03*
X021981Y010971D03*
X021981Y010991D03*
X022201Y011071D03*
X023301Y009971D03*
X023361Y009871D03*
X023361Y009851D03*
X023361Y009831D03*
X023361Y009811D03*
X023361Y009791D03*
X023361Y009771D03*
X023361Y009751D03*
X023361Y009731D03*
X023361Y009711D03*
X023361Y009691D03*
X023361Y009671D03*
X023361Y009651D03*
X023361Y009631D03*
X023361Y009611D03*
X023401Y009511D03*
X023401Y009491D03*
X023421Y009431D03*
X023401Y009411D03*
X023461Y009431D03*
X023461Y009451D03*
X023481Y009491D03*
X023481Y009391D03*
X023481Y009371D03*
X023541Y009351D03*
X023581Y009351D03*
X023621Y009391D03*
X023641Y009411D03*
X023621Y009431D03*
X023621Y009471D03*
X023621Y009491D03*
X023701Y009451D03*
X023701Y009431D03*
X023701Y009411D03*
X023781Y009351D03*
X023781Y009331D03*
X023781Y009311D03*
X023781Y009291D03*
X023641Y009311D03*
X023341Y009311D03*
X023281Y009351D03*
X023261Y009391D03*
X023581Y009571D03*
X023741Y009951D03*
D15*
X023361Y010171D03*
X023261Y010471D03*
X023841Y010511D03*
X022841Y010811D03*
X023361Y010971D03*
X023361Y011091D03*
X023361Y011311D03*
X023101Y011371D03*
X023481Y011551D03*
X024661Y011291D03*
X022741Y012151D03*
X023321Y012231D03*
X023681Y009551D03*
X023601Y009291D03*
D16*
X023551Y009311D03*
X023551Y009331D03*
X023471Y009351D03*
X023471Y009411D03*
X023471Y009471D03*
X023471Y009511D03*
X023391Y009531D03*
X023371Y009591D03*
X023551Y009631D03*
X023571Y009591D03*
X023591Y009551D03*
X023691Y009471D03*
X023711Y009391D03*
X023751Y009371D03*
X023411Y009311D03*
X023311Y009331D03*
X023271Y009371D03*
X023291Y009411D03*
X023251Y010091D03*
X023231Y010111D03*
X023191Y010191D03*
X023171Y010231D03*
X023151Y010251D03*
X022931Y010291D03*
X022931Y010311D03*
X022931Y010331D03*
X022931Y010351D03*
X022931Y010371D03*
X022931Y010391D03*
X022931Y010411D03*
X022931Y010431D03*
X022971Y010531D03*
X022971Y010551D03*
X022991Y010571D03*
X023011Y010611D03*
X023031Y010631D03*
X022911Y010771D03*
X022891Y010791D03*
X022851Y010831D03*
X022811Y010991D03*
X022651Y011131D03*
X022671Y011171D03*
X022411Y010951D03*
X022451Y010931D03*
X022491Y010911D03*
X022371Y010971D03*
X022351Y010991D03*
X022311Y011011D03*
X022271Y011031D03*
X021991Y011011D03*
X022531Y010711D03*
X022491Y010671D03*
X022471Y010651D03*
X022431Y010611D03*
X022411Y010591D03*
X022391Y010571D03*
X022111Y010651D03*
X023251Y010531D03*
X023291Y010571D03*
X023611Y010531D03*
X023631Y010451D03*
X023631Y010431D03*
X023571Y010771D03*
X023431Y010911D03*
X023331Y010851D03*
X023311Y010811D03*
X023651Y011151D03*
X023271Y011311D03*
X023271Y011331D03*
X023271Y011391D03*
X023291Y011411D03*
X023331Y011371D03*
X023371Y011411D03*
X023191Y011371D03*
X023011Y011371D03*
X022991Y011351D03*
X022991Y011331D03*
X022911Y011351D03*
X022771Y011411D03*
X022751Y011451D03*
X022931Y011751D03*
X022971Y011731D03*
X022991Y011751D03*
X023031Y011731D03*
X023051Y011751D03*
X023151Y011751D03*
X023171Y011771D03*
X023191Y011791D03*
X023211Y011811D03*
X023171Y011851D03*
X023431Y012231D03*
X023211Y012311D03*
X023171Y012351D03*
X023151Y012411D03*
X025011Y011211D03*
D17*
X024811Y011131D03*
X023591Y010831D03*
X023451Y010811D03*
X022851Y010751D03*
X023451Y010671D03*
X023251Y010451D03*
X023811Y010471D03*
X023831Y010491D03*
X023291Y010031D03*
X023451Y009591D03*
X023471Y009531D03*
X023691Y009491D03*
X022811Y011011D03*
X022931Y011211D03*
X022831Y011351D03*
X022831Y011431D03*
X022831Y011451D03*
X022991Y011451D03*
X023331Y011431D03*
X023091Y011591D03*
X022931Y011711D03*
X022711Y012171D03*
X023171Y012391D03*
X023251Y012351D03*
X023311Y012311D03*
X023291Y012251D03*
X022071Y011031D03*
D18*
X022811Y011031D03*
X022891Y011171D03*
X022811Y011211D03*
X022871Y011331D03*
X022851Y011371D03*
X022791Y011471D03*
X022791Y011491D03*
X022911Y011691D03*
X023111Y011611D03*
X023131Y011631D03*
X023231Y011871D03*
X023271Y011891D03*
X023351Y011851D03*
X023351Y011931D03*
X022771Y012131D03*
X023191Y012371D03*
X023151Y011331D03*
X024791Y011271D03*
X024911Y011251D03*
X023311Y010671D03*
X023851Y010551D03*
X023851Y010531D03*
X022991Y010231D03*
X023451Y009771D03*
X023451Y009751D03*
X023451Y009631D03*
X023451Y009611D03*
X023431Y009571D03*
X023431Y009551D03*
X023671Y009571D03*
X023671Y009591D03*
X023671Y009511D03*
D19*
X023661Y009531D03*
X023461Y009711D03*
X023461Y009731D03*
X023761Y010431D03*
X023781Y010451D03*
X023861Y010571D03*
X023481Y010691D03*
X023081Y010551D03*
X023081Y010531D03*
X022801Y011051D03*
X023361Y011111D03*
X023121Y011311D03*
X022961Y011431D03*
X022881Y011291D03*
X022841Y011571D03*
X022841Y011591D03*
X022861Y011611D03*
X022861Y011631D03*
X022881Y011651D03*
X022901Y011671D03*
X022961Y011771D03*
X022841Y012091D03*
X022801Y012111D03*
X023341Y012211D03*
X024521Y011311D03*
X022181Y011051D03*
D20*
X022871Y011231D03*
X022871Y011391D03*
X022911Y011411D03*
X023231Y011511D03*
X022971Y011831D03*
X023631Y011791D03*
X023871Y010651D03*
X023871Y010631D03*
X023651Y009731D03*
X023651Y009611D03*
D21*
X023671Y009631D03*
X023671Y009651D03*
X023471Y009671D03*
X023471Y009691D03*
X023231Y010491D03*
X023111Y010571D03*
X023111Y010651D03*
X023051Y010711D03*
X022931Y010731D03*
X023291Y010651D03*
X023011Y010491D03*
X023011Y010471D03*
X023011Y010451D03*
X023871Y010591D03*
X023871Y010611D03*
X023331Y011271D03*
X023331Y011291D03*
X023211Y011351D03*
X022831Y011551D03*
X022811Y011531D03*
X022811Y011511D03*
X023351Y011831D03*
X022851Y012071D03*
D22*
X022881Y012051D03*
X022901Y012031D03*
X023641Y011551D03*
X023121Y011411D03*
X023061Y011291D03*
X022901Y011311D03*
X022881Y011251D03*
X022821Y011071D03*
X023361Y011131D03*
X022601Y010891D03*
X023121Y010671D03*
X022121Y010471D03*
X023001Y010251D03*
X023081Y010291D03*
X023661Y009711D03*
X023661Y009691D03*
X023661Y009671D03*
X023481Y009651D03*
X024441Y011291D03*
D23*
X023541Y011271D03*
X023541Y011251D03*
X023521Y011231D03*
X023181Y011451D03*
X023161Y011431D03*
X023121Y011391D03*
X023201Y011471D03*
X023221Y011491D03*
X023261Y011531D03*
X023361Y011811D03*
X023621Y011811D03*
X023001Y011791D03*
X022981Y011851D03*
X022941Y011991D03*
X022921Y012011D03*
X023401Y012191D03*
X023541Y010851D03*
X023541Y010711D03*
X023401Y010831D03*
X023281Y010711D03*
X023861Y010671D03*
X022121Y010671D03*
X023641Y009771D03*
X023641Y009751D03*
D24*
X023571Y009791D03*
X023571Y009871D03*
X023151Y010391D03*
X023211Y010691D03*
X023811Y010791D03*
X023571Y011891D03*
D25*
X023561Y011511D03*
X023561Y011451D03*
X024341Y011251D03*
X023821Y010811D03*
X023401Y010731D03*
X023141Y010431D03*
X023141Y010411D03*
X023541Y010071D03*
X023541Y010051D03*
X023541Y010031D03*
X023561Y010091D03*
X023561Y009851D03*
X023581Y009811D03*
D26*
X023571Y009831D03*
X023571Y010111D03*
X023191Y010591D03*
X023211Y010611D03*
X023231Y010631D03*
X023411Y010751D03*
X023831Y010711D03*
X023831Y010831D03*
X023231Y011231D03*
X023571Y011411D03*
X023571Y011431D03*
X023571Y011531D03*
X023591Y011871D03*
X023571Y011971D03*
X023571Y011991D03*
D27*
X023201Y011251D03*
X024281Y011231D03*
X023501Y009991D03*
X023541Y009911D03*
X023541Y009891D03*
D28*
X023531Y009931D03*
X023491Y010011D03*
X023191Y010331D03*
D29*
X023171Y010351D03*
X023491Y009951D03*
X023791Y010731D03*
X023791Y010751D03*
D30*
X023801Y010771D03*
X023421Y011151D03*
X023001Y011271D03*
X023541Y011471D03*
X023541Y011491D03*
X022541Y010851D03*
X022181Y010691D03*
X023161Y010371D03*
X023521Y009971D03*
D31*
X023581Y010131D03*
X023581Y010151D03*
X023601Y010171D03*
X023841Y010851D03*
X022841Y011131D03*
X023581Y011371D03*
X023581Y011391D03*
X023601Y011931D03*
X023581Y011951D03*
X023561Y012011D03*
X023541Y012031D03*
X023501Y012091D03*
D32*
X023421Y011171D03*
X023521Y010191D03*
D33*
X023511Y010211D03*
X023451Y011631D03*
D34*
X023451Y011591D03*
X023451Y011751D03*
X023511Y010231D03*
D35*
X023501Y010251D03*
X023501Y010271D03*
X023441Y011571D03*
D36*
X023281Y011551D03*
X023581Y011331D03*
X023601Y011831D03*
X023361Y011791D03*
X023001Y011811D03*
X023421Y012171D03*
X023441Y012151D03*
X022581Y010871D03*
X023401Y010771D03*
X023121Y010511D03*
X023041Y010271D03*
X023681Y010351D03*
D37*
X023501Y010291D03*
X023381Y011671D03*
X023381Y011691D03*
X023401Y011711D03*
X023421Y011731D03*
D38*
X024091Y011151D03*
X023391Y010311D03*
D39*
X023651Y010331D03*
X022851Y011111D03*
X023571Y011351D03*
X023591Y011851D03*
X023531Y012051D03*
X023511Y012071D03*
X023471Y012111D03*
X023451Y012131D03*
D40*
X022951Y011971D03*
X022951Y011951D03*
X022971Y011931D03*
X022971Y011911D03*
X022971Y011891D03*
X022971Y011871D03*
X023551Y011291D03*
X023571Y011311D03*
X022871Y011151D03*
X022831Y011091D03*
X023871Y010691D03*
X023711Y010411D03*
X023711Y010391D03*
X023691Y010371D03*
X024391Y011271D03*
D41*
X024241Y011211D03*
X023401Y011191D03*
X023721Y010911D03*
X022501Y010831D03*
X022241Y010711D03*
X023441Y011611D03*
X023461Y011771D03*
X023501Y011911D03*
D42*
X022461Y010811D03*
X022301Y010731D03*
D43*
X022371Y010751D03*
X023691Y010931D03*
D44*
X022431Y010771D03*
D45*
X022441Y010791D03*
D46*
X023651Y010871D03*
D47*
X023641Y010891D03*
D48*
X023751Y010951D03*
X023871Y010971D03*
D49*
X023911Y010991D03*
D50*
X023961Y011011D03*
D51*
X023991Y011031D03*
D52*
X023951Y011051D03*
D53*
X023981Y011071D03*
D54*
X023981Y011091D03*
D55*
X023991Y011111D03*
D56*
X023981Y011131D03*
D57*
X024141Y011171D03*
D58*
X024191Y011191D03*
X023371Y011651D03*
D59*
X023391Y011211D03*
M02*
