G75*
G70*
%OFA0B0*%
%FSLAX24Y24*%
%IPPOS*%
%LPD*%
%AMOC8*
5,1,8,0,0,1.08239X$1,22.5*
%
%ADD10R,0.1306X0.1306*%
%ADD11R,0.0562X0.0562*%
%ADD12R,0.0476X0.0476*%
%ADD13OC8,0.0630*%
%ADD14OC8,0.0520*%
%ADD15C,0.0600*%
%ADD16OC8,0.0560*%
%ADD17R,0.0800X0.0800*%
%ADD18C,0.0800*%
%ADD19C,0.0160*%
%ADD20C,0.0356*%
%ADD21C,0.0300*%
%ADD22R,0.0356X0.0356*%
%ADD23C,0.0240*%
%ADD24C,0.0100*%
%ADD25C,0.0400*%
%ADD26C,0.0080*%
D10*
X004081Y003911D03*
X004081Y008651D03*
D11*
X005148Y006774D03*
X005935Y006774D03*
X005935Y005789D03*
X005148Y005789D03*
D12*
X006723Y006281D03*
X006723Y005199D03*
X006723Y004510D03*
X006723Y007364D03*
X006723Y008053D03*
X031081Y007531D03*
X031081Y006531D03*
X031081Y005531D03*
D13*
X029081Y005031D03*
X028081Y005031D03*
X027081Y005031D03*
X026081Y005031D03*
X025081Y005031D03*
X024081Y005031D03*
X023081Y005031D03*
X022081Y005031D03*
X022081Y008031D03*
X023081Y008031D03*
X024081Y008031D03*
X025081Y008031D03*
X026081Y008031D03*
X027081Y008031D03*
X028081Y008031D03*
X029081Y008031D03*
D14*
X028081Y003531D03*
X025081Y003531D03*
D15*
X020131Y005531D02*
X019531Y005531D01*
X019531Y006531D02*
X020131Y006531D01*
X020131Y007531D02*
X019531Y007531D01*
D16*
X014331Y007281D03*
X013331Y007281D03*
X013331Y006281D03*
X014331Y006281D03*
X014331Y005281D03*
X013331Y005281D03*
D17*
X035831Y003031D03*
X035831Y007781D03*
D18*
X035831Y009750D03*
X035831Y005000D03*
D19*
X001561Y000361D02*
X001561Y012501D01*
X040201Y012501D01*
X040201Y000361D01*
X001561Y000361D01*
X001561Y000499D02*
X040201Y000499D01*
X040201Y000657D02*
X039378Y000657D01*
X039292Y000621D02*
X039590Y000745D01*
X039817Y000973D01*
X039941Y001270D01*
X039941Y001593D01*
X039817Y001890D01*
X039590Y002118D01*
X039292Y002241D01*
X038970Y002241D01*
X038672Y002118D01*
X038444Y001890D01*
X038321Y001593D01*
X038321Y001270D01*
X038444Y000973D01*
X038672Y000745D01*
X038970Y000621D01*
X039292Y000621D01*
X038884Y000657D02*
X002878Y000657D01*
X002792Y000621D02*
X003090Y000745D01*
X003317Y000973D01*
X003441Y001270D01*
X003441Y001593D01*
X003317Y001890D01*
X003090Y002118D01*
X002792Y002241D01*
X002470Y002241D01*
X002172Y002118D01*
X001944Y001890D01*
X001821Y001593D01*
X001821Y001270D01*
X001944Y000973D01*
X002172Y000745D01*
X002470Y000621D01*
X002792Y000621D01*
X002384Y000657D02*
X001561Y000657D01*
X001561Y000816D02*
X002101Y000816D01*
X001944Y000974D02*
X001561Y000974D01*
X001561Y001133D02*
X001878Y001133D01*
X001821Y001291D02*
X001561Y001291D01*
X001561Y001450D02*
X001821Y001450D01*
X001827Y001608D02*
X001561Y001608D01*
X001561Y001767D02*
X001893Y001767D01*
X001979Y001925D02*
X001561Y001925D01*
X001561Y002084D02*
X002138Y002084D01*
X001561Y002242D02*
X026832Y002242D01*
X026866Y002209D02*
X027005Y002151D01*
X033505Y002151D01*
X033656Y002151D01*
X033796Y002209D01*
X033903Y002316D01*
X033961Y002456D01*
X033961Y004651D01*
X035359Y004651D01*
X035502Y004508D01*
X035715Y004420D01*
X035946Y004420D01*
X036159Y004508D01*
X036322Y004671D01*
X036411Y004885D01*
X036411Y005115D01*
X036322Y005328D01*
X036159Y005492D01*
X035946Y005580D01*
X035715Y005580D01*
X035502Y005492D01*
X035422Y005411D01*
X033505Y005411D01*
X033366Y005354D01*
X033259Y005247D01*
X033201Y005107D01*
X033201Y004956D01*
X033201Y002911D01*
X027461Y002911D01*
X027461Y004711D01*
X027576Y004826D01*
X027576Y005236D01*
X027286Y005526D01*
X026876Y005526D01*
X026586Y005236D01*
X026586Y004826D01*
X026701Y004711D01*
X026701Y002607D01*
X026701Y002456D01*
X026759Y002316D01*
X026866Y002209D01*
X026723Y002401D02*
X001561Y002401D01*
X001561Y002560D02*
X026701Y002560D01*
X026701Y002718D02*
X001561Y002718D01*
X001561Y002877D02*
X026701Y002877D01*
X026701Y003035D02*
X001561Y003035D01*
X001561Y003194D02*
X003259Y003194D01*
X003260Y003189D02*
X003284Y003148D01*
X003317Y003115D01*
X003359Y003091D01*
X003404Y003079D01*
X004001Y003079D01*
X004001Y003831D01*
X004161Y003831D01*
X004161Y003079D01*
X004757Y003079D01*
X004803Y003091D01*
X004844Y003115D01*
X004878Y003148D01*
X004901Y003189D01*
X004914Y003235D01*
X004914Y003831D01*
X004161Y003831D01*
X004161Y003991D01*
X004914Y003991D01*
X004914Y004588D01*
X004901Y004634D01*
X004893Y004649D01*
X005161Y004380D01*
X005161Y003768D01*
X005077Y003684D01*
X005023Y003553D01*
X005023Y003410D01*
X005077Y003279D01*
X005178Y003178D01*
X005310Y003123D01*
X005452Y003123D01*
X005584Y003178D01*
X005670Y003265D01*
X005726Y003209D01*
X005865Y003151D01*
X017755Y003151D01*
X017906Y003151D01*
X018046Y003209D01*
X018153Y003316D01*
X018211Y003456D01*
X018211Y004607D01*
X018153Y004747D01*
X018046Y004854D01*
X017906Y004911D01*
X017755Y004911D01*
X017616Y004854D01*
X017509Y004747D01*
X017451Y004607D01*
X017451Y003911D01*
X007919Y003911D01*
X007939Y003960D01*
X007939Y004103D01*
X007884Y004234D01*
X007801Y004318D01*
X007801Y004595D01*
X007884Y004679D01*
X007939Y004810D01*
X007939Y004953D01*
X007884Y005084D01*
X007784Y005185D01*
X007652Y005239D01*
X007510Y005239D01*
X007378Y005185D01*
X007277Y005084D01*
X007223Y004953D01*
X007223Y004810D01*
X007277Y004679D01*
X007361Y004595D01*
X007361Y004318D01*
X007277Y004234D01*
X007223Y004103D01*
X007223Y003960D01*
X007243Y003911D01*
X006321Y003911D01*
X006321Y004181D01*
X006410Y004092D01*
X007035Y004092D01*
X007140Y004197D01*
X007140Y004822D01*
X007108Y004854D01*
X007140Y004886D01*
X007140Y005511D01*
X007035Y005616D01*
X006410Y005616D01*
X006396Y005602D01*
X006396Y005878D01*
X006410Y005864D01*
X007035Y005864D01*
X007140Y005969D01*
X007140Y006388D01*
X007402Y006650D01*
X007531Y006779D01*
X007531Y007801D01*
X008844Y007801D01*
X008777Y007734D01*
X008723Y007603D01*
X008723Y007460D01*
X008777Y007329D01*
X008861Y007245D01*
X008861Y007022D01*
X008990Y006893D01*
X009172Y006893D01*
X009301Y007022D01*
X009301Y007245D01*
X009367Y007311D01*
X010190Y007311D01*
X012440Y005061D01*
X012622Y005061D01*
X012900Y005061D01*
X013140Y004821D01*
X013521Y004821D01*
X013791Y005091D01*
X013791Y005472D01*
X013521Y005741D01*
X013140Y005741D01*
X012900Y005501D01*
X012622Y005501D01*
X010501Y007623D01*
X010372Y007751D01*
X009367Y007751D01*
X009317Y007801D01*
X010804Y007801D01*
X010878Y007728D01*
X011010Y007673D01*
X011152Y007673D01*
X011284Y007728D01*
X011384Y007829D01*
X011386Y007833D01*
X014111Y007833D01*
X014111Y007712D01*
X013871Y007472D01*
X013871Y007091D01*
X014140Y006821D01*
X014521Y006821D01*
X014791Y007091D01*
X014791Y007472D01*
X014551Y007712D01*
X014551Y008144D01*
X014422Y008273D01*
X014240Y008273D01*
X011346Y008273D01*
X011307Y008311D01*
X014861Y008311D01*
X014861Y006501D01*
X014761Y006501D01*
X014521Y006741D01*
X014140Y006741D01*
X013871Y006472D01*
X013871Y006091D01*
X014140Y005821D01*
X014521Y005821D01*
X014761Y006061D01*
X014990Y006061D01*
X015172Y006061D01*
X015301Y006190D01*
X015301Y008440D01*
X015301Y008623D01*
X015172Y008751D01*
X010367Y008751D01*
X010284Y008835D01*
X010152Y008889D01*
X010010Y008889D01*
X009878Y008835D01*
X009804Y008761D01*
X008607Y008761D01*
X008534Y008835D01*
X008402Y008889D01*
X008260Y008889D01*
X008128Y008835D01*
X008104Y008811D01*
X006086Y008811D01*
X005951Y008677D01*
X005951Y008486D01*
X005951Y007611D01*
X004486Y007611D01*
X004351Y007477D01*
X004351Y007286D01*
X004351Y005885D01*
X004351Y005812D01*
X004279Y005884D01*
X004279Y006184D01*
X004173Y006289D01*
X003668Y006289D01*
X003563Y006184D01*
X003563Y005679D01*
X003668Y005573D01*
X003968Y005573D01*
X004818Y004723D01*
X004803Y004732D01*
X004757Y004744D01*
X004161Y004744D01*
X004161Y003991D01*
X004001Y003991D01*
X004001Y003831D01*
X003248Y003831D01*
X003248Y003235D01*
X003260Y003189D01*
X004001Y003194D02*
X004161Y003194D01*
X004161Y003352D02*
X004001Y003352D01*
X004001Y003511D02*
X004161Y003511D01*
X004161Y003669D02*
X004001Y003669D01*
X004001Y003828D02*
X004161Y003828D01*
X004161Y003986D02*
X005161Y003986D01*
X005161Y003828D02*
X004914Y003828D01*
X004914Y003669D02*
X005071Y003669D01*
X005023Y003511D02*
X004914Y003511D01*
X004914Y003352D02*
X005047Y003352D01*
X005162Y003194D02*
X004902Y003194D01*
X005599Y003194D02*
X005763Y003194D01*
X006321Y003986D02*
X007223Y003986D01*
X007240Y004145D02*
X007088Y004145D01*
X007140Y004304D02*
X007346Y004304D01*
X007361Y004462D02*
X007140Y004462D01*
X007140Y004621D02*
X007335Y004621D01*
X007826Y004621D02*
X017456Y004621D01*
X017451Y004462D02*
X007801Y004462D01*
X007815Y004304D02*
X017451Y004304D01*
X017451Y004145D02*
X007921Y004145D01*
X007939Y003986D02*
X017451Y003986D01*
X018211Y003986D02*
X026701Y003986D01*
X026701Y003828D02*
X025406Y003828D01*
X025521Y003714D02*
X025263Y003971D01*
X025081Y003971D01*
X025081Y003532D01*
X025081Y003532D01*
X025521Y003532D01*
X025521Y003714D01*
X025521Y003669D02*
X026701Y003669D01*
X026701Y003511D02*
X025521Y003511D01*
X025521Y003531D02*
X025081Y003531D01*
X025081Y003091D01*
X025263Y003091D01*
X025521Y003349D01*
X025521Y003531D01*
X025521Y003352D02*
X026701Y003352D01*
X026701Y003194D02*
X025365Y003194D01*
X025081Y003194D02*
X025081Y003194D01*
X025081Y003091D02*
X025081Y003531D01*
X025081Y003531D01*
X025081Y003532D01*
X025081Y003971D01*
X024899Y003971D01*
X024641Y003714D01*
X024641Y003532D01*
X025080Y003532D01*
X025080Y003531D01*
X024641Y003531D01*
X024641Y003349D01*
X024899Y003091D01*
X025081Y003091D01*
X024796Y003194D02*
X018009Y003194D01*
X018168Y003352D02*
X024641Y003352D01*
X024641Y003511D02*
X018211Y003511D01*
X018211Y003669D02*
X024641Y003669D01*
X024755Y003828D02*
X018211Y003828D01*
X018211Y004145D02*
X026701Y004145D01*
X026701Y004304D02*
X018211Y004304D01*
X018211Y004462D02*
X026701Y004462D01*
X026701Y004621D02*
X026370Y004621D01*
X026286Y004536D02*
X026576Y004826D01*
X026576Y005031D01*
X026081Y005031D01*
X026081Y004536D01*
X026286Y004536D01*
X026081Y004536D02*
X026081Y005031D01*
X026081Y005031D01*
X026081Y005032D01*
X026081Y005032D01*
X026081Y005526D01*
X026286Y005526D01*
X026576Y005236D01*
X026576Y005032D01*
X026081Y005032D01*
X026081Y005526D01*
X025876Y005526D01*
X025586Y005236D01*
X025586Y005032D01*
X026080Y005032D01*
X026080Y005031D01*
X025586Y005031D01*
X025586Y004826D01*
X025876Y004536D01*
X026081Y004536D01*
X026081Y004621D02*
X026081Y004621D01*
X025792Y004621D02*
X025370Y004621D01*
X025286Y004536D02*
X025576Y004826D01*
X025576Y005236D01*
X025286Y005526D01*
X024876Y005526D01*
X024586Y005236D01*
X024586Y004826D01*
X024876Y004536D01*
X025286Y004536D01*
X024792Y004621D02*
X024370Y004621D01*
X024286Y004536D02*
X024576Y004826D01*
X024576Y005031D01*
X024081Y005031D01*
X024081Y004536D01*
X024286Y004536D01*
X024081Y004536D02*
X024081Y005031D01*
X024081Y005031D01*
X024081Y005032D01*
X024081Y005032D01*
X024081Y005526D01*
X024286Y005526D01*
X024576Y005236D01*
X024576Y005032D01*
X024081Y005032D01*
X024081Y005526D01*
X023876Y005526D01*
X023586Y005236D01*
X023586Y005032D01*
X024080Y005032D01*
X024080Y005031D01*
X023586Y005031D01*
X023586Y004826D01*
X023876Y004536D01*
X024081Y004536D01*
X024081Y004621D02*
X024081Y004621D01*
X023792Y004621D02*
X023370Y004621D01*
X023286Y004536D02*
X023576Y004826D01*
X023576Y005236D01*
X023286Y005526D01*
X022876Y005526D01*
X022586Y005236D01*
X022586Y004826D01*
X022876Y004536D01*
X023286Y004536D01*
X022792Y004621D02*
X022370Y004621D01*
X022286Y004536D02*
X022576Y004826D01*
X022576Y005236D01*
X022286Y005526D01*
X021876Y005526D01*
X021586Y005236D01*
X021586Y004826D01*
X021876Y004536D01*
X022286Y004536D01*
X021792Y004621D02*
X018205Y004621D01*
X018120Y004779D02*
X021633Y004779D01*
X021586Y004938D02*
X016744Y004938D01*
X016796Y004959D02*
X016903Y005066D01*
X016961Y005206D01*
X016961Y005357D01*
X016961Y008651D01*
X026701Y008651D01*
X026701Y008351D01*
X026586Y008236D01*
X026586Y007826D01*
X026876Y007536D01*
X027286Y007536D01*
X027576Y007826D01*
X027576Y008236D01*
X027461Y008351D01*
X027461Y008956D01*
X027461Y009107D01*
X027403Y009247D01*
X027296Y009354D01*
X027156Y009411D01*
X016656Y009411D01*
X016505Y009411D01*
X016366Y009354D01*
X016259Y009247D01*
X016201Y009107D01*
X016201Y005661D01*
X014601Y005661D01*
X014521Y005741D01*
X014140Y005741D01*
X013871Y005472D01*
X013871Y005091D01*
X014140Y004821D01*
X014521Y004821D01*
X014601Y004901D01*
X016656Y004901D01*
X016796Y004959D01*
X016915Y005096D02*
X019327Y005096D01*
X019259Y005124D02*
X019435Y005051D01*
X020226Y005051D01*
X020403Y005124D01*
X020538Y005259D01*
X020611Y005436D01*
X020611Y005627D01*
X020538Y005803D01*
X020403Y005938D01*
X020226Y006011D01*
X019435Y006011D01*
X019259Y005938D01*
X019124Y005803D01*
X019051Y005627D01*
X019051Y005436D01*
X019124Y005259D01*
X019259Y005124D01*
X019129Y005255D02*
X016961Y005255D01*
X016961Y005413D02*
X019060Y005413D01*
X019051Y005572D02*
X016961Y005572D01*
X016961Y005730D02*
X019094Y005730D01*
X019210Y005889D02*
X016961Y005889D01*
X016961Y006048D02*
X040201Y006048D01*
X040201Y005889D02*
X031453Y005889D01*
X031499Y005844D02*
X031393Y005949D01*
X030768Y005949D01*
X030663Y005844D01*
X030663Y005219D01*
X030768Y005114D01*
X031393Y005114D01*
X031499Y005219D01*
X031499Y005844D01*
X031499Y005730D02*
X040201Y005730D01*
X040201Y005572D02*
X035965Y005572D01*
X035696Y005572D02*
X031499Y005572D01*
X031499Y005413D02*
X035424Y005413D01*
X036238Y005413D02*
X040201Y005413D01*
X040201Y005255D02*
X036353Y005255D01*
X036411Y005096D02*
X040201Y005096D01*
X040201Y004938D02*
X036411Y004938D01*
X036367Y004779D02*
X040201Y004779D01*
X040201Y004621D02*
X036272Y004621D01*
X036048Y004462D02*
X040201Y004462D01*
X040201Y004304D02*
X033961Y004304D01*
X033961Y004462D02*
X035614Y004462D01*
X035390Y004621D02*
X033961Y004621D01*
X033201Y004621D02*
X029370Y004621D01*
X029286Y004536D02*
X029576Y004826D01*
X029576Y005236D01*
X029286Y005526D01*
X028876Y005526D01*
X028586Y005236D01*
X028586Y004826D01*
X028876Y004536D01*
X029286Y004536D01*
X029529Y004779D02*
X033201Y004779D01*
X033201Y004938D02*
X029576Y004938D01*
X029576Y005096D02*
X033201Y005096D01*
X033267Y005255D02*
X031499Y005255D01*
X030663Y005255D02*
X029557Y005255D01*
X029399Y005413D02*
X030663Y005413D01*
X030663Y005572D02*
X020611Y005572D01*
X020601Y005413D02*
X021763Y005413D01*
X021604Y005255D02*
X020533Y005255D01*
X020334Y005096D02*
X021586Y005096D01*
X022557Y005255D02*
X022604Y005255D01*
X022586Y005096D02*
X022576Y005096D01*
X022576Y004938D02*
X022586Y004938D01*
X022633Y004779D02*
X022529Y004779D01*
X023529Y004779D02*
X023633Y004779D01*
X023586Y004938D02*
X023576Y004938D01*
X023576Y005096D02*
X023586Y005096D01*
X023604Y005255D02*
X023557Y005255D01*
X024081Y005255D02*
X024081Y005255D01*
X024081Y005096D02*
X024081Y005096D01*
X024081Y004938D02*
X024081Y004938D01*
X024081Y004779D02*
X024081Y004779D01*
X024529Y004779D02*
X024633Y004779D01*
X024586Y004938D02*
X024576Y004938D01*
X024576Y005096D02*
X024586Y005096D01*
X024604Y005255D02*
X024557Y005255D01*
X024399Y005413D02*
X024763Y005413D01*
X025399Y005413D02*
X025763Y005413D01*
X026081Y005413D02*
X026081Y005413D01*
X026399Y005413D02*
X026763Y005413D01*
X026604Y005255D02*
X026557Y005255D01*
X026576Y005096D02*
X026586Y005096D01*
X026576Y004938D02*
X026586Y004938D01*
X026633Y004779D02*
X026529Y004779D01*
X026081Y004779D02*
X026081Y004779D01*
X026081Y004938D02*
X026081Y004938D01*
X026081Y005096D02*
X026081Y005096D01*
X026081Y005255D02*
X026081Y005255D01*
X025604Y005255D02*
X025557Y005255D01*
X025576Y005096D02*
X025586Y005096D01*
X025576Y004938D02*
X025586Y004938D01*
X025633Y004779D02*
X025529Y004779D01*
X024081Y005413D02*
X024081Y005413D01*
X023763Y005413D02*
X023399Y005413D01*
X022763Y005413D02*
X022399Y005413D01*
X020568Y005730D02*
X030663Y005730D01*
X030708Y005889D02*
X020452Y005889D01*
X020403Y006124D02*
X020226Y006051D01*
X019435Y006051D01*
X019259Y006124D01*
X019124Y006259D01*
X019051Y006436D01*
X019051Y006627D01*
X019124Y006803D01*
X019259Y006938D01*
X019435Y007011D01*
X020226Y007011D01*
X020403Y006938D01*
X020538Y006803D01*
X020611Y006627D01*
X020611Y006436D01*
X020538Y006259D01*
X020403Y006124D01*
X020484Y006206D02*
X030676Y006206D01*
X030663Y006219D02*
X030768Y006114D01*
X031393Y006114D01*
X031499Y006219D01*
X031499Y006844D01*
X031393Y006949D01*
X030768Y006949D01*
X030663Y006844D01*
X030663Y006219D01*
X030663Y006365D02*
X020581Y006365D01*
X020611Y006523D02*
X030663Y006523D01*
X030663Y006682D02*
X020588Y006682D01*
X020501Y006840D02*
X030663Y006840D01*
X030768Y007114D02*
X031393Y007114D01*
X031499Y007219D01*
X031499Y007844D01*
X031393Y007949D01*
X030768Y007949D01*
X030663Y007844D01*
X030663Y007219D01*
X030768Y007114D01*
X030725Y007157D02*
X020436Y007157D01*
X020403Y007124D02*
X020538Y007259D01*
X020611Y007436D01*
X020611Y007627D01*
X020538Y007803D01*
X020403Y007938D01*
X020226Y008011D01*
X019435Y008011D01*
X019259Y007938D01*
X019124Y007803D01*
X019051Y007627D01*
X019051Y007436D01*
X019124Y007259D01*
X019259Y007124D01*
X019435Y007051D01*
X020226Y007051D01*
X020403Y007124D01*
X020257Y006999D02*
X040201Y006999D01*
X040201Y007157D02*
X031437Y007157D01*
X031499Y007316D02*
X035262Y007316D01*
X035263Y007312D02*
X035287Y007271D01*
X035320Y007237D01*
X035361Y007214D01*
X035407Y007201D01*
X035783Y007201D01*
X035783Y007733D01*
X035879Y007733D01*
X035879Y007201D01*
X036254Y007201D01*
X036300Y007214D01*
X036341Y007237D01*
X036375Y007271D01*
X036398Y007312D01*
X036411Y007358D01*
X036411Y007733D01*
X035879Y007733D01*
X035879Y007829D01*
X036411Y007829D01*
X036411Y008205D01*
X036398Y008251D01*
X036375Y008292D01*
X036341Y008325D01*
X036300Y008349D01*
X036254Y008361D01*
X035879Y008361D01*
X035879Y007830D01*
X035783Y007830D01*
X035783Y008361D01*
X035407Y008361D01*
X035361Y008349D01*
X035320Y008325D01*
X035287Y008292D01*
X035263Y008251D01*
X035251Y008205D01*
X035251Y007829D01*
X035783Y007829D01*
X035783Y007733D01*
X035251Y007733D01*
X035251Y007358D01*
X035263Y007312D01*
X035251Y007474D02*
X031499Y007474D01*
X031499Y007633D02*
X035251Y007633D01*
X035251Y007950D02*
X029576Y007950D01*
X029576Y007826D02*
X029286Y007536D01*
X028876Y007536D01*
X028586Y007826D01*
X028586Y008236D01*
X028876Y008526D01*
X029286Y008526D01*
X029576Y008236D01*
X029576Y007826D01*
X029541Y007791D02*
X030663Y007791D01*
X030663Y007633D02*
X029382Y007633D01*
X028779Y007633D02*
X028382Y007633D01*
X028286Y007536D02*
X027876Y007536D01*
X027586Y007826D01*
X027586Y008236D01*
X027876Y008526D01*
X028286Y008526D01*
X028576Y008236D01*
X028576Y007826D01*
X028286Y007536D01*
X027779Y007633D02*
X027382Y007633D01*
X027541Y007791D02*
X027621Y007791D01*
X027586Y007950D02*
X027576Y007950D01*
X027576Y008109D02*
X027586Y008109D01*
X027616Y008267D02*
X027545Y008267D01*
X027461Y008426D02*
X027775Y008426D01*
X027461Y008584D02*
X040201Y008584D01*
X040201Y008426D02*
X029386Y008426D01*
X029545Y008267D02*
X035272Y008267D01*
X035251Y008109D02*
X029576Y008109D01*
X028775Y008426D02*
X028386Y008426D01*
X028545Y008267D02*
X028616Y008267D01*
X028586Y008109D02*
X028576Y008109D01*
X028576Y007950D02*
X028586Y007950D01*
X028621Y007791D02*
X028541Y007791D01*
X026779Y007633D02*
X026382Y007633D01*
X026286Y007536D02*
X026576Y007826D01*
X026576Y008031D01*
X026081Y008031D01*
X026081Y007536D01*
X026286Y007536D01*
X026081Y007536D02*
X026081Y008031D01*
X026081Y008031D01*
X026081Y008032D01*
X026081Y008032D01*
X026081Y008526D01*
X026286Y008526D01*
X026576Y008236D01*
X026576Y008032D01*
X026081Y008032D01*
X026081Y008526D01*
X025876Y008526D01*
X025586Y008236D01*
X025586Y008032D01*
X026080Y008032D01*
X026080Y008031D01*
X025586Y008031D01*
X025586Y007826D01*
X025876Y007536D01*
X026081Y007536D01*
X026081Y007633D02*
X026081Y007633D01*
X026081Y007791D02*
X026081Y007791D01*
X026081Y007950D02*
X026081Y007950D01*
X026541Y007791D02*
X026621Y007791D01*
X026586Y007950D02*
X026576Y007950D01*
X026576Y008109D02*
X026586Y008109D01*
X026617Y008267D02*
X026545Y008267D01*
X026701Y008426D02*
X026386Y008426D01*
X026081Y008426D02*
X026081Y008426D01*
X026081Y008267D02*
X026081Y008267D01*
X026081Y008109D02*
X026081Y008109D01*
X025616Y008267D02*
X025545Y008267D01*
X025576Y008236D02*
X025286Y008526D01*
X024876Y008526D01*
X024586Y008236D01*
X024586Y007826D01*
X024876Y007536D01*
X025286Y007536D01*
X025576Y007826D01*
X025576Y008236D01*
X025576Y008109D02*
X025586Y008109D01*
X025576Y007950D02*
X025586Y007950D01*
X025621Y007791D02*
X025541Y007791D01*
X025382Y007633D02*
X025779Y007633D01*
X024779Y007633D02*
X024382Y007633D01*
X024286Y007536D02*
X024576Y007826D01*
X024576Y008236D01*
X024286Y008526D01*
X023876Y008526D01*
X023586Y008236D01*
X023586Y007826D01*
X023876Y007536D01*
X024286Y007536D01*
X023779Y007633D02*
X023382Y007633D01*
X023286Y007536D02*
X022876Y007536D01*
X022586Y007826D01*
X022586Y008236D01*
X022876Y008526D01*
X023286Y008526D01*
X023576Y008236D01*
X023576Y007826D01*
X023286Y007536D01*
X022779Y007633D02*
X022382Y007633D01*
X022286Y007536D02*
X022576Y007826D01*
X022576Y008236D01*
X022286Y008526D01*
X021876Y008526D01*
X021586Y008236D01*
X021586Y007826D01*
X021876Y007536D01*
X022286Y007536D01*
X021779Y007633D02*
X020608Y007633D01*
X020611Y007474D02*
X030663Y007474D01*
X030663Y007316D02*
X020561Y007316D01*
X019405Y006999D02*
X016961Y006999D01*
X016961Y007157D02*
X019226Y007157D01*
X019100Y007316D02*
X016961Y007316D01*
X016961Y007474D02*
X019051Y007474D01*
X019053Y007633D02*
X016961Y007633D01*
X016961Y007791D02*
X019119Y007791D01*
X019287Y007950D02*
X016961Y007950D01*
X016961Y008109D02*
X021586Y008109D01*
X021616Y008267D02*
X016961Y008267D01*
X016961Y008426D02*
X021775Y008426D01*
X022386Y008426D02*
X022775Y008426D01*
X022616Y008267D02*
X022545Y008267D01*
X022576Y008109D02*
X022586Y008109D01*
X022576Y007950D02*
X022586Y007950D01*
X022621Y007791D02*
X022541Y007791D01*
X021621Y007791D02*
X020543Y007791D01*
X020374Y007950D02*
X021586Y007950D01*
X023386Y008426D02*
X023775Y008426D01*
X023616Y008267D02*
X023545Y008267D01*
X023576Y008109D02*
X023586Y008109D01*
X023576Y007950D02*
X023586Y007950D01*
X023621Y007791D02*
X023541Y007791D01*
X024541Y007791D02*
X024621Y007791D01*
X024586Y007950D02*
X024576Y007950D01*
X024576Y008109D02*
X024586Y008109D01*
X024616Y008267D02*
X024545Y008267D01*
X024386Y008426D02*
X024775Y008426D01*
X025386Y008426D02*
X025775Y008426D01*
X026701Y008584D02*
X016961Y008584D01*
X016201Y008584D02*
X015301Y008584D01*
X015301Y008426D02*
X016201Y008426D01*
X016201Y008267D02*
X015301Y008267D01*
X015301Y008109D02*
X016201Y008109D01*
X016201Y007950D02*
X015301Y007950D01*
X015301Y007791D02*
X016201Y007791D01*
X016201Y007633D02*
X015301Y007633D01*
X015301Y007474D02*
X016201Y007474D01*
X016201Y007316D02*
X015301Y007316D01*
X015301Y007157D02*
X016201Y007157D01*
X016201Y006999D02*
X015301Y006999D01*
X015301Y006840D02*
X016201Y006840D01*
X016201Y006682D02*
X015301Y006682D01*
X015301Y006523D02*
X016201Y006523D01*
X016201Y006365D02*
X015301Y006365D01*
X015301Y006206D02*
X016201Y006206D01*
X016201Y006048D02*
X014747Y006048D01*
X014589Y005889D02*
X016201Y005889D01*
X016201Y005730D02*
X014532Y005730D01*
X014129Y005730D02*
X013532Y005730D01*
X013521Y005821D02*
X013140Y005821D01*
X012871Y006091D01*
X012871Y006472D01*
X013140Y006741D01*
X013521Y006741D01*
X013791Y006472D01*
X013791Y006091D01*
X013521Y005821D01*
X013589Y005889D02*
X014073Y005889D01*
X013914Y006048D02*
X013747Y006048D01*
X013073Y005889D02*
X012234Y005889D01*
X012076Y006048D02*
X012914Y006048D01*
X012871Y006206D02*
X011917Y006206D01*
X011759Y006365D02*
X012871Y006365D01*
X012922Y006523D02*
X011600Y006523D01*
X011442Y006682D02*
X013081Y006682D01*
X013581Y006682D02*
X014081Y006682D01*
X013922Y006523D02*
X013740Y006523D01*
X013791Y006365D02*
X013871Y006365D01*
X013871Y006206D02*
X013791Y006206D01*
X014581Y006682D02*
X014861Y006682D01*
X014861Y006523D02*
X014740Y006523D01*
X014861Y006840D02*
X014540Y006840D01*
X014699Y006999D02*
X014861Y006999D01*
X014861Y007157D02*
X014791Y007157D01*
X014791Y007316D02*
X014861Y007316D01*
X014861Y007474D02*
X014788Y007474D01*
X014861Y007633D02*
X014630Y007633D01*
X014551Y007791D02*
X014861Y007791D01*
X014861Y007950D02*
X014551Y007950D01*
X014111Y007791D02*
X011347Y007791D01*
X010814Y007791D02*
X009327Y007791D01*
X008834Y007791D02*
X007531Y007791D01*
X007531Y007633D02*
X008735Y007633D01*
X008723Y007474D02*
X007531Y007474D01*
X007531Y007316D02*
X008790Y007316D01*
X008861Y007157D02*
X007531Y007157D01*
X007531Y006999D02*
X008884Y006999D01*
X009277Y006999D02*
X010502Y006999D01*
X010344Y007157D02*
X009301Y007157D01*
X010490Y007633D02*
X013032Y007633D01*
X013140Y007741D02*
X012871Y007472D01*
X012871Y007291D01*
X013321Y007291D01*
X013321Y007271D01*
X013341Y007271D01*
X013341Y006821D01*
X013521Y006821D01*
X013791Y007091D01*
X013791Y007271D01*
X013341Y007271D01*
X013341Y007291D01*
X013791Y007291D01*
X013791Y007472D01*
X013521Y007741D01*
X013341Y007741D01*
X013341Y007292D01*
X013321Y007292D01*
X013321Y007741D01*
X013140Y007741D01*
X013321Y007633D02*
X013341Y007633D01*
X013341Y007474D02*
X013321Y007474D01*
X013630Y007633D02*
X014032Y007633D01*
X013873Y007474D02*
X013788Y007474D01*
X013791Y007316D02*
X013871Y007316D01*
X013871Y007157D02*
X013791Y007157D01*
X013699Y006999D02*
X013963Y006999D01*
X014121Y006840D02*
X013540Y006840D01*
X013341Y006840D02*
X013321Y006840D01*
X013321Y006821D02*
X013321Y007271D01*
X012871Y007271D01*
X012871Y007091D01*
X013140Y006821D01*
X013321Y006821D01*
X013121Y006840D02*
X011283Y006840D01*
X011124Y006999D02*
X012963Y006999D01*
X012871Y007157D02*
X010966Y007157D01*
X010807Y007316D02*
X012871Y007316D01*
X013321Y007316D02*
X013341Y007316D01*
X013341Y007157D02*
X013321Y007157D01*
X013321Y006999D02*
X013341Y006999D01*
X012873Y007474D02*
X010649Y007474D01*
X010661Y006840D02*
X007531Y006840D01*
X007434Y006682D02*
X010819Y006682D01*
X010978Y006523D02*
X007275Y006523D01*
X007140Y006365D02*
X011136Y006365D01*
X011295Y006206D02*
X007140Y006206D01*
X007277Y005984D02*
X007378Y006085D01*
X007510Y006139D01*
X007652Y006139D01*
X007784Y006085D01*
X007867Y006001D01*
X008240Y006001D01*
X008422Y006001D01*
X008551Y005873D01*
X008551Y005388D01*
X008634Y005304D01*
X008689Y005173D01*
X008689Y005030D01*
X008634Y004899D01*
X008534Y004798D01*
X008402Y004743D01*
X008260Y004743D01*
X008128Y004798D01*
X008027Y004899D01*
X007973Y005030D01*
X007973Y005173D01*
X008027Y005304D01*
X008111Y005388D01*
X008111Y005561D01*
X007867Y005561D01*
X007784Y005478D01*
X007652Y005423D01*
X007510Y005423D01*
X007378Y005478D01*
X007277Y005579D01*
X007223Y005710D01*
X007223Y005853D01*
X007277Y005984D01*
X007340Y006048D02*
X007140Y006048D01*
X007060Y005889D02*
X007238Y005889D01*
X007223Y005730D02*
X006396Y005730D01*
X007079Y005572D02*
X007284Y005572D01*
X007140Y005413D02*
X008111Y005413D01*
X008007Y005255D02*
X007140Y005255D01*
X007140Y005096D02*
X007289Y005096D01*
X007223Y004938D02*
X007140Y004938D01*
X007140Y004779D02*
X007236Y004779D01*
X007926Y004779D02*
X008173Y004779D01*
X008011Y004938D02*
X007939Y004938D01*
X007973Y005096D02*
X007872Y005096D01*
X008489Y004779D02*
X017541Y004779D01*
X014024Y004938D02*
X013638Y004938D01*
X013791Y005096D02*
X013871Y005096D01*
X013871Y005255D02*
X013791Y005255D01*
X013791Y005413D02*
X013871Y005413D01*
X013971Y005572D02*
X013691Y005572D01*
X013129Y005730D02*
X012393Y005730D01*
X012551Y005572D02*
X012971Y005572D01*
X012088Y005413D02*
X008551Y005413D01*
X008551Y005572D02*
X011929Y005572D01*
X011771Y005730D02*
X008551Y005730D01*
X008534Y005889D02*
X011612Y005889D01*
X011454Y006048D02*
X007821Y006048D01*
X008655Y005255D02*
X012246Y005255D01*
X012405Y005096D02*
X008689Y005096D01*
X008651Y004938D02*
X013024Y004938D01*
X016961Y006206D02*
X019177Y006206D01*
X019080Y006365D02*
X016961Y006365D01*
X016961Y006523D02*
X019051Y006523D01*
X019074Y006682D02*
X016961Y006682D01*
X016961Y006840D02*
X019161Y006840D01*
X014861Y008109D02*
X014551Y008109D01*
X014428Y008267D02*
X014861Y008267D01*
X015181Y008743D02*
X016201Y008743D01*
X016201Y008901D02*
X004914Y008901D01*
X004914Y009060D02*
X016201Y009060D01*
X016247Y009218D02*
X004914Y009218D01*
X004914Y009328D02*
X004901Y009374D01*
X004878Y009415D01*
X004844Y009448D01*
X004803Y009472D01*
X004757Y009484D01*
X004161Y009484D01*
X004161Y008732D01*
X004001Y008732D01*
X004001Y009484D01*
X003404Y009484D01*
X003359Y009472D01*
X003317Y009448D01*
X003284Y009415D01*
X003260Y009374D01*
X003248Y009328D01*
X003248Y008731D01*
X004001Y008731D01*
X004001Y008571D01*
X004161Y008571D01*
X004161Y007819D01*
X004757Y007819D01*
X004803Y007831D01*
X004844Y007855D01*
X004878Y007888D01*
X004901Y007929D01*
X004914Y007975D01*
X004914Y008571D01*
X004161Y008571D01*
X004161Y008731D01*
X004914Y008731D01*
X004914Y009328D01*
X004899Y009377D02*
X016422Y009377D01*
X006017Y008743D02*
X004914Y008743D01*
X004914Y008426D02*
X005951Y008426D01*
X005951Y008584D02*
X004161Y008584D01*
X004161Y008426D02*
X004001Y008426D01*
X004001Y008571D02*
X004001Y007819D01*
X003404Y007819D01*
X003359Y007831D01*
X003317Y007855D01*
X003284Y007888D01*
X003260Y007929D01*
X003248Y007975D01*
X003248Y008571D01*
X004001Y008571D01*
X004001Y008584D02*
X001561Y008584D01*
X001561Y008426D02*
X003248Y008426D01*
X003248Y008267D02*
X001561Y008267D01*
X001561Y008109D02*
X003248Y008109D01*
X004001Y008109D02*
X004161Y008109D01*
X004161Y008267D02*
X004001Y008267D01*
X004001Y007950D02*
X004161Y007950D01*
X004907Y007950D02*
X005951Y007950D01*
X005951Y007791D02*
X001561Y007791D01*
X001561Y007633D02*
X005951Y007633D01*
X005951Y008109D02*
X004914Y008109D01*
X004914Y008267D02*
X005951Y008267D01*
X004161Y008743D02*
X004001Y008743D01*
X003248Y008743D02*
X001561Y008743D01*
X001561Y008901D02*
X003248Y008901D01*
X003248Y009060D02*
X001561Y009060D01*
X001561Y009218D02*
X003248Y009218D01*
X003262Y009377D02*
X001561Y009377D01*
X001561Y009535D02*
X035292Y009535D01*
X035251Y009635D02*
X035339Y009421D01*
X035502Y009258D01*
X035715Y009170D01*
X035946Y009170D01*
X036159Y009258D01*
X036322Y009421D01*
X036411Y009635D01*
X036411Y009865D01*
X036322Y010078D01*
X036159Y010242D01*
X035946Y010330D01*
X035715Y010330D01*
X035502Y010242D01*
X035339Y010078D01*
X035251Y009865D01*
X035251Y009635D01*
X035251Y009694D02*
X001561Y009694D01*
X001561Y009853D02*
X035251Y009853D01*
X035311Y010011D02*
X001561Y010011D01*
X001561Y010170D02*
X035430Y010170D01*
X035711Y010328D02*
X001561Y010328D01*
X001561Y010487D02*
X040201Y010487D01*
X040201Y010645D02*
X039349Y010645D01*
X039292Y010621D02*
X039590Y010745D01*
X039817Y010973D01*
X039941Y011270D01*
X039941Y011593D01*
X039817Y011890D01*
X039590Y012118D01*
X039292Y012241D01*
X038970Y012241D01*
X038672Y012118D01*
X038444Y011890D01*
X038321Y011593D01*
X038321Y011270D01*
X038444Y010973D01*
X038672Y010745D01*
X038970Y010621D01*
X039292Y010621D01*
X038912Y010645D02*
X002849Y010645D01*
X002792Y010621D02*
X003090Y010745D01*
X003317Y010973D01*
X003441Y011270D01*
X003441Y011593D01*
X003317Y011890D01*
X003090Y012118D01*
X002792Y012241D01*
X002470Y012241D01*
X002172Y012118D01*
X001944Y011890D01*
X001821Y011593D01*
X001821Y011270D01*
X001944Y010973D01*
X002172Y010745D01*
X002470Y010621D01*
X002792Y010621D01*
X002412Y010645D02*
X001561Y010645D01*
X001561Y010804D02*
X002113Y010804D01*
X001954Y010962D02*
X001561Y010962D01*
X001561Y011121D02*
X001883Y011121D01*
X001821Y011279D02*
X001561Y011279D01*
X001561Y011438D02*
X001821Y011438D01*
X001823Y011597D02*
X001561Y011597D01*
X001561Y011755D02*
X001888Y011755D01*
X001968Y011914D02*
X001561Y011914D01*
X001561Y012072D02*
X002126Y012072D01*
X002444Y012231D02*
X001561Y012231D01*
X001561Y012389D02*
X040201Y012389D01*
X040201Y012231D02*
X039317Y012231D01*
X038944Y012231D02*
X002817Y012231D01*
X003135Y012072D02*
X038626Y012072D01*
X038468Y011914D02*
X003294Y011914D01*
X003373Y011755D02*
X038388Y011755D01*
X038323Y011597D02*
X003439Y011597D01*
X003441Y011438D02*
X038321Y011438D01*
X038321Y011279D02*
X003441Y011279D01*
X003379Y011121D02*
X038383Y011121D01*
X038454Y010962D02*
X003307Y010962D01*
X003149Y010804D02*
X038613Y010804D01*
X039649Y010804D02*
X040201Y010804D01*
X040201Y010962D02*
X039807Y010962D01*
X039879Y011121D02*
X040201Y011121D01*
X040201Y011279D02*
X039941Y011279D01*
X039941Y011438D02*
X040201Y011438D01*
X040201Y011597D02*
X039939Y011597D01*
X039873Y011755D02*
X040201Y011755D01*
X040201Y011914D02*
X039794Y011914D01*
X039635Y012072D02*
X040201Y012072D01*
X040201Y010328D02*
X035950Y010328D01*
X036231Y010170D02*
X040201Y010170D01*
X040201Y010011D02*
X036350Y010011D01*
X036411Y009853D02*
X040201Y009853D01*
X040201Y009694D02*
X036411Y009694D01*
X036370Y009535D02*
X040201Y009535D01*
X040201Y009377D02*
X036278Y009377D01*
X036063Y009218D02*
X040201Y009218D01*
X040201Y009060D02*
X027461Y009060D01*
X027461Y008901D02*
X040201Y008901D01*
X040201Y008743D02*
X027461Y008743D01*
X027415Y009218D02*
X035598Y009218D01*
X035384Y009377D02*
X027240Y009377D01*
X031499Y007791D02*
X035783Y007791D01*
X035879Y007791D02*
X040201Y007791D01*
X040201Y007633D02*
X036411Y007633D01*
X036411Y007474D02*
X040201Y007474D01*
X040201Y007316D02*
X036399Y007316D01*
X035879Y007316D02*
X035783Y007316D01*
X035783Y007474D02*
X035879Y007474D01*
X035879Y007633D02*
X035783Y007633D01*
X035783Y007950D02*
X035879Y007950D01*
X036411Y007950D02*
X040201Y007950D01*
X040201Y008109D02*
X036411Y008109D01*
X036389Y008267D02*
X040201Y008267D01*
X040201Y006840D02*
X031499Y006840D01*
X031499Y006682D02*
X040201Y006682D01*
X040201Y006523D02*
X031499Y006523D01*
X031499Y006365D02*
X040201Y006365D01*
X040201Y006206D02*
X031486Y006206D01*
X028763Y005413D02*
X028399Y005413D01*
X028286Y005526D02*
X027876Y005526D01*
X027586Y005236D01*
X027586Y004826D01*
X027876Y004536D01*
X028286Y004536D01*
X028576Y004826D01*
X028576Y005236D01*
X028286Y005526D01*
X027763Y005413D02*
X027399Y005413D01*
X027557Y005255D02*
X027604Y005255D01*
X027586Y005096D02*
X027576Y005096D01*
X027576Y004938D02*
X027586Y004938D01*
X027633Y004779D02*
X027529Y004779D01*
X027461Y004621D02*
X027792Y004621D01*
X027461Y004462D02*
X033201Y004462D01*
X033201Y004304D02*
X027461Y004304D01*
X027461Y004145D02*
X033201Y004145D01*
X033201Y003986D02*
X027461Y003986D01*
X027461Y003828D02*
X027755Y003828D01*
X027641Y003714D02*
X027641Y003349D01*
X027899Y003091D01*
X028263Y003091D01*
X028521Y003349D01*
X028521Y003714D01*
X028263Y003971D01*
X027899Y003971D01*
X027641Y003714D01*
X027641Y003669D02*
X027461Y003669D01*
X027461Y003511D02*
X027641Y003511D01*
X027641Y003352D02*
X027461Y003352D01*
X027461Y003194D02*
X027796Y003194D01*
X027461Y003035D02*
X033201Y003035D01*
X033201Y003194D02*
X028365Y003194D01*
X028521Y003352D02*
X033201Y003352D01*
X033201Y003511D02*
X028521Y003511D01*
X028521Y003669D02*
X033201Y003669D01*
X033201Y003828D02*
X028406Y003828D01*
X028370Y004621D02*
X028792Y004621D01*
X028633Y004779D02*
X028529Y004779D01*
X028576Y004938D02*
X028586Y004938D01*
X028576Y005096D02*
X028586Y005096D01*
X028604Y005255D02*
X028557Y005255D01*
X025081Y003828D02*
X025081Y003828D01*
X025081Y003669D02*
X025081Y003669D01*
X025081Y003511D02*
X025081Y003511D01*
X025081Y003352D02*
X025081Y003352D01*
X033829Y002242D02*
X040201Y002242D01*
X040201Y002084D02*
X039624Y002084D01*
X039782Y001925D02*
X040201Y001925D01*
X040201Y001767D02*
X039868Y001767D01*
X039934Y001608D02*
X040201Y001608D01*
X040201Y001450D02*
X039941Y001450D01*
X039941Y001291D02*
X040201Y001291D01*
X040201Y001133D02*
X039884Y001133D01*
X039818Y000974D02*
X040201Y000974D01*
X040201Y000816D02*
X039660Y000816D01*
X038601Y000816D02*
X003160Y000816D01*
X003318Y000974D02*
X038444Y000974D01*
X038378Y001133D02*
X003384Y001133D01*
X003441Y001291D02*
X038321Y001291D01*
X038321Y001450D02*
X003441Y001450D01*
X003434Y001608D02*
X038327Y001608D01*
X038393Y001767D02*
X003368Y001767D01*
X003282Y001925D02*
X038479Y001925D01*
X038638Y002084D02*
X003124Y002084D01*
X003248Y003352D02*
X001561Y003352D01*
X001561Y003511D02*
X003248Y003511D01*
X003248Y003669D02*
X001561Y003669D01*
X001561Y003828D02*
X003248Y003828D01*
X004001Y003986D02*
X001561Y003986D01*
X001561Y004145D02*
X003248Y004145D01*
X003248Y003991D02*
X004001Y003991D01*
X004001Y004744D01*
X003404Y004744D01*
X003359Y004732D01*
X003317Y004708D01*
X003284Y004675D01*
X003260Y004634D01*
X003248Y004588D01*
X003248Y003991D01*
X004001Y004145D02*
X004161Y004145D01*
X004161Y004304D02*
X004001Y004304D01*
X004001Y004462D02*
X004161Y004462D01*
X004161Y004621D02*
X004001Y004621D01*
X003257Y004621D02*
X001561Y004621D01*
X001561Y004462D02*
X003248Y004462D01*
X003248Y004304D02*
X001561Y004304D01*
X001561Y004779D02*
X004762Y004779D01*
X004603Y004938D02*
X001561Y004938D01*
X001561Y005096D02*
X004445Y005096D01*
X004286Y005255D02*
X001561Y005255D01*
X001561Y005413D02*
X004128Y005413D01*
X003969Y005572D02*
X001561Y005572D01*
X001561Y005730D02*
X003563Y005730D01*
X003563Y005889D02*
X001561Y005889D01*
X001561Y006048D02*
X003563Y006048D01*
X003585Y006206D02*
X001561Y006206D01*
X001561Y006365D02*
X004351Y006365D01*
X004351Y006523D02*
X001561Y006523D01*
X001561Y006682D02*
X004351Y006682D01*
X004351Y006840D02*
X001561Y006840D01*
X001561Y006999D02*
X004351Y006999D01*
X004351Y007157D02*
X001561Y007157D01*
X001561Y007316D02*
X004351Y007316D01*
X004351Y007474D02*
X001561Y007474D01*
X001561Y007950D02*
X003255Y007950D01*
X004001Y008901D02*
X004161Y008901D01*
X004161Y009060D02*
X004001Y009060D01*
X004001Y009218D02*
X004161Y009218D01*
X004161Y009377D02*
X004001Y009377D01*
X004257Y006206D02*
X004351Y006206D01*
X004351Y006048D02*
X004279Y006048D01*
X004279Y005889D02*
X004351Y005889D01*
X004905Y004621D02*
X004920Y004621D01*
X004914Y004462D02*
X005079Y004462D01*
X005161Y004304D02*
X004914Y004304D01*
X004914Y004145D02*
X005161Y004145D01*
X006321Y004145D02*
X006357Y004145D01*
X033961Y004145D02*
X040201Y004145D01*
X040201Y003986D02*
X033961Y003986D01*
X033961Y003828D02*
X040201Y003828D01*
X040201Y003669D02*
X033961Y003669D01*
X033961Y003511D02*
X035256Y003511D01*
X035251Y003506D02*
X035251Y002557D01*
X035356Y002451D01*
X036305Y002451D01*
X036411Y002557D01*
X036411Y003506D01*
X036305Y003611D01*
X035356Y003611D01*
X035251Y003506D01*
X035251Y003352D02*
X033961Y003352D01*
X033961Y003194D02*
X035251Y003194D01*
X035251Y003035D02*
X033961Y003035D01*
X033961Y002877D02*
X035251Y002877D01*
X035251Y002718D02*
X033961Y002718D01*
X033961Y002560D02*
X035251Y002560D01*
X036411Y002560D02*
X040201Y002560D01*
X040201Y002401D02*
X033938Y002401D01*
X036411Y002718D02*
X040201Y002718D01*
X040201Y002877D02*
X036411Y002877D01*
X036411Y003035D02*
X040201Y003035D01*
X040201Y003194D02*
X036411Y003194D01*
X036411Y003352D02*
X040201Y003352D01*
X040201Y003511D02*
X036406Y003511D01*
X035879Y008109D02*
X035783Y008109D01*
X035783Y008267D02*
X035879Y008267D01*
D20*
X017831Y004531D03*
X010681Y005881D03*
X008331Y005101D03*
X007581Y004881D03*
X007581Y004031D03*
X005381Y003481D03*
X007581Y005781D03*
X009081Y007531D03*
X011081Y008031D03*
X010081Y008531D03*
X008331Y008531D03*
D21*
X010681Y006181D02*
X010681Y005881D01*
D22*
X008321Y007111D03*
X003921Y005931D03*
X006881Y009981D03*
D23*
X006881Y009781D01*
D24*
X006181Y008581D02*
X008331Y008581D01*
X008331Y008531D01*
X010081Y008531D01*
X006181Y008581D02*
X006181Y007381D01*
X004581Y007381D01*
X004581Y005789D01*
X005148Y005789D01*
X008201Y007111D02*
X008321Y007111D01*
D25*
X005941Y005789D02*
X005941Y003531D01*
X017831Y003531D01*
X017831Y004531D01*
X016581Y005281D02*
X014331Y005281D01*
X016581Y005281D02*
X016581Y009031D01*
X027081Y009031D01*
X027081Y008031D01*
X027081Y005031D02*
X027081Y002531D01*
X033581Y002531D01*
X033581Y005031D01*
X035831Y005031D01*
X035831Y005000D01*
X005941Y005789D02*
X005935Y005789D01*
D26*
X006723Y006281D02*
X007311Y006870D01*
X007311Y008021D01*
X011071Y008021D01*
X011081Y008031D01*
X011081Y008053D01*
X014331Y008053D01*
X014331Y007281D01*
X014331Y006281D02*
X015081Y006281D01*
X015081Y008531D01*
X010081Y008531D01*
X010281Y007531D02*
X009081Y007531D01*
X009081Y007113D01*
X010281Y007531D02*
X012531Y005281D01*
X013331Y005281D01*
X008331Y005101D02*
X008331Y005781D01*
X007581Y005781D01*
X007581Y004881D02*
X007581Y004031D01*
X005381Y004471D02*
X005381Y003481D01*
X005381Y004471D02*
X003921Y005931D01*
M02*
