G75*
G70*
%OFA0B0*%
%FSLAX24Y24*%
%IPPOS*%
%LPD*%
%AMOC8*
5,1,8,0,0,1.08239X$1,22.5*
%
%ADD10C,0.0020*%
%ADD11C,0.0050*%
%ADD12C,0.0030*%
%ADD13R,0.0098X0.0098*%
%ADD14R,0.0060X0.0020*%
%ADD15R,0.0020X0.0020*%
%ADD16R,0.0100X0.0020*%
%ADD17R,0.0040X0.0020*%
%ADD18R,0.0080X0.0020*%
%ADD19R,0.0120X0.0020*%
%ADD20R,0.0140X0.0020*%
%ADD21R,0.0200X0.0020*%
%ADD22R,0.0160X0.0020*%
%ADD23R,0.0180X0.0020*%
%ADD24R,0.0220X0.0020*%
%ADD25R,0.0360X0.0020*%
%ADD26R,0.0340X0.0020*%
%ADD27R,0.0320X0.0020*%
%ADD28R,0.0420X0.0020*%
%ADD29R,0.0440X0.0020*%
%ADD30R,0.0400X0.0020*%
%ADD31R,0.0380X0.0020*%
%ADD32R,0.0300X0.0020*%
%ADD33R,0.0460X0.0020*%
%ADD34R,0.0480X0.0020*%
%ADD35R,0.0520X0.0020*%
%ADD36R,0.0540X0.0020*%
%ADD37R,0.0260X0.0020*%
%ADD38R,0.0580X0.0020*%
%ADD39R,0.0800X0.0020*%
%ADD40R,0.0280X0.0020*%
%ADD41R,0.0240X0.0020*%
%ADD42R,0.0500X0.0020*%
%ADD43R,0.0620X0.0020*%
%ADD44R,0.0760X0.0020*%
%ADD45R,0.0840X0.0020*%
%ADD46R,0.0780X0.0020*%
%ADD47R,0.0680X0.0020*%
%ADD48R,0.0660X0.0020*%
%ADD49R,0.0880X0.0020*%
%ADD50R,0.1080X0.0020*%
%ADD51R,0.1180X0.0020*%
%ADD52R,0.1240X0.0020*%
%ADD53R,0.1200X0.0020*%
%ADD54R,0.1100X0.0020*%
%ADD55R,0.1060X0.0020*%
%ADD56R,0.1040X0.0020*%
%ADD57R,0.1020X0.0020*%
%ADD58R,0.0700X0.0020*%
%ADD59R,0.0600X0.0020*%
%ADD60R,0.0560X0.0020*%
%ADD61C,0.0040*%
%ADD62C,0.0060*%
%ADD63C,0.0080*%
%ADD64C,0.0010*%
%ADD65C,0.0160*%
%ADD66R,0.0300X0.4200*%
%ADD67R,0.0200X0.0750*%
%ADD68R,0.0200X0.0300*%
D10*
X011191Y005091D02*
X011191Y005312D01*
X011338Y005312D01*
X011412Y005312D02*
X011485Y005312D01*
X011448Y005312D02*
X011448Y005091D01*
X011412Y005091D02*
X011485Y005091D01*
X011559Y005091D02*
X011706Y005091D01*
X011559Y005091D02*
X011559Y005312D01*
X011780Y005312D02*
X011927Y005312D01*
X011853Y005312D02*
X011853Y005091D01*
X012001Y005055D02*
X012148Y005055D01*
X012222Y005128D02*
X012222Y005275D01*
X012259Y005312D01*
X012332Y005312D01*
X012369Y005275D01*
X012369Y005128D01*
X012332Y005091D01*
X012259Y005091D01*
X012222Y005128D01*
X012443Y005128D02*
X012480Y005091D01*
X012553Y005091D01*
X012590Y005128D01*
X012590Y005312D01*
X012664Y005312D02*
X012811Y005312D01*
X012737Y005312D02*
X012737Y005091D01*
X012443Y005128D02*
X012443Y005312D01*
X011264Y005201D02*
X011191Y005201D01*
X012301Y006155D02*
X012448Y006155D01*
X012522Y006228D02*
X012559Y006191D01*
X012632Y006191D01*
X012669Y006228D01*
X012743Y006191D02*
X012743Y006412D01*
X012669Y006375D02*
X012632Y006412D01*
X012559Y006412D01*
X012522Y006375D01*
X012522Y006228D01*
X012743Y006265D02*
X012890Y006412D01*
X012780Y006301D02*
X012890Y006191D01*
X012227Y006412D02*
X012080Y006412D01*
X012153Y006412D02*
X012153Y006191D01*
X012006Y006191D02*
X011859Y006191D01*
X011859Y006412D01*
X011785Y006412D02*
X011712Y006412D01*
X011748Y006412D02*
X011748Y006191D01*
X011712Y006191D02*
X011785Y006191D01*
X011564Y006301D02*
X011491Y006301D01*
X011491Y006191D02*
X011491Y006412D01*
X011638Y006412D01*
X012127Y007191D02*
X012201Y007191D01*
X012238Y007228D01*
X012238Y007301D01*
X012164Y007301D01*
X012091Y007228D02*
X012127Y007191D01*
X012091Y007228D02*
X012091Y007375D01*
X012127Y007412D01*
X012201Y007412D01*
X012238Y007375D01*
X012312Y007412D02*
X012459Y007191D01*
X012459Y007412D01*
X012533Y007412D02*
X012643Y007412D01*
X012680Y007375D01*
X012680Y007228D01*
X012643Y007191D01*
X012533Y007191D01*
X012533Y007412D01*
X012312Y007412D02*
X012312Y007191D01*
X015591Y007201D02*
X015738Y007201D01*
X015812Y007128D02*
X015848Y007091D01*
X015922Y007091D01*
X015959Y007128D01*
X015959Y007165D01*
X015922Y007201D01*
X015885Y007201D01*
X015922Y007201D02*
X015959Y007238D01*
X015959Y007275D01*
X015922Y007312D01*
X015848Y007312D01*
X015812Y007275D01*
X015664Y007275D02*
X015664Y007128D01*
X016033Y007238D02*
X016106Y007091D01*
X016180Y007238D01*
X016254Y007275D02*
X016290Y007312D01*
X016364Y007312D01*
X016401Y007275D01*
X016401Y007238D01*
X016364Y007201D01*
X016401Y007165D01*
X016401Y007128D01*
X016364Y007091D01*
X016290Y007091D01*
X016254Y007128D01*
X016327Y007201D02*
X016364Y007201D01*
X016059Y006412D02*
X015912Y006412D01*
X015912Y006301D01*
X015985Y006338D01*
X016022Y006338D01*
X016059Y006301D01*
X016059Y006228D01*
X016022Y006191D01*
X015948Y006191D01*
X015912Y006228D01*
X015838Y006301D02*
X015691Y006301D01*
X015764Y006375D02*
X015764Y006228D01*
X015691Y005412D02*
X015838Y005412D01*
X015912Y005412D02*
X015985Y005412D01*
X015948Y005412D02*
X015948Y005191D01*
X015912Y005191D02*
X015985Y005191D01*
X016059Y005191D02*
X016206Y005191D01*
X016059Y005191D02*
X016059Y005412D01*
X016280Y005412D02*
X016427Y005412D01*
X016353Y005412D02*
X016353Y005191D01*
X016501Y005155D02*
X016648Y005155D01*
X016722Y005191D02*
X016795Y005191D01*
X016759Y005191D02*
X016759Y005412D01*
X016795Y005412D02*
X016722Y005412D01*
X016869Y005412D02*
X017016Y005191D01*
X017016Y005412D01*
X016869Y005412D02*
X016869Y005191D01*
X015764Y005301D02*
X015691Y005301D01*
X015691Y005191D02*
X015691Y005412D01*
D11*
X008905Y003979D02*
X008905Y003829D01*
X008905Y003904D02*
X009356Y003904D01*
X009356Y003829D02*
X009356Y003979D01*
X009281Y004136D02*
X009356Y004211D01*
X009356Y004361D01*
X009281Y004436D01*
X009281Y004596D02*
X009356Y004671D01*
X009356Y004821D01*
X009281Y004896D01*
X009206Y004896D01*
X009131Y004821D01*
X009131Y004746D01*
X009131Y004821D02*
X009056Y004896D01*
X008980Y004896D01*
X008905Y004821D01*
X008905Y004671D01*
X008980Y004596D01*
X008980Y004436D02*
X008905Y004361D01*
X008905Y004211D01*
X008980Y004136D01*
X009281Y004136D01*
X008256Y004544D02*
X007956Y004544D01*
X007805Y004694D01*
X007956Y004844D01*
X008256Y004844D01*
X008256Y005004D02*
X007805Y005004D01*
X007805Y005230D01*
X007880Y005305D01*
X008181Y005305D01*
X008256Y005230D01*
X008256Y005004D01*
X008031Y004844D02*
X008031Y004544D01*
X007230Y003919D02*
X000144Y003919D01*
X000144Y008644D01*
X007230Y008644D01*
X007230Y003919D01*
X007805Y005465D02*
X007805Y005765D01*
X007880Y005765D01*
X008181Y005465D01*
X008256Y005465D01*
X008181Y005925D02*
X008031Y005925D01*
X008031Y006150D01*
X008106Y006225D01*
X008181Y006225D01*
X008256Y006150D01*
X008256Y006000D01*
X008181Y005925D01*
X008031Y005925D02*
X007880Y006075D01*
X007805Y006225D01*
X007880Y006386D02*
X007956Y006386D01*
X008031Y006461D01*
X008031Y006611D01*
X008106Y006686D01*
X008181Y006686D01*
X008256Y006611D01*
X008256Y006461D01*
X008181Y006386D01*
X008106Y006386D01*
X008031Y006461D01*
X008031Y006611D02*
X007956Y006686D01*
X007880Y006686D01*
X007805Y006611D01*
X007805Y006461D01*
X007880Y006386D01*
X007805Y006846D02*
X008031Y006846D01*
X007956Y006996D01*
X007956Y007071D01*
X008031Y007146D01*
X008181Y007146D01*
X008256Y007071D01*
X008256Y006921D01*
X008181Y006846D01*
X007805Y006846D02*
X007805Y007146D01*
X015005Y007181D02*
X015005Y007332D01*
X015080Y007407D01*
X015156Y007407D01*
X015231Y007332D01*
X015306Y007407D01*
X015381Y007407D01*
X015456Y007332D01*
X015456Y007181D01*
X015381Y007106D01*
X015231Y007257D02*
X015231Y007332D01*
X015080Y007106D02*
X015005Y007181D01*
X015080Y006407D02*
X015005Y006332D01*
X015005Y006181D01*
X015080Y006106D01*
X015156Y006407D02*
X015456Y006106D01*
X015456Y006407D01*
X015156Y006407D02*
X015080Y006407D01*
X015456Y005407D02*
X015456Y005106D01*
X015456Y005257D02*
X015005Y005257D01*
X015156Y005106D01*
X014045Y004657D02*
X014045Y004206D01*
X013895Y004206D02*
X014196Y004206D01*
X013735Y004432D02*
X013660Y004357D01*
X013435Y004357D01*
X013435Y004206D02*
X013435Y004657D01*
X013660Y004657D01*
X013735Y004582D01*
X013735Y004432D01*
X013895Y004507D02*
X014045Y004657D01*
X013275Y004657D02*
X013125Y004657D01*
X013200Y004657D02*
X013200Y004281D01*
X013125Y004206D01*
X013050Y004206D01*
X012975Y004281D01*
X018235Y004631D02*
X018235Y004782D01*
X018310Y004857D01*
X018611Y004857D01*
X018686Y004782D01*
X018686Y004631D01*
X018611Y004556D01*
X018310Y004556D01*
X018235Y004631D01*
X018536Y004707D02*
X018686Y004857D01*
X018686Y005017D02*
X018686Y005317D01*
X018686Y005167D02*
X018235Y005167D01*
X018386Y005017D01*
X019281Y004531D02*
X020431Y004581D01*
X020531Y004681D01*
X020531Y008381D01*
X020431Y008481D01*
X019281Y008531D01*
X018556Y008605D02*
X018406Y008755D01*
X018105Y008755D01*
X018406Y008455D02*
X018556Y008605D01*
X018406Y008455D02*
X018105Y008455D01*
X018180Y008295D02*
X018105Y008220D01*
X018105Y008069D01*
X018180Y007994D01*
X018256Y007994D01*
X018331Y008069D01*
X018331Y008295D01*
X018481Y008295D02*
X018180Y008295D01*
X018481Y008295D02*
X018556Y008220D01*
X018556Y008069D01*
X018481Y007994D01*
X018556Y007834D02*
X018556Y007534D01*
X018256Y007834D01*
X018180Y007834D01*
X018105Y007759D01*
X018105Y007609D01*
X018180Y007534D01*
X018180Y007374D02*
X018331Y007374D01*
X018406Y007299D01*
X018406Y007074D01*
X018556Y007074D02*
X018105Y007074D01*
X018105Y007299D01*
X018180Y007374D01*
X018105Y006917D02*
X018105Y006767D01*
X018105Y006842D02*
X018556Y006842D01*
X018556Y006767D02*
X018556Y006917D01*
X018105Y006607D02*
X018105Y006306D01*
X018105Y006457D02*
X018556Y006457D01*
X020191Y004761D02*
X020193Y004781D01*
X020199Y004799D01*
X020208Y004817D01*
X020220Y004832D01*
X020235Y004844D01*
X020253Y004853D01*
X020271Y004859D01*
X020291Y004861D01*
X020311Y004859D01*
X020329Y004853D01*
X020347Y004844D01*
X020362Y004832D01*
X020374Y004817D01*
X020383Y004799D01*
X020389Y004781D01*
X020391Y004761D01*
X020389Y004741D01*
X020383Y004723D01*
X020374Y004705D01*
X020362Y004690D01*
X020347Y004678D01*
X020329Y004669D01*
X020311Y004663D01*
X020291Y004661D01*
X020271Y004663D01*
X020253Y004669D01*
X020235Y004678D01*
X020220Y004690D01*
X020208Y004705D01*
X020199Y004723D01*
X020193Y004741D01*
X020191Y004761D01*
X025306Y002957D02*
X025531Y002957D01*
X025606Y002882D01*
X025606Y002732D01*
X025531Y002657D01*
X025306Y002657D01*
X025456Y002657D02*
X025606Y002506D01*
X025766Y002506D02*
X026066Y002506D01*
X025916Y002506D02*
X025916Y002957D01*
X025766Y002807D01*
X025306Y002957D02*
X025306Y002506D01*
X026606Y002536D02*
X026906Y002536D01*
X026756Y002536D02*
X026756Y002987D01*
X026606Y002837D01*
X027066Y002912D02*
X027141Y002987D01*
X027291Y002987D01*
X027366Y002912D01*
X027066Y002611D01*
X027141Y002536D01*
X027291Y002536D01*
X027366Y002611D01*
X027366Y002912D01*
X027526Y002987D02*
X027526Y002536D01*
X027526Y002687D02*
X027752Y002837D01*
X027526Y002687D02*
X027752Y002536D01*
X027066Y002611D02*
X027066Y002912D01*
X030131Y004656D02*
X032031Y004656D01*
X032031Y008406D01*
X030131Y008406D01*
X030131Y004656D01*
X027964Y008806D02*
X027964Y009257D01*
X028190Y009257D01*
X028265Y009182D01*
X028265Y009032D01*
X028190Y008957D01*
X027964Y008957D01*
X027804Y009032D02*
X027804Y008881D01*
X027729Y008806D01*
X027579Y008806D01*
X027504Y008881D01*
X027504Y009032D02*
X027654Y009107D01*
X027729Y009107D01*
X027804Y009032D01*
X027804Y009257D02*
X027504Y009257D01*
X027504Y009032D01*
X027344Y009107D02*
X027344Y009182D01*
X027269Y009257D01*
X027119Y009257D01*
X027044Y009182D01*
X027344Y009107D02*
X027044Y008806D01*
X027344Y008806D01*
X026884Y008806D02*
X026583Y008806D01*
X026734Y008806D02*
X026734Y009257D01*
X026583Y009107D01*
X026423Y009107D02*
X026423Y008806D01*
X026123Y008806D02*
X026123Y009107D01*
X026273Y009257D01*
X026423Y009107D01*
X026423Y009032D02*
X026123Y009032D01*
X025963Y008806D02*
X025963Y009257D01*
X025663Y009257D02*
X025963Y008806D01*
X025663Y008806D02*
X025663Y009257D01*
X025506Y009257D02*
X025356Y009257D01*
X025431Y009257D02*
X025431Y008806D01*
X025356Y008806D02*
X025506Y008806D01*
X023673Y008806D02*
X023373Y008806D01*
X023523Y008806D02*
X023523Y009257D01*
X023373Y009107D01*
X023213Y009182D02*
X023138Y009257D01*
X022988Y009257D01*
X022913Y009182D01*
X022913Y008881D01*
X022988Y008806D01*
X023138Y008806D01*
X023213Y008881D01*
X022756Y008806D02*
X022606Y008806D01*
X022681Y008806D02*
X022681Y009257D01*
X022606Y009257D02*
X022756Y009257D01*
X020066Y010636D02*
X020066Y010942D01*
X019964Y011043D01*
X019863Y010942D01*
X019863Y010636D01*
X019659Y010636D02*
X019659Y011043D01*
X019761Y011043D01*
X019863Y010942D01*
X019458Y010942D02*
X019458Y010636D01*
X019153Y010636D01*
X019051Y010738D01*
X019153Y010840D01*
X019458Y010840D01*
X019458Y010942D02*
X019357Y011043D01*
X019153Y011043D01*
X018851Y010942D02*
X018851Y010840D01*
X018444Y010840D01*
X018444Y010738D02*
X018444Y010942D01*
X018545Y011043D01*
X018749Y011043D01*
X018851Y010942D01*
X018545Y010636D02*
X018444Y010738D01*
X018545Y010636D02*
X018749Y010636D01*
X018039Y010636D02*
X018039Y011247D01*
X017836Y011247D02*
X018243Y011247D01*
X018242Y011536D02*
X018344Y011638D01*
X018344Y012147D01*
X017937Y012147D02*
X017937Y011638D01*
X018039Y011536D01*
X018242Y011536D01*
X018545Y011536D02*
X018545Y011943D01*
X018850Y011943D01*
X018952Y011842D01*
X018952Y011536D01*
X019153Y011536D02*
X019356Y011536D01*
X019254Y011536D02*
X019254Y011943D01*
X019153Y011943D01*
X019558Y011943D02*
X019761Y011536D01*
X019965Y011943D01*
X020165Y011842D02*
X020267Y011943D01*
X020471Y011943D01*
X020572Y011842D01*
X020572Y011740D01*
X020165Y011740D01*
X020165Y011638D02*
X020165Y011842D01*
X020165Y011638D02*
X020267Y011536D01*
X020471Y011536D01*
X020773Y011536D02*
X020773Y011943D01*
X020773Y011740D02*
X020977Y011943D01*
X021078Y011943D01*
X021280Y011842D02*
X021381Y011740D01*
X021585Y011740D01*
X021687Y011638D01*
X021585Y011536D01*
X021280Y011536D01*
X021887Y011536D02*
X022091Y011536D01*
X021989Y011536D02*
X021989Y011943D01*
X021887Y011943D01*
X021687Y011943D02*
X021381Y011943D01*
X021280Y011842D01*
X021989Y012147D02*
X021989Y012249D01*
X022394Y012045D02*
X022394Y011638D01*
X022496Y011536D01*
X022698Y011638D02*
X022799Y011536D01*
X023105Y011536D01*
X023105Y011435D02*
X023003Y011333D01*
X022901Y011333D01*
X023105Y011435D02*
X023105Y011943D01*
X022698Y011943D02*
X022698Y011638D01*
X022496Y011943D02*
X022292Y011943D01*
X019254Y012147D02*
X019254Y012249D01*
X017129Y011842D02*
X017129Y011536D01*
X016722Y011536D02*
X016722Y011943D01*
X017027Y011943D01*
X017129Y011842D01*
X016521Y011842D02*
X016521Y011638D01*
X016419Y011536D01*
X016216Y011536D01*
X016114Y011638D01*
X016114Y011842D01*
X016216Y011943D01*
X016419Y011943D01*
X016521Y011842D01*
X015912Y011943D02*
X015709Y011943D01*
X015811Y012045D02*
X015811Y011638D01*
X015912Y011536D01*
X015508Y011638D02*
X015406Y011740D01*
X015203Y011740D01*
X015101Y011842D01*
X015203Y011943D01*
X015508Y011943D01*
X015508Y011638D02*
X015406Y011536D01*
X015101Y011536D01*
X014901Y011638D02*
X014901Y011842D01*
X014799Y011943D01*
X014595Y011943D01*
X014494Y011842D01*
X014494Y011638D01*
X014595Y011536D01*
X014799Y011536D01*
X014901Y011638D01*
X014293Y011638D02*
X014293Y011740D01*
X014191Y011842D01*
X013886Y011842D01*
X014191Y011842D02*
X014293Y011943D01*
X014293Y012045D01*
X014191Y012147D01*
X013886Y012147D01*
X013886Y011536D01*
X014191Y011536D01*
X014293Y011638D01*
X014191Y011247D02*
X014293Y011145D01*
X014293Y010942D01*
X014191Y010840D01*
X013886Y010840D01*
X014089Y010840D02*
X014293Y010636D01*
X014494Y010738D02*
X014595Y010636D01*
X014799Y010636D01*
X014901Y010738D01*
X014901Y010942D01*
X014799Y011043D01*
X014595Y011043D01*
X014494Y010942D01*
X014494Y010738D01*
X013886Y010636D02*
X013886Y011247D01*
X014191Y011247D01*
X015101Y010942D02*
X015101Y010738D01*
X015203Y010636D01*
X015508Y010636D01*
X015709Y010636D02*
X015709Y011247D01*
X015508Y011043D02*
X015203Y011043D01*
X015101Y010942D01*
X015709Y010840D02*
X016014Y011043D01*
X016215Y010942D02*
X016317Y011043D01*
X016521Y011043D01*
X016622Y010942D01*
X016622Y010840D01*
X016215Y010840D01*
X016215Y010738D02*
X016215Y010942D01*
X016014Y010636D02*
X015709Y010840D01*
X016215Y010738D02*
X016317Y010636D01*
X016521Y010636D01*
X016925Y010738D02*
X017027Y010636D01*
X016925Y010738D02*
X016925Y011145D01*
X016823Y011043D02*
X017027Y011043D01*
D12*
X017497Y010297D02*
X017559Y010297D01*
X017559Y009926D01*
X017497Y009926D02*
X017621Y009926D01*
X017743Y009988D02*
X017743Y010112D01*
X017805Y010173D01*
X017928Y010173D01*
X017990Y010112D01*
X017990Y010050D01*
X017743Y010050D01*
X017743Y009988D02*
X017805Y009926D01*
X017928Y009926D01*
X018480Y009926D02*
X018665Y009926D01*
X018726Y009988D01*
X018726Y010235D01*
X018665Y010297D01*
X018480Y010297D01*
X018480Y009926D01*
X018848Y009926D02*
X018971Y009926D01*
X018910Y009926D02*
X018910Y010173D01*
X018848Y010173D01*
X018910Y010297D02*
X018910Y010358D01*
X019093Y010112D02*
X019155Y010173D01*
X019340Y010173D01*
X019340Y009865D01*
X019279Y009803D01*
X019217Y009803D01*
X019155Y009926D02*
X019340Y009926D01*
X019462Y009926D02*
X019585Y009926D01*
X019523Y009926D02*
X019523Y010173D01*
X019462Y010173D01*
X019523Y010297D02*
X019523Y010358D01*
X019707Y010173D02*
X019831Y010173D01*
X019769Y010235D02*
X019769Y009988D01*
X019831Y009926D01*
X019953Y009926D02*
X020076Y009926D01*
X020014Y009926D02*
X020014Y010173D01*
X019953Y010173D01*
X020014Y010297D02*
X020014Y010358D01*
X020198Y010173D02*
X020445Y010173D01*
X020198Y009926D01*
X020445Y009926D01*
X020567Y009988D02*
X020567Y010112D01*
X020628Y010173D01*
X020752Y010173D01*
X020813Y010112D01*
X020813Y010050D01*
X020567Y010050D01*
X020567Y009988D02*
X020628Y009926D01*
X020752Y009926D01*
X020628Y009808D02*
X020628Y009685D01*
X020567Y009623D01*
X020751Y009623D02*
X020874Y009747D01*
X020874Y009376D01*
X020751Y009376D02*
X020998Y009376D01*
X021119Y009376D02*
X021366Y009623D01*
X021366Y009685D01*
X021304Y009747D01*
X021181Y009747D01*
X021119Y009685D01*
X020935Y009926D02*
X020935Y010173D01*
X020935Y010050D02*
X021058Y010173D01*
X021120Y010173D01*
X021610Y010173D02*
X021610Y009926D01*
X021610Y010050D02*
X021733Y010173D01*
X021795Y010173D01*
X021917Y010173D02*
X022040Y010297D01*
X022040Y009926D01*
X021917Y009926D02*
X022164Y009926D01*
X022285Y009926D02*
X022347Y009926D01*
X022347Y009988D01*
X022285Y009988D01*
X022285Y009926D01*
X022469Y009988D02*
X022716Y010235D01*
X022716Y009988D01*
X022655Y009926D01*
X022531Y009926D01*
X022469Y009988D01*
X022469Y010235D01*
X022531Y010297D01*
X022655Y010297D01*
X022716Y010235D01*
X020077Y009747D02*
X019830Y009747D01*
X019830Y009376D01*
X020077Y009376D01*
X019708Y009376D02*
X019462Y009376D01*
X019462Y009747D01*
X019708Y009747D01*
X019830Y009562D02*
X019953Y009562D01*
X019585Y009562D02*
X019462Y009562D01*
X018971Y009438D02*
X018909Y009438D01*
X018909Y009376D01*
X018971Y009376D01*
X018971Y009438D01*
X018971Y009376D02*
X018848Y009253D01*
X018665Y009376D02*
X018541Y009376D01*
X018479Y009438D01*
X018479Y009562D01*
X018541Y009623D01*
X018665Y009623D01*
X018726Y009562D01*
X018726Y009500D01*
X018479Y009500D01*
X018358Y009623D02*
X018296Y009623D01*
X018173Y009500D01*
X018173Y009623D02*
X018173Y009376D01*
X018051Y009438D02*
X017989Y009376D01*
X017866Y009376D01*
X017804Y009438D01*
X017804Y009562D01*
X017866Y009623D01*
X017989Y009623D01*
X018051Y009562D01*
X018051Y009438D01*
X017683Y009376D02*
X017683Y009562D01*
X017621Y009623D01*
X017559Y009562D01*
X017559Y009376D01*
X017436Y009376D02*
X017436Y009623D01*
X017498Y009623D01*
X017559Y009562D01*
X017315Y009562D02*
X017315Y009500D01*
X017068Y009500D01*
X017068Y009438D02*
X017068Y009562D01*
X017129Y009623D01*
X017253Y009623D01*
X017315Y009562D01*
X017129Y009376D02*
X017068Y009438D01*
X017129Y009376D02*
X017253Y009376D01*
X016946Y009376D02*
X016884Y009438D01*
X016884Y009685D01*
X016822Y009623D02*
X016946Y009623D01*
X016700Y009623D02*
X016577Y009623D01*
X016638Y009685D02*
X016638Y009438D01*
X016700Y009376D01*
X016455Y009376D02*
X016331Y009376D01*
X016393Y009376D02*
X016393Y009623D01*
X016331Y009623D01*
X016210Y009562D02*
X016210Y009376D01*
X015963Y009376D02*
X015963Y009747D01*
X015841Y009747D02*
X015841Y009376D01*
X015718Y009500D01*
X015595Y009376D01*
X015595Y009747D01*
X015963Y009562D02*
X016025Y009623D01*
X016148Y009623D01*
X016210Y009562D01*
X016393Y009747D02*
X016393Y009808D01*
X016454Y009926D02*
X016393Y009988D01*
X016393Y010112D01*
X016454Y010173D01*
X016578Y010173D01*
X016639Y010112D01*
X016639Y009988D01*
X016578Y009926D01*
X016454Y009926D01*
X016271Y009926D02*
X016086Y009926D01*
X016024Y009988D01*
X016024Y010112D01*
X016086Y010173D01*
X016271Y010173D01*
X015903Y010112D02*
X015841Y010173D01*
X015718Y010173D01*
X015656Y010112D01*
X015656Y009988D01*
X015718Y009926D01*
X015841Y009926D01*
X015903Y009988D01*
X015903Y010112D01*
X015534Y010112D02*
X015534Y009926D01*
X015411Y009926D02*
X015411Y010112D01*
X015473Y010173D01*
X015534Y010112D01*
X015411Y010112D02*
X015349Y010173D01*
X015288Y010173D01*
X015288Y009926D01*
X014981Y009926D02*
X014981Y010173D01*
X014981Y010050D02*
X015104Y010173D01*
X015166Y010173D01*
X014859Y010112D02*
X014859Y010050D01*
X014612Y010050D01*
X014612Y010112D02*
X014674Y010173D01*
X014798Y010173D01*
X014859Y010112D01*
X014798Y009926D02*
X014674Y009926D01*
X014612Y009988D01*
X014612Y010112D01*
X014491Y010112D02*
X014491Y009926D01*
X014491Y010112D02*
X014429Y010173D01*
X014306Y010173D01*
X014244Y010112D01*
X014244Y010297D02*
X014244Y009926D01*
X013999Y009926D02*
X013999Y010297D01*
X013876Y010297D02*
X014123Y010297D01*
X014244Y009747D02*
X014306Y009747D01*
X014306Y009376D01*
X014244Y009376D02*
X014368Y009376D01*
X014490Y009438D02*
X014551Y009376D01*
X014675Y009376D01*
X014736Y009500D02*
X014490Y009500D01*
X014490Y009438D02*
X014490Y009562D01*
X014551Y009623D01*
X014675Y009623D01*
X014736Y009562D01*
X014736Y009500D01*
X014858Y009623D02*
X015105Y009376D01*
X014858Y009376D02*
X015105Y009623D01*
X014123Y009623D02*
X014123Y009376D01*
X013876Y009376D02*
X013876Y009623D01*
X013999Y009747D01*
X014123Y009623D01*
X014123Y009562D02*
X013876Y009562D01*
X016761Y009988D02*
X016823Y009926D01*
X017008Y009926D01*
X017008Y010173D01*
X017129Y010173D02*
X017314Y010173D01*
X017376Y010112D01*
X017376Y009988D01*
X017314Y009926D01*
X017129Y009926D01*
X017129Y009803D02*
X017129Y010173D01*
X016761Y010173D02*
X016761Y009988D01*
X019093Y009988D02*
X019155Y009926D01*
X019093Y009988D02*
X019093Y010112D01*
X021119Y009376D02*
X021366Y009376D01*
X028816Y010705D02*
X028864Y010656D01*
X028961Y010656D01*
X029009Y010705D01*
X029110Y010705D02*
X029159Y010656D01*
X029256Y010656D01*
X029304Y010705D01*
X029405Y010802D02*
X029599Y010802D01*
X029700Y010802D02*
X029845Y010802D01*
X029893Y010753D01*
X029893Y010705D01*
X029845Y010656D01*
X029700Y010656D01*
X029700Y010947D01*
X029845Y010947D01*
X029893Y010898D01*
X029893Y010850D01*
X029845Y010802D01*
X029994Y010898D02*
X030091Y010802D01*
X030091Y010656D01*
X030091Y010802D02*
X030188Y010898D01*
X030188Y010947D01*
X029994Y010947D02*
X029994Y010898D01*
X030289Y010802D02*
X030482Y010802D01*
X030584Y010850D02*
X030632Y010802D01*
X030729Y010802D01*
X030777Y010753D01*
X030777Y010705D01*
X030729Y010656D01*
X030632Y010656D01*
X030584Y010705D01*
X030584Y010850D02*
X030584Y010898D01*
X030632Y010947D01*
X030729Y010947D01*
X030777Y010898D01*
X030878Y010850D02*
X030975Y010947D01*
X031072Y010850D01*
X031072Y010656D01*
X031072Y010802D02*
X030878Y010802D01*
X030878Y010850D02*
X030878Y010656D01*
X030927Y011106D02*
X031072Y011106D01*
X031072Y011300D01*
X031173Y011300D02*
X031173Y011106D01*
X031173Y011203D02*
X031270Y011300D01*
X031318Y011300D01*
X031418Y011252D02*
X031418Y011155D01*
X031467Y011106D01*
X031612Y011106D01*
X031713Y011155D02*
X031713Y011252D01*
X031761Y011300D01*
X031858Y011300D01*
X031907Y011252D01*
X031907Y011203D01*
X031713Y011203D01*
X031713Y011155D02*
X031761Y011106D01*
X031858Y011106D01*
X031612Y011300D02*
X031467Y011300D01*
X031418Y011252D01*
X030927Y011106D02*
X030878Y011155D01*
X030878Y011300D01*
X030777Y011252D02*
X030777Y011155D01*
X030729Y011106D01*
X030632Y011106D01*
X030584Y011155D01*
X030584Y011252D01*
X030632Y011300D01*
X030729Y011300D01*
X030777Y011252D01*
X030482Y011203D02*
X030482Y011155D01*
X030434Y011106D01*
X030337Y011106D01*
X030289Y011155D01*
X030337Y011252D02*
X030434Y011252D01*
X030482Y011203D01*
X030482Y011348D02*
X030434Y011397D01*
X030337Y011397D01*
X030289Y011348D01*
X030289Y011300D01*
X030337Y011252D01*
X029893Y011252D02*
X029893Y011106D01*
X029893Y011252D02*
X029845Y011300D01*
X029700Y011300D01*
X029700Y011106D01*
X029599Y011203D02*
X029405Y011203D01*
X029405Y011155D02*
X029405Y011252D01*
X029453Y011300D01*
X029550Y011300D01*
X029599Y011252D01*
X029599Y011203D01*
X029550Y011106D02*
X029453Y011106D01*
X029405Y011155D01*
X029304Y011155D02*
X029256Y011106D01*
X029110Y011106D01*
X029110Y011010D02*
X029110Y011300D01*
X029256Y011300D01*
X029304Y011252D01*
X029304Y011155D01*
X029256Y010947D02*
X029159Y010947D01*
X029110Y010898D01*
X029110Y010705D01*
X029009Y010898D02*
X028961Y010947D01*
X028864Y010947D01*
X028816Y010898D01*
X028816Y010705D01*
X029256Y010947D02*
X029304Y010898D01*
X029009Y011155D02*
X029009Y011348D01*
X028961Y011397D01*
X028864Y011397D01*
X028816Y011348D01*
X028816Y011155D01*
X028864Y011106D01*
X028961Y011106D01*
X029009Y011155D01*
X032302Y011106D02*
X032302Y011397D01*
X032302Y011252D02*
X032496Y011252D01*
X032597Y011155D02*
X032645Y011203D01*
X032791Y011203D01*
X032791Y011252D02*
X032791Y011106D01*
X032645Y011106D01*
X032597Y011155D01*
X032496Y011106D02*
X032496Y011397D01*
X032645Y011300D02*
X032742Y011300D01*
X032791Y011252D01*
X032892Y011300D02*
X032892Y011106D01*
X032892Y011203D02*
X032988Y011300D01*
X033037Y011300D01*
X033137Y011252D02*
X033186Y011300D01*
X033331Y011300D01*
X033331Y011397D02*
X033331Y011106D01*
X033186Y011106D01*
X033137Y011155D01*
X033137Y011252D01*
X033432Y011300D02*
X033432Y011155D01*
X033480Y011106D01*
X033529Y011155D01*
X033577Y011106D01*
X033625Y011155D01*
X033625Y011300D01*
X033775Y011300D02*
X033872Y011300D01*
X033920Y011252D01*
X033920Y011106D01*
X033775Y011106D01*
X033726Y011155D01*
X033775Y011203D01*
X033920Y011203D01*
X034021Y011203D02*
X034118Y011300D01*
X034166Y011300D01*
X034267Y011252D02*
X034315Y011300D01*
X034412Y011300D01*
X034460Y011252D01*
X034460Y011203D01*
X034267Y011203D01*
X034267Y011155D02*
X034267Y011252D01*
X034267Y011155D02*
X034315Y011106D01*
X034412Y011106D01*
X034021Y011106D02*
X034021Y011300D01*
D13*
X013506Y011286D03*
X013506Y011385D03*
X013407Y011385D03*
X013211Y011385D03*
X013112Y011286D03*
X013014Y011286D03*
X013014Y011188D03*
X013014Y011090D03*
X012915Y011090D03*
X012817Y011090D03*
X012817Y011188D03*
X012719Y011188D03*
X012719Y011090D03*
X012719Y010991D03*
X012817Y010991D03*
X012915Y010893D03*
X012817Y010794D03*
X012719Y010794D03*
X012719Y010696D03*
X012719Y010597D03*
X012817Y010597D03*
X012817Y010499D03*
X012817Y010401D03*
X012719Y010401D03*
X012719Y010499D03*
X012719Y010302D03*
X012719Y010204D03*
X012817Y010204D03*
X012915Y010204D03*
X012915Y010302D03*
X013014Y010204D03*
X013112Y010204D03*
X013112Y010302D03*
X013211Y010204D03*
X013309Y010204D03*
X013309Y010302D03*
X013309Y010401D03*
X013309Y010499D03*
X013407Y010499D03*
X013407Y010597D03*
X013407Y010696D03*
X013407Y010794D03*
X013309Y010794D03*
X013211Y010794D03*
X013112Y010696D03*
X013014Y010696D03*
X013014Y010794D03*
X012915Y010696D03*
X013014Y010597D03*
X013014Y010499D03*
X013112Y010597D03*
X013506Y010794D03*
X013506Y010893D03*
X013407Y010893D03*
X013309Y010991D03*
X013211Y010991D03*
X013211Y011090D03*
X013309Y011188D03*
X013407Y011188D03*
X013506Y011090D03*
X012915Y011286D03*
X012915Y011385D03*
X012915Y011582D03*
X012915Y011680D03*
X012915Y011779D03*
X012915Y011877D03*
X012915Y011975D03*
X012915Y012074D03*
X012915Y012172D03*
X013014Y012172D03*
X013112Y012172D03*
X013211Y012172D03*
X013309Y012172D03*
X013407Y012172D03*
X013506Y012172D03*
X013506Y012074D03*
X013506Y011975D03*
X013506Y011877D03*
X013506Y011779D03*
X013506Y011680D03*
X013506Y011582D03*
X013407Y011582D03*
X013309Y011582D03*
X013211Y011582D03*
X013112Y011582D03*
X013014Y011582D03*
X012719Y011582D03*
X012620Y011483D03*
X012522Y011483D03*
X012522Y011582D03*
X012423Y011483D03*
X012325Y011483D03*
X012226Y011483D03*
X012226Y011385D03*
X012226Y011286D03*
X012128Y011286D03*
X012030Y011286D03*
X012030Y011188D03*
X011931Y011188D03*
X011833Y011188D03*
X011833Y011286D03*
X011931Y011286D03*
X011931Y011385D03*
X011931Y011483D03*
X011931Y011582D03*
X011931Y011680D03*
X011931Y011779D03*
X011833Y011779D03*
X011734Y011779D03*
X011636Y011877D03*
X011636Y011975D03*
X011636Y012074D03*
X011636Y012172D03*
X011734Y012172D03*
X011734Y012074D03*
X011537Y012074D03*
X011537Y012172D03*
X011341Y012172D03*
X011341Y012074D03*
X011341Y011975D03*
X011341Y011877D03*
X011341Y011779D03*
X011341Y011680D03*
X011341Y011582D03*
X011242Y011582D03*
X011144Y011582D03*
X011045Y011582D03*
X010947Y011582D03*
X010848Y011582D03*
X010750Y011582D03*
X010750Y011680D03*
X010750Y011779D03*
X010750Y011877D03*
X010750Y011975D03*
X010750Y012074D03*
X010750Y012172D03*
X010848Y012172D03*
X010947Y012172D03*
X011045Y012172D03*
X011144Y012172D03*
X011242Y012172D03*
X011144Y011975D03*
X011144Y011877D03*
X011144Y011779D03*
X011045Y011779D03*
X011045Y011877D03*
X010947Y011877D03*
X010947Y011975D03*
X011045Y011975D03*
X011537Y011877D03*
X011931Y011975D03*
X012030Y012074D03*
X012030Y012172D03*
X012128Y012172D03*
X012226Y012172D03*
X012325Y012074D03*
X012325Y011975D03*
X012423Y011975D03*
X012522Y012074D03*
X012620Y011975D03*
X012423Y012172D03*
X011931Y012172D03*
X012128Y011877D03*
X012226Y011877D03*
X012128Y011779D03*
X012226Y011680D03*
X012325Y011680D03*
X012325Y011582D03*
X012128Y011582D03*
X012030Y011680D03*
X012325Y011779D03*
X012423Y011779D03*
X013112Y011779D03*
X013112Y011877D03*
X013112Y011975D03*
X013211Y011975D03*
X013309Y011975D03*
X013309Y011877D03*
X013211Y011877D03*
X013211Y011779D03*
X013309Y011779D03*
X012030Y011385D03*
X011734Y011385D03*
X011636Y011286D03*
X011636Y011188D03*
X011734Y011188D03*
X011636Y011090D03*
X011636Y010991D03*
X011636Y010893D03*
X011734Y010893D03*
X011833Y010991D03*
X011833Y011090D03*
X011931Y011090D03*
X012128Y010991D03*
X012128Y010893D03*
X012226Y010991D03*
X012325Y010893D03*
X012423Y010893D03*
X012325Y010794D03*
X012325Y010696D03*
X012325Y010597D03*
X012325Y010499D03*
X012423Y010499D03*
X012423Y010597D03*
X012522Y010499D03*
X012423Y010401D03*
X012325Y010401D03*
X012226Y010401D03*
X012128Y010401D03*
X012128Y010499D03*
X012128Y010597D03*
X012226Y010597D03*
X012128Y010696D03*
X012226Y010794D03*
X012030Y010794D03*
X011931Y010794D03*
X011931Y010696D03*
X011734Y010597D03*
X011833Y010499D03*
X011931Y010499D03*
X012030Y010401D03*
X012030Y010302D03*
X012128Y010302D03*
X012128Y010204D03*
X012030Y010204D03*
X011931Y010105D03*
X011833Y010007D03*
X011833Y009908D03*
X011931Y009908D03*
X012030Y009908D03*
X012128Y009908D03*
X012226Y009908D03*
X012226Y010007D03*
X012128Y010007D03*
X012226Y010105D03*
X012325Y010105D03*
X012325Y010204D03*
X012522Y010204D03*
X012522Y010105D03*
X012620Y010007D03*
X012719Y010007D03*
X012719Y010105D03*
X012915Y010007D03*
X012915Y009810D03*
X012817Y009810D03*
X012817Y009712D03*
X012719Y009810D03*
X012719Y009908D03*
X012522Y009908D03*
X012522Y009810D03*
X012522Y009712D03*
X012620Y009712D03*
X012620Y009613D03*
X012522Y009613D03*
X012522Y009515D03*
X012522Y009416D03*
X012620Y009416D03*
X012719Y009416D03*
X012817Y009416D03*
X012915Y009416D03*
X012915Y009515D03*
X013014Y009515D03*
X013112Y009515D03*
X013211Y009515D03*
X013211Y009613D03*
X013309Y009613D03*
X013309Y009712D03*
X013309Y009810D03*
X013407Y009712D03*
X013506Y009613D03*
X013407Y009515D03*
X013407Y009416D03*
X013211Y009416D03*
X012719Y009515D03*
X012423Y009515D03*
X012423Y009613D03*
X012423Y009416D03*
X012226Y009515D03*
X012030Y009515D03*
X012030Y009613D03*
X011931Y009613D03*
X011833Y009613D03*
X011833Y009515D03*
X011833Y009416D03*
X011734Y009416D03*
X011734Y009515D03*
X011636Y009515D03*
X011537Y009613D03*
X011537Y009712D03*
X011537Y009908D03*
X011636Y009908D03*
X011734Y009908D03*
X011734Y010007D03*
X011636Y010007D03*
X011537Y010007D03*
X011537Y010105D03*
X011439Y010204D03*
X011341Y010204D03*
X011242Y010204D03*
X011242Y010302D03*
X011341Y010401D03*
X011242Y010499D03*
X011242Y010597D03*
X011144Y010597D03*
X011144Y010696D03*
X011045Y010696D03*
X011045Y010794D03*
X010947Y010794D03*
X010848Y010794D03*
X010750Y010794D03*
X010750Y010893D03*
X010848Y010893D03*
X010947Y010991D03*
X010947Y011090D03*
X010947Y011188D03*
X010848Y011090D03*
X011144Y011188D03*
X011144Y011286D03*
X011242Y011286D03*
X011242Y011385D03*
X011341Y011385D03*
X011439Y011385D03*
X011439Y011286D03*
X011439Y011188D03*
X011537Y011188D03*
X011439Y011090D03*
X011341Y011188D03*
X011242Y011090D03*
X011341Y010991D03*
X011537Y010991D03*
X011537Y010794D03*
X011537Y010696D03*
X011439Y010696D03*
X011341Y010794D03*
X011242Y010794D03*
X011341Y010597D03*
X011537Y010499D03*
X011537Y010401D03*
X011636Y010401D03*
X011734Y010401D03*
X011734Y010302D03*
X011636Y010302D03*
X011636Y010204D03*
X011734Y010204D03*
X011734Y010105D03*
X011341Y010007D03*
X011341Y009908D03*
X011341Y009810D03*
X011341Y009712D03*
X011341Y009613D03*
X011341Y009515D03*
X011341Y009416D03*
X011242Y009416D03*
X011144Y009416D03*
X011045Y009416D03*
X010947Y009416D03*
X010848Y009416D03*
X010750Y009416D03*
X010750Y009515D03*
X010750Y009613D03*
X010750Y009712D03*
X010750Y009810D03*
X010750Y009908D03*
X010750Y010007D03*
X010848Y010007D03*
X010947Y010007D03*
X011045Y010007D03*
X011144Y010007D03*
X011242Y010007D03*
X011144Y009810D03*
X011144Y009712D03*
X011045Y009712D03*
X011045Y009810D03*
X010947Y009810D03*
X010947Y009712D03*
X010947Y009613D03*
X011045Y009613D03*
X011144Y009613D03*
X011537Y009416D03*
X012030Y009416D03*
X011931Y009712D03*
X011833Y009712D03*
X012325Y009810D03*
X012423Y010007D03*
X013014Y009810D03*
X013112Y009810D03*
X013112Y009908D03*
X013112Y010007D03*
X013112Y010105D03*
X013211Y010105D03*
X013309Y010105D03*
X013407Y010105D03*
X013407Y010007D03*
X013506Y010105D03*
X013211Y010007D03*
X013506Y009908D03*
X013112Y009712D03*
X013014Y009712D03*
X012620Y010302D03*
X013211Y010401D03*
X012620Y010794D03*
X012620Y010893D03*
X012620Y011090D03*
X012522Y011188D03*
X012423Y011286D03*
X012325Y011188D03*
X012325Y011090D03*
X012423Y011090D03*
X011734Y011582D03*
X011537Y011582D03*
X011537Y011483D03*
X011045Y011385D03*
X010947Y011385D03*
X010750Y011385D03*
X010947Y011779D03*
X010848Y010696D03*
X010750Y010597D03*
X010750Y010499D03*
X010848Y010499D03*
X010848Y010401D03*
X010848Y010302D03*
X010750Y010302D03*
X010750Y010204D03*
X010947Y010401D03*
X010947Y010499D03*
X010947Y010597D03*
X011833Y010302D03*
D14*
X022811Y011211D03*
X022871Y011171D03*
X022931Y011151D03*
X022971Y011131D03*
X023071Y011091D03*
X023111Y011071D03*
X023171Y011051D03*
X023211Y011031D03*
X024371Y010771D03*
X024411Y010631D03*
X024531Y010771D03*
X024491Y010891D03*
X024471Y011051D03*
X025051Y011151D03*
X025111Y011171D03*
X024491Y011311D03*
X024491Y011331D03*
X024571Y011351D03*
X024771Y011331D03*
X024751Y011551D03*
X024691Y011811D03*
X024591Y011831D03*
X024371Y012191D03*
X024431Y012231D03*
X024451Y012251D03*
X024491Y012271D03*
X024551Y012311D03*
X024591Y012271D03*
X024571Y012251D03*
X025171Y010891D03*
X024891Y010731D03*
X025551Y010471D03*
X024651Y010191D03*
X024631Y010151D03*
X024611Y010131D03*
X024611Y010111D03*
X024571Y010051D03*
X024551Y010031D03*
X024111Y010451D03*
X024251Y009351D03*
X024171Y009251D03*
X024131Y009231D03*
X024091Y009251D03*
X024391Y009311D03*
X024451Y009271D03*
D15*
X024491Y009291D03*
X024551Y009331D03*
X024571Y009371D03*
X024431Y009391D03*
X024411Y009411D03*
X024371Y009411D03*
X024371Y009431D03*
X024351Y009471D03*
X024431Y009471D03*
X024431Y009491D03*
X024471Y009591D03*
X024471Y009611D03*
X024471Y009631D03*
X024471Y009651D03*
X024471Y009671D03*
X024471Y009691D03*
X024471Y009711D03*
X024471Y009731D03*
X024471Y009751D03*
X024471Y009771D03*
X024471Y009791D03*
X024471Y009811D03*
X024471Y009831D03*
X024471Y009851D03*
X024531Y009951D03*
X024091Y009931D03*
X024251Y009551D03*
X024211Y009471D03*
X024211Y009451D03*
X024211Y009411D03*
X024191Y009391D03*
X024211Y009371D03*
X024251Y009331D03*
X024291Y009331D03*
X024351Y009351D03*
X024351Y009371D03*
X024191Y009291D03*
X024131Y009391D03*
X024131Y009411D03*
X024131Y009431D03*
X024051Y009331D03*
X024051Y009311D03*
X024051Y009291D03*
X024051Y009271D03*
X024211Y010451D03*
X024211Y010471D03*
X024211Y010491D03*
X024231Y010531D03*
X024231Y010551D03*
X024251Y010571D03*
X024271Y010591D03*
X024151Y010631D03*
X024131Y010611D03*
X024131Y010591D03*
X024111Y010571D03*
X024111Y010551D03*
X024111Y010531D03*
X024111Y010511D03*
X024111Y010491D03*
X024111Y010471D03*
X024531Y010491D03*
X024571Y010531D03*
X024691Y010431D03*
X024871Y010491D03*
X024831Y010571D03*
X025311Y010671D03*
X025371Y010611D03*
X025471Y010531D03*
X025491Y010511D03*
X025511Y010491D03*
X025751Y010551D03*
X025751Y010571D03*
X025751Y010591D03*
X025731Y010611D03*
X025771Y010531D03*
X025771Y010511D03*
X025771Y010491D03*
X025791Y010471D03*
X025771Y010791D03*
X025771Y010811D03*
X025791Y010831D03*
X025791Y010851D03*
X025811Y010871D03*
X025811Y010891D03*
X025831Y010911D03*
X025831Y010931D03*
X025851Y010951D03*
X025851Y010971D03*
X025631Y011051D03*
X025191Y011051D03*
X025191Y011031D03*
X025191Y011011D03*
X025191Y010991D03*
X025191Y010971D03*
X025191Y010951D03*
X025171Y010931D03*
X025171Y010911D03*
X025011Y010871D03*
X025011Y010851D03*
X024991Y010831D03*
X024671Y010871D03*
X024631Y010891D03*
X024671Y010931D03*
X024291Y010771D03*
X024271Y010791D03*
X024251Y010771D03*
X024231Y010791D03*
X025171Y011131D03*
X025191Y011091D03*
X025191Y011071D03*
X024791Y011311D03*
X024831Y011451D03*
X024911Y011431D03*
X025071Y011411D03*
X024771Y011531D03*
X024591Y011391D03*
X024491Y011431D03*
X024451Y011371D03*
X024431Y011351D03*
X024431Y011331D03*
X024431Y011311D03*
X024911Y011711D03*
X024751Y011751D03*
X024611Y011811D03*
X024651Y012311D03*
D16*
X024511Y012211D03*
X025091Y012131D03*
X024351Y011531D03*
X024731Y011351D03*
X024471Y011291D03*
X024471Y011071D03*
X024471Y010951D03*
X024991Y010791D03*
X024571Y010451D03*
X023991Y010491D03*
X024471Y010151D03*
X024151Y009531D03*
X024231Y009271D03*
X023171Y011271D03*
D17*
X022821Y011191D03*
X024181Y011131D03*
X024561Y011291D03*
X024561Y011311D03*
X024561Y011371D03*
X024541Y011391D03*
X024501Y011351D03*
X024461Y011391D03*
X024641Y011351D03*
X024821Y011351D03*
X024841Y011331D03*
X024841Y011311D03*
X024921Y011331D03*
X025061Y011391D03*
X025081Y011431D03*
X025161Y011151D03*
X025181Y011111D03*
X025021Y010971D03*
X024981Y010811D03*
X024941Y010771D03*
X024921Y010751D03*
X024801Y010611D03*
X024821Y010591D03*
X024841Y010551D03*
X024861Y010531D03*
X024861Y010511D03*
X024901Y010411D03*
X024901Y010391D03*
X024901Y010371D03*
X024901Y010351D03*
X024901Y010331D03*
X024901Y010311D03*
X024901Y010291D03*
X024901Y010271D03*
X024681Y010231D03*
X024661Y010211D03*
X024641Y010171D03*
X024601Y010091D03*
X024581Y010071D03*
X024201Y010411D03*
X024201Y010431D03*
X024221Y010511D03*
X024541Y010551D03*
X024581Y010511D03*
X024521Y010791D03*
X024501Y010831D03*
X024401Y010891D03*
X024261Y010751D03*
X025301Y010691D03*
X025341Y010651D03*
X025361Y010631D03*
X025401Y010591D03*
X025421Y010571D03*
X025441Y010551D03*
X025721Y010631D03*
X025421Y010931D03*
X025381Y010911D03*
X025341Y010891D03*
X025461Y010951D03*
X025481Y010971D03*
X025521Y010991D03*
X025561Y011011D03*
X025841Y010991D03*
X024861Y011711D03*
X024841Y011731D03*
X024801Y011711D03*
X024781Y011731D03*
X024681Y011731D03*
X024661Y011751D03*
X024641Y011771D03*
X024621Y011791D03*
X024661Y011831D03*
X024901Y011731D03*
X024401Y012211D03*
X024621Y012291D03*
X024661Y012331D03*
X024681Y012391D03*
X024281Y009611D03*
X024261Y009571D03*
X024241Y009531D03*
X024361Y009491D03*
X024361Y009451D03*
X024361Y009391D03*
X024361Y009331D03*
X024421Y009291D03*
X024521Y009311D03*
X024561Y009351D03*
X024541Y009391D03*
X024441Y009511D03*
X024461Y009571D03*
X024141Y009451D03*
X024121Y009371D03*
X024081Y009351D03*
X024281Y009311D03*
X024281Y009291D03*
D18*
X024141Y009471D03*
X024361Y009511D03*
X024381Y009571D03*
X024541Y010011D03*
X024581Y010431D03*
X024381Y010651D03*
X024381Y010791D03*
X024241Y010811D03*
X024981Y010731D03*
X025021Y010991D03*
X024901Y011191D03*
X025001Y011331D03*
X025001Y011411D03*
X025001Y011431D03*
X024841Y011431D03*
X024741Y011571D03*
X024901Y011691D03*
X024501Y011411D03*
X025761Y011011D03*
X024021Y010451D03*
X024001Y010471D03*
X023021Y011111D03*
X025121Y012151D03*
X024581Y012331D03*
X024521Y012291D03*
X024541Y012231D03*
X024661Y012371D03*
D19*
X024641Y012351D03*
X025061Y012111D03*
X024601Y011851D03*
X024561Y011871D03*
X024481Y011831D03*
X024481Y011911D03*
X024701Y011611D03*
X024721Y011591D03*
X024921Y011671D03*
X025041Y011471D03*
X025041Y011451D03*
X024981Y011351D03*
X024961Y011311D03*
X025021Y011191D03*
X024941Y011151D03*
X025021Y011011D03*
X024681Y011311D03*
X023041Y011251D03*
X022921Y011231D03*
X024521Y010651D03*
X023981Y010531D03*
X023981Y010511D03*
X024841Y010211D03*
X024381Y009751D03*
X024381Y009731D03*
X024381Y009611D03*
X024381Y009591D03*
X024401Y009551D03*
X024401Y009531D03*
X024161Y009551D03*
X024161Y009571D03*
X024161Y009491D03*
D20*
X024171Y009511D03*
X024371Y009691D03*
X024371Y009711D03*
X024071Y010411D03*
X024051Y010431D03*
X023971Y010551D03*
X024351Y010671D03*
X024751Y010531D03*
X024751Y010511D03*
X025031Y011031D03*
X024471Y011091D03*
X024711Y011291D03*
X024871Y011411D03*
X024951Y011271D03*
X024991Y011551D03*
X024991Y011571D03*
X024971Y011591D03*
X024971Y011611D03*
X024951Y011631D03*
X024931Y011651D03*
X024871Y011751D03*
X024991Y012071D03*
X025031Y012091D03*
X024491Y012191D03*
X023311Y011291D03*
X025651Y011031D03*
D21*
X024961Y011211D03*
X024961Y011371D03*
X024921Y011391D03*
X024601Y011491D03*
X024861Y011811D03*
X024201Y011771D03*
X023961Y010631D03*
X023961Y010611D03*
X024181Y009711D03*
X024181Y009591D03*
D22*
X024161Y009611D03*
X024161Y009631D03*
X024361Y009651D03*
X024361Y009671D03*
X024601Y010471D03*
X024721Y010551D03*
X024721Y010631D03*
X024781Y010691D03*
X024901Y010711D03*
X024541Y010631D03*
X024821Y010471D03*
X024821Y010451D03*
X024821Y010431D03*
X023961Y010571D03*
X023961Y010591D03*
X024501Y011251D03*
X024501Y011271D03*
X024621Y011331D03*
X025001Y011531D03*
X025021Y011511D03*
X025021Y011491D03*
X024481Y011811D03*
X024981Y012051D03*
D23*
X024951Y012031D03*
X024931Y012011D03*
X024191Y011531D03*
X024711Y011391D03*
X024771Y011271D03*
X024931Y011291D03*
X024951Y011231D03*
X024471Y011111D03*
X025011Y011051D03*
X025231Y010871D03*
X024711Y010651D03*
X024751Y010271D03*
X024831Y010231D03*
X025711Y010451D03*
X024171Y009691D03*
X024171Y009671D03*
X024171Y009651D03*
X024351Y009631D03*
X023391Y011271D03*
D24*
X024291Y011251D03*
X024291Y011231D03*
X024311Y011211D03*
X024631Y011451D03*
X024651Y011431D03*
X024671Y011411D03*
X024711Y011371D03*
X024611Y011471D03*
X024571Y011511D03*
X024471Y011791D03*
X024211Y011791D03*
X024831Y011771D03*
X024851Y011831D03*
X024891Y011971D03*
X024911Y011991D03*
X024431Y012171D03*
X024291Y010831D03*
X024291Y010691D03*
X024431Y010811D03*
X024551Y010691D03*
X023971Y010651D03*
X025711Y010651D03*
X024191Y009751D03*
X024191Y009731D03*
D25*
X024261Y009771D03*
X024261Y009851D03*
X024681Y010371D03*
X024621Y010671D03*
X024021Y010771D03*
X024261Y011871D03*
D26*
X024271Y011491D03*
X024271Y011431D03*
X023491Y011231D03*
X024011Y010791D03*
X024431Y010711D03*
X024691Y010411D03*
X024691Y010391D03*
X024291Y010051D03*
X024291Y010031D03*
X024291Y010011D03*
X024271Y010071D03*
X024271Y009831D03*
X024251Y009791D03*
D27*
X024261Y009811D03*
X024261Y010091D03*
X024641Y010571D03*
X024621Y010591D03*
X024601Y010611D03*
X024421Y010731D03*
X024001Y010691D03*
X024001Y010811D03*
X024601Y011211D03*
X024261Y011391D03*
X024261Y011411D03*
X024261Y011511D03*
X024241Y011851D03*
X024261Y011951D03*
X024261Y011971D03*
D28*
X024631Y011231D03*
X023551Y011211D03*
X024331Y009971D03*
X024291Y009891D03*
X024291Y009871D03*
D29*
X024301Y009911D03*
X024341Y009991D03*
X024641Y010311D03*
D30*
X024661Y010331D03*
X024341Y009931D03*
X024041Y010711D03*
X024041Y010731D03*
D31*
X024031Y010751D03*
X024411Y011131D03*
X024831Y011251D03*
X024291Y011451D03*
X024291Y011471D03*
X025291Y010831D03*
X025651Y010671D03*
X024671Y010351D03*
X024311Y009951D03*
D32*
X024251Y010111D03*
X024251Y010131D03*
X024231Y010151D03*
X023991Y010831D03*
X024991Y011111D03*
X024251Y011351D03*
X024251Y011371D03*
X024231Y011911D03*
X024251Y011931D03*
X024271Y011991D03*
X024291Y012011D03*
X024331Y012071D03*
D33*
X024411Y011151D03*
X024311Y010171D03*
D34*
X024321Y010191D03*
X024381Y011611D03*
D35*
X024381Y011571D03*
X024381Y011731D03*
X024321Y010211D03*
D36*
X024331Y010231D03*
X024331Y010251D03*
X024391Y011551D03*
D37*
X024551Y011531D03*
X024471Y011771D03*
X024231Y011811D03*
X024831Y011791D03*
X024411Y012151D03*
X024391Y012131D03*
X024251Y011311D03*
X025251Y010851D03*
X024431Y010751D03*
X024711Y010491D03*
X024151Y010331D03*
X024791Y010251D03*
D38*
X024331Y010271D03*
X024451Y011651D03*
X024451Y011671D03*
X024431Y011691D03*
X024411Y011711D03*
D39*
X023741Y011131D03*
X024441Y010291D03*
D40*
X024181Y010311D03*
X024981Y011091D03*
X024261Y011331D03*
X024241Y011831D03*
X024301Y012031D03*
X024321Y012051D03*
X024361Y012091D03*
X024381Y012111D03*
D41*
X024861Y011911D03*
X024861Y011891D03*
X024861Y011871D03*
X024861Y011851D03*
X024881Y011931D03*
X024881Y011951D03*
X024261Y011291D03*
X024281Y011271D03*
X024961Y011131D03*
X025001Y011071D03*
X023961Y010671D03*
X024121Y010391D03*
X024121Y010371D03*
X024141Y010351D03*
X023441Y011251D03*
D42*
X023591Y011191D03*
X024111Y010891D03*
X024431Y011171D03*
X025331Y010811D03*
X025591Y010691D03*
X024391Y011591D03*
X024371Y011751D03*
X024331Y011891D03*
D43*
X025371Y010791D03*
X025531Y010711D03*
D44*
X025461Y010731D03*
X024141Y010911D03*
D45*
X025401Y010751D03*
D46*
X025391Y010771D03*
D47*
X024181Y010851D03*
D48*
X024191Y010871D03*
D49*
X024081Y010931D03*
X023961Y010951D03*
D50*
X023921Y010971D03*
D51*
X023871Y010991D03*
D52*
X023841Y011011D03*
D53*
X023881Y011031D03*
D54*
X023851Y011051D03*
D55*
X023851Y011071D03*
D56*
X023841Y011091D03*
D57*
X023851Y011111D03*
D58*
X023691Y011151D03*
D59*
X023641Y011171D03*
X024461Y011631D03*
D60*
X024441Y011191D03*
D61*
X032250Y009347D02*
X032250Y009041D01*
X032250Y009194D02*
X032711Y009194D01*
X032634Y008887D02*
X032327Y008887D01*
X032250Y008810D01*
X032250Y008657D01*
X032327Y008580D01*
X032634Y008580D01*
X032711Y008657D01*
X032711Y008810D01*
X032634Y008887D01*
X032481Y008427D02*
X032327Y008427D01*
X032250Y008350D01*
X032250Y008120D01*
X032711Y008120D01*
X032557Y008120D02*
X032557Y008350D01*
X032481Y008427D01*
X032250Y007966D02*
X032711Y007966D01*
X032404Y007813D02*
X032250Y007966D01*
X032404Y007813D02*
X032250Y007659D01*
X032711Y007659D01*
X032711Y007506D02*
X032711Y007353D01*
X032711Y007429D02*
X032250Y007429D01*
X032250Y007353D02*
X032250Y007506D01*
X032327Y007199D02*
X032481Y007199D01*
X032557Y007122D01*
X032557Y006892D01*
X032557Y007046D02*
X032711Y007199D01*
X032327Y007199D02*
X032250Y007122D01*
X032250Y006892D01*
X032711Y006892D01*
X032250Y006739D02*
X032250Y006432D01*
X032787Y006278D02*
X032787Y005972D01*
X032634Y005818D02*
X032711Y005741D01*
X032711Y005588D01*
X032634Y005511D01*
X032711Y005358D02*
X032250Y005358D01*
X032327Y005511D02*
X032404Y005511D01*
X032481Y005588D01*
X032481Y005741D01*
X032557Y005818D01*
X032634Y005818D01*
X032327Y005818D02*
X032250Y005741D01*
X032250Y005588D01*
X032327Y005511D01*
X032711Y005358D02*
X032250Y005051D01*
X032711Y005051D01*
X032711Y004897D02*
X032557Y004744D01*
X032557Y004821D02*
X032557Y004590D01*
X032711Y004590D02*
X032250Y004590D01*
X032250Y004821D01*
X032327Y004897D01*
X032481Y004897D01*
X032557Y004821D01*
X031794Y005128D02*
X031794Y005435D01*
X031947Y005282D02*
X031640Y005282D01*
X031487Y005358D02*
X031333Y005051D01*
X031180Y005358D01*
X030447Y005358D02*
X030447Y005435D01*
X030371Y005512D01*
X030217Y005512D01*
X030140Y005435D01*
X030294Y005282D02*
X030371Y005282D01*
X030447Y005205D01*
X030447Y005128D01*
X030371Y005051D01*
X030217Y005051D01*
X030140Y005128D01*
X030371Y005282D02*
X030447Y005358D01*
X030447Y006051D02*
X030140Y006051D01*
X030447Y006358D01*
X030447Y006435D01*
X030371Y006512D01*
X030217Y006512D01*
X030140Y006435D01*
X030140Y007051D02*
X030447Y007051D01*
X030294Y007051D02*
X030294Y007512D01*
X030140Y007358D01*
X032250Y006585D02*
X032711Y006585D01*
X037300Y006753D02*
X037821Y006753D01*
X037821Y007099D01*
X037821Y007268D02*
X037474Y007615D01*
X037561Y007784D02*
X037734Y007784D01*
X037821Y007871D01*
X037821Y008131D01*
X037821Y008299D02*
X037821Y008473D01*
X037821Y008386D02*
X037474Y008386D01*
X037474Y008299D01*
X037474Y008131D02*
X037474Y007871D01*
X037561Y007784D01*
X037821Y007615D02*
X037474Y007268D01*
X037300Y007099D02*
X037300Y006753D01*
X037561Y006753D02*
X037561Y006926D01*
X038140Y006901D02*
X038227Y006815D01*
X038574Y006815D01*
X038661Y006901D01*
X038661Y007075D01*
X038574Y007161D01*
X038401Y007161D01*
X038401Y006988D01*
X038227Y007161D02*
X038140Y007075D01*
X038140Y006901D01*
X038140Y007330D02*
X038661Y007677D01*
X038140Y007677D01*
X038140Y007846D02*
X038140Y008106D01*
X038227Y008193D01*
X038574Y008193D01*
X038661Y008106D01*
X038661Y007846D01*
X038140Y007846D01*
X038140Y007330D02*
X038661Y007330D01*
X037300Y008386D02*
X037214Y008386D01*
X037474Y008643D02*
X037474Y008817D01*
X037387Y008730D02*
X037734Y008730D01*
X037821Y008817D01*
X037734Y008987D02*
X037647Y009074D01*
X037647Y009334D01*
X037561Y009334D02*
X037821Y009334D01*
X037821Y009074D01*
X037734Y008987D01*
X037474Y009074D02*
X037474Y009247D01*
X037561Y009334D01*
X037474Y009503D02*
X037474Y009676D01*
X037387Y009589D02*
X037734Y009589D01*
X037821Y009676D01*
X037821Y009846D02*
X037821Y010020D01*
X037821Y009933D02*
X037474Y009933D01*
X037474Y009846D01*
X037300Y009933D02*
X037214Y009933D01*
X037474Y010277D02*
X037561Y010190D01*
X037734Y010190D01*
X037821Y010277D01*
X037821Y010450D01*
X037734Y010537D01*
X037561Y010537D01*
X037474Y010450D01*
X037474Y010277D01*
X038401Y009783D02*
X038401Y009436D01*
X038574Y009609D02*
X038227Y009609D01*
X037821Y010706D02*
X037474Y010706D01*
X037474Y010966D01*
X037561Y011053D01*
X037821Y011053D01*
X038401Y005033D02*
X038401Y004686D01*
X038574Y004859D02*
X038227Y004859D01*
X037821Y004926D02*
X037821Y004752D01*
X037734Y004666D01*
X037561Y004666D01*
X037474Y004752D01*
X037474Y004926D01*
X037561Y005013D01*
X037647Y005013D01*
X037647Y004666D01*
X037734Y004497D02*
X037647Y004410D01*
X037647Y004237D01*
X037561Y004150D01*
X037474Y004237D01*
X037474Y004497D01*
X037734Y004497D02*
X037821Y004410D01*
X037821Y004150D01*
X037821Y003981D02*
X037561Y003981D01*
X037474Y003895D01*
X037474Y003634D01*
X037821Y003634D01*
X037647Y003466D02*
X037647Y003119D01*
X037561Y003119D02*
X037474Y003206D01*
X037474Y003379D01*
X037561Y003466D01*
X037647Y003466D01*
X037821Y003379D02*
X037821Y003206D01*
X037734Y003119D01*
X037561Y003119D01*
X037647Y002950D02*
X037734Y002950D01*
X037821Y002863D01*
X037821Y002690D01*
X037734Y002603D01*
X037561Y002690D02*
X037561Y002863D01*
X037647Y002950D01*
X037387Y002950D02*
X037300Y002863D01*
X037300Y002690D01*
X037387Y002603D01*
X037474Y002603D01*
X037561Y002690D01*
X038401Y002576D02*
X038401Y002923D01*
X032711Y003209D02*
X032711Y003440D01*
X032634Y003516D01*
X032557Y003516D01*
X032481Y003440D01*
X032481Y003209D01*
X032711Y003209D02*
X032250Y003209D01*
X032250Y003440D01*
X032327Y003516D01*
X032404Y003516D01*
X032481Y003440D01*
X032327Y003670D02*
X032634Y003670D01*
X032711Y003746D01*
X032711Y003900D01*
X032634Y003977D01*
X032327Y003977D01*
X032250Y003900D01*
X032250Y003746D01*
X032327Y003670D01*
X031047Y004128D02*
X030971Y004051D01*
X030817Y004051D01*
X030740Y004128D01*
X030740Y004435D01*
X030817Y004512D01*
X030971Y004512D01*
X031047Y004435D01*
X031047Y004282D02*
X030894Y004282D01*
X031047Y004282D02*
X031047Y004128D01*
X030587Y004051D02*
X030433Y004205D01*
X030510Y004205D02*
X030280Y004205D01*
X030280Y004051D02*
X030280Y004512D01*
X030510Y004512D01*
X030587Y004435D01*
X030587Y004282D01*
X030510Y004205D01*
X032250Y004130D02*
X032634Y004130D01*
X032711Y004207D01*
X032711Y004360D01*
X032634Y004437D01*
X032250Y004437D01*
X010920Y008378D02*
X010843Y008301D01*
X010690Y008301D01*
X010613Y008378D01*
X010459Y008378D02*
X010383Y008301D01*
X010229Y008301D01*
X010153Y008378D01*
X009999Y008378D02*
X009922Y008301D01*
X009769Y008301D01*
X009692Y008378D01*
X009539Y008378D02*
X009462Y008301D01*
X009309Y008301D01*
X009232Y008378D01*
X009385Y008532D02*
X009462Y008532D01*
X009539Y008455D01*
X009539Y008378D01*
X009462Y008532D02*
X009539Y008608D01*
X009539Y008685D01*
X009462Y008762D01*
X009309Y008762D01*
X009232Y008685D01*
X009078Y008762D02*
X008771Y008762D01*
X008771Y008301D01*
X008618Y008301D02*
X008311Y008301D01*
X008311Y008762D01*
X008618Y008762D01*
X008158Y008685D02*
X008158Y008532D01*
X008081Y008455D01*
X007851Y008455D01*
X008004Y008455D02*
X008158Y008301D01*
X007851Y008301D02*
X007851Y008762D01*
X008081Y008762D01*
X008158Y008685D01*
X008311Y008532D02*
X008465Y008532D01*
X008771Y008532D02*
X008925Y008532D01*
X009692Y008685D02*
X009769Y008762D01*
X009922Y008762D01*
X009999Y008685D01*
X009999Y008608D01*
X009922Y008532D01*
X009999Y008455D01*
X009999Y008378D01*
X009922Y008532D02*
X009846Y008532D01*
X010153Y008685D02*
X010229Y008762D01*
X010383Y008762D01*
X010459Y008685D01*
X010459Y008608D01*
X010383Y008532D01*
X010459Y008455D01*
X010459Y008378D01*
X010383Y008532D02*
X010306Y008532D01*
X010613Y008685D02*
X010690Y008762D01*
X010843Y008762D01*
X010920Y008685D01*
X010920Y008608D01*
X010843Y008532D01*
X010920Y008455D01*
X010920Y008378D01*
X010843Y008532D02*
X010766Y008532D01*
X008848Y010301D02*
X008848Y010762D01*
X008618Y010532D01*
X008925Y010532D01*
X008465Y010685D02*
X008388Y010762D01*
X008234Y010762D01*
X008158Y010685D01*
X008158Y010378D01*
X008234Y010301D01*
X008388Y010301D01*
X008465Y010378D01*
X008004Y010301D02*
X007851Y010301D01*
X007927Y010301D02*
X007927Y010762D01*
X007851Y010762D02*
X008004Y010762D01*
X003061Y007648D02*
X003061Y007341D01*
X003061Y007494D02*
X002600Y007494D01*
X002754Y007341D01*
X002061Y007341D02*
X002061Y007571D01*
X001984Y007648D01*
X001907Y007648D01*
X001831Y007571D01*
X001831Y007341D01*
X002061Y007341D02*
X001600Y007341D01*
X001600Y007571D01*
X001677Y007648D01*
X001754Y007648D01*
X001831Y007571D01*
X001984Y007187D02*
X002061Y007111D01*
X002061Y006957D01*
X001984Y006880D01*
X001677Y007187D01*
X001984Y007187D01*
X001677Y007187D02*
X001600Y007111D01*
X001600Y006957D01*
X001677Y006880D01*
X001984Y006880D01*
X001984Y006727D02*
X002061Y006727D01*
X002061Y006650D01*
X001984Y006650D01*
X001984Y006727D01*
X001984Y006497D02*
X002061Y006420D01*
X002061Y006267D01*
X001984Y006190D01*
X001831Y006343D02*
X001831Y006420D01*
X001907Y006497D01*
X001984Y006497D01*
X001831Y006420D02*
X001754Y006497D01*
X001677Y006497D01*
X001600Y006420D01*
X001600Y006267D01*
X001677Y006190D01*
X001677Y006036D02*
X001600Y005960D01*
X001600Y005730D01*
X002061Y005730D01*
X002061Y005960D01*
X001984Y006036D01*
X001907Y006036D01*
X001831Y005960D01*
X001831Y005730D01*
X001907Y005576D02*
X001984Y005576D01*
X002061Y005499D01*
X002061Y005346D01*
X001984Y005269D01*
X001984Y005116D02*
X001600Y005116D01*
X001677Y005269D02*
X001754Y005269D01*
X001831Y005346D01*
X001831Y005499D01*
X001907Y005576D01*
X001677Y005576D02*
X001600Y005499D01*
X001600Y005346D01*
X001677Y005269D01*
X001984Y005116D02*
X002061Y005039D01*
X002061Y004886D01*
X001984Y004809D01*
X001600Y004809D01*
X001831Y005960D02*
X001754Y006036D01*
X001677Y006036D01*
X002984Y006881D02*
X003061Y006957D01*
X003061Y007034D01*
X002984Y007111D01*
X002600Y007111D01*
X002600Y007034D02*
X002600Y007188D01*
D62*
X012831Y006931D02*
X012981Y006781D01*
X012831Y006631D01*
X012831Y005931D01*
X012981Y005781D01*
X012831Y005631D01*
X012831Y004931D01*
X012981Y004781D01*
X014681Y004781D01*
X014831Y004931D01*
X014831Y005631D01*
X014681Y005781D01*
X014831Y005931D01*
X014831Y006631D01*
X014681Y006781D01*
X014831Y006931D01*
X014831Y007631D01*
X014681Y007781D01*
X012981Y007781D01*
X012831Y007631D01*
X012831Y006931D01*
X021581Y006931D02*
X021581Y007531D01*
X029581Y007531D01*
X029581Y005531D01*
X029581Y004531D01*
X021581Y004531D01*
X021581Y005531D01*
X021581Y006131D01*
X021620Y006133D01*
X021659Y006139D01*
X021697Y006148D01*
X021734Y006161D01*
X021770Y006178D01*
X021803Y006198D01*
X021835Y006222D01*
X021864Y006248D01*
X021890Y006277D01*
X021914Y006309D01*
X021934Y006342D01*
X021951Y006378D01*
X021964Y006415D01*
X021973Y006453D01*
X021979Y006492D01*
X021981Y006531D01*
X021979Y006570D01*
X021973Y006609D01*
X021964Y006647D01*
X021951Y006684D01*
X021934Y006720D01*
X021914Y006753D01*
X021890Y006785D01*
X021864Y006814D01*
X021835Y006840D01*
X021803Y006864D01*
X021770Y006884D01*
X021734Y006901D01*
X021697Y006914D01*
X021659Y006923D01*
X021620Y006929D01*
X021581Y006931D01*
X021581Y007531D02*
X021581Y008531D01*
X029581Y008531D01*
X029581Y007531D01*
X029581Y005531D02*
X021581Y005531D01*
X025431Y003981D02*
X025581Y003981D01*
X025631Y003931D01*
X027531Y003931D01*
X027581Y003981D01*
X027731Y003981D01*
X027748Y003979D01*
X027765Y003975D01*
X027781Y003968D01*
X027795Y003958D01*
X027808Y003945D01*
X027818Y003931D01*
X027825Y003915D01*
X027829Y003898D01*
X027831Y003881D01*
X027831Y003181D02*
X027829Y003164D01*
X027825Y003147D01*
X027818Y003131D01*
X027808Y003117D01*
X027795Y003104D01*
X027781Y003094D01*
X027765Y003087D01*
X027748Y003083D01*
X027731Y003081D01*
X027581Y003081D01*
X027531Y003131D01*
X025631Y003131D01*
X025581Y003081D01*
X025431Y003081D01*
X025414Y003083D01*
X025397Y003087D01*
X025381Y003094D01*
X025367Y003104D01*
X025354Y003117D01*
X025344Y003131D01*
X025337Y003147D01*
X025333Y003164D01*
X025331Y003181D01*
X025331Y003881D02*
X025333Y003898D01*
X025337Y003915D01*
X025344Y003931D01*
X025354Y003945D01*
X025367Y003958D01*
X025381Y003968D01*
X025397Y003975D01*
X025414Y003979D01*
X025431Y003981D01*
X026771Y010141D02*
X026591Y010331D01*
X026751Y010571D01*
X026772Y010544D02*
X027195Y010544D01*
X027217Y010602D02*
X026797Y010602D01*
X026801Y010591D02*
X026701Y010841D01*
X026401Y010941D01*
X026401Y010891D01*
X026401Y011141D01*
X026701Y011191D01*
X026801Y011491D01*
X026601Y011691D01*
X026751Y011841D01*
X027051Y011691D01*
X027351Y011841D01*
X027301Y011841D01*
X027351Y012091D01*
X027601Y012091D01*
X027601Y011791D01*
X027901Y011691D01*
X028151Y011841D01*
X028301Y011741D01*
X028151Y011441D01*
X028251Y011191D01*
X028551Y011141D01*
X028551Y010891D01*
X028251Y010891D01*
X028151Y010541D01*
X028301Y010341D01*
X028151Y010191D01*
X027951Y010341D01*
X027851Y010291D01*
X027651Y010691D01*
X027851Y010891D01*
X027851Y011141D01*
X027701Y011391D01*
X027451Y011441D01*
X027151Y011341D01*
X027201Y011341D01*
X027051Y011091D01*
X027151Y010791D01*
X027251Y010691D01*
X027101Y010291D01*
X027001Y010341D01*
X026801Y010191D01*
X026651Y010341D01*
X026801Y010591D01*
X026773Y010661D02*
X027239Y010661D01*
X027223Y010719D02*
X026750Y010719D01*
X026726Y010778D02*
X027164Y010778D01*
X027136Y010836D02*
X026703Y010836D01*
X026651Y010841D02*
X026351Y010891D01*
X026351Y011151D01*
X026651Y011211D01*
X026678Y011188D02*
X027109Y011188D01*
X027144Y011246D02*
X026719Y011246D01*
X026739Y011305D02*
X027179Y011305D01*
X027216Y011363D02*
X026758Y011363D01*
X026778Y011422D02*
X027392Y011422D01*
X027549Y011422D02*
X028159Y011422D01*
X028171Y011461D02*
X028351Y011721D01*
X028161Y011901D01*
X027901Y011721D01*
X027939Y011714D02*
X028287Y011714D01*
X028258Y011656D02*
X026636Y011656D01*
X026624Y011714D02*
X027005Y011714D01*
X027031Y011721D02*
X026771Y011901D01*
X026581Y011721D01*
X026761Y011461D01*
X026797Y011480D02*
X028170Y011480D01*
X028199Y011539D02*
X026753Y011539D01*
X026695Y011597D02*
X028229Y011597D01*
X028253Y011773D02*
X028037Y011773D01*
X028134Y011832D02*
X028166Y011832D01*
X027832Y011714D02*
X027097Y011714D01*
X027214Y011773D02*
X027656Y011773D01*
X027651Y011821D02*
X027601Y012141D01*
X027331Y012141D01*
X027281Y011821D01*
X027331Y011832D02*
X027601Y011832D01*
X027601Y011890D02*
X027311Y011890D01*
X027322Y011949D02*
X027601Y011949D01*
X027601Y012007D02*
X027334Y012007D01*
X027346Y012066D02*
X027601Y012066D01*
X026888Y011773D02*
X026682Y011773D01*
X026741Y011832D02*
X026771Y011832D01*
X027718Y011363D02*
X028182Y011363D01*
X028205Y011305D02*
X027753Y011305D01*
X027788Y011246D02*
X028229Y011246D01*
X028281Y011211D02*
X028581Y011151D01*
X028581Y010891D01*
X028281Y010841D01*
X028235Y010836D02*
X027796Y010836D01*
X027851Y010895D02*
X028551Y010895D01*
X028551Y010953D02*
X027851Y010953D01*
X027851Y011012D02*
X028551Y011012D01*
X028551Y011070D02*
X027851Y011070D01*
X027851Y011129D02*
X028551Y011129D01*
X028274Y011188D02*
X027823Y011188D01*
X028170Y011460D02*
X028199Y011413D01*
X028224Y011365D01*
X028246Y011315D01*
X028265Y011264D01*
X028280Y011212D01*
X028281Y010838D02*
X028271Y010791D01*
X028258Y010745D01*
X028243Y010700D01*
X028225Y010655D01*
X028204Y010612D01*
X028181Y010571D01*
X028351Y010331D01*
X028161Y010141D01*
X027921Y010311D01*
X027821Y010251D01*
X027631Y010701D01*
X027679Y010719D02*
X028202Y010719D01*
X028185Y010661D02*
X027666Y010661D01*
X027695Y010602D02*
X028168Y010602D01*
X028151Y010544D02*
X027725Y010544D01*
X027754Y010485D02*
X028193Y010485D01*
X028237Y010426D02*
X027783Y010426D01*
X027813Y010368D02*
X028281Y010368D01*
X028269Y010309D02*
X027993Y010309D01*
X028072Y010251D02*
X028210Y010251D01*
X028152Y010192D02*
X028150Y010192D01*
X027887Y010309D02*
X027842Y010309D01*
X027311Y010701D02*
X027111Y010251D01*
X027011Y010311D01*
X026771Y010141D01*
X026800Y010192D02*
X026802Y010192D01*
X026741Y010251D02*
X026880Y010251D01*
X026958Y010309D02*
X026683Y010309D01*
X026667Y010368D02*
X027129Y010368D01*
X027108Y010309D02*
X027065Y010309D01*
X027151Y010426D02*
X026702Y010426D01*
X026737Y010485D02*
X027173Y010485D01*
X027737Y010778D02*
X028218Y010778D01*
X027905Y011723D02*
X027858Y011750D01*
X027809Y011773D01*
X027759Y011793D01*
X027708Y011810D01*
X027656Y011824D01*
X027073Y011129D02*
X026401Y011129D01*
X026401Y011070D02*
X027058Y011070D01*
X027077Y011012D02*
X026401Y011012D01*
X026401Y010953D02*
X027097Y010953D01*
X027116Y010895D02*
X026541Y010895D01*
X027034Y011725D02*
X027079Y011750D01*
X027126Y011773D01*
X027174Y011792D01*
X027223Y011809D01*
X027273Y011822D01*
X027311Y010711D02*
X027278Y010729D01*
X027248Y010750D01*
X027219Y010774D01*
X027193Y010801D01*
X027171Y010830D01*
X027151Y010862D01*
X027134Y010895D01*
X027121Y010930D01*
X027112Y010966D01*
X027106Y011003D01*
X027104Y011040D01*
X027106Y011077D01*
X027111Y011114D01*
X027121Y011150D01*
X027133Y011185D01*
X027150Y011219D01*
X027169Y011250D01*
X027192Y011280D01*
X027218Y011307D01*
X027246Y011331D01*
X027277Y011352D01*
X027309Y011370D01*
X027343Y011385D01*
X027379Y011396D01*
X027415Y011404D01*
X027452Y011408D01*
X027490Y011408D01*
X027527Y011404D01*
X027563Y011396D01*
X027599Y011385D01*
X027633Y011370D01*
X027665Y011352D01*
X027696Y011331D01*
X027724Y011307D01*
X027750Y011280D01*
X027773Y011250D01*
X027792Y011219D01*
X027809Y011185D01*
X027821Y011150D01*
X027831Y011114D01*
X027836Y011077D01*
X027838Y011040D01*
X027836Y011003D01*
X027830Y010966D01*
X027821Y010930D01*
X027808Y010895D01*
X027791Y010862D01*
X027771Y010830D01*
X027749Y010801D01*
X027723Y010774D01*
X027694Y010750D01*
X027664Y010729D01*
X027631Y010711D01*
X026755Y010574D02*
X026727Y010624D01*
X026703Y010676D01*
X026682Y010729D01*
X026665Y010784D01*
X026652Y010840D01*
X026658Y011211D02*
X026672Y011262D01*
X026690Y011313D01*
X026711Y011362D01*
X026735Y011410D01*
X026762Y011456D01*
D63*
X034177Y010970D02*
X036736Y010970D01*
X036736Y006561D01*
X034177Y006561D01*
X034177Y010970D01*
X036736Y010970D02*
X037130Y010970D01*
X037130Y006561D01*
X036736Y006561D01*
X036736Y006220D02*
X036736Y001811D01*
X034177Y001811D01*
X034177Y006220D01*
X036736Y006220D01*
X037130Y006220D01*
X037130Y001811D01*
X036736Y001811D01*
X009632Y005730D02*
X009632Y006833D01*
X008530Y006833D01*
X008530Y005730D01*
X009632Y005730D01*
X009396Y006478D02*
X009396Y006714D01*
X009416Y006712D01*
X009436Y006707D01*
X009455Y006698D01*
X009472Y006686D01*
X009486Y006672D01*
X009498Y006655D01*
X009507Y006636D01*
X009512Y006616D01*
X009514Y006596D01*
X009512Y006576D01*
X009507Y006556D01*
X009498Y006537D01*
X009486Y006520D01*
X009472Y006506D01*
X009455Y006494D01*
X009436Y006485D01*
X009416Y006480D01*
X009396Y006478D01*
D64*
X010286Y006419D02*
X010436Y006419D01*
X010436Y006369D02*
X010436Y006470D01*
X010411Y006517D02*
X010436Y006542D01*
X010436Y006617D01*
X010336Y006617D01*
X010361Y006664D02*
X010361Y006714D01*
X010436Y006664D02*
X010286Y006664D01*
X010286Y006764D01*
X010336Y006517D02*
X010411Y006517D01*
X010286Y006419D02*
X010336Y006369D01*
X010411Y006321D02*
X010436Y006321D01*
X010436Y006296D01*
X010411Y006296D01*
X010411Y006321D01*
X010411Y006249D02*
X010436Y006224D01*
X010436Y006173D01*
X010411Y006148D01*
X010311Y006249D01*
X010411Y006249D01*
X010311Y006249D02*
X010286Y006224D01*
X010286Y006173D01*
X010311Y006148D01*
X010411Y006148D01*
X010436Y005989D02*
X010461Y005964D01*
X010461Y005914D01*
X010436Y005889D01*
X010436Y005842D02*
X010461Y005817D01*
X010461Y005767D01*
X010436Y005742D01*
X010336Y005742D01*
X010311Y005767D01*
X010311Y005817D01*
X010336Y005842D01*
X010311Y005889D02*
X010386Y005889D01*
X010361Y005939D01*
X010361Y005964D01*
X010386Y005989D01*
X010436Y005989D01*
X010311Y005989D02*
X010311Y005889D01*
X009908Y005162D02*
X009858Y005162D01*
X009833Y005136D01*
X009786Y005136D02*
X009761Y005162D01*
X009711Y005162D01*
X009686Y005136D01*
X009686Y005036D01*
X009711Y005011D01*
X009761Y005011D01*
X009786Y005036D01*
X009833Y005011D02*
X009933Y005111D01*
X009933Y005136D01*
X009908Y005162D01*
X010211Y005111D02*
X010236Y005137D01*
X010286Y005137D01*
X010311Y005111D01*
X010211Y005011D01*
X010236Y004986D01*
X010286Y004986D01*
X010311Y005011D01*
X010311Y005111D01*
X010211Y005111D02*
X010211Y005011D01*
X010358Y005011D02*
X010383Y005011D01*
X010383Y004986D01*
X010358Y004986D01*
X010358Y005011D01*
X010432Y004986D02*
X010532Y004986D01*
X010482Y004986D02*
X010482Y005137D01*
X010432Y005086D01*
X010579Y005086D02*
X010579Y005011D01*
X010604Y004986D01*
X010679Y004986D01*
X010679Y005086D01*
X010726Y005061D02*
X010776Y005061D01*
X010726Y004986D02*
X010726Y005137D01*
X010826Y005137D01*
X009933Y005011D02*
X009833Y005011D01*
X009176Y007536D02*
X009176Y007687D01*
X009276Y007687D01*
X009226Y007611D02*
X009176Y007611D01*
X009129Y007636D02*
X009129Y007536D01*
X009054Y007536D01*
X009029Y007561D01*
X009029Y007636D01*
X008932Y007687D02*
X008932Y007536D01*
X008882Y007536D02*
X008982Y007536D01*
X008882Y007636D02*
X008932Y007687D01*
X008833Y007561D02*
X008833Y007536D01*
X008808Y007536D01*
X008808Y007561D01*
X008833Y007561D01*
X008761Y007561D02*
X008736Y007536D01*
X008686Y007536D01*
X008661Y007561D01*
X008761Y007661D01*
X008761Y007561D01*
X008661Y007561D02*
X008661Y007661D01*
X008686Y007687D01*
X008736Y007687D01*
X008761Y007661D01*
X008761Y008261D02*
X008811Y008261D01*
X008836Y008286D01*
X008883Y008336D02*
X008983Y008336D01*
X008958Y008261D02*
X008958Y008412D01*
X008883Y008336D01*
X008836Y008386D02*
X008811Y008412D01*
X008761Y008412D01*
X008736Y008386D01*
X008736Y008286D01*
X008761Y008261D01*
X007776Y009111D02*
X007776Y009211D01*
X007776Y009259D02*
X007776Y009284D01*
X007751Y009284D01*
X007751Y009259D01*
X007776Y009259D01*
X007751Y009332D02*
X007651Y009332D01*
X007626Y009357D01*
X007626Y009407D01*
X007651Y009432D01*
X007751Y009332D01*
X007776Y009357D01*
X007776Y009407D01*
X007751Y009432D01*
X007651Y009432D01*
X007676Y009480D02*
X007751Y009480D01*
X007776Y009505D01*
X007776Y009580D01*
X007676Y009580D01*
X007701Y009627D02*
X007701Y009677D01*
X007776Y009627D02*
X007626Y009627D01*
X007626Y009727D01*
X007026Y009334D02*
X006926Y009434D01*
X006901Y009434D01*
X006901Y009334D01*
X006926Y009286D02*
X006901Y009261D01*
X006901Y009211D01*
X006926Y009186D01*
X007026Y009186D01*
X007051Y009211D01*
X007051Y009261D01*
X007026Y009286D01*
X007026Y009334D02*
X007051Y009334D01*
X007626Y009161D02*
X007776Y009161D01*
X007676Y009111D02*
X007626Y009161D01*
X009401Y009211D02*
X009426Y009186D01*
X009526Y009186D01*
X009551Y009211D01*
X009551Y009261D01*
X009526Y009286D01*
X009526Y009334D02*
X009551Y009359D01*
X009551Y009409D01*
X009526Y009434D01*
X009501Y009434D01*
X009476Y009409D01*
X009476Y009334D01*
X009526Y009334D01*
X009476Y009334D02*
X009426Y009384D01*
X009401Y009434D01*
X009426Y009286D02*
X009401Y009261D01*
X009401Y009211D01*
X010126Y009161D02*
X010276Y009161D01*
X010276Y009111D02*
X010276Y009211D01*
X010276Y009259D02*
X010276Y009284D01*
X010251Y009284D01*
X010251Y009259D01*
X010276Y009259D01*
X010251Y009332D02*
X010151Y009432D01*
X010251Y009432D01*
X010276Y009407D01*
X010276Y009357D01*
X010251Y009332D01*
X010151Y009332D01*
X010126Y009357D01*
X010126Y009407D01*
X010151Y009432D01*
X010176Y009480D02*
X010251Y009480D01*
X010276Y009505D01*
X010276Y009580D01*
X010176Y009580D01*
X010201Y009627D02*
X010201Y009677D01*
X010276Y009627D02*
X010126Y009627D01*
X010126Y009727D01*
X010126Y009161D02*
X010176Y009111D01*
X022736Y004436D02*
X022736Y004336D01*
X022761Y004311D01*
X022811Y004311D01*
X022836Y004336D01*
X022883Y004311D02*
X022983Y004311D01*
X022933Y004311D02*
X022933Y004462D01*
X022883Y004411D01*
X022836Y004436D02*
X022811Y004462D01*
X022761Y004462D01*
X022736Y004436D01*
X022736Y003737D02*
X022686Y003737D01*
X022661Y003711D01*
X022661Y003611D01*
X022761Y003711D01*
X022761Y003611D01*
X022736Y003586D01*
X022686Y003586D01*
X022661Y003611D01*
X022761Y003711D02*
X022736Y003737D01*
X022808Y003611D02*
X022833Y003611D01*
X022833Y003586D01*
X022808Y003586D01*
X022808Y003611D01*
X022882Y003586D02*
X022982Y003586D01*
X022932Y003586D02*
X022932Y003737D01*
X022882Y003686D01*
X023029Y003686D02*
X023029Y003611D01*
X023054Y003586D01*
X023129Y003586D01*
X023129Y003686D01*
X023176Y003661D02*
X023226Y003661D01*
X023176Y003586D02*
X023176Y003737D01*
X023276Y003737D01*
X034676Y002906D02*
X034701Y002931D01*
X034726Y002931D01*
X034751Y002906D01*
X034776Y002931D01*
X034801Y002931D01*
X034826Y002906D01*
X034826Y002856D01*
X034801Y002831D01*
X034751Y002784D02*
X034776Y002759D01*
X034776Y002684D01*
X034826Y002684D02*
X034676Y002684D01*
X034676Y002759D01*
X034701Y002784D01*
X034751Y002784D01*
X034701Y002831D02*
X034676Y002856D01*
X034676Y002906D01*
X034751Y002906D02*
X034751Y002881D01*
X034676Y002636D02*
X034676Y002586D01*
X034676Y002611D02*
X034801Y002611D01*
X034826Y002586D01*
X034826Y002561D01*
X034801Y002536D01*
X034801Y007286D02*
X034826Y007311D01*
X034826Y007336D01*
X034801Y007361D01*
X034676Y007361D01*
X034676Y007336D02*
X034676Y007386D01*
X034676Y007434D02*
X034676Y007509D01*
X034701Y007534D01*
X034751Y007534D01*
X034776Y007509D01*
X034776Y007434D01*
X034826Y007434D02*
X034676Y007434D01*
X034701Y007581D02*
X034676Y007606D01*
X034676Y007656D01*
X034701Y007681D01*
X034726Y007681D01*
X034826Y007581D01*
X034826Y007681D01*
D65*
X023081Y004043D02*
X023081Y004019D01*
X010131Y005419D02*
X010131Y005443D01*
X010043Y006281D02*
X010019Y006281D01*
X009081Y007969D02*
X009081Y007993D01*
X009819Y009531D02*
X009843Y009531D01*
X007343Y009531D02*
X007319Y009531D01*
D66*
X018981Y006531D03*
D67*
X019231Y004806D03*
X019231Y008256D03*
D68*
X019231Y007031D03*
X019231Y006031D03*
M02*
