G75*
G70*
%OFA0B0*%
%FSLAX24Y24*%
%IPPOS*%
%LPD*%
%AMOC8*
5,1,8,0,0,1.08239X$1,22.5*
%
%ADD10C,0.1300*%
%ADD11R,0.1346X0.1346*%
%ADD12R,0.0602X0.0602*%
%ADD13R,0.0516X0.0516*%
%ADD14OC8,0.0670*%
%ADD15OC8,0.0560*%
%ADD16C,0.0640*%
%ADD17OC8,0.0600*%
%ADD18R,0.0840X0.0840*%
%ADD19C,0.0840*%
D10*
X002631Y001431D03*
X002631Y011431D03*
X039131Y011431D03*
X039131Y001431D03*
D11*
X004081Y003911D03*
X004081Y008651D03*
D12*
X005148Y006774D03*
X005935Y006774D03*
X005935Y005789D03*
X005148Y005789D03*
D13*
X006723Y006281D03*
X006723Y005199D03*
X006723Y004510D03*
X006723Y007364D03*
X006723Y008053D03*
X031081Y007531D03*
X031081Y006531D03*
X031081Y005531D03*
D14*
X029081Y005031D03*
X028081Y005031D03*
X027081Y005031D03*
X026081Y005031D03*
X025081Y005031D03*
X024081Y005031D03*
X023081Y005031D03*
X022081Y005031D03*
X022081Y008031D03*
X023081Y008031D03*
X024081Y008031D03*
X025081Y008031D03*
X026081Y008031D03*
X027081Y008031D03*
X028081Y008031D03*
X029081Y008031D03*
D15*
X028081Y003531D03*
X025081Y003531D03*
D16*
X020131Y005531D02*
X019531Y005531D01*
X019531Y006531D02*
X020131Y006531D01*
X020131Y007531D02*
X019531Y007531D01*
D17*
X014331Y007281D03*
X013331Y007281D03*
X013331Y006281D03*
X014331Y006281D03*
X014331Y005281D03*
X013331Y005281D03*
D18*
X035831Y003031D03*
X035831Y007781D03*
D19*
X035831Y009750D03*
X035831Y005000D03*
M02*
