G75*
G70*
%OFA0B0*%
%FSLAX24Y24*%
%IPPOS*%
%LPD*%
%AMOC8*
5,1,8,0,0,1.08239X$1,22.5*
%
%ADD10C,0.0000*%
%ADD11OC8,0.0560*%
%ADD12C,0.0520*%
%ADD13R,0.0472X0.0217*%
%ADD14R,0.0276X0.0354*%
%ADD15R,0.0354X0.0276*%
%ADD16OC8,0.0520*%
%ADD17R,0.0630X0.0551*%
%ADD18R,0.0866X0.0236*%
%ADD19C,0.0160*%
%ADD20C,0.0080*%
%ADD21R,0.0356X0.0356*%
D10*
X000181Y000181D02*
X000181Y012581D01*
X011581Y012581D01*
X011581Y000181D01*
X000181Y000181D01*
D11*
X005881Y004881D03*
X005881Y005881D03*
X005881Y006881D03*
X006881Y006881D03*
X006881Y005881D03*
X006881Y004881D03*
D12*
X004741Y007131D02*
X004221Y007131D01*
X004221Y008131D02*
X004741Y008131D01*
X004741Y009131D02*
X004221Y009131D01*
X004221Y010131D02*
X004741Y010131D01*
X001741Y010131D02*
X001221Y010131D01*
X001221Y009131D02*
X001741Y009131D01*
X001741Y008131D02*
X001221Y008131D01*
X001221Y007131D02*
X001741Y007131D01*
D13*
X008870Y006355D03*
X008870Y005981D03*
X008870Y005607D03*
X009893Y005607D03*
X009893Y006355D03*
D14*
X003237Y011081D03*
X002726Y011081D03*
X002726Y000781D03*
X003237Y000781D03*
D15*
X006181Y010776D03*
X006181Y011287D03*
D16*
X007131Y011281D03*
X008731Y011281D03*
X008731Y008281D03*
X007131Y008281D03*
D17*
X010031Y010180D03*
X010031Y011283D03*
D18*
X004399Y005131D03*
X004399Y004631D03*
X004399Y004131D03*
X004399Y003631D03*
X004399Y003131D03*
X004399Y002631D03*
X004399Y002131D03*
X004399Y001631D03*
X001564Y001631D03*
X001564Y002131D03*
X001564Y002631D03*
X001564Y003131D03*
X001564Y003631D03*
X001564Y004131D03*
X001564Y004631D03*
X001564Y005131D03*
D19*
X002063Y005409D02*
X001065Y005409D01*
X000971Y005316D01*
X000971Y004947D01*
X001037Y004881D01*
X000971Y004816D01*
X000971Y004447D01*
X001037Y004381D01*
X000987Y004331D01*
X000964Y004331D01*
X000831Y004464D01*
X000831Y006749D01*
X000921Y006838D01*
X000984Y006775D01*
X001138Y006711D01*
X001825Y006711D01*
X001979Y006775D01*
X002097Y006894D01*
X002113Y006931D01*
X003049Y006931D01*
X003214Y006931D01*
X003564Y007281D01*
X003681Y007399D01*
X003681Y007849D01*
X003764Y007931D01*
X003850Y007931D01*
X003865Y007894D01*
X003984Y007775D01*
X004138Y007711D01*
X004825Y007711D01*
X004979Y007775D01*
X005097Y007894D01*
X005161Y008048D01*
X005161Y008215D01*
X005097Y008369D01*
X004979Y008487D01*
X004825Y008551D01*
X004138Y008551D01*
X003984Y008487D01*
X003865Y008369D01*
X003850Y008331D01*
X003599Y008331D01*
X003481Y008214D01*
X003281Y008014D01*
X003281Y007849D01*
X003281Y007564D01*
X003049Y007331D01*
X002113Y007331D01*
X002097Y007369D01*
X001979Y007487D01*
X001825Y007551D01*
X001138Y007551D01*
X000984Y007487D01*
X000865Y007369D01*
X000850Y007331D01*
X000849Y007331D01*
X000549Y007031D01*
X000431Y006914D01*
X000431Y004464D01*
X000431Y004299D01*
X000799Y003931D01*
X000964Y003931D01*
X000987Y003931D01*
X001037Y003881D01*
X000971Y003816D01*
X000971Y003447D01*
X001023Y003395D01*
X001020Y003394D01*
X000987Y003360D01*
X000963Y003319D01*
X000951Y003273D01*
X000951Y003132D01*
X001564Y003132D01*
X001564Y003131D01*
X000951Y003131D01*
X000951Y002990D01*
X000963Y002944D01*
X000987Y002903D01*
X001020Y002869D01*
X001023Y002868D01*
X000971Y002816D01*
X000971Y002447D01*
X001037Y002381D01*
X000971Y002316D01*
X000971Y001947D01*
X001037Y001881D01*
X000971Y001816D01*
X000971Y001447D01*
X001065Y001353D01*
X002063Y001353D01*
X002157Y001447D01*
X002157Y001816D01*
X002091Y001881D01*
X002157Y001947D01*
X002157Y002316D01*
X002091Y002381D01*
X002157Y002447D01*
X002157Y002816D01*
X002105Y002868D01*
X002108Y002869D01*
X002141Y002903D01*
X002165Y002944D01*
X002177Y002990D01*
X002177Y003131D01*
X001564Y003131D01*
X001564Y003132D01*
X002177Y003132D01*
X002177Y003273D01*
X002165Y003319D01*
X002141Y003360D01*
X002108Y003394D01*
X002105Y003395D01*
X002157Y003447D01*
X002157Y003816D01*
X002091Y003881D01*
X002142Y003931D01*
X002214Y003931D01*
X003214Y004931D01*
X003821Y004931D01*
X003871Y004881D01*
X003806Y004816D01*
X003806Y004447D01*
X003871Y004381D01*
X003806Y004316D01*
X003806Y003947D01*
X003871Y003881D01*
X003806Y003816D01*
X003806Y003447D01*
X003871Y003381D01*
X003861Y003371D01*
X003579Y003371D01*
X003484Y003371D01*
X003395Y003335D01*
X003145Y003085D01*
X003078Y003017D01*
X003041Y002929D01*
X003041Y001119D01*
X003033Y001119D01*
X002996Y001081D01*
X002974Y001103D01*
X002933Y001126D01*
X002887Y001139D01*
X002726Y001139D01*
X002726Y000782D01*
X002725Y000782D01*
X002725Y001139D01*
X002564Y001139D01*
X002518Y001126D01*
X002477Y001103D01*
X002444Y001069D01*
X002420Y001028D01*
X002408Y000982D01*
X002408Y000782D01*
X002725Y000782D01*
X002725Y000781D01*
X002408Y000781D01*
X002408Y000581D01*
X002420Y000535D01*
X002444Y000494D01*
X002477Y000460D01*
X002518Y000437D01*
X002564Y000424D01*
X002725Y000424D01*
X002725Y000781D01*
X002726Y000781D01*
X002726Y000424D01*
X002887Y000424D01*
X002933Y000437D01*
X002974Y000460D01*
X002996Y000482D01*
X003033Y000444D01*
X003441Y000444D01*
X003535Y000538D01*
X003535Y001025D01*
X003521Y001039D01*
X003521Y002782D01*
X003631Y002891D01*
X003861Y002891D01*
X003871Y002881D01*
X003806Y002816D01*
X003806Y002447D01*
X003871Y002381D01*
X003806Y002316D01*
X003806Y001947D01*
X003871Y001881D01*
X003806Y001816D01*
X003806Y001447D01*
X003899Y001353D01*
X004898Y001353D01*
X004976Y001431D01*
X005834Y001431D01*
X006000Y001431D01*
X009908Y005339D01*
X010196Y005339D01*
X010288Y005431D01*
X010399Y005431D01*
X010564Y005431D01*
X010626Y005493D01*
X010926Y005493D01*
X011019Y005587D01*
X011019Y006076D01*
X010926Y006169D01*
X010437Y006169D01*
X010343Y006076D01*
X010343Y005831D01*
X010240Y005831D01*
X010196Y005876D01*
X009591Y005876D01*
X009497Y005782D01*
X009497Y005494D01*
X005834Y001831D01*
X004976Y001831D01*
X004926Y001881D01*
X004992Y001947D01*
X004992Y002316D01*
X004926Y002381D01*
X004992Y002447D01*
X004992Y002816D01*
X004926Y002881D01*
X004936Y002891D01*
X006584Y002891D01*
X006679Y002891D01*
X006767Y002928D01*
X008085Y004245D01*
X008121Y004334D01*
X008121Y004429D01*
X008121Y004834D01*
X008121Y004929D01*
X008085Y005017D01*
X007321Y005781D01*
X007321Y006009D01*
X007431Y005899D01*
X007549Y005781D01*
X008465Y005781D01*
X008453Y005739D01*
X008453Y005608D01*
X008869Y005608D01*
X008869Y005607D01*
X008453Y005607D01*
X008453Y005475D01*
X008466Y005430D01*
X008489Y005389D01*
X008523Y005355D01*
X008564Y005331D01*
X008610Y005319D01*
X008869Y005319D01*
X008869Y005607D01*
X008870Y005607D01*
X008870Y005608D01*
X009286Y005608D01*
X009286Y005739D01*
X009274Y005785D01*
X009263Y005804D01*
X009266Y005807D01*
X009266Y006155D01*
X009522Y006155D01*
X009591Y006087D01*
X010196Y006087D01*
X010289Y006181D01*
X010289Y006530D01*
X010196Y006624D01*
X009591Y006624D01*
X009522Y006555D01*
X009240Y006555D01*
X009172Y006624D01*
X008567Y006624D01*
X008539Y006595D01*
X008169Y006595D01*
X008169Y006626D01*
X008076Y006719D01*
X007587Y006719D01*
X007493Y006626D01*
X007493Y006402D01*
X007314Y006581D01*
X007204Y006581D01*
X007321Y006699D01*
X007321Y007064D01*
X007064Y007321D01*
X006699Y007321D01*
X006441Y007064D01*
X006441Y006699D01*
X006559Y006581D01*
X006299Y006581D01*
X006181Y006464D01*
X006039Y006321D01*
X005699Y006321D01*
X005441Y006064D01*
X005441Y005804D01*
X005426Y005819D01*
X004937Y005819D01*
X004849Y005731D01*
X002949Y005731D01*
X002831Y005614D01*
X002095Y004878D01*
X002091Y004881D01*
X002157Y004947D01*
X002157Y005316D01*
X002063Y005409D01*
X002157Y005255D02*
X002472Y005255D01*
X002313Y005096D02*
X002157Y005096D01*
X002148Y004938D02*
X002155Y004938D01*
X002631Y005413D02*
X000831Y005413D01*
X000831Y005572D02*
X002789Y005572D01*
X002948Y005730D02*
X000831Y005730D01*
X000831Y005889D02*
X005441Y005889D01*
X005441Y006048D02*
X000831Y006048D01*
X000831Y006206D02*
X005584Y006206D01*
X005691Y006421D02*
X005421Y006691D01*
X005421Y006871D01*
X005871Y006871D01*
X005871Y006891D01*
X005421Y006891D01*
X005421Y007072D01*
X005691Y007341D01*
X005871Y007341D01*
X005871Y006892D01*
X005891Y006892D01*
X005891Y007341D01*
X006072Y007341D01*
X006341Y007072D01*
X006341Y006891D01*
X005892Y006891D01*
X005892Y006871D01*
X006341Y006871D01*
X006341Y006691D01*
X006072Y006421D01*
X005891Y006421D01*
X005891Y006871D01*
X005871Y006871D01*
X005871Y006421D01*
X005691Y006421D01*
X005589Y006523D02*
X000831Y006523D01*
X000831Y006365D02*
X006082Y006365D01*
X006174Y006523D02*
X006240Y006523D01*
X006332Y006682D02*
X006459Y006682D01*
X006441Y006840D02*
X006341Y006840D01*
X006341Y006999D02*
X006441Y006999D01*
X006535Y007157D02*
X006256Y007157D01*
X006097Y007316D02*
X006694Y007316D01*
X007069Y007316D02*
X011401Y007316D01*
X011401Y007157D02*
X007228Y007157D01*
X007321Y006999D02*
X011401Y006999D01*
X011401Y006840D02*
X007321Y006840D01*
X007304Y006682D02*
X007549Y006682D01*
X007493Y006523D02*
X007372Y006523D01*
X007831Y006381D02*
X007857Y006355D01*
X008870Y006355D01*
X009266Y006048D02*
X010343Y006048D01*
X010343Y005889D02*
X009266Y005889D01*
X009286Y005730D02*
X009497Y005730D01*
X009497Y005572D02*
X009286Y005572D01*
X009286Y005607D02*
X008870Y005607D01*
X008870Y005319D01*
X009130Y005319D01*
X009175Y005331D01*
X009216Y005355D01*
X009250Y005389D01*
X009274Y005430D01*
X009286Y005475D01*
X009286Y005607D01*
X009264Y005413D02*
X009416Y005413D01*
X009258Y005255D02*
X007847Y005255D01*
X007689Y005413D02*
X008475Y005413D01*
X008453Y005572D02*
X007530Y005572D01*
X007372Y005730D02*
X008453Y005730D01*
X008869Y005572D02*
X008870Y005572D01*
X008869Y005413D02*
X008870Y005413D01*
X009099Y005096D02*
X008006Y005096D01*
X008118Y004938D02*
X008941Y004938D01*
X008782Y004779D02*
X008121Y004779D01*
X008121Y004621D02*
X008624Y004621D01*
X008465Y004462D02*
X008121Y004462D01*
X008109Y004304D02*
X008307Y004304D01*
X008148Y004145D02*
X007984Y004145D01*
X007989Y003986D02*
X007826Y003986D01*
X007831Y003828D02*
X007667Y003828D01*
X007672Y003669D02*
X007509Y003669D01*
X007514Y003511D02*
X007350Y003511D01*
X007355Y003352D02*
X007192Y003352D01*
X007197Y003194D02*
X007033Y003194D01*
X007038Y003035D02*
X006875Y003035D01*
X006880Y002877D02*
X004931Y002877D01*
X004992Y002718D02*
X006721Y002718D01*
X006563Y002560D02*
X004992Y002560D01*
X004946Y002401D02*
X006404Y002401D01*
X006246Y002242D02*
X004992Y002242D01*
X004992Y002084D02*
X006087Y002084D01*
X005928Y001925D02*
X004970Y001925D01*
X003827Y001925D02*
X003521Y001925D01*
X003521Y001767D02*
X003806Y001767D01*
X003806Y001608D02*
X003521Y001608D01*
X003521Y001450D02*
X003806Y001450D01*
X003521Y001291D02*
X011401Y001291D01*
X011401Y001450D02*
X006018Y001450D01*
X006177Y001608D02*
X011401Y001608D01*
X011401Y001767D02*
X006335Y001767D01*
X006494Y001925D02*
X011401Y001925D01*
X011401Y002084D02*
X006653Y002084D01*
X006811Y002242D02*
X011401Y002242D01*
X011401Y002401D02*
X006970Y002401D01*
X007128Y002560D02*
X011401Y002560D01*
X011401Y002718D02*
X007287Y002718D01*
X007445Y002877D02*
X011401Y002877D01*
X011401Y003035D02*
X007604Y003035D01*
X007762Y003194D02*
X011401Y003194D01*
X011401Y003352D02*
X007921Y003352D01*
X008079Y003511D02*
X011401Y003511D01*
X011401Y003669D02*
X008238Y003669D01*
X008397Y003828D02*
X011401Y003828D01*
X011401Y003986D02*
X008555Y003986D01*
X008714Y004145D02*
X011401Y004145D01*
X011401Y004304D02*
X008872Y004304D01*
X009031Y004462D02*
X011401Y004462D01*
X011401Y004621D02*
X009189Y004621D01*
X009348Y004779D02*
X011401Y004779D01*
X011401Y004938D02*
X009506Y004938D01*
X009665Y005096D02*
X011401Y005096D01*
X011401Y005255D02*
X009823Y005255D01*
X010270Y005413D02*
X011401Y005413D01*
X011401Y005572D02*
X011004Y005572D01*
X011019Y005730D02*
X011401Y005730D01*
X011401Y005889D02*
X011019Y005889D01*
X011019Y006048D02*
X011401Y006048D01*
X011401Y006206D02*
X010289Y006206D01*
X010289Y006365D02*
X011401Y006365D01*
X011401Y006523D02*
X010289Y006523D01*
X011401Y006682D02*
X008114Y006682D01*
X007441Y005889D02*
X007321Y005889D01*
X006881Y005881D02*
X007881Y004881D01*
X007881Y004381D01*
X006631Y003131D01*
X004399Y003131D01*
X003531Y003131D01*
X003281Y002881D01*
X003281Y000826D01*
X003237Y000781D01*
X003535Y000816D02*
X011401Y000816D01*
X011401Y000974D02*
X003535Y000974D01*
X003521Y001133D02*
X011401Y001133D01*
X011401Y000657D02*
X003535Y000657D01*
X003496Y000499D02*
X011401Y000499D01*
X011401Y000361D02*
X011401Y012401D01*
X000361Y012401D01*
X000361Y000361D01*
X011401Y000361D01*
X005891Y006523D02*
X005871Y006523D01*
X005871Y006682D02*
X005891Y006682D01*
X005891Y006840D02*
X005871Y006840D01*
X005871Y006999D02*
X005891Y006999D01*
X005891Y007157D02*
X005871Y007157D01*
X005871Y007316D02*
X005891Y007316D01*
X005665Y007316D02*
X005120Y007316D01*
X005097Y007369D02*
X004979Y007487D01*
X004825Y007551D01*
X004138Y007551D01*
X003984Y007487D01*
X003865Y007369D01*
X003801Y007215D01*
X003801Y007048D01*
X003865Y006894D01*
X003984Y006775D01*
X004138Y006711D01*
X004825Y006711D01*
X004979Y006775D01*
X005097Y006894D01*
X005161Y007048D01*
X005161Y007215D01*
X005097Y007369D01*
X004992Y007474D02*
X011401Y007474D01*
X011401Y007633D02*
X003681Y007633D01*
X003681Y007791D02*
X003967Y007791D01*
X003970Y007474D02*
X003681Y007474D01*
X003599Y007316D02*
X003843Y007316D01*
X003801Y007157D02*
X003440Y007157D01*
X003282Y006999D02*
X003822Y006999D01*
X003919Y006840D02*
X002044Y006840D01*
X001992Y007474D02*
X003192Y007474D01*
X003281Y007633D02*
X000361Y007633D01*
X000361Y007791D02*
X000967Y007791D01*
X000984Y007775D02*
X001138Y007711D01*
X001825Y007711D01*
X001979Y007775D01*
X002097Y007894D01*
X002161Y008048D01*
X002161Y008215D01*
X002097Y008369D01*
X001979Y008487D01*
X001825Y008551D01*
X001138Y008551D01*
X000984Y008487D01*
X000865Y008369D01*
X000801Y008215D01*
X000801Y008048D01*
X000865Y007894D01*
X000984Y007775D01*
X000842Y007950D02*
X000361Y007950D01*
X000361Y008109D02*
X000801Y008109D01*
X000823Y008267D02*
X000361Y008267D01*
X000361Y008426D02*
X000922Y008426D01*
X001062Y008743D02*
X000361Y008743D01*
X000361Y008584D02*
X006840Y008584D01*
X006891Y008635D02*
X006711Y008455D01*
X006711Y008107D01*
X006957Y007861D01*
X007305Y007861D01*
X007551Y008107D01*
X007551Y008455D01*
X007371Y008635D01*
X007371Y009134D01*
X007371Y009229D01*
X007335Y009317D01*
X006735Y009917D01*
X006667Y009985D01*
X006579Y010021D01*
X006081Y010021D01*
X005721Y010381D01*
X005721Y010984D01*
X005721Y011079D01*
X005685Y011167D01*
X005185Y011667D01*
X005117Y011735D01*
X005029Y011771D01*
X002779Y011771D01*
X002684Y011771D01*
X002595Y011735D01*
X002528Y011667D01*
X002491Y011579D01*
X002491Y011389D01*
X002428Y011325D01*
X002428Y010838D01*
X002491Y010774D01*
X002491Y009881D01*
X002039Y009428D01*
X001979Y009487D01*
X001825Y009551D01*
X001138Y009551D01*
X000984Y009487D01*
X000865Y009369D01*
X000801Y009215D01*
X000801Y009048D01*
X000865Y008894D01*
X000984Y008775D01*
X001138Y008711D01*
X001825Y008711D01*
X001979Y008775D01*
X002095Y008891D01*
X002129Y008891D01*
X002217Y008928D01*
X002867Y009578D01*
X002935Y009645D01*
X002971Y009734D01*
X002971Y010778D01*
X002989Y010760D01*
X003030Y010737D01*
X003076Y010724D01*
X003237Y010724D01*
X003237Y011081D01*
X003237Y011081D01*
X003237Y010724D01*
X003399Y010724D01*
X003445Y010737D01*
X003486Y010760D01*
X003519Y010794D01*
X003543Y010835D01*
X003555Y010881D01*
X003555Y011081D01*
X003238Y011081D01*
X003238Y011082D01*
X003555Y011082D01*
X003555Y011282D01*
X003553Y011291D01*
X004882Y011291D01*
X005241Y010932D01*
X005241Y010234D01*
X005278Y010145D01*
X005345Y010078D01*
X005845Y009578D01*
X005934Y009541D01*
X006029Y009541D01*
X006432Y009541D01*
X006891Y009082D01*
X006891Y008635D01*
X006891Y008743D02*
X004948Y008743D01*
X004972Y008755D02*
X004910Y008724D01*
X004844Y008702D01*
X004776Y008691D01*
X004482Y008691D01*
X004482Y009131D01*
X004482Y009132D01*
X004481Y009132D01*
X004481Y009571D01*
X004187Y009571D01*
X004118Y009561D01*
X004052Y009539D01*
X003991Y009508D01*
X003935Y009467D01*
X003886Y009418D01*
X003845Y009362D01*
X003814Y009300D01*
X003792Y009234D01*
X003781Y009166D01*
X003781Y009132D01*
X004481Y009132D01*
X004481Y009131D01*
X004482Y009131D01*
X005181Y009131D01*
X005181Y009097D01*
X005171Y009028D01*
X005149Y008962D01*
X005118Y008901D01*
X006891Y008901D01*
X006891Y009060D02*
X005176Y009060D01*
X005181Y009132D02*
X005181Y009166D01*
X005171Y009234D01*
X005149Y009300D01*
X005118Y009362D01*
X005077Y009418D01*
X005028Y009467D01*
X004972Y009508D01*
X004910Y009539D01*
X004844Y009561D01*
X004776Y009571D01*
X004482Y009571D01*
X004482Y009132D01*
X005181Y009132D01*
X005173Y009218D02*
X006755Y009218D01*
X006596Y009377D02*
X005107Y009377D01*
X004918Y009535D02*
X006438Y009535D01*
X006531Y009781D02*
X005981Y009781D01*
X005481Y010281D01*
X005481Y011031D01*
X004981Y011531D01*
X002731Y011531D01*
X002731Y011087D01*
X002726Y011081D01*
X002731Y011076D01*
X002731Y009781D01*
X002081Y009131D01*
X001481Y009131D01*
X001901Y008743D02*
X004015Y008743D01*
X003991Y008755D02*
X004052Y008724D01*
X004118Y008702D01*
X004187Y008691D01*
X004481Y008691D01*
X004481Y009131D01*
X003781Y009131D01*
X003781Y009097D01*
X003792Y009028D01*
X003814Y008962D01*
X003845Y008901D01*
X003886Y008845D01*
X003935Y008796D01*
X003991Y008755D01*
X003845Y008901D02*
X002153Y008901D01*
X002349Y009060D02*
X003787Y009060D01*
X003790Y009218D02*
X002508Y009218D01*
X002666Y009377D02*
X003856Y009377D01*
X004045Y009535D02*
X002825Y009535D01*
X002955Y009694D02*
X005729Y009694D01*
X005571Y009853D02*
X005056Y009853D01*
X005097Y009894D02*
X005161Y010048D01*
X005161Y010215D01*
X005097Y010369D01*
X004979Y010487D01*
X004825Y010551D01*
X004138Y010551D01*
X003984Y010487D01*
X003865Y010369D01*
X003801Y010215D01*
X003801Y010048D01*
X003865Y009894D01*
X003984Y009775D01*
X004138Y009711D01*
X004825Y009711D01*
X004979Y009775D01*
X005097Y009894D01*
X005146Y010011D02*
X005412Y010011D01*
X005268Y010170D02*
X005161Y010170D01*
X005114Y010328D02*
X005241Y010328D01*
X005241Y010487D02*
X004980Y010487D01*
X005241Y010645D02*
X002971Y010645D01*
X002971Y010487D02*
X003983Y010487D01*
X003848Y010328D02*
X002971Y010328D01*
X002971Y010170D02*
X003801Y010170D01*
X003817Y010011D02*
X002971Y010011D01*
X002971Y009853D02*
X003906Y009853D01*
X004481Y009535D02*
X004482Y009535D01*
X004481Y009377D02*
X004482Y009377D01*
X004481Y009218D02*
X004482Y009218D01*
X004481Y009060D02*
X004482Y009060D01*
X004481Y008901D02*
X004482Y008901D01*
X004481Y008743D02*
X004482Y008743D01*
X004972Y008755D02*
X005028Y008796D01*
X005077Y008845D01*
X005118Y008901D01*
X005041Y008426D02*
X006711Y008426D01*
X006711Y008267D02*
X005140Y008267D01*
X005161Y008109D02*
X006711Y008109D01*
X006869Y007950D02*
X005121Y007950D01*
X004995Y007791D02*
X011401Y007791D01*
X011401Y007950D02*
X009022Y007950D01*
X008914Y007841D02*
X009171Y008099D01*
X009171Y008281D01*
X008732Y008281D01*
X008732Y008282D01*
X008731Y008282D01*
X008731Y008721D01*
X008549Y008721D01*
X008291Y008464D01*
X008291Y008282D01*
X008731Y008282D01*
X008731Y008281D01*
X008291Y008281D01*
X008291Y008099D01*
X008549Y007841D01*
X008731Y007841D01*
X008731Y008281D01*
X008732Y008281D01*
X008732Y007841D01*
X008914Y007841D01*
X008732Y007950D02*
X008731Y007950D01*
X008731Y008109D02*
X008732Y008109D01*
X008731Y008267D02*
X008732Y008267D01*
X008732Y008282D02*
X009171Y008282D01*
X009171Y008464D01*
X008914Y008721D01*
X008732Y008721D01*
X008732Y008282D01*
X008731Y008426D02*
X008732Y008426D01*
X008731Y008584D02*
X008732Y008584D01*
X009051Y008584D02*
X011401Y008584D01*
X011401Y008426D02*
X009171Y008426D01*
X009171Y008267D02*
X011401Y008267D01*
X011401Y008109D02*
X009171Y008109D01*
X008441Y007950D02*
X007394Y007950D01*
X007551Y008109D02*
X008291Y008109D01*
X008291Y008267D02*
X007551Y008267D01*
X007551Y008426D02*
X008291Y008426D01*
X008412Y008584D02*
X007423Y008584D01*
X007371Y008743D02*
X011401Y008743D01*
X011401Y008901D02*
X007371Y008901D01*
X007371Y009060D02*
X011401Y009060D01*
X011401Y009218D02*
X007371Y009218D01*
X007275Y009377D02*
X011401Y009377D01*
X011401Y009535D02*
X007117Y009535D01*
X006958Y009694D02*
X011401Y009694D01*
X011401Y009853D02*
X010519Y009853D01*
X010514Y009835D02*
X010526Y009881D01*
X010526Y010122D01*
X010089Y010122D01*
X010089Y009725D01*
X010370Y009725D01*
X010416Y009737D01*
X010457Y009761D01*
X010490Y009794D01*
X010514Y009835D01*
X010526Y010011D02*
X011401Y010011D01*
X011401Y010170D02*
X010089Y010170D01*
X010089Y010122D02*
X010089Y010238D01*
X009974Y010238D01*
X009974Y010636D01*
X009693Y010636D01*
X009647Y010624D01*
X009606Y010600D01*
X009572Y010566D01*
X009549Y010525D01*
X009536Y010480D01*
X009536Y010238D01*
X009973Y010238D01*
X009973Y010122D01*
X009536Y010122D01*
X009536Y009881D01*
X009549Y009835D01*
X009572Y009794D01*
X009606Y009761D01*
X009647Y009737D01*
X009693Y009725D01*
X009974Y009725D01*
X009974Y010122D01*
X010089Y010122D01*
X010089Y010011D02*
X009974Y010011D01*
X009974Y009853D02*
X010089Y009853D01*
X009973Y010170D02*
X005933Y010170D01*
X005774Y010328D02*
X009536Y010328D01*
X009538Y010487D02*
X006457Y010487D01*
X006469Y010494D02*
X006503Y010527D01*
X006526Y010568D01*
X006539Y010614D01*
X006539Y010775D01*
X006182Y010775D01*
X006182Y010776D01*
X006539Y010776D01*
X006539Y010937D01*
X006526Y010983D01*
X006503Y011024D01*
X006481Y011046D01*
X006483Y011047D01*
X006772Y011047D01*
X006957Y010861D01*
X007305Y010861D01*
X007485Y011041D01*
X008377Y011041D01*
X008557Y010861D01*
X008905Y010861D01*
X009085Y011041D01*
X009556Y011041D01*
X009556Y010941D01*
X009650Y010847D01*
X010413Y010847D01*
X010506Y010941D01*
X010506Y011624D01*
X010413Y011718D01*
X009650Y011718D01*
X009556Y011624D01*
X009556Y011521D01*
X009085Y011521D01*
X008905Y011701D01*
X008557Y011701D01*
X008377Y011521D01*
X007485Y011521D01*
X007305Y011701D01*
X006957Y011701D01*
X006783Y011527D01*
X006483Y011527D01*
X006425Y011585D01*
X005938Y011585D01*
X005844Y011491D01*
X005844Y011083D01*
X005882Y011046D01*
X005860Y011024D01*
X005837Y010983D01*
X005824Y010937D01*
X005824Y010776D01*
X006181Y010776D01*
X006181Y010775D01*
X006182Y010775D01*
X006182Y010458D01*
X006382Y010458D01*
X006428Y010470D01*
X006469Y010494D01*
X006539Y010645D02*
X011401Y010645D01*
X011401Y010487D02*
X010524Y010487D01*
X010526Y010480D02*
X010514Y010525D01*
X010490Y010566D01*
X010457Y010600D01*
X010416Y010624D01*
X010370Y010636D01*
X010089Y010636D01*
X010089Y010238D01*
X010526Y010238D01*
X010526Y010480D01*
X010526Y010328D02*
X011401Y010328D01*
X011401Y010804D02*
X006539Y010804D01*
X006532Y010962D02*
X006856Y010962D01*
X007131Y011281D02*
X008731Y011281D01*
X010030Y011281D01*
X010031Y011283D01*
X010506Y011279D02*
X011401Y011279D01*
X011401Y011121D02*
X010506Y011121D01*
X010506Y010962D02*
X011401Y010962D01*
X011401Y011438D02*
X010506Y011438D01*
X010506Y011597D02*
X011401Y011597D01*
X011401Y011755D02*
X005069Y011755D01*
X005256Y011597D02*
X006853Y011597D01*
X007126Y011287D02*
X007131Y011281D01*
X007126Y011287D02*
X006181Y011287D01*
X005844Y011279D02*
X005573Y011279D01*
X005704Y011121D02*
X005844Y011121D01*
X005831Y010962D02*
X005721Y010962D01*
X005721Y010804D02*
X005824Y010804D01*
X005824Y010775D02*
X005824Y010614D01*
X005837Y010568D01*
X005860Y010527D01*
X005894Y010494D01*
X005935Y010470D01*
X005981Y010458D01*
X006181Y010458D01*
X006181Y010775D01*
X005824Y010775D01*
X005824Y010645D02*
X005721Y010645D01*
X005721Y010487D02*
X005906Y010487D01*
X006181Y010487D02*
X006182Y010487D01*
X006181Y010645D02*
X006182Y010645D01*
X006604Y010011D02*
X009536Y010011D01*
X009544Y009853D02*
X006800Y009853D01*
X006531Y009781D02*
X007131Y009181D01*
X007131Y008281D01*
X005507Y007157D02*
X005161Y007157D01*
X005141Y006999D02*
X005421Y006999D01*
X005421Y006840D02*
X005044Y006840D01*
X005431Y006682D02*
X000831Y006682D01*
X000431Y006682D02*
X000361Y006682D01*
X000361Y006523D02*
X000431Y006523D01*
X000431Y006365D02*
X000361Y006365D01*
X000361Y006206D02*
X000431Y006206D01*
X000431Y006048D02*
X000361Y006048D01*
X000361Y005889D02*
X000431Y005889D01*
X000431Y005730D02*
X000361Y005730D01*
X000361Y005572D02*
X000431Y005572D01*
X000431Y005413D02*
X000361Y005413D01*
X000361Y005255D02*
X000431Y005255D01*
X000431Y005096D02*
X000361Y005096D01*
X000361Y004938D02*
X000431Y004938D01*
X000431Y004779D02*
X000361Y004779D01*
X000361Y004621D02*
X000431Y004621D01*
X000431Y004462D02*
X000361Y004462D01*
X000361Y004304D02*
X000431Y004304D01*
X000361Y004145D02*
X000585Y004145D01*
X000744Y003986D02*
X000361Y003986D01*
X000361Y003828D02*
X000983Y003828D01*
X000971Y003669D02*
X000361Y003669D01*
X000361Y003511D02*
X000971Y003511D01*
X000983Y003352D02*
X000361Y003352D01*
X000361Y003194D02*
X000951Y003194D01*
X000951Y003035D02*
X000361Y003035D01*
X000361Y002877D02*
X001013Y002877D01*
X000971Y002718D02*
X000361Y002718D01*
X000361Y002560D02*
X000971Y002560D01*
X001017Y002401D02*
X000361Y002401D01*
X000361Y002242D02*
X000971Y002242D01*
X000971Y002084D02*
X000361Y002084D01*
X000361Y001925D02*
X000993Y001925D01*
X000971Y001767D02*
X000361Y001767D01*
X000361Y001608D02*
X000971Y001608D01*
X000971Y001450D02*
X000361Y001450D01*
X000361Y001291D02*
X003041Y001291D01*
X003041Y001450D02*
X002157Y001450D01*
X002157Y001608D02*
X003041Y001608D01*
X003041Y001767D02*
X002157Y001767D01*
X002135Y001925D02*
X003041Y001925D01*
X003041Y002084D02*
X002157Y002084D01*
X002157Y002242D02*
X003041Y002242D01*
X003041Y002401D02*
X002111Y002401D01*
X002157Y002560D02*
X003041Y002560D01*
X003041Y002718D02*
X002157Y002718D01*
X002115Y002877D02*
X003041Y002877D01*
X003096Y003035D02*
X002177Y003035D01*
X002177Y003194D02*
X003254Y003194D01*
X003438Y003352D02*
X002146Y003352D01*
X002157Y003511D02*
X003806Y003511D01*
X003806Y003669D02*
X002157Y003669D01*
X002145Y003828D02*
X003818Y003828D01*
X003806Y003986D02*
X002269Y003986D01*
X002428Y004145D02*
X003806Y004145D01*
X003806Y004304D02*
X002586Y004304D01*
X002745Y004462D02*
X003806Y004462D01*
X003806Y004621D02*
X002903Y004621D01*
X003062Y004779D02*
X003806Y004779D01*
X003867Y002877D02*
X003616Y002877D01*
X003521Y002718D02*
X003806Y002718D01*
X003806Y002560D02*
X003521Y002560D01*
X003521Y002401D02*
X003852Y002401D01*
X003806Y002242D02*
X003521Y002242D01*
X003521Y002084D02*
X003806Y002084D01*
X003041Y001133D02*
X002909Y001133D01*
X002726Y001133D02*
X002725Y001133D01*
X002725Y000974D02*
X002726Y000974D01*
X002725Y000816D02*
X002726Y000816D01*
X002725Y000657D02*
X002726Y000657D01*
X002725Y000499D02*
X002726Y000499D01*
X002441Y000499D02*
X000361Y000499D01*
X000361Y000657D02*
X002408Y000657D01*
X002408Y000816D02*
X000361Y000816D01*
X000361Y000974D02*
X002408Y000974D01*
X002542Y001133D02*
X000361Y001133D01*
X000834Y004462D02*
X000971Y004462D01*
X000971Y004621D02*
X000831Y004621D01*
X000831Y004779D02*
X000971Y004779D01*
X000980Y004938D02*
X000831Y004938D01*
X000831Y005096D02*
X000971Y005096D01*
X000971Y005255D02*
X000831Y005255D01*
X000431Y006840D02*
X000361Y006840D01*
X000361Y006999D02*
X000516Y006999D01*
X000361Y007157D02*
X000674Y007157D01*
X000833Y007316D02*
X000361Y007316D01*
X000361Y007474D02*
X000970Y007474D01*
X001995Y007791D02*
X003281Y007791D01*
X003281Y007950D02*
X002121Y007950D01*
X002161Y008109D02*
X003376Y008109D01*
X003534Y008267D02*
X002140Y008267D01*
X002041Y008426D02*
X003922Y008426D01*
X002463Y009853D02*
X002056Y009853D01*
X002097Y009894D02*
X002161Y010048D01*
X002161Y010215D01*
X002097Y010369D01*
X001979Y010487D01*
X001825Y010551D01*
X001138Y010551D01*
X000984Y010487D01*
X000865Y010369D01*
X000801Y010215D01*
X000801Y010048D01*
X000865Y009894D01*
X000984Y009775D01*
X001138Y009711D01*
X001825Y009711D01*
X001979Y009775D01*
X002097Y009894D01*
X002146Y010011D02*
X002491Y010011D01*
X002491Y010170D02*
X002161Y010170D01*
X002114Y010328D02*
X002491Y010328D01*
X002491Y010487D02*
X001980Y010487D01*
X002491Y010645D02*
X000361Y010645D01*
X000361Y010487D02*
X000983Y010487D01*
X000848Y010328D02*
X000361Y010328D01*
X000361Y010170D02*
X000801Y010170D01*
X000817Y010011D02*
X000361Y010011D01*
X000361Y009853D02*
X000906Y009853D01*
X001099Y009535D02*
X000361Y009535D01*
X000361Y009694D02*
X002305Y009694D01*
X002146Y009535D02*
X001863Y009535D01*
X000873Y009377D02*
X000361Y009377D01*
X000361Y009218D02*
X000803Y009218D01*
X000801Y009060D02*
X000361Y009060D01*
X000361Y008901D02*
X000862Y008901D01*
X000361Y010804D02*
X002462Y010804D01*
X002428Y010962D02*
X000361Y010962D01*
X000361Y011121D02*
X002428Y011121D01*
X002428Y011279D02*
X000361Y011279D01*
X000361Y011438D02*
X002491Y011438D01*
X002499Y011597D02*
X000361Y011597D01*
X000361Y011755D02*
X002644Y011755D01*
X003237Y010962D02*
X003237Y010962D01*
X003237Y010804D02*
X003237Y010804D01*
X003525Y010804D02*
X005241Y010804D01*
X005211Y010962D02*
X003555Y010962D01*
X003555Y011121D02*
X005052Y011121D01*
X004894Y011279D02*
X003555Y011279D01*
X005414Y011438D02*
X005844Y011438D01*
X007410Y011597D02*
X008453Y011597D01*
X009010Y011597D02*
X009556Y011597D01*
X009556Y010962D02*
X009006Y010962D01*
X008456Y010962D02*
X007406Y010962D01*
X009974Y010487D02*
X010089Y010487D01*
X010089Y010328D02*
X009974Y010328D01*
X011401Y011914D02*
X000361Y011914D01*
X000361Y012072D02*
X011401Y012072D01*
X011401Y012231D02*
X000361Y012231D01*
X000361Y012389D02*
X011401Y012389D01*
D20*
X009893Y006355D02*
X008870Y006355D01*
X008870Y005981D02*
X007631Y005981D01*
X007231Y006381D01*
X006381Y006381D01*
X005881Y005881D01*
X005181Y005481D02*
X005131Y005531D01*
X003031Y005531D01*
X002131Y004631D01*
X001564Y004631D01*
X001564Y004131D02*
X000881Y004131D01*
X000631Y004381D01*
X000631Y006831D01*
X000931Y007131D01*
X001481Y007131D01*
X003131Y007131D01*
X003481Y007481D01*
X003481Y007931D01*
X003681Y008131D01*
X004481Y008131D01*
X004399Y005131D02*
X003131Y005131D01*
X002131Y004131D01*
X001564Y004131D01*
X004399Y004131D02*
X005131Y004131D01*
X005881Y004881D01*
X005917Y001631D02*
X004399Y001631D01*
X005917Y001631D02*
X009893Y005607D01*
X009917Y005631D02*
X010481Y005631D01*
X010681Y005831D01*
D21*
X010681Y005831D03*
X007831Y006381D03*
X005181Y005481D03*
M02*
