G75*
G70*
%OFA0B0*%
%FSLAX24Y24*%
%IPPOS*%
%LPD*%
%AMOC8*
5,1,8,0,0,1.08239X$1,22.5*
%
%ADD10OC8,0.0600*%
%ADD11C,0.0560*%
%ADD12R,0.0512X0.0257*%
%ADD13R,0.0316X0.0394*%
%ADD14R,0.0394X0.0316*%
%ADD15OC8,0.0560*%
%ADD16R,0.0670X0.0591*%
%ADD17R,0.0906X0.0276*%
D10*
X005881Y004881D03*
X005881Y005881D03*
X005881Y006881D03*
X006881Y006881D03*
X006881Y005881D03*
X006881Y004881D03*
D11*
X004741Y007131D02*
X004221Y007131D01*
X004221Y008131D02*
X004741Y008131D01*
X004741Y009131D02*
X004221Y009131D01*
X004221Y010131D02*
X004741Y010131D01*
X001741Y010131D02*
X001221Y010131D01*
X001221Y009131D02*
X001741Y009131D01*
X001741Y008131D02*
X001221Y008131D01*
X001221Y007131D02*
X001741Y007131D01*
D12*
X008870Y006355D03*
X008870Y005981D03*
X008870Y005607D03*
X009893Y005607D03*
X009893Y006355D03*
D13*
X003237Y011081D03*
X002726Y011081D03*
X002726Y000781D03*
X003237Y000781D03*
D14*
X006181Y010776D03*
X006181Y011287D03*
D15*
X007131Y011281D03*
X008731Y011281D03*
X008731Y008281D03*
X007131Y008281D03*
D16*
X010031Y010180D03*
X010031Y011283D03*
D17*
X001564Y001631D03*
X001564Y002131D03*
X001564Y002631D03*
X001564Y003131D03*
X001564Y003631D03*
X001564Y004131D03*
X001564Y004631D03*
X001564Y005131D03*
X004399Y005131D03*
X004399Y004631D03*
X004399Y004131D03*
X004399Y003631D03*
X004399Y003131D03*
X004399Y002631D03*
X004399Y002131D03*
X004399Y001631D03*
M02*
