G75*
G70*
%OFA0B0*%
%FSLAX24Y24*%
%IPPOS*%
%LPD*%
%AMOC8*
5,1,8,0,0,1.08239X$1,22.5*
%
%ADD10R,0.1181X0.1181*%
%ADD11R,0.1306X0.1306*%
%ADD12R,0.0562X0.0562*%
%ADD13R,0.0476X0.0476*%
%ADD14R,0.0800X0.0800*%
%ADD15C,0.0800*%
%ADD16R,0.0356X0.0356*%
%ADD17C,0.0100*%
%ADD18C,0.0160*%
D10*
X013801Y009788D03*
X019116Y009394D03*
X013801Y015181D03*
X019116Y015575D03*
D11*
X004081Y007811D03*
X004081Y012551D03*
D12*
X005148Y010674D03*
X005935Y010674D03*
X005935Y009689D03*
X005148Y009689D03*
D13*
X006723Y010181D03*
X006723Y011264D03*
X006723Y011953D03*
X006723Y009099D03*
X006723Y008410D03*
D14*
X019401Y004181D03*
D15*
X019401Y006150D03*
D16*
X012301Y009731D03*
X012251Y010431D03*
X012151Y011481D03*
X009251Y011481D03*
X008551Y010931D03*
X008551Y010431D03*
X008001Y010931D03*
D17*
X006723Y010931D01*
X006723Y011264D01*
X007801Y010431D02*
X007801Y009081D01*
X006723Y009081D01*
X006723Y009099D01*
X007801Y010431D02*
X008551Y010431D01*
X008551Y010931D02*
X008501Y010931D01*
X008501Y012981D01*
X005148Y012981D01*
X005148Y010674D01*
X012251Y010431D02*
X012895Y009788D01*
X013801Y009788D01*
X012751Y009281D02*
X012751Y008831D01*
X014851Y008831D01*
X014851Y015181D01*
X013801Y015181D01*
X012301Y009731D02*
X012751Y009281D01*
D18*
X012151Y011481D02*
X009251Y011481D01*
M02*
