%
M48
M72
T01C0.0236
T02C0.0276
T03C0.0362
T04C0.0512
T05C0.0787
T06C0.0906
T07C0.1260
%
T01
X8551Y10431
X8551Y10931
X8001Y10931
X9251Y11481
X12151Y11481
X12251Y10431
X12301Y9731
T02
X6723Y10181
X6723Y11264
X6723Y11953
X6723Y9099
X6723Y8410
T03
X5935Y9689
X5148Y9689
X5148Y10674
X5935Y10674
T04
X19401Y6150
X19401Y4181
T05
X19116Y9394
X13801Y9788
X13801Y15181
X19116Y15575
T06
X4081Y12551
X4081Y7811
T07
X2651Y1431
X19651Y1431
X19651Y18431
X2651Y18431
M30
