G75*
G70*
%OFA0B0*%
%FSLAX24Y24*%
%IPPOS*%
%LPD*%
%AMOC8*
5,1,8,0,0,1.08239X$1,22.5*
%
%ADD10C,0.0060*%
%ADD11C,0.0030*%
%ADD12R,0.0098X0.0098*%
%ADD13R,0.0060X0.0020*%
%ADD14R,0.0020X0.0020*%
%ADD15R,0.0100X0.0020*%
%ADD16R,0.0040X0.0020*%
%ADD17R,0.0080X0.0020*%
%ADD18R,0.0120X0.0020*%
%ADD19R,0.0140X0.0020*%
%ADD20R,0.0200X0.0020*%
%ADD21R,0.0160X0.0020*%
%ADD22R,0.0180X0.0020*%
%ADD23R,0.0220X0.0020*%
%ADD24R,0.0360X0.0020*%
%ADD25R,0.0340X0.0020*%
%ADD26R,0.0320X0.0020*%
%ADD27R,0.0420X0.0020*%
%ADD28R,0.0440X0.0020*%
%ADD29R,0.0400X0.0020*%
%ADD30R,0.0380X0.0020*%
%ADD31R,0.0300X0.0020*%
%ADD32R,0.0460X0.0020*%
%ADD33R,0.0480X0.0020*%
%ADD34R,0.0520X0.0020*%
%ADD35R,0.0540X0.0020*%
%ADD36R,0.0260X0.0020*%
%ADD37R,0.0580X0.0020*%
%ADD38R,0.0800X0.0020*%
%ADD39R,0.0280X0.0020*%
%ADD40R,0.0240X0.0020*%
%ADD41R,0.0500X0.0020*%
%ADD42R,0.0620X0.0020*%
%ADD43R,0.0760X0.0020*%
%ADD44R,0.0840X0.0020*%
%ADD45R,0.0780X0.0020*%
%ADD46R,0.0680X0.0020*%
%ADD47R,0.0660X0.0020*%
%ADD48R,0.0880X0.0020*%
%ADD49R,0.1080X0.0020*%
%ADD50R,0.1180X0.0020*%
%ADD51R,0.1240X0.0020*%
%ADD52R,0.1200X0.0020*%
%ADD53R,0.1100X0.0020*%
%ADD54R,0.1060X0.0020*%
%ADD55R,0.1040X0.0020*%
%ADD56R,0.1020X0.0020*%
%ADD57R,0.0700X0.0020*%
%ADD58R,0.0600X0.0020*%
%ADD59R,0.0560X0.0020*%
D10*
X007771Y012961D02*
X007771Y013282D01*
X007878Y013388D01*
X007984Y013282D01*
X007984Y012961D01*
X008198Y012961D02*
X008198Y013388D01*
X008091Y013388D01*
X007984Y013282D01*
X008415Y013282D02*
X008415Y012961D01*
X008736Y012961D01*
X008842Y013068D01*
X008736Y013175D01*
X008415Y013175D01*
X008415Y013282D02*
X008522Y013388D01*
X008736Y013388D01*
X009060Y013282D02*
X009060Y013175D01*
X009487Y013175D01*
X009487Y013282D02*
X009380Y013388D01*
X009167Y013388D01*
X009060Y013282D01*
X009167Y012961D02*
X009380Y012961D01*
X009487Y013068D01*
X009487Y013282D01*
X009705Y013602D02*
X010132Y013602D01*
X009918Y013602D02*
X009918Y012961D01*
X009917Y013861D02*
X009704Y013861D01*
X009597Y013968D01*
X009597Y014502D01*
X009380Y014288D02*
X009059Y014288D01*
X008953Y014182D01*
X008953Y013861D01*
X008735Y013861D02*
X008522Y013861D01*
X008628Y013861D02*
X008628Y014288D01*
X008735Y014288D01*
X008628Y014502D02*
X008628Y014609D01*
X008305Y014288D02*
X008092Y013861D01*
X007878Y014288D01*
X007661Y014182D02*
X007661Y013968D01*
X007554Y013861D01*
X007341Y013861D01*
X007234Y014075D02*
X007661Y014075D01*
X007661Y014182D02*
X007554Y014288D01*
X007341Y014288D01*
X007234Y014182D01*
X007234Y014075D01*
X007016Y014075D02*
X006803Y014288D01*
X006696Y014288D01*
X006479Y014182D02*
X006372Y014075D01*
X006159Y014075D01*
X006052Y013968D01*
X006159Y013861D01*
X006479Y013861D01*
X006479Y014182D02*
X006372Y014288D01*
X006052Y014288D01*
X005835Y014288D02*
X005728Y014288D01*
X005728Y013861D01*
X005835Y013861D02*
X005621Y013861D01*
X005298Y013968D02*
X005191Y013861D01*
X005298Y013968D02*
X005298Y014395D01*
X005405Y014288D02*
X005191Y014288D01*
X004975Y014288D02*
X004975Y013968D01*
X004869Y013861D01*
X004548Y013861D01*
X004548Y013755D02*
X004655Y013648D01*
X004762Y013648D01*
X004548Y013755D02*
X004548Y014288D01*
X005728Y014502D02*
X005728Y014609D01*
X007016Y014288D02*
X007016Y013861D01*
X009380Y013861D02*
X009380Y014288D01*
X009917Y013861D02*
X010024Y013968D01*
X010024Y014502D01*
X010886Y014182D02*
X010886Y013861D01*
X010886Y014182D02*
X010993Y014288D01*
X011313Y014288D01*
X011313Y013861D01*
X011531Y013968D02*
X011531Y014182D01*
X011637Y014288D01*
X011851Y014288D01*
X011958Y014182D01*
X011958Y013968D01*
X011851Y013861D01*
X011637Y013861D01*
X011531Y013968D01*
X011530Y013388D02*
X011423Y013282D01*
X011423Y013175D01*
X011850Y013175D01*
X011850Y013282D02*
X011744Y013388D01*
X011530Y013388D01*
X011850Y013282D02*
X011850Y013068D01*
X011744Y012961D01*
X011530Y012961D01*
X011099Y013068D02*
X011099Y013495D01*
X011206Y013388D02*
X010992Y013388D01*
X011099Y013068D02*
X010992Y012961D01*
X012067Y012961D02*
X012387Y013175D01*
X012067Y013388D01*
X012387Y013602D02*
X012387Y012961D01*
X012605Y012961D02*
X012925Y012961D01*
X013032Y013068D01*
X013032Y013282D01*
X012925Y013388D01*
X012605Y013388D01*
X012712Y013861D02*
X012605Y013968D01*
X012712Y014075D01*
X012925Y014075D01*
X013032Y014182D01*
X012925Y014288D01*
X012605Y014288D01*
X012387Y014288D02*
X012174Y014288D01*
X012281Y014395D02*
X012281Y013968D01*
X012174Y013861D01*
X012712Y013861D02*
X013032Y013861D01*
X013249Y013968D02*
X013249Y014182D01*
X013356Y014288D01*
X013570Y014288D01*
X013676Y014182D01*
X013676Y013968D01*
X013570Y013861D01*
X013356Y013861D01*
X013249Y013968D01*
X013356Y013388D02*
X013570Y013388D01*
X013676Y013282D01*
X013676Y013068D01*
X013570Y012961D01*
X013356Y012961D01*
X013249Y013068D01*
X013249Y013282D01*
X013356Y013388D01*
X013894Y013282D02*
X014001Y013175D01*
X014321Y013175D01*
X014107Y013175D02*
X013894Y012961D01*
X013894Y013282D02*
X013894Y013495D01*
X014001Y013602D01*
X014321Y013602D01*
X014321Y012961D01*
X014321Y013861D02*
X014001Y013861D01*
X013894Y013968D01*
X013894Y014075D01*
X014001Y014182D01*
X014321Y014182D01*
X014321Y014502D02*
X014001Y014502D01*
X013894Y014395D01*
X013894Y014288D01*
X014001Y014182D01*
X014321Y014502D02*
X014321Y013861D01*
D11*
X007093Y011696D02*
X006846Y011696D01*
X007093Y011696D02*
X006846Y011943D01*
X006846Y012005D01*
X006908Y012067D01*
X007031Y012067D01*
X007093Y012005D01*
X007338Y012067D02*
X007338Y011696D01*
X007461Y011696D02*
X007214Y011696D01*
X007461Y011943D02*
X007338Y012067D01*
X007277Y012246D02*
X007277Y012493D01*
X007277Y012370D02*
X007153Y012493D01*
X007092Y012493D01*
X007398Y012432D02*
X007398Y012370D01*
X007645Y012370D01*
X007645Y012432D02*
X007584Y012493D01*
X007460Y012493D01*
X007398Y012432D01*
X007460Y012246D02*
X007584Y012246D01*
X007645Y012308D01*
X007645Y012432D01*
X007767Y012493D02*
X008014Y012246D01*
X007767Y012246D01*
X007584Y012128D02*
X007584Y012005D01*
X007645Y011943D01*
X008135Y012067D02*
X008382Y012067D01*
X008382Y011696D01*
X008135Y011696D01*
X008258Y011882D02*
X008382Y011882D01*
X008503Y012067D02*
X008750Y012067D01*
X008750Y011696D01*
X008503Y011696D01*
X008627Y011882D02*
X008750Y011882D01*
X008933Y012123D02*
X008871Y012185D01*
X008871Y012493D01*
X009057Y012493D01*
X009118Y012432D01*
X009118Y012308D01*
X009057Y012246D01*
X008871Y012246D01*
X008750Y012246D02*
X008627Y012246D01*
X008688Y012246D02*
X008688Y012493D01*
X008750Y012493D01*
X008688Y012617D02*
X008688Y012678D01*
X008505Y012493D02*
X008381Y012493D01*
X008443Y012555D02*
X008443Y012308D01*
X008381Y012246D01*
X008259Y012246D02*
X008136Y012246D01*
X008197Y012246D02*
X008197Y012493D01*
X008259Y012493D01*
X008197Y012617D02*
X008197Y012678D01*
X008014Y012493D02*
X007767Y012493D01*
X006602Y012493D02*
X006602Y012246D01*
X006602Y012370D02*
X006478Y012493D01*
X006417Y012493D01*
X006295Y012493D02*
X006171Y012617D01*
X006171Y012246D01*
X006048Y012246D02*
X006295Y012246D01*
X005926Y012246D02*
X005865Y012246D01*
X005865Y012308D01*
X005926Y012308D01*
X005926Y012246D01*
X005742Y012308D02*
X005496Y012555D01*
X005496Y012308D01*
X005557Y012246D01*
X005681Y012246D01*
X005742Y012308D01*
X005742Y012555D01*
X005681Y012617D01*
X005557Y012617D01*
X005496Y012555D01*
X008933Y012123D02*
X008995Y012123D01*
X009240Y012246D02*
X009364Y012246D01*
X009302Y012246D02*
X009302Y012493D01*
X009364Y012493D01*
X009485Y012555D02*
X009485Y012308D01*
X009547Y012246D01*
X009732Y012246D01*
X009732Y012617D01*
X009547Y012617D01*
X009485Y012555D01*
X009302Y012617D02*
X009302Y012678D01*
X009547Y011943D02*
X009485Y011882D01*
X009485Y011820D01*
X009732Y011820D01*
X009732Y011882D02*
X009671Y011943D01*
X009547Y011943D01*
X009732Y011882D02*
X009732Y011758D01*
X009671Y011696D01*
X009547Y011696D01*
X009364Y011573D02*
X009241Y011696D01*
X009302Y011696D01*
X009302Y011758D01*
X009241Y011758D01*
X009241Y011696D01*
X009854Y011943D02*
X009916Y011943D01*
X010039Y011820D01*
X010039Y011943D02*
X010039Y011696D01*
X010161Y011758D02*
X010161Y011882D01*
X010222Y011943D01*
X010346Y011943D01*
X010407Y011882D01*
X010407Y011758D01*
X010346Y011696D01*
X010222Y011696D01*
X010161Y011758D01*
X010529Y011696D02*
X010529Y011882D01*
X010591Y011943D01*
X010652Y011882D01*
X010652Y011696D01*
X010776Y011696D02*
X010776Y011943D01*
X010714Y011943D01*
X010652Y011882D01*
X010897Y011882D02*
X010959Y011943D01*
X011082Y011943D01*
X011144Y011882D01*
X011144Y011758D01*
X011082Y011696D01*
X010959Y011696D01*
X010897Y011820D02*
X011144Y011820D01*
X011266Y011943D02*
X011390Y011943D01*
X011328Y012005D02*
X011328Y011758D01*
X011266Y011696D01*
X011512Y011696D02*
X011573Y011758D01*
X011573Y012005D01*
X011512Y011943D02*
X011635Y011943D01*
X011819Y011943D02*
X011819Y011696D01*
X011881Y011696D02*
X011757Y011696D01*
X012002Y011696D02*
X012002Y011882D01*
X012064Y011943D01*
X012187Y011943D01*
X012249Y011882D01*
X012249Y012067D02*
X012249Y011696D01*
X012370Y011696D02*
X012494Y011820D01*
X012617Y011696D01*
X012617Y012067D01*
X012677Y012246D02*
X012677Y012432D01*
X012739Y012493D01*
X012801Y012432D01*
X012801Y012246D01*
X012924Y012246D02*
X012924Y012493D01*
X012862Y012493D01*
X012801Y012432D01*
X012556Y012432D02*
X012556Y012308D01*
X012494Y012246D01*
X012371Y012246D01*
X012309Y012308D01*
X012309Y012432D01*
X012371Y012493D01*
X012494Y012493D01*
X012556Y012432D01*
X012188Y012432D02*
X012188Y012308D01*
X012126Y012246D01*
X011941Y012246D01*
X011819Y012308D02*
X011819Y012432D01*
X011758Y012493D01*
X011634Y012493D01*
X011572Y012432D01*
X011572Y012308D01*
X011634Y012246D01*
X011758Y012246D01*
X011819Y012308D01*
X011819Y012128D02*
X011819Y012067D01*
X011819Y011943D02*
X011881Y011943D01*
X011941Y012493D02*
X012126Y012493D01*
X012188Y012432D01*
X012370Y012067D02*
X012370Y011696D01*
X013107Y011696D02*
X013354Y011943D01*
X013475Y011882D02*
X013475Y011820D01*
X013722Y011820D01*
X013722Y011882D02*
X013660Y011943D01*
X013537Y011943D01*
X013475Y011882D01*
X013537Y011696D02*
X013660Y011696D01*
X013722Y011758D01*
X013722Y011882D01*
X013844Y011696D02*
X013968Y011696D01*
X013906Y011696D02*
X013906Y012067D01*
X013968Y012067D01*
X014089Y011943D02*
X014089Y011696D01*
X014089Y011882D02*
X014336Y011882D01*
X014336Y011943D02*
X014213Y012067D01*
X014089Y011943D01*
X014336Y011943D02*
X014336Y011696D01*
X014213Y012246D02*
X014213Y012617D01*
X014336Y012617D02*
X014089Y012617D01*
X013968Y012617D02*
X013968Y012246D01*
X013968Y012432D02*
X013906Y012493D01*
X013782Y012493D01*
X013721Y012432D01*
X013721Y012246D01*
X013599Y012308D02*
X013599Y012432D01*
X013538Y012493D01*
X013414Y012493D01*
X013352Y012432D01*
X013352Y012370D01*
X013599Y012370D01*
X013599Y012308D02*
X013538Y012246D01*
X013414Y012246D01*
X013231Y012246D02*
X013231Y012493D01*
X013231Y012370D02*
X013108Y012493D01*
X013046Y012493D01*
X013107Y011943D02*
X013354Y011696D01*
X011451Y012308D02*
X011389Y012246D01*
X011204Y012246D01*
X011204Y012493D01*
X011083Y012493D02*
X010897Y012493D01*
X010836Y012432D01*
X010836Y012308D01*
X010897Y012246D01*
X011083Y012246D01*
X011083Y012123D02*
X011083Y012493D01*
X011451Y012493D02*
X011451Y012308D01*
X010897Y011882D02*
X010897Y011820D01*
X010714Y012246D02*
X010591Y012246D01*
X010653Y012246D02*
X010653Y012617D01*
X010714Y012617D01*
X010469Y012432D02*
X010407Y012493D01*
X010284Y012493D01*
X010222Y012432D01*
X010222Y012370D01*
X010469Y012370D01*
X010469Y012308D02*
X010469Y012432D01*
X010469Y012308D02*
X010407Y012246D01*
X010284Y012246D01*
D12*
X014746Y012268D03*
X014844Y012367D03*
X014844Y012465D03*
X014746Y012465D03*
X014943Y012465D03*
X015041Y012465D03*
X015041Y012367D03*
X015140Y012367D03*
X015140Y012465D03*
X015140Y012564D03*
X015238Y012564D03*
X015336Y012564D03*
X015336Y012662D03*
X015435Y012564D03*
X015533Y012564D03*
X015533Y012662D03*
X015533Y012761D03*
X015533Y012859D03*
X015435Y012859D03*
X015435Y012957D03*
X015533Y012957D03*
X015533Y013056D03*
X015533Y013154D03*
X015435Y013154D03*
X015336Y013056D03*
X015238Y013056D03*
X015238Y013154D03*
X015140Y013056D03*
X015140Y012957D03*
X015238Y012957D03*
X015238Y012859D03*
X015435Y012761D03*
X015632Y012662D03*
X015730Y012564D03*
X015730Y012465D03*
X015632Y012367D03*
X015533Y012367D03*
X015533Y012465D03*
X015533Y012268D03*
X015533Y012170D03*
X015435Y012170D03*
X015435Y012072D03*
X015336Y012170D03*
X015238Y012170D03*
X015238Y012072D03*
X015140Y012072D03*
X015140Y012170D03*
X015140Y012268D03*
X015336Y012367D03*
X015140Y012662D03*
X015041Y012564D03*
X014943Y012564D03*
X014943Y012662D03*
X014943Y012761D03*
X014943Y012859D03*
X014844Y012859D03*
X014844Y012957D03*
X014844Y013056D03*
X014844Y013154D03*
X014746Y013154D03*
X014746Y013253D03*
X014844Y013253D03*
X014943Y013351D03*
X015041Y013351D03*
X015041Y013450D03*
X014943Y013548D03*
X014844Y013548D03*
X014746Y013646D03*
X014746Y013745D03*
X014844Y013745D03*
X014844Y013942D03*
X014746Y013942D03*
X014746Y014040D03*
X014746Y014139D03*
X014746Y014237D03*
X014746Y014335D03*
X014746Y014434D03*
X014746Y014532D03*
X014844Y014532D03*
X014943Y014532D03*
X015041Y014532D03*
X015140Y014532D03*
X015238Y014532D03*
X015336Y014532D03*
X015336Y014434D03*
X015336Y014335D03*
X015336Y014237D03*
X015336Y014139D03*
X015336Y014040D03*
X015336Y013942D03*
X015238Y013942D03*
X015140Y013942D03*
X015041Y013942D03*
X014943Y013942D03*
X014943Y014139D03*
X014943Y014237D03*
X015041Y014237D03*
X015041Y014335D03*
X014943Y014335D03*
X015140Y014335D03*
X015140Y014237D03*
X015140Y014139D03*
X015041Y014139D03*
X015041Y013745D03*
X015140Y013646D03*
X015238Y013646D03*
X015238Y013548D03*
X015238Y013450D03*
X015336Y013450D03*
X015435Y013450D03*
X015435Y013548D03*
X015533Y013548D03*
X015533Y013450D03*
X015632Y013450D03*
X015730Y013548D03*
X015829Y013646D03*
X015927Y013548D03*
X015927Y013450D03*
X015829Y013450D03*
X015829Y013253D03*
X015927Y013253D03*
X015927Y013154D03*
X015927Y013056D03*
X015927Y012957D03*
X015927Y012859D03*
X015927Y012761D03*
X016025Y012761D03*
X016124Y012761D03*
X016124Y012859D03*
X016124Y012957D03*
X016025Y012957D03*
X016124Y013056D03*
X016222Y013154D03*
X016321Y013154D03*
X016321Y013056D03*
X016321Y012859D03*
X016419Y012859D03*
X016517Y012957D03*
X016517Y012761D03*
X016517Y012662D03*
X016419Y012662D03*
X016517Y012564D03*
X016517Y012465D03*
X016517Y012367D03*
X016419Y012367D03*
X016419Y012268D03*
X016321Y012268D03*
X016222Y012268D03*
X016124Y012268D03*
X016025Y012268D03*
X016025Y012367D03*
X016025Y012465D03*
X015927Y012465D03*
X015927Y012564D03*
X016124Y012564D03*
X016124Y012662D03*
X016222Y012662D03*
X016222Y012564D03*
X016321Y012465D03*
X016124Y012367D03*
X015927Y012170D03*
X015730Y012170D03*
X015730Y012268D03*
X015829Y012367D03*
X015730Y012072D03*
X015632Y012072D03*
X015632Y011973D03*
X015730Y011973D03*
X015730Y011875D03*
X015829Y011875D03*
X015829Y011973D03*
X015829Y011776D03*
X015730Y011776D03*
X015632Y011776D03*
X015533Y011776D03*
X015435Y011776D03*
X015336Y011776D03*
X015336Y011875D03*
X015238Y011875D03*
X015140Y011875D03*
X015041Y011875D03*
X015041Y011973D03*
X014943Y011973D03*
X014943Y012072D03*
X014943Y012170D03*
X014844Y012072D03*
X014746Y011973D03*
X014844Y011875D03*
X014844Y011776D03*
X015041Y011776D03*
X015533Y011875D03*
X016025Y011875D03*
X016222Y011875D03*
X016222Y011973D03*
X016321Y011973D03*
X016419Y011973D03*
X016419Y011875D03*
X016517Y011875D03*
X016517Y011776D03*
X016419Y011776D03*
X016222Y011776D03*
X016321Y012072D03*
X016419Y012072D03*
X016517Y012268D03*
X016616Y012268D03*
X016714Y012268D03*
X016714Y012367D03*
X016616Y012367D03*
X016714Y012465D03*
X016616Y012564D03*
X016616Y012662D03*
X016616Y012761D03*
X016714Y012761D03*
X016714Y012859D03*
X016714Y013056D03*
X016714Y013154D03*
X016616Y013253D03*
X016616Y013351D03*
X016714Y013351D03*
X016616Y013450D03*
X016616Y013548D03*
X016714Y013548D03*
X016813Y013548D03*
X016911Y013548D03*
X016813Y013646D03*
X016813Y013745D03*
X016911Y013745D03*
X017010Y013745D03*
X017010Y013646D03*
X017108Y013646D03*
X017108Y013548D03*
X017010Y013450D03*
X016911Y013351D03*
X016813Y013450D03*
X016616Y013646D03*
X016517Y013548D03*
X016419Y013548D03*
X016419Y013646D03*
X016321Y013646D03*
X016321Y013548D03*
X016321Y013450D03*
X016419Y013450D03*
X016419Y013351D03*
X016517Y013253D03*
X016813Y013056D03*
X016911Y013154D03*
X017010Y013154D03*
X017108Y013056D03*
X017206Y013056D03*
X017206Y013154D03*
X017305Y013154D03*
X017403Y013154D03*
X017403Y013056D03*
X017305Y012957D03*
X017305Y012859D03*
X017403Y012859D03*
X017403Y012761D03*
X017305Y012761D03*
X017403Y012662D03*
X017502Y012662D03*
X017502Y012564D03*
X017502Y012367D03*
X017502Y012268D03*
X017502Y012170D03*
X017502Y012072D03*
X017502Y011973D03*
X017502Y011875D03*
X017502Y011776D03*
X017403Y011776D03*
X017305Y011776D03*
X017206Y011776D03*
X017108Y011776D03*
X017010Y011776D03*
X016911Y011776D03*
X016911Y011875D03*
X016911Y011973D03*
X016911Y012072D03*
X016911Y012170D03*
X016911Y012268D03*
X016911Y012367D03*
X017010Y012367D03*
X017108Y012367D03*
X017206Y012367D03*
X017305Y012367D03*
X017403Y012367D03*
X017305Y012170D03*
X017305Y012072D03*
X017206Y012072D03*
X017108Y012072D03*
X017108Y012170D03*
X017206Y012170D03*
X017206Y011973D03*
X017108Y011973D03*
X017305Y011973D03*
X016714Y011973D03*
X016714Y012072D03*
X016616Y011875D03*
X016714Y011776D03*
X016813Y012564D03*
X016911Y012564D03*
X017010Y012564D03*
X017010Y012662D03*
X016911Y012761D03*
X017010Y012859D03*
X017010Y012957D03*
X017108Y012957D03*
X016911Y012957D03*
X017305Y013351D03*
X017305Y013450D03*
X017305Y013548D03*
X017403Y013450D03*
X017403Y013253D03*
X017502Y013253D03*
X017502Y013154D03*
X017502Y012957D03*
X017502Y012859D03*
X017502Y013745D03*
X017502Y013942D03*
X017502Y014040D03*
X017502Y014139D03*
X017502Y014237D03*
X017502Y014335D03*
X017502Y014434D03*
X017502Y014532D03*
X017403Y014532D03*
X017305Y014532D03*
X017206Y014532D03*
X017108Y014532D03*
X017010Y014532D03*
X016911Y014532D03*
X016911Y014434D03*
X016911Y014335D03*
X016911Y014237D03*
X016911Y014139D03*
X016911Y014040D03*
X016911Y013942D03*
X017010Y013942D03*
X017108Y013942D03*
X017206Y013942D03*
X017305Y013942D03*
X017403Y013942D03*
X017305Y014139D03*
X017305Y014237D03*
X017305Y014335D03*
X017206Y014335D03*
X017108Y014335D03*
X017108Y014237D03*
X017206Y014237D03*
X017206Y014139D03*
X017108Y014139D03*
X016714Y014237D03*
X016616Y014237D03*
X016616Y014335D03*
X016616Y014434D03*
X016616Y014532D03*
X016714Y014532D03*
X016714Y014434D03*
X016517Y014434D03*
X016517Y014532D03*
X016321Y014532D03*
X016222Y014532D03*
X016222Y014434D03*
X016124Y014532D03*
X016025Y014532D03*
X015927Y014434D03*
X015927Y014335D03*
X015829Y014335D03*
X015730Y014434D03*
X015829Y014532D03*
X015632Y014335D03*
X015829Y014139D03*
X015927Y014139D03*
X015927Y014040D03*
X015927Y013942D03*
X015927Y013843D03*
X016025Y013843D03*
X016025Y013745D03*
X016025Y013646D03*
X016124Y013646D03*
X016222Y013646D03*
X016222Y013548D03*
X016222Y013745D03*
X016321Y013745D03*
X016321Y013843D03*
X016321Y013942D03*
X016321Y014040D03*
X016321Y014139D03*
X016419Y014139D03*
X016517Y014139D03*
X016517Y013942D03*
X016517Y013745D03*
X016714Y013843D03*
X016714Y013942D03*
X016222Y014040D03*
X016124Y013942D03*
X016025Y014040D03*
X016124Y014139D03*
X016124Y014237D03*
X016025Y014237D03*
X016321Y014335D03*
X015730Y013942D03*
X015730Y013843D03*
X015632Y013843D03*
X015533Y013942D03*
X015336Y013745D03*
X015336Y013646D03*
X015435Y013351D03*
X015533Y013351D03*
X015632Y013253D03*
X015632Y013154D03*
X015829Y012957D03*
X015829Y012859D03*
X015829Y012761D03*
X015730Y012859D03*
X016025Y013154D03*
X016124Y013253D03*
X016124Y013351D03*
X016025Y013351D03*
X015829Y013843D03*
X015336Y013253D03*
X015041Y013154D03*
X014943Y013154D03*
X014746Y013450D03*
X015041Y012761D03*
X016222Y012761D03*
X017206Y013745D03*
X017305Y013745D03*
D13*
X018021Y012841D03*
X018401Y013261D03*
X018681Y013101D03*
X019041Y013141D03*
X019081Y013261D03*
X019101Y013421D03*
X019081Y013681D03*
X019081Y013701D03*
X019001Y013721D03*
X018801Y013701D03*
X018521Y013521D03*
X018461Y013541D03*
X018821Y013921D03*
X018881Y014181D03*
X018981Y014201D03*
X019001Y014621D03*
X018981Y014641D03*
X019021Y014681D03*
X019081Y014641D03*
X019121Y014621D03*
X019141Y014601D03*
X019201Y014561D03*
X020361Y013401D03*
X020401Y013421D03*
X020461Y013441D03*
X020501Y013461D03*
X020601Y013501D03*
X020641Y013521D03*
X020701Y013541D03*
X020761Y013581D03*
X019461Y012821D03*
X019161Y013001D03*
X019201Y013141D03*
X018921Y012561D03*
X018941Y012521D03*
X018961Y012501D03*
X018961Y012481D03*
X019001Y012421D03*
X019021Y012401D03*
X019321Y011721D03*
X019401Y011621D03*
X019441Y011601D03*
X019481Y011621D03*
X019181Y011681D03*
X019121Y011641D03*
D14*
X019081Y011661D03*
X019021Y011701D03*
X019001Y011741D03*
X019141Y011761D03*
X019161Y011781D03*
X019201Y011781D03*
X019201Y011801D03*
X019221Y011841D03*
X019141Y011841D03*
X019141Y011861D03*
X019101Y011961D03*
X019101Y011981D03*
X019101Y012001D03*
X019101Y012021D03*
X019101Y012041D03*
X019101Y012061D03*
X019101Y012081D03*
X019101Y012101D03*
X019101Y012121D03*
X019101Y012141D03*
X019101Y012161D03*
X019101Y012181D03*
X019101Y012201D03*
X019101Y012221D03*
X019041Y012321D03*
X019481Y012301D03*
X019321Y011921D03*
X019361Y011841D03*
X019361Y011821D03*
X019361Y011781D03*
X019381Y011761D03*
X019361Y011741D03*
X019321Y011701D03*
X019281Y011701D03*
X019221Y011721D03*
X019221Y011741D03*
X019381Y011661D03*
X019441Y011761D03*
X019441Y011781D03*
X019441Y011801D03*
X019521Y011701D03*
X019521Y011681D03*
X019521Y011661D03*
X019521Y011641D03*
X019361Y012821D03*
X019361Y012841D03*
X019361Y012861D03*
X019341Y012901D03*
X019341Y012921D03*
X019321Y012941D03*
X019301Y012961D03*
X019421Y013001D03*
X019441Y012981D03*
X019441Y012961D03*
X019461Y012941D03*
X019461Y012921D03*
X019461Y012901D03*
X019461Y012881D03*
X019461Y012861D03*
X019461Y012841D03*
X019321Y013141D03*
X019341Y013161D03*
X019301Y013161D03*
X019281Y013141D03*
X018941Y013261D03*
X018901Y013241D03*
X018901Y013301D03*
X018741Y012941D03*
X018701Y012861D03*
X018881Y012801D03*
X019001Y012901D03*
X019041Y012861D03*
X018581Y013201D03*
X018561Y013221D03*
X018561Y013241D03*
X018401Y013281D03*
X018401Y013301D03*
X018381Y013321D03*
X018381Y013341D03*
X018381Y013361D03*
X018381Y013381D03*
X018381Y013401D03*
X018381Y013421D03*
X018381Y013441D03*
X018381Y013461D03*
X018401Y013501D03*
X018501Y013781D03*
X018661Y013801D03*
X018741Y013821D03*
X018801Y013901D03*
X018781Y013681D03*
X018981Y013761D03*
X019081Y013801D03*
X019121Y013741D03*
X019141Y013721D03*
X019141Y013701D03*
X019141Y013681D03*
X018961Y014181D03*
X018821Y014121D03*
X018661Y014081D03*
X018921Y014681D03*
X017941Y013421D03*
X017741Y013301D03*
X017741Y013281D03*
X017761Y013261D03*
X017761Y013241D03*
X017781Y013221D03*
X017781Y013201D03*
X017801Y013181D03*
X017801Y013161D03*
X017721Y013321D03*
X017721Y013341D03*
X017841Y012981D03*
X017821Y012961D03*
X017821Y012941D03*
X017821Y012921D03*
X017801Y012901D03*
X017801Y012881D03*
X017801Y012861D03*
X017781Y012841D03*
X018061Y012861D03*
X018081Y012881D03*
X018101Y012901D03*
X018201Y012981D03*
X018261Y013041D03*
D15*
X018581Y013161D03*
X019001Y012821D03*
X019101Y012521D03*
X019581Y012861D03*
X019101Y013321D03*
X019101Y013441D03*
X019101Y013661D03*
X018841Y013721D03*
X019221Y013901D03*
X019061Y014581D03*
X018481Y014501D03*
X020401Y013641D03*
X019421Y011901D03*
X019341Y011641D03*
D16*
X019291Y011661D03*
X019291Y011681D03*
X019211Y011701D03*
X019211Y011761D03*
X019211Y011821D03*
X019211Y011861D03*
X019131Y011881D03*
X019111Y011941D03*
X019291Y011981D03*
X019311Y011941D03*
X019331Y011901D03*
X019431Y011821D03*
X019451Y011741D03*
X019491Y011721D03*
X019151Y011661D03*
X019051Y011681D03*
X019011Y011721D03*
X019031Y011761D03*
X018991Y012441D03*
X018971Y012461D03*
X018931Y012541D03*
X018911Y012581D03*
X018891Y012601D03*
X018671Y012641D03*
X018671Y012661D03*
X018671Y012681D03*
X018671Y012701D03*
X018671Y012721D03*
X018671Y012741D03*
X018671Y012761D03*
X018671Y012781D03*
X018711Y012881D03*
X018711Y012901D03*
X018731Y012921D03*
X018751Y012961D03*
X018771Y012981D03*
X018651Y013121D03*
X018631Y013141D03*
X018591Y013181D03*
X018551Y013341D03*
X018391Y013481D03*
X018411Y013521D03*
X018511Y013761D03*
X018491Y013801D03*
X018651Y013701D03*
X018731Y013701D03*
X018731Y013681D03*
X018751Y013721D03*
X018931Y013721D03*
X019011Y013741D03*
X019031Y013761D03*
X019071Y013721D03*
X019111Y013761D03*
X019011Y013681D03*
X019011Y013661D03*
X019391Y013501D03*
X019171Y013261D03*
X019071Y013201D03*
X019051Y013161D03*
X019031Y012921D03*
X018991Y012881D03*
X019351Y012881D03*
X019371Y012801D03*
X019371Y012781D03*
X019311Y013121D03*
X018271Y013061D03*
X018231Y013021D03*
X018211Y013001D03*
X018171Y012961D03*
X018151Y012941D03*
X018131Y012921D03*
X017851Y013001D03*
X018151Y013301D03*
X018191Y013281D03*
X018231Y013261D03*
X018111Y013321D03*
X018091Y013341D03*
X018051Y013361D03*
X018011Y013381D03*
X017731Y013361D03*
X018671Y014101D03*
X018711Y014081D03*
X018731Y014101D03*
X018771Y014081D03*
X018791Y014101D03*
X018891Y014101D03*
X018911Y014121D03*
X018931Y014141D03*
X018951Y014161D03*
X018911Y014201D03*
X019171Y014581D03*
X018951Y014661D03*
X018911Y014701D03*
X018891Y014761D03*
X020751Y013561D03*
D17*
X020551Y013481D03*
X019571Y012841D03*
X019551Y012821D03*
X019191Y013021D03*
X019191Y013161D03*
X019331Y013181D03*
X018991Y012801D03*
X019031Y012381D03*
X019191Y011941D03*
X019211Y011881D03*
X019431Y011841D03*
X018591Y013101D03*
X018551Y013361D03*
X018671Y013561D03*
X018571Y013701D03*
X018571Y013781D03*
X018571Y013801D03*
X018731Y013801D03*
X018831Y013941D03*
X018671Y014061D03*
X019071Y013781D03*
X019031Y014601D03*
X019051Y014661D03*
X018991Y014701D03*
X018911Y014741D03*
X018451Y014521D03*
X017811Y013381D03*
D18*
X018551Y013381D03*
X018631Y013521D03*
X018551Y013561D03*
X018611Y013681D03*
X018591Y013721D03*
X018531Y013821D03*
X018531Y013841D03*
X018651Y014041D03*
X018851Y013961D03*
X018871Y013981D03*
X018971Y014221D03*
X019011Y014241D03*
X019091Y014201D03*
X019091Y014281D03*
X018511Y014481D03*
X018931Y014721D03*
X018891Y013681D03*
X019051Y013021D03*
X018731Y012581D03*
X019191Y012121D03*
X019191Y012101D03*
X019191Y011981D03*
X019191Y011961D03*
X019171Y011921D03*
X019171Y011901D03*
X019411Y011921D03*
X019411Y011941D03*
X019411Y011861D03*
X019591Y012881D03*
X019591Y012901D03*
X020531Y013621D03*
X020651Y013601D03*
D19*
X020261Y013661D03*
X019601Y012921D03*
X019521Y012801D03*
X019501Y012781D03*
X019221Y013041D03*
X018821Y012901D03*
X018821Y012881D03*
X018541Y013401D03*
X018621Y013641D03*
X018701Y013781D03*
X018581Y013921D03*
X018581Y013941D03*
X018601Y013961D03*
X018601Y013981D03*
X018621Y014001D03*
X018641Y014021D03*
X018701Y014121D03*
X018581Y014441D03*
X018541Y014461D03*
X019081Y014561D03*
X018861Y013661D03*
X019101Y013461D03*
X017921Y013401D03*
X019201Y012081D03*
X019201Y012061D03*
X019401Y011881D03*
D20*
X019391Y011961D03*
X019391Y012081D03*
X019611Y012981D03*
X019611Y013001D03*
X018971Y013861D03*
X018651Y013761D03*
X018611Y013741D03*
X018611Y013581D03*
X018711Y014181D03*
X019371Y014141D03*
D21*
X019091Y014181D03*
X018591Y014421D03*
X018571Y013901D03*
X018551Y013881D03*
X018551Y013861D03*
X018951Y013701D03*
X019071Y013641D03*
X019071Y013621D03*
X019031Y013001D03*
X018971Y012841D03*
X018851Y012921D03*
X018851Y013001D03*
X018791Y013061D03*
X018671Y013081D03*
X018751Y012841D03*
X018751Y012821D03*
X018751Y012801D03*
X019611Y012941D03*
X019611Y012961D03*
X019411Y012001D03*
X019411Y011981D03*
X019211Y012021D03*
X019211Y012041D03*
D22*
X019221Y012001D03*
X019401Y012021D03*
X019401Y012041D03*
X019401Y012061D03*
X018821Y012641D03*
X018741Y012601D03*
X018861Y013021D03*
X018561Y013421D03*
X018621Y013601D03*
X018641Y013661D03*
X018801Y013641D03*
X018861Y013761D03*
X019101Y013481D03*
X019381Y013901D03*
X020181Y013641D03*
X018641Y014381D03*
X018621Y014401D03*
X018341Y013241D03*
X017861Y012821D03*
D23*
X017861Y013021D03*
X018861Y013741D03*
X018901Y013781D03*
X018921Y013801D03*
X018941Y013821D03*
X018961Y013841D03*
X019001Y013881D03*
X019281Y013621D03*
X019281Y013601D03*
X019261Y013581D03*
X019281Y013201D03*
X019281Y013061D03*
X019141Y013181D03*
X019021Y013061D03*
X019601Y013021D03*
X019381Y012121D03*
X019381Y012101D03*
X019361Y014161D03*
X019101Y014161D03*
X018741Y014141D03*
X018721Y014201D03*
X018681Y014341D03*
X018661Y014361D03*
X019141Y014541D03*
D24*
X019311Y014241D03*
X019551Y013141D03*
X018951Y013041D03*
X018891Y012741D03*
X019311Y012221D03*
X019311Y012141D03*
D25*
X019321Y012161D03*
X019301Y012201D03*
X019281Y012381D03*
X019281Y012401D03*
X019281Y012421D03*
X019301Y012441D03*
X018881Y012761D03*
X018881Y012781D03*
X019141Y013081D03*
X019561Y013161D03*
X020081Y013601D03*
X019301Y013801D03*
X019301Y013861D03*
D26*
X019311Y013881D03*
X019311Y013781D03*
X019311Y013761D03*
X018971Y013581D03*
X019151Y013101D03*
X018971Y012981D03*
X018951Y012961D03*
X018931Y012941D03*
X019311Y012461D03*
X019311Y012181D03*
X019571Y013061D03*
X019571Y013181D03*
X019331Y014221D03*
X019311Y014321D03*
X019311Y014341D03*
D27*
X018941Y013601D03*
X020021Y013581D03*
X019241Y012341D03*
X019281Y012261D03*
X019281Y012241D03*
D28*
X019271Y012281D03*
X019231Y012361D03*
X018931Y012681D03*
D29*
X018911Y012701D03*
X019231Y012301D03*
X019531Y013081D03*
X019531Y013101D03*
D30*
X019541Y013121D03*
X019161Y013501D03*
X019281Y013821D03*
X019281Y013841D03*
X018741Y013621D03*
X018281Y013201D03*
X017921Y013041D03*
X018901Y012721D03*
X019261Y012321D03*
D31*
X019321Y012481D03*
X019321Y012501D03*
X019341Y012521D03*
X019581Y013201D03*
X019321Y013721D03*
X019321Y013741D03*
X019341Y014281D03*
X019321Y014301D03*
X019301Y014361D03*
X019281Y014381D03*
X019241Y014441D03*
X018581Y013481D03*
D32*
X019161Y013521D03*
X019261Y012541D03*
D33*
X019251Y012561D03*
X019191Y013981D03*
D34*
X019191Y013941D03*
X019191Y014101D03*
X019251Y012581D03*
D35*
X019241Y012601D03*
X019241Y012621D03*
X019181Y013921D03*
D36*
X019021Y013901D03*
X019321Y013681D03*
X019141Y013121D03*
X018861Y012861D03*
X018781Y012621D03*
X019421Y012701D03*
X018321Y013221D03*
X018741Y014161D03*
X019101Y014141D03*
X019341Y014181D03*
X019181Y014501D03*
X019161Y014521D03*
D37*
X019161Y014081D03*
X019141Y014061D03*
X019121Y014041D03*
X019121Y014021D03*
X019241Y012641D03*
D38*
X019131Y012661D03*
X019831Y013501D03*
D39*
X019311Y013701D03*
X019331Y014201D03*
X019271Y014401D03*
X019251Y014421D03*
X019211Y014461D03*
X019191Y014481D03*
X018591Y013461D03*
X019391Y012681D03*
D40*
X019431Y012721D03*
X019451Y012741D03*
X019451Y012761D03*
X019611Y013041D03*
X019291Y013641D03*
X019311Y013661D03*
X018611Y013501D03*
X018571Y013441D03*
X018711Y014221D03*
X018711Y014241D03*
X018711Y014261D03*
X018711Y014281D03*
X018691Y014301D03*
X018691Y014321D03*
X020131Y013621D03*
D41*
X019981Y013561D03*
X019461Y013261D03*
X019141Y013541D03*
X019181Y013961D03*
X019201Y014121D03*
X019241Y014261D03*
X018241Y013181D03*
X017981Y013061D03*
D42*
X018041Y013081D03*
X018201Y013161D03*
D43*
X018111Y013101D03*
X019431Y013281D03*
D44*
X018171Y013121D03*
D45*
X018181Y013141D03*
D46*
X019391Y013221D03*
D47*
X019381Y013241D03*
D48*
X019491Y013301D03*
X019611Y013321D03*
D49*
X019651Y013341D03*
D50*
X019701Y013361D03*
D51*
X019731Y013381D03*
D52*
X019691Y013401D03*
D53*
X019721Y013421D03*
D54*
X019721Y013441D03*
D55*
X019731Y013461D03*
D56*
X019721Y013481D03*
D57*
X019881Y013521D03*
D58*
X019931Y013541D03*
X019111Y014001D03*
D59*
X019131Y013561D03*
M02*
