G75*
G70*
%OFA0B0*%
%FSLAX24Y24*%
%IPPOS*%
%LPD*%
%AMOC8*
5,1,8,0,0,1.08239X$1,22.5*
%
%ADD10C,0.0040*%
%ADD11C,0.0050*%
%ADD12C,0.0030*%
%ADD13R,0.0098X0.0098*%
%ADD14R,0.0020X0.0060*%
%ADD15R,0.0020X0.0020*%
%ADD16R,0.0020X0.0100*%
%ADD17R,0.0020X0.0040*%
%ADD18R,0.0020X0.0080*%
%ADD19R,0.0020X0.0120*%
%ADD20R,0.0020X0.0140*%
%ADD21R,0.0020X0.0200*%
%ADD22R,0.0020X0.0160*%
%ADD23R,0.0020X0.0180*%
%ADD24R,0.0020X0.0220*%
%ADD25R,0.0020X0.0360*%
%ADD26R,0.0020X0.0340*%
%ADD27R,0.0020X0.0320*%
%ADD28R,0.0020X0.0420*%
%ADD29R,0.0020X0.0440*%
%ADD30R,0.0020X0.0400*%
%ADD31R,0.0020X0.0380*%
%ADD32R,0.0020X0.0300*%
%ADD33R,0.0020X0.0460*%
%ADD34R,0.0020X0.0480*%
%ADD35R,0.0020X0.0520*%
%ADD36R,0.0020X0.0540*%
%ADD37R,0.0020X0.0260*%
%ADD38R,0.0020X0.0580*%
%ADD39R,0.0020X0.0800*%
%ADD40R,0.0020X0.0280*%
%ADD41R,0.0020X0.0240*%
%ADD42R,0.0020X0.0500*%
%ADD43R,0.0020X0.0620*%
%ADD44R,0.0020X0.0760*%
%ADD45R,0.0020X0.0840*%
%ADD46R,0.0020X0.0780*%
%ADD47R,0.0020X0.0680*%
%ADD48R,0.0020X0.0660*%
%ADD49R,0.0020X0.0880*%
%ADD50R,0.0020X0.1080*%
%ADD51R,0.0020X0.1180*%
%ADD52R,0.0020X0.1240*%
%ADD53R,0.0020X0.1200*%
%ADD54R,0.0020X0.1100*%
%ADD55R,0.0020X0.1060*%
%ADD56R,0.0020X0.1040*%
%ADD57R,0.0020X0.1020*%
%ADD58R,0.0020X0.0700*%
%ADD59R,0.0020X0.0600*%
%ADD60R,0.0020X0.0560*%
%ADD61C,0.0080*%
%ADD62C,0.0010*%
%ADD63C,0.0060*%
%ADD64C,0.0070*%
%ADD65C,0.0020*%
%ADD66R,0.0300X0.0250*%
%ADD67R,0.0500X0.1100*%
%ADD68C,0.0160*%
D10*
X007491Y003772D02*
X007491Y004003D01*
X007568Y004079D01*
X007721Y004079D01*
X007798Y004003D01*
X007798Y003772D01*
X007952Y003772D02*
X007491Y003772D01*
X007645Y004233D02*
X007491Y004386D01*
X007952Y004386D01*
X007952Y004233D02*
X007952Y004540D01*
X008028Y004693D02*
X008028Y005000D01*
X007875Y005154D02*
X007952Y005230D01*
X007952Y005384D01*
X007875Y005460D01*
X007798Y005460D01*
X007721Y005384D01*
X007721Y005230D01*
X007645Y005154D01*
X007568Y005154D01*
X007491Y005230D01*
X007491Y005384D01*
X007568Y005460D01*
X007491Y005614D02*
X007491Y005844D01*
X007568Y005921D01*
X007721Y005921D01*
X007798Y005844D01*
X007798Y005614D01*
X007952Y005614D02*
X007491Y005614D01*
X007491Y006074D02*
X007491Y006228D01*
X007491Y006151D02*
X007952Y006151D01*
X007952Y006074D02*
X007952Y006228D01*
X007952Y006381D02*
X007491Y006381D01*
X007491Y006611D01*
X007568Y006688D01*
X007645Y006688D01*
X007721Y006611D01*
X007721Y006381D01*
X007721Y006611D02*
X007798Y006688D01*
X007875Y006688D01*
X007952Y006611D01*
X007952Y006381D01*
X009292Y006402D02*
X009292Y005942D01*
X009599Y005942D02*
X009599Y006402D01*
X009445Y006249D01*
X009292Y006402D01*
X009752Y006402D02*
X009982Y006402D01*
X010059Y006325D01*
X010059Y006249D01*
X009982Y006172D01*
X009752Y006172D01*
X009752Y005942D02*
X009752Y006402D01*
X009982Y006172D02*
X010059Y006095D01*
X010059Y006018D01*
X009982Y005942D01*
X009752Y005942D01*
X010212Y005942D02*
X010519Y005942D01*
X010673Y005942D02*
X010903Y005942D01*
X010980Y006018D01*
X010980Y006325D01*
X010903Y006402D01*
X010673Y006402D01*
X010673Y005942D01*
X010366Y006172D02*
X010212Y006172D01*
X010212Y006402D02*
X010212Y005942D01*
X010212Y006402D02*
X010519Y006402D01*
X011133Y005865D02*
X011440Y005865D01*
X011593Y005942D02*
X011593Y006402D01*
X011747Y006249D01*
X011900Y006402D01*
X011900Y005942D01*
X012054Y005942D02*
X012207Y005942D01*
X012130Y005942D02*
X012130Y006402D01*
X012054Y006402D02*
X012207Y006402D01*
X012361Y006325D02*
X012437Y006402D01*
X012591Y006402D01*
X012668Y006325D01*
X012821Y006402D02*
X012821Y005942D01*
X012821Y006095D02*
X013051Y006095D01*
X013128Y006172D01*
X013128Y006325D01*
X013051Y006402D01*
X012821Y006402D01*
X012974Y006095D02*
X013128Y005942D01*
X013281Y006018D02*
X013358Y005942D01*
X013512Y005942D01*
X013588Y006018D01*
X013588Y006325D01*
X013512Y006402D01*
X013358Y006402D01*
X013281Y006325D01*
X013281Y006018D01*
X013742Y006018D02*
X013818Y005942D01*
X013972Y005942D01*
X014049Y006018D01*
X014202Y006018D02*
X014279Y005942D01*
X014432Y005942D01*
X014509Y006018D01*
X014509Y006325D01*
X014432Y006402D01*
X014279Y006402D01*
X014202Y006325D01*
X014202Y006018D01*
X014049Y006325D02*
X013972Y006402D01*
X013818Y006402D01*
X013742Y006325D01*
X013742Y006018D01*
X014662Y005942D02*
X014662Y006402D01*
X014969Y005942D01*
X014969Y006402D01*
X015123Y006402D02*
X015430Y006402D01*
X015583Y006402D02*
X015813Y006402D01*
X015890Y006325D01*
X015890Y006172D01*
X015813Y006095D01*
X015583Y006095D01*
X015583Y005942D02*
X015583Y006402D01*
X015276Y006402D02*
X015276Y005942D01*
X015737Y006095D02*
X015890Y005942D01*
X016044Y006018D02*
X016120Y005942D01*
X016274Y005942D01*
X016350Y006018D01*
X016350Y006325D01*
X016274Y006402D01*
X016120Y006402D01*
X016044Y006325D01*
X016044Y006018D01*
X016504Y005942D02*
X016811Y005942D01*
X016964Y005942D02*
X017271Y005942D01*
X017425Y005942D02*
X017731Y005942D01*
X017885Y005942D02*
X017885Y006402D01*
X018115Y006402D01*
X018192Y006325D01*
X018192Y006172D01*
X018115Y006095D01*
X017885Y006095D01*
X018038Y006095D02*
X018192Y005942D01*
X017578Y006172D02*
X017425Y006172D01*
X017425Y006402D02*
X017425Y005942D01*
X016964Y005942D02*
X016964Y006402D01*
X016504Y006402D02*
X016504Y005942D01*
X017425Y006402D02*
X017731Y006402D01*
X012668Y006018D02*
X012591Y005942D01*
X012437Y005942D01*
X012361Y006018D01*
X012361Y006325D01*
X007952Y010772D02*
X007491Y010772D01*
X007491Y011003D01*
X007568Y011079D01*
X007721Y011079D01*
X007798Y011003D01*
X007798Y010772D01*
X007952Y011233D02*
X007645Y011540D01*
X007568Y011540D01*
X007491Y011463D01*
X007491Y011310D01*
X007568Y011233D01*
X007952Y011233D02*
X007952Y011540D01*
X008028Y011693D02*
X008028Y012000D01*
X007875Y012154D02*
X007952Y012230D01*
X007952Y012384D01*
X007875Y012460D01*
X007798Y012460D01*
X007721Y012384D01*
X007721Y012230D01*
X007645Y012154D01*
X007568Y012154D01*
X007491Y012230D01*
X007491Y012384D01*
X007568Y012460D01*
X007491Y012614D02*
X007491Y012844D01*
X007568Y012921D01*
X007721Y012921D01*
X007798Y012844D01*
X007798Y012614D01*
X007952Y012614D02*
X007491Y012614D01*
X007491Y013074D02*
X007491Y013228D01*
X007491Y013151D02*
X007952Y013151D01*
X007952Y013074D02*
X007952Y013228D01*
X007952Y013381D02*
X007952Y013611D01*
X007875Y013688D01*
X007798Y013688D01*
X007721Y013611D01*
X007721Y013381D01*
X007491Y013381D02*
X007952Y013381D01*
X007721Y013611D02*
X007645Y013688D01*
X007568Y013688D01*
X007491Y013611D01*
X007491Y013381D01*
X007491Y017772D02*
X007491Y018003D01*
X007568Y018079D01*
X007721Y018079D01*
X007798Y018003D01*
X007798Y017772D01*
X007952Y017772D02*
X007491Y017772D01*
X007568Y018233D02*
X007491Y018310D01*
X007491Y018463D01*
X007568Y018540D01*
X007645Y018540D01*
X007721Y018463D01*
X007798Y018540D01*
X007875Y018540D01*
X007952Y018463D01*
X007952Y018310D01*
X007875Y018233D01*
X007721Y018386D02*
X007721Y018463D01*
X008028Y018693D02*
X008028Y019000D01*
X007875Y019154D02*
X007952Y019230D01*
X007952Y019384D01*
X007875Y019460D01*
X007798Y019460D01*
X007721Y019384D01*
X007721Y019230D01*
X007645Y019154D01*
X007568Y019154D01*
X007491Y019230D01*
X007491Y019384D01*
X007568Y019460D01*
X007491Y019614D02*
X007491Y019844D01*
X007568Y019921D01*
X007721Y019921D01*
X007798Y019844D01*
X007798Y019614D01*
X007952Y019614D02*
X007491Y019614D01*
X007491Y020074D02*
X007491Y020228D01*
X007491Y020151D02*
X007952Y020151D01*
X007952Y020074D02*
X007952Y020228D01*
X007952Y020381D02*
X007952Y020611D01*
X007875Y020688D01*
X007798Y020688D01*
X007721Y020611D01*
X007721Y020381D01*
X007491Y020381D02*
X007952Y020381D01*
X007721Y020611D02*
X007645Y020688D01*
X007568Y020688D01*
X007491Y020611D01*
X007491Y020381D01*
X007491Y024772D02*
X007491Y025003D01*
X007568Y025079D01*
X007721Y025079D01*
X007798Y025003D01*
X007798Y024772D01*
X007952Y024772D02*
X007491Y024772D01*
X007721Y025233D02*
X007491Y025463D01*
X007952Y025463D01*
X008028Y025693D02*
X008028Y026000D01*
X007875Y026154D02*
X007952Y026230D01*
X007952Y026384D01*
X007875Y026460D01*
X007798Y026460D01*
X007721Y026384D01*
X007721Y026230D01*
X007645Y026154D01*
X007568Y026154D01*
X007491Y026230D01*
X007491Y026384D01*
X007568Y026460D01*
X007491Y026614D02*
X007491Y026844D01*
X007568Y026921D01*
X007721Y026921D01*
X007798Y026844D01*
X007798Y026614D01*
X007952Y026614D02*
X007491Y026614D01*
X007491Y027074D02*
X007491Y027228D01*
X007491Y027151D02*
X007952Y027151D01*
X007952Y027074D02*
X007952Y027228D01*
X007952Y027381D02*
X007491Y027381D01*
X007491Y027611D01*
X007568Y027688D01*
X007645Y027688D01*
X007721Y027611D01*
X007721Y027381D01*
X007721Y027611D02*
X007798Y027688D01*
X007875Y027688D01*
X007952Y027611D01*
X007952Y027381D01*
X009542Y027442D02*
X009695Y027442D01*
X009618Y027442D02*
X009618Y027902D01*
X009542Y027902D02*
X009695Y027902D01*
X009849Y027825D02*
X009849Y027518D01*
X009925Y027442D01*
X010079Y027442D01*
X010155Y027518D01*
X010309Y027442D02*
X010616Y027442D01*
X010462Y027442D02*
X010462Y027902D01*
X010309Y027749D01*
X010155Y027825D02*
X010079Y027902D01*
X009925Y027902D01*
X009849Y027825D01*
X009799Y029642D02*
X009492Y029642D01*
X009492Y030102D01*
X009952Y030025D02*
X009952Y029718D01*
X010029Y029642D01*
X010182Y029642D01*
X010259Y029718D01*
X010412Y029642D02*
X010643Y029642D01*
X010719Y029718D01*
X010719Y030025D01*
X010643Y030102D01*
X010412Y030102D01*
X010412Y029642D01*
X010259Y030025D02*
X010182Y030102D01*
X010029Y030102D01*
X009952Y030025D01*
X010873Y029565D02*
X011180Y029565D01*
X011333Y029642D02*
X011333Y030102D01*
X011333Y029872D02*
X011640Y029872D01*
X011793Y029872D02*
X011947Y029872D01*
X012100Y030102D02*
X011793Y030102D01*
X011793Y029642D01*
X012100Y029642D01*
X012254Y029642D02*
X012254Y029949D01*
X012407Y030102D01*
X012561Y029949D01*
X012561Y029642D01*
X012714Y029642D02*
X012944Y029642D01*
X013021Y029718D01*
X013021Y030025D01*
X012944Y030102D01*
X012714Y030102D01*
X012714Y029642D01*
X012561Y029872D02*
X012254Y029872D01*
X011640Y030102D02*
X011640Y029642D01*
X013174Y029642D02*
X013481Y029642D01*
X013635Y029642D02*
X013635Y030102D01*
X013865Y030102D01*
X013942Y030025D01*
X013942Y029872D01*
X013865Y029795D01*
X013635Y029795D01*
X013788Y029795D02*
X013942Y029642D01*
X013481Y030102D02*
X013174Y030102D01*
X013174Y029642D01*
X013174Y029872D02*
X013328Y029872D01*
X007721Y025540D02*
X007721Y025233D01*
X023992Y025002D02*
X023992Y024618D01*
X024068Y024542D01*
X024222Y024542D01*
X024299Y024618D01*
X024299Y025002D01*
X024452Y024925D02*
X024529Y025002D01*
X024682Y025002D01*
X024759Y024925D01*
X024912Y024849D02*
X025066Y025002D01*
X025066Y024542D01*
X025219Y024542D02*
X024912Y024542D01*
X024759Y024618D02*
X024759Y024695D01*
X024682Y024772D01*
X024529Y024772D01*
X024452Y024849D01*
X024452Y024925D01*
X024605Y025079D02*
X024605Y024465D01*
X024529Y024542D02*
X024682Y024542D01*
X024759Y024618D01*
X024529Y024542D02*
X024452Y024618D01*
X025555Y019877D02*
X025615Y019817D01*
X025928Y019055D01*
X025292Y018457D01*
X025155Y018358D01*
X025478Y018358D01*
X025528Y018446D01*
X025983Y018890D01*
X026158Y018457D01*
X026158Y018419D01*
X026125Y018358D01*
X028028Y018358D01*
X028132Y018391D01*
X028198Y018424D01*
X028280Y018517D01*
X028291Y018583D01*
X028329Y018643D01*
X028389Y018885D01*
X028389Y019033D01*
X028384Y019044D01*
X028269Y019098D01*
X028110Y019120D01*
X028219Y019120D01*
X028307Y019142D01*
X028373Y019170D01*
X028455Y019252D01*
X028477Y019307D01*
X028543Y019581D01*
X028559Y019625D01*
X028559Y019718D01*
X028537Y019773D01*
X028505Y019833D01*
X028461Y019861D01*
X028395Y019877D01*
X027150Y019877D01*
X027150Y019767D01*
X027128Y019669D01*
X026986Y019088D01*
X026909Y018775D01*
X026843Y018528D01*
X026800Y018397D01*
X026767Y018364D01*
X026750Y018364D01*
X026662Y018484D01*
X026355Y019241D01*
X026871Y019723D01*
X026948Y019789D01*
X027002Y019828D01*
X027074Y019877D01*
X026728Y019877D01*
X026723Y019855D01*
X026706Y019822D01*
X026684Y019795D01*
X026295Y019411D01*
X026158Y019756D01*
X026158Y019784D01*
X026142Y019811D01*
X026158Y019844D01*
X026158Y019877D01*
X025555Y019877D01*
X027452Y019225D02*
X027567Y019691D01*
X028071Y019691D01*
X028121Y019663D01*
X028126Y019575D01*
X028049Y019285D01*
X028033Y019246D01*
X028000Y019225D01*
X027452Y019225D01*
X027414Y019027D02*
X027287Y018545D01*
X027819Y018545D01*
X027841Y018556D01*
X027880Y018600D01*
X027901Y018632D01*
X027984Y018956D01*
X027984Y018972D01*
X027956Y019011D01*
X027912Y019027D01*
X027414Y019027D01*
X028510Y018643D02*
X028620Y019131D01*
X028636Y019192D01*
X028702Y019323D01*
X028751Y019395D01*
X028839Y019449D01*
X028905Y019471D01*
X028938Y019477D01*
X029798Y019477D01*
X029859Y019455D01*
X029930Y019400D01*
X029952Y019378D01*
X029952Y019186D01*
X029859Y018808D01*
X028960Y018808D01*
X028916Y018621D01*
X028905Y018589D01*
X028910Y018550D01*
X028932Y018534D01*
X029722Y018534D01*
X029793Y018545D01*
X029716Y018358D01*
X028631Y018358D01*
X028587Y018369D01*
X028543Y018402D01*
X028515Y018441D01*
X028499Y018501D01*
X028499Y018556D01*
X028510Y018643D01*
X029009Y018983D02*
X029047Y019208D01*
X029064Y019252D01*
X029086Y019290D01*
X029119Y019307D01*
X029508Y019307D01*
X029530Y019301D01*
X029546Y019285D01*
X029546Y019214D01*
X029486Y018978D01*
X029014Y018978D01*
X029009Y018983D01*
X029968Y018643D02*
X030078Y019131D01*
X030094Y019192D01*
X030160Y019323D01*
X030209Y019395D01*
X030297Y019449D01*
X030363Y019471D01*
X030396Y019477D01*
X031257Y019477D01*
X031317Y019455D01*
X031388Y019400D01*
X031410Y019378D01*
X031410Y019186D01*
X031317Y018808D01*
X030418Y018808D01*
X030374Y018621D01*
X030363Y018589D01*
X030368Y018550D01*
X030390Y018534D01*
X031180Y018534D01*
X031251Y018545D01*
X031174Y018358D01*
X030089Y018358D01*
X030045Y018369D01*
X030001Y018402D01*
X029974Y018441D01*
X029957Y018501D01*
X029957Y018556D01*
X029968Y018643D01*
X030467Y018983D02*
X030473Y018978D01*
X030944Y018978D01*
X031004Y019214D01*
X031004Y019285D01*
X030988Y019301D01*
X030966Y019307D01*
X030577Y019307D01*
X030544Y019290D01*
X030522Y019252D01*
X030506Y019208D01*
X030467Y018983D01*
X032691Y022277D02*
X032845Y022430D01*
X032691Y022584D01*
X033152Y022584D01*
X033152Y022737D02*
X033152Y023044D01*
X033152Y022891D02*
X032691Y022891D01*
X032845Y022737D01*
X032768Y023198D02*
X032691Y023274D01*
X032691Y023428D01*
X032768Y023505D01*
X033075Y023198D01*
X033152Y023274D01*
X033152Y023428D01*
X033075Y023505D01*
X032768Y023505D01*
X032845Y023658D02*
X032768Y023735D01*
X032615Y023735D01*
X032615Y023888D02*
X032768Y023888D01*
X032845Y023811D01*
X032768Y023198D02*
X033075Y023198D01*
X033152Y022277D02*
X032691Y022277D01*
X036491Y022197D02*
X036491Y022044D01*
X036491Y022120D02*
X036952Y022120D01*
X036952Y022044D02*
X036952Y022197D01*
X036952Y022350D02*
X036645Y022350D01*
X036491Y022504D01*
X036645Y022657D01*
X036952Y022657D01*
X036721Y022657D02*
X036721Y022350D01*
X036721Y021890D02*
X036798Y021813D01*
X036798Y021583D01*
X036798Y021430D02*
X036875Y021430D01*
X036952Y021353D01*
X036952Y021199D01*
X036875Y021123D01*
X036721Y021199D02*
X036721Y021353D01*
X036798Y021430D01*
X036952Y021583D02*
X036491Y021583D01*
X036491Y021813D01*
X036568Y021890D01*
X036721Y021890D01*
X036568Y021430D02*
X036491Y021353D01*
X036491Y021199D01*
X036568Y021123D01*
X036645Y021123D01*
X036721Y021199D01*
X037028Y020969D02*
X037028Y020662D01*
X036875Y020509D02*
X036952Y020432D01*
X036952Y020279D01*
X036875Y020202D01*
X036721Y020049D02*
X036798Y019972D01*
X036798Y019742D01*
X036952Y019742D02*
X036491Y019742D01*
X036491Y019972D01*
X036568Y020049D01*
X036721Y020049D01*
X036568Y020202D02*
X036491Y020279D01*
X036491Y020432D01*
X036568Y020509D01*
X036645Y020509D01*
X036721Y020432D01*
X036798Y020509D01*
X036875Y020509D01*
X036721Y020432D02*
X036721Y020356D01*
X036721Y015657D02*
X036721Y015350D01*
X036645Y015350D02*
X036491Y015504D01*
X036645Y015657D01*
X036952Y015657D01*
X036952Y015350D02*
X036645Y015350D01*
X036491Y015197D02*
X036491Y015044D01*
X036491Y015120D02*
X036952Y015120D01*
X036952Y015044D02*
X036952Y015197D01*
X036721Y014890D02*
X036798Y014813D01*
X036798Y014583D01*
X036798Y014430D02*
X036875Y014430D01*
X036952Y014353D01*
X036952Y014199D01*
X036875Y014123D01*
X036721Y014199D02*
X036645Y014123D01*
X036568Y014123D01*
X036491Y014199D01*
X036491Y014353D01*
X036568Y014430D01*
X036491Y014583D02*
X036491Y014813D01*
X036568Y014890D01*
X036721Y014890D01*
X036491Y014583D02*
X036952Y014583D01*
X036798Y014430D02*
X036721Y014353D01*
X036721Y014199D01*
X037028Y013969D02*
X037028Y013662D01*
X036952Y013509D02*
X036952Y013202D01*
X036645Y013509D01*
X036568Y013509D01*
X036491Y013432D01*
X036491Y013279D01*
X036568Y013202D01*
X036568Y013049D02*
X036491Y012972D01*
X036491Y012742D01*
X036952Y012742D01*
X036798Y012742D02*
X036798Y012972D01*
X036721Y013049D01*
X036568Y013049D01*
X036645Y008657D02*
X036491Y008504D01*
X036645Y008350D01*
X036952Y008350D01*
X036952Y008197D02*
X036952Y008044D01*
X036952Y008120D02*
X036491Y008120D01*
X036491Y008044D02*
X036491Y008197D01*
X036721Y008350D02*
X036721Y008657D01*
X036645Y008657D02*
X036952Y008657D01*
X036721Y007890D02*
X036798Y007813D01*
X036798Y007583D01*
X036798Y007430D02*
X036875Y007430D01*
X036952Y007353D01*
X036952Y007199D01*
X036875Y007123D01*
X036721Y007199D02*
X036721Y007353D01*
X036798Y007430D01*
X036952Y007583D02*
X036491Y007583D01*
X036491Y007813D01*
X036568Y007890D01*
X036721Y007890D01*
X036568Y007430D02*
X036491Y007353D01*
X036491Y007199D01*
X036568Y007123D01*
X036645Y007123D01*
X036721Y007199D01*
X037028Y006969D02*
X037028Y006662D01*
X036952Y006509D02*
X036952Y006202D01*
X036952Y006356D02*
X036491Y006356D01*
X036645Y006202D01*
X036721Y006049D02*
X036798Y005972D01*
X036798Y005742D01*
X036952Y005742D02*
X036491Y005742D01*
X036491Y005972D01*
X036568Y006049D01*
X036721Y006049D01*
X035043Y001102D02*
X034812Y001102D01*
X034812Y000642D01*
X035043Y000642D01*
X035119Y000718D01*
X035119Y001025D01*
X035043Y001102D01*
X034659Y001102D02*
X034659Y000642D01*
X034352Y001102D01*
X034352Y000642D01*
X034199Y000718D02*
X034199Y000872D01*
X034045Y000872D01*
X033892Y001025D02*
X033892Y000718D01*
X033968Y000642D01*
X034122Y000642D01*
X034199Y000718D01*
X034199Y001025D02*
X034122Y001102D01*
X033968Y001102D01*
X033892Y001025D01*
X032859Y000872D02*
X032552Y000872D01*
X032782Y001102D01*
X032782Y000642D01*
X032399Y000642D02*
X032399Y001102D01*
X032245Y000949D01*
X032092Y001102D01*
X032092Y000642D01*
X030619Y000718D02*
X030543Y000642D01*
X030312Y000642D01*
X030312Y001102D01*
X030543Y001102D01*
X030619Y001025D01*
X030619Y000718D01*
X030159Y000642D02*
X030159Y001102D01*
X029852Y001102D02*
X030159Y000642D01*
X029852Y000642D02*
X029852Y001102D01*
X029699Y001025D02*
X029622Y001102D01*
X029468Y001102D01*
X029392Y001025D01*
X029392Y000718D01*
X029468Y000642D01*
X029622Y000642D01*
X029699Y000718D01*
X029699Y000872D01*
X029545Y000872D01*
X028459Y000795D02*
X028459Y000718D01*
X028382Y000642D01*
X028229Y000642D01*
X028152Y000718D01*
X027999Y000642D02*
X027999Y001102D01*
X027845Y000949D01*
X027692Y001102D01*
X027692Y000642D01*
X028152Y001025D02*
X028229Y001102D01*
X028382Y001102D01*
X028459Y001025D01*
X028459Y000949D01*
X028382Y000872D01*
X028459Y000795D01*
X028382Y000872D02*
X028305Y000872D01*
X026219Y001025D02*
X026143Y001102D01*
X025912Y001102D01*
X025912Y000642D01*
X026143Y000642D01*
X026219Y000718D01*
X026219Y001025D01*
X025759Y001102D02*
X025759Y000642D01*
X025452Y001102D01*
X025452Y000642D01*
X025299Y000718D02*
X025299Y000872D01*
X025145Y000872D01*
X024992Y001025D02*
X024992Y000718D01*
X025068Y000642D01*
X025222Y000642D01*
X025299Y000718D01*
X025299Y001025D02*
X025222Y001102D01*
X025068Y001102D01*
X024992Y001025D01*
X024059Y001025D02*
X023982Y001102D01*
X023829Y001102D01*
X023752Y001025D01*
X023599Y001102D02*
X023599Y000642D01*
X023752Y000642D02*
X024059Y000949D01*
X024059Y001025D01*
X024059Y000642D02*
X023752Y000642D01*
X023445Y000949D02*
X023599Y001102D01*
X023445Y000949D02*
X023292Y001102D01*
X023292Y000642D01*
X021819Y000718D02*
X021743Y000642D01*
X021512Y000642D01*
X021512Y001102D01*
X021743Y001102D01*
X021819Y001025D01*
X021819Y000718D01*
X021359Y000642D02*
X021359Y001102D01*
X021052Y001102D02*
X021359Y000642D01*
X021052Y000642D02*
X021052Y001102D01*
X020899Y001025D02*
X020822Y001102D01*
X020668Y001102D01*
X020592Y001025D01*
X020592Y000718D01*
X020668Y000642D01*
X020822Y000642D01*
X020899Y000718D01*
X020899Y000872D01*
X020745Y000872D01*
X019559Y000642D02*
X019252Y000642D01*
X019405Y000642D02*
X019405Y001102D01*
X019252Y000949D01*
X019099Y001102D02*
X019099Y000642D01*
X018792Y000642D02*
X018792Y001102D01*
X018945Y000949D01*
X019099Y001102D01*
X018554Y000949D02*
X018400Y001102D01*
X018247Y001025D02*
X018170Y001102D01*
X017940Y001102D01*
X017940Y000642D01*
X018170Y000642D01*
X018247Y000718D01*
X018247Y001025D01*
X018554Y000949D02*
X018554Y000795D01*
X018400Y000642D01*
X017786Y000642D02*
X017786Y001102D01*
X017480Y001102D02*
X017786Y000642D01*
X017480Y000642D02*
X017480Y001102D01*
X017326Y001025D02*
X017249Y001102D01*
X017096Y001102D01*
X017019Y001025D01*
X017019Y000718D01*
X017096Y000642D01*
X017249Y000642D01*
X017326Y000718D01*
X017326Y000872D01*
X017173Y000872D01*
X016866Y001102D02*
X016712Y000949D01*
X016712Y000795D01*
X016866Y000642D01*
X016099Y000872D02*
X015792Y000872D01*
X015747Y000872D02*
X015440Y000872D01*
X015593Y001025D02*
X015593Y000718D01*
X014826Y000642D02*
X014519Y000642D01*
X014366Y000642D02*
X014289Y000718D01*
X014289Y001025D01*
X014212Y000949D02*
X014366Y000949D01*
X014519Y000949D02*
X014673Y001102D01*
X014673Y000642D01*
X014059Y000642D02*
X014059Y000872D01*
X013982Y000949D01*
X013829Y000949D01*
X013829Y000795D02*
X014059Y000795D01*
X014059Y000642D02*
X013829Y000642D01*
X013752Y000718D01*
X013829Y000795D01*
X013599Y000795D02*
X013599Y000718D01*
X013522Y000642D01*
X013292Y000642D01*
X013292Y001102D01*
X013522Y001102D01*
X013599Y001025D01*
X013599Y000949D01*
X013522Y000872D01*
X013292Y000872D01*
X013522Y000872D02*
X013599Y000795D01*
X012099Y000872D02*
X011792Y000872D01*
X011347Y000872D02*
X011040Y000872D01*
X011193Y001025D02*
X011193Y000718D01*
X010426Y000642D02*
X010119Y000642D01*
X010426Y000949D01*
X010426Y001025D01*
X010349Y001102D01*
X010196Y001102D01*
X010119Y001025D01*
X009966Y000949D02*
X009812Y000949D01*
X009889Y001025D02*
X009889Y000718D01*
X009966Y000642D01*
X009659Y000642D02*
X009659Y000872D01*
X009582Y000949D01*
X009429Y000949D01*
X009429Y000795D02*
X009659Y000795D01*
X009659Y000642D02*
X009429Y000642D01*
X009352Y000718D01*
X009429Y000795D01*
X009199Y000795D02*
X009199Y000718D01*
X009122Y000642D01*
X008892Y000642D01*
X008892Y001102D01*
X009122Y001102D01*
X009199Y001025D01*
X009199Y000949D01*
X009122Y000872D01*
X008892Y000872D01*
X009122Y000872D02*
X009199Y000795D01*
X023992Y013542D02*
X024299Y014002D01*
X024152Y014042D02*
X023691Y014042D01*
X023845Y014195D01*
X023691Y014349D01*
X024152Y014349D01*
X024152Y014502D02*
X024152Y014809D01*
X024152Y014656D02*
X023691Y014656D01*
X023845Y014502D01*
X023992Y014002D02*
X024299Y013542D01*
X024452Y013542D02*
X024682Y013542D01*
X024759Y013618D01*
X024759Y013695D01*
X024682Y013772D01*
X024452Y013772D01*
X024452Y013542D02*
X024452Y014002D01*
X024682Y014002D01*
X024759Y013925D01*
X024759Y013849D01*
X024682Y013772D01*
X024912Y013772D02*
X025066Y013772D01*
X025219Y014002D02*
X024912Y014002D01*
X024912Y013542D01*
X025219Y013542D01*
X025373Y013542D02*
X025680Y013542D01*
X025833Y013772D02*
X026140Y013772D01*
X026293Y013849D02*
X026447Y014002D01*
X026447Y013542D01*
X026600Y013542D02*
X026293Y013542D01*
X026754Y013542D02*
X026754Y014002D01*
X027061Y014002D01*
X027214Y014002D02*
X027214Y013618D01*
X027291Y013542D01*
X027444Y013542D01*
X027521Y013618D01*
X027521Y014002D01*
X027674Y014002D02*
X027674Y013542D01*
X027981Y013542D01*
X028135Y013542D02*
X028135Y014002D01*
X028135Y013542D02*
X028442Y013542D01*
X028595Y013618D02*
X028672Y013542D01*
X028825Y013542D01*
X028902Y013618D01*
X028902Y013695D01*
X028825Y013772D01*
X028672Y013772D01*
X028595Y013849D01*
X028595Y013925D01*
X028672Y014002D01*
X028825Y014002D01*
X028902Y013925D01*
X029056Y014002D02*
X029209Y014002D01*
X029132Y014002D02*
X029132Y013542D01*
X029056Y013542D02*
X029209Y013542D01*
X029362Y013542D02*
X029669Y013542D01*
X029823Y013542D02*
X029823Y014002D01*
X029899Y013772D02*
X030130Y013542D01*
X029823Y013695D02*
X030130Y014002D01*
X029362Y014002D02*
X029362Y013542D01*
X026907Y013772D02*
X026754Y013772D01*
X025680Y014002D02*
X025373Y014002D01*
X025373Y013542D01*
X025373Y013772D02*
X025526Y013772D01*
X024152Y015039D02*
X024075Y014962D01*
X023768Y015269D01*
X024075Y015269D01*
X024152Y015193D01*
X024152Y015039D01*
X024075Y014962D02*
X023768Y014962D01*
X023691Y015039D01*
X023691Y015193D01*
X023768Y015269D01*
X023845Y015423D02*
X023768Y015499D01*
X023615Y015499D01*
X023615Y015653D02*
X023768Y015653D01*
X023845Y015576D01*
X036391Y026042D02*
X036391Y026272D01*
X036468Y026349D01*
X036621Y026349D01*
X036698Y026272D01*
X036698Y026042D01*
X036852Y026042D02*
X036391Y026042D01*
X036621Y026502D02*
X036621Y026809D01*
X036391Y026732D02*
X036852Y026732D01*
X036928Y026962D02*
X036928Y027269D01*
X036775Y027423D02*
X036852Y027499D01*
X036852Y027653D01*
X036775Y027730D01*
X036698Y027730D01*
X036621Y027653D01*
X036621Y027499D01*
X036545Y027423D01*
X036468Y027423D01*
X036391Y027499D01*
X036391Y027653D01*
X036468Y027730D01*
X036391Y027883D02*
X036391Y028113D01*
X036468Y028190D01*
X036621Y028190D01*
X036698Y028113D01*
X036698Y027883D01*
X036852Y027883D02*
X036391Y027883D01*
X036391Y028344D02*
X036391Y028497D01*
X036391Y028420D02*
X036852Y028420D01*
X036852Y028344D02*
X036852Y028497D01*
X036852Y028650D02*
X036545Y028650D01*
X036391Y028804D01*
X036545Y028957D01*
X036852Y028957D01*
X036621Y028957D02*
X036621Y028650D01*
X035138Y027102D02*
X034831Y027102D01*
X034831Y026642D01*
X035138Y026642D01*
X034984Y026872D02*
X034831Y026872D01*
X034677Y026795D02*
X034677Y027102D01*
X034371Y027102D02*
X034371Y026795D01*
X034524Y026642D01*
X034677Y026795D01*
X034217Y026642D02*
X034064Y026642D01*
X034140Y026642D02*
X034140Y027102D01*
X034064Y027102D02*
X034217Y027102D01*
X033910Y027025D02*
X033910Y026872D01*
X033833Y026795D01*
X033603Y026795D01*
X033603Y026642D02*
X033603Y027102D01*
X033833Y027102D01*
X033910Y027025D01*
X033757Y026795D02*
X033910Y026642D01*
X033450Y026718D02*
X033450Y027025D01*
X033373Y027102D01*
X033143Y027102D01*
X033143Y026642D01*
X033373Y026642D01*
X033450Y026718D01*
X032989Y026565D02*
X032683Y026565D01*
X032529Y026718D02*
X032452Y026642D01*
X032222Y026642D01*
X032222Y027102D01*
X032452Y027102D01*
X032529Y027025D01*
X032529Y026949D01*
X032452Y026872D01*
X032222Y026872D01*
X032452Y026872D02*
X032529Y026795D01*
X032529Y026718D01*
X032069Y026642D02*
X032069Y027102D01*
X031915Y026949D01*
X031762Y027102D01*
X031762Y026642D01*
X031608Y026718D02*
X031608Y027102D01*
X031302Y027102D02*
X031302Y026718D01*
X031378Y026642D01*
X031532Y026642D01*
X031608Y026718D01*
X031148Y026642D02*
X031148Y027102D01*
X031148Y026872D02*
X030841Y026872D01*
X030841Y026642D02*
X030841Y027102D01*
X030688Y027102D02*
X030381Y027102D01*
X030534Y027102D02*
X030534Y026642D01*
X031076Y029242D02*
X031229Y029242D01*
X031306Y029318D01*
X031306Y029702D01*
X031459Y029625D02*
X031459Y029549D01*
X031536Y029472D01*
X031690Y029472D01*
X031766Y029395D01*
X031766Y029318D01*
X031690Y029242D01*
X031536Y029242D01*
X031459Y029318D01*
X031459Y029625D02*
X031536Y029702D01*
X031690Y029702D01*
X031766Y029625D01*
X031920Y029702D02*
X032150Y029702D01*
X032227Y029625D01*
X032227Y029549D01*
X032150Y029472D01*
X031920Y029472D01*
X032150Y029472D02*
X032227Y029395D01*
X032227Y029318D01*
X032150Y029242D01*
X031920Y029242D01*
X031920Y029702D01*
X032380Y029625D02*
X032457Y029702D01*
X032610Y029702D01*
X032687Y029625D01*
X032687Y029549D01*
X032610Y029472D01*
X032687Y029395D01*
X032687Y029318D01*
X032610Y029242D01*
X032457Y029242D01*
X032380Y029318D01*
X032534Y029472D02*
X032610Y029472D01*
X032841Y029318D02*
X032917Y029318D01*
X032917Y029242D01*
X032841Y029242D01*
X032841Y029318D01*
X033071Y029318D02*
X033378Y029625D01*
X033378Y029318D01*
X033301Y029242D01*
X033147Y029242D01*
X033071Y029318D01*
X033071Y029625D01*
X033147Y029702D01*
X033301Y029702D01*
X033378Y029625D01*
X033531Y029549D02*
X033531Y029242D01*
X033531Y029472D02*
X033838Y029472D01*
X033838Y029549D02*
X033838Y029242D01*
X033838Y029549D02*
X033684Y029702D01*
X033531Y029549D01*
X031076Y029242D02*
X030999Y029318D01*
X030999Y029702D01*
X036391Y026732D02*
X036621Y026502D01*
D11*
X006630Y003635D02*
X000134Y003635D01*
X000134Y008808D01*
X006630Y008808D01*
X006630Y003635D01*
X009022Y006672D02*
X020272Y006672D01*
X020272Y027172D01*
X015522Y027172D01*
X014022Y027172D01*
X009022Y027172D01*
X009022Y006672D01*
X006630Y010635D02*
X000134Y010635D01*
X000134Y015808D01*
X006630Y015808D01*
X006630Y010635D01*
X006630Y017635D02*
X000134Y017635D01*
X000134Y022808D01*
X006630Y022808D01*
X006630Y017635D01*
X014436Y018597D02*
X014436Y018902D01*
X014538Y019004D01*
X014640Y019004D01*
X014741Y018902D01*
X014741Y018597D01*
X014436Y018597D02*
X015047Y018597D01*
X015047Y018902D01*
X014945Y019004D01*
X014843Y019004D01*
X014741Y018902D01*
X014741Y019204D02*
X014640Y019306D01*
X014640Y019510D01*
X014741Y019611D01*
X014945Y019611D01*
X015047Y019510D01*
X015047Y019306D01*
X014945Y019204D01*
X014741Y019204D01*
X014741Y019812D02*
X014640Y019914D01*
X014640Y020219D01*
X014640Y020420D02*
X014640Y020623D01*
X014538Y020522D02*
X014945Y020522D01*
X015047Y020623D01*
X014945Y020825D02*
X015047Y020927D01*
X015047Y021130D01*
X014945Y021232D01*
X014741Y021232D01*
X014640Y021130D01*
X014640Y020927D01*
X014741Y020825D01*
X014945Y020825D01*
X015336Y020420D02*
X015947Y020420D01*
X015947Y020219D02*
X015947Y019914D01*
X015845Y019812D01*
X015641Y019812D01*
X015540Y019914D01*
X015540Y020219D01*
X015743Y020420D02*
X015540Y020725D01*
X015641Y020926D02*
X015540Y021028D01*
X015540Y021232D01*
X015641Y021333D01*
X015743Y021333D01*
X015743Y020926D01*
X015845Y020926D02*
X015641Y020926D01*
X015845Y020926D02*
X015947Y021028D01*
X015947Y021232D01*
X015947Y020725D02*
X015743Y020420D01*
X015047Y020117D02*
X015047Y019812D01*
X014843Y019914D02*
X014741Y019812D01*
X014843Y019914D02*
X014843Y020117D01*
X014945Y020219D01*
X015047Y020117D01*
X015641Y019611D02*
X015540Y019510D01*
X015540Y019306D01*
X015641Y019204D01*
X015845Y019204D01*
X015947Y019306D01*
X015947Y019510D01*
X015845Y019611D01*
X015641Y019611D01*
X015641Y019004D02*
X015438Y019004D01*
X015336Y018902D01*
X015336Y018597D01*
X015947Y018597D01*
X015743Y018597D02*
X015743Y018902D01*
X015641Y019004D01*
X015743Y018800D02*
X015947Y019004D01*
X015540Y021534D02*
X015540Y021738D01*
X015438Y021636D02*
X015845Y021636D01*
X015947Y021738D01*
X015047Y021840D02*
X014741Y021840D01*
X014640Y021738D01*
X014640Y021433D01*
X015047Y021433D01*
X015336Y022547D02*
X015336Y022954D01*
X015336Y022750D02*
X015947Y022750D01*
X015845Y023155D02*
X015641Y023155D01*
X015540Y023256D01*
X015540Y023460D01*
X015641Y023562D01*
X015743Y023562D01*
X015743Y023155D01*
X015845Y023155D02*
X015947Y023256D01*
X015947Y023460D01*
X015845Y023762D02*
X015743Y023864D01*
X015743Y024169D01*
X015641Y024169D02*
X015947Y024169D01*
X015947Y023864D01*
X015845Y023762D01*
X015540Y023864D02*
X015540Y024068D01*
X015641Y024169D01*
X015540Y024370D02*
X015947Y024370D01*
X015947Y024574D02*
X015641Y024574D01*
X015540Y024675D01*
X015641Y024777D01*
X015947Y024777D01*
X015641Y024574D02*
X015540Y024472D01*
X015540Y024370D01*
X015047Y024472D02*
X014640Y024676D01*
X014741Y024876D02*
X014640Y024978D01*
X014640Y025182D01*
X014741Y025283D01*
X014843Y025283D01*
X014843Y024876D01*
X014945Y024876D02*
X014741Y024876D01*
X014945Y024876D02*
X015047Y024978D01*
X015047Y025182D01*
X015047Y025484D02*
X014640Y025484D01*
X014843Y025484D02*
X014640Y025688D01*
X014640Y025789D01*
X014741Y025991D02*
X014640Y026092D01*
X014640Y026398D01*
X014640Y026598D02*
X014640Y026700D01*
X015047Y026700D01*
X015047Y026598D02*
X015047Y026802D01*
X014945Y027105D02*
X014538Y027105D01*
X014640Y027003D02*
X014640Y027207D01*
X014022Y027172D02*
X014024Y027118D01*
X014030Y027065D01*
X014039Y027013D01*
X014052Y026961D01*
X014069Y026910D01*
X014090Y026860D01*
X014114Y026813D01*
X014141Y026767D01*
X014172Y026723D01*
X014205Y026681D01*
X014242Y026642D01*
X014281Y026605D01*
X014323Y026572D01*
X014367Y026541D01*
X014413Y026514D01*
X014460Y026490D01*
X014510Y026469D01*
X014561Y026452D01*
X014613Y026439D01*
X014665Y026430D01*
X014718Y026424D01*
X014772Y026422D01*
X014826Y026424D01*
X014879Y026430D01*
X014931Y026439D01*
X014983Y026452D01*
X015034Y026469D01*
X015084Y026490D01*
X015131Y026514D01*
X015177Y026541D01*
X015221Y026572D01*
X015263Y026605D01*
X015302Y026642D01*
X015339Y026681D01*
X015372Y026723D01*
X015403Y026767D01*
X015430Y026813D01*
X015454Y026860D01*
X015475Y026910D01*
X015492Y026961D01*
X015505Y027013D01*
X015514Y027065D01*
X015520Y027118D01*
X015522Y027172D01*
X015047Y027207D02*
X014945Y027105D01*
X014945Y027409D02*
X014640Y027409D01*
X014945Y027409D02*
X015047Y027510D01*
X015047Y027816D01*
X015148Y027816D02*
X014640Y027816D01*
X015148Y027816D02*
X015250Y027714D01*
X015250Y027612D01*
X014436Y026700D02*
X014334Y026700D01*
X014843Y026296D02*
X014843Y026092D01*
X014741Y025991D01*
X015047Y025991D02*
X015047Y026296D01*
X014945Y026398D01*
X014843Y026296D01*
X015047Y024472D02*
X014640Y024269D01*
X014640Y023965D02*
X015047Y023965D01*
X015047Y023864D02*
X015047Y024067D01*
X015047Y023663D02*
X014741Y023663D01*
X014640Y023561D01*
X014640Y023256D01*
X015047Y023256D01*
X014945Y023055D02*
X014436Y023055D01*
X014945Y023055D02*
X015047Y022953D01*
X015047Y022750D01*
X014945Y022648D01*
X014436Y022648D01*
X014640Y023864D02*
X014640Y023965D01*
X014436Y023965D02*
X014334Y023965D01*
X006630Y024635D02*
X000134Y024635D01*
X000134Y029808D01*
X006630Y029808D01*
X006630Y024635D01*
X021726Y015163D02*
X021726Y015012D01*
X021801Y014937D01*
X021801Y014777D02*
X021951Y014777D01*
X022027Y014702D01*
X022027Y014477D01*
X022177Y014477D02*
X021726Y014477D01*
X021726Y014702D01*
X021801Y014777D01*
X021726Y015163D02*
X021801Y015238D01*
X021876Y015238D01*
X022177Y014937D01*
X022177Y015238D01*
X022102Y014242D02*
X021726Y014242D01*
X021726Y014167D02*
X021726Y014317D01*
X022102Y014242D02*
X022177Y014167D01*
X022177Y014092D01*
X022102Y014017D01*
X023900Y007247D02*
X023825Y007172D01*
X023825Y007097D01*
X023900Y007022D01*
X024051Y007022D01*
X024126Y006947D01*
X024126Y006872D01*
X024051Y006797D01*
X023900Y006797D01*
X023825Y006872D01*
X023900Y007247D02*
X024051Y007247D01*
X024126Y007172D01*
X024286Y007247D02*
X024586Y006797D01*
X024586Y007247D01*
X024746Y007247D02*
X025046Y007247D01*
X025046Y007172D01*
X024746Y006872D01*
X024746Y006797D01*
X024286Y006797D02*
X024286Y007247D01*
X025206Y007247D02*
X025206Y007022D01*
X025357Y007097D01*
X025432Y007097D01*
X025507Y007022D01*
X025507Y006872D01*
X025432Y006797D01*
X025282Y006797D01*
X025206Y006872D01*
X025206Y007247D02*
X025507Y007247D01*
X025667Y007022D02*
X025967Y007022D01*
X026127Y007022D02*
X026427Y007022D01*
X026588Y007097D02*
X026738Y007247D01*
X026738Y006797D01*
X026588Y006797D02*
X026888Y006797D01*
X027048Y006872D02*
X027348Y007172D01*
X027348Y006872D01*
X027273Y006797D01*
X027123Y006797D01*
X027048Y006872D01*
X027048Y007172D01*
X027123Y007247D01*
X027273Y007247D01*
X027348Y007172D01*
X027508Y007247D02*
X027733Y007247D01*
X027809Y007172D01*
X027809Y007022D01*
X027733Y006947D01*
X027508Y006947D01*
X027508Y006797D02*
X027508Y007247D01*
X027969Y007247D02*
X027969Y006797D01*
X028194Y006797D01*
X028269Y006872D01*
X028269Y007172D01*
X028194Y007247D01*
X027969Y007247D01*
X028429Y007247D02*
X028579Y007247D01*
X028504Y007247D02*
X028504Y006797D01*
X028429Y006797D02*
X028579Y006797D01*
X028736Y006797D02*
X028736Y007247D01*
X028961Y007247D01*
X029036Y007172D01*
X029036Y007022D01*
X028961Y006947D01*
X028736Y006947D01*
X030321Y007426D02*
X030922Y007426D01*
X030847Y007351D02*
X030847Y007501D01*
X030772Y007576D01*
X030697Y007576D01*
X030621Y007501D01*
X030621Y007351D01*
X030546Y007276D01*
X030471Y007276D01*
X030396Y007351D01*
X030396Y007501D01*
X030471Y007576D01*
X030471Y007736D02*
X030396Y007811D01*
X030396Y007961D01*
X030471Y008037D01*
X030546Y008037D01*
X030847Y007736D01*
X030847Y008037D01*
X030847Y007351D02*
X030772Y007276D01*
X030772Y007116D02*
X030396Y007116D01*
X030396Y006816D02*
X030772Y006816D01*
X030847Y006891D01*
X030847Y007041D01*
X030772Y007116D01*
X026352Y007247D02*
X026352Y006797D01*
X026127Y007022D02*
X026352Y007247D01*
X025892Y007247D02*
X025892Y006797D01*
X025667Y007022D02*
X025892Y007247D01*
X037913Y008808D02*
X037913Y003635D01*
X044409Y003635D01*
X044409Y008808D01*
X037913Y008808D01*
X037913Y010635D02*
X037913Y015808D01*
X044409Y015808D01*
X044409Y010635D01*
X037913Y010635D01*
X037913Y017635D02*
X037913Y022808D01*
X044409Y022808D01*
X044409Y017635D01*
X037913Y017635D01*
X035042Y022696D02*
X035117Y022771D01*
X035117Y022846D01*
X035042Y022921D01*
X034666Y022921D01*
X034666Y022846D02*
X034666Y022996D01*
X034666Y023156D02*
X034666Y023381D01*
X034741Y023456D01*
X034891Y023456D01*
X034967Y023381D01*
X034967Y023156D01*
X035117Y023156D02*
X034666Y023156D01*
X034816Y023616D02*
X034666Y023766D01*
X035117Y023766D01*
X035117Y023616D02*
X035117Y023917D01*
X037913Y024635D02*
X037913Y029808D01*
X044409Y029808D01*
X044409Y024635D01*
X037913Y024635D01*
X035358Y027563D02*
X030185Y027563D01*
X030185Y034060D01*
X035358Y034060D01*
X035358Y027563D01*
D12*
X017207Y024575D02*
X017207Y024381D01*
X017013Y024575D01*
X016965Y024575D01*
X016916Y024526D01*
X016916Y024430D01*
X016965Y024381D01*
X016916Y024183D02*
X017207Y024183D01*
X017207Y024087D02*
X017207Y024280D01*
X017013Y024087D02*
X016916Y024183D01*
X016868Y023988D02*
X016965Y023988D01*
X017013Y023939D01*
X016657Y023988D02*
X016657Y024084D01*
X016657Y023988D02*
X016608Y023939D01*
X016512Y023939D01*
X016463Y023988D01*
X016463Y024084D01*
X016512Y024133D01*
X016560Y024133D01*
X016560Y023939D01*
X016657Y023838D02*
X016657Y023645D01*
X016463Y023838D01*
X016463Y023645D01*
X016463Y023497D02*
X016657Y023497D01*
X016657Y023545D02*
X016657Y023448D01*
X016657Y023349D02*
X016608Y023300D01*
X016415Y023300D01*
X016463Y023252D02*
X016463Y023349D01*
X016463Y023448D02*
X016463Y023497D01*
X016366Y023497D02*
X016318Y023497D01*
X016318Y023104D02*
X016366Y023104D01*
X016463Y023104D02*
X016657Y023104D01*
X016657Y023152D02*
X016657Y023055D01*
X016657Y022954D02*
X016657Y022809D01*
X016608Y022761D01*
X016512Y022761D01*
X016463Y022809D01*
X016463Y022954D01*
X016705Y022954D01*
X016753Y022906D01*
X016753Y022858D01*
X016657Y022661D02*
X016657Y022564D01*
X016657Y022613D02*
X016463Y022613D01*
X016463Y022564D01*
X016366Y022613D02*
X016318Y022613D01*
X016415Y022463D02*
X016366Y022415D01*
X016366Y022270D01*
X016657Y022270D01*
X016657Y022415D01*
X016608Y022463D01*
X016415Y022463D01*
X016463Y023055D02*
X016463Y023104D01*
X016916Y023055D02*
X017207Y023055D01*
X017207Y023249D01*
X017207Y023350D02*
X017207Y023544D01*
X017062Y023447D02*
X017062Y023350D01*
X017207Y023350D02*
X016916Y023350D01*
X016916Y023544D01*
X016916Y023249D02*
X016916Y023055D01*
X017062Y023055D02*
X017062Y023152D01*
X017158Y022661D02*
X017158Y022613D01*
X017207Y022613D01*
X017207Y022661D01*
X017158Y022661D01*
X017207Y022661D02*
X017303Y022564D01*
X017207Y022415D02*
X017207Y022318D01*
X017158Y022270D01*
X017062Y022270D01*
X017013Y022318D01*
X017013Y022415D01*
X017062Y022463D01*
X017110Y022463D01*
X017110Y022270D01*
X017013Y022169D02*
X017013Y022121D01*
X017110Y022024D01*
X017207Y022024D02*
X017013Y022024D01*
X017062Y021923D02*
X017013Y021875D01*
X017013Y021778D01*
X017062Y021730D01*
X017158Y021730D01*
X017207Y021778D01*
X017207Y021875D01*
X017158Y021923D01*
X017062Y021923D01*
X017062Y021628D02*
X017207Y021628D01*
X017207Y021532D02*
X017062Y021532D01*
X017013Y021580D01*
X017062Y021628D01*
X017062Y021532D02*
X017013Y021483D01*
X017013Y021435D01*
X017207Y021435D01*
X017110Y021334D02*
X017110Y021140D01*
X017158Y021140D02*
X017062Y021140D01*
X017013Y021189D01*
X017013Y021285D01*
X017062Y021334D01*
X017110Y021334D01*
X017207Y021285D02*
X017207Y021189D01*
X017158Y021140D01*
X017207Y021041D02*
X017158Y020992D01*
X016965Y020992D01*
X017013Y020944D02*
X017013Y021041D01*
X017013Y020844D02*
X017013Y020747D01*
X016965Y020796D02*
X017158Y020796D01*
X017207Y020844D01*
X017207Y020648D02*
X017207Y020551D01*
X017207Y020599D02*
X017013Y020599D01*
X017013Y020551D01*
X016916Y020599D02*
X016868Y020599D01*
X016657Y020648D02*
X016608Y020600D01*
X016512Y020600D01*
X016463Y020648D01*
X016463Y020745D01*
X016512Y020794D01*
X016608Y020794D01*
X016657Y020745D01*
X016657Y020648D01*
X016657Y020499D02*
X016657Y020354D01*
X016608Y020305D01*
X016512Y020305D01*
X016463Y020354D01*
X016463Y020499D01*
X016512Y020204D02*
X016463Y020156D01*
X016463Y020059D01*
X016512Y020011D01*
X016608Y020011D01*
X016657Y020059D01*
X016657Y020156D01*
X016608Y020204D01*
X016512Y020204D01*
X016512Y019910D02*
X016463Y019861D01*
X016512Y019813D01*
X016657Y019813D01*
X016657Y019910D02*
X016512Y019910D01*
X016512Y019813D02*
X016463Y019765D01*
X016463Y019716D01*
X016657Y019716D01*
X016463Y019616D02*
X016463Y019567D01*
X016560Y019471D01*
X016657Y019471D02*
X016463Y019471D01*
X016512Y019369D02*
X016463Y019321D01*
X016463Y019224D01*
X016512Y019176D01*
X016608Y019176D01*
X016657Y019224D01*
X016657Y019321D01*
X016560Y019369D02*
X016560Y019176D01*
X016512Y019075D02*
X016463Y019026D01*
X016463Y018930D01*
X016512Y018881D01*
X016657Y018881D02*
X016366Y018881D01*
X016366Y018780D02*
X016366Y018587D01*
X016366Y018683D02*
X016657Y018683D01*
X016916Y018683D02*
X017013Y018780D01*
X017207Y018780D01*
X017207Y018881D02*
X017207Y018978D01*
X017207Y018930D02*
X016916Y018930D01*
X016916Y018881D01*
X017062Y018780D02*
X017062Y018587D01*
X017013Y018587D02*
X016916Y018683D01*
X017013Y018587D02*
X017207Y018587D01*
X017158Y019078D02*
X017062Y019078D01*
X017013Y019126D01*
X017013Y019223D01*
X017062Y019271D01*
X017110Y019271D01*
X017110Y019078D01*
X017158Y019078D02*
X017207Y019126D01*
X017207Y019223D01*
X017207Y019372D02*
X017013Y019566D01*
X017013Y019372D02*
X017207Y019566D01*
X017207Y019962D02*
X016916Y019962D01*
X016916Y020155D02*
X017207Y020155D01*
X017110Y020058D01*
X017207Y019962D01*
X017207Y020256D02*
X016916Y020256D01*
X017013Y020305D02*
X017013Y020401D01*
X017062Y020450D01*
X017207Y020450D01*
X017062Y020256D02*
X017013Y020305D01*
X016608Y020895D02*
X016463Y020895D01*
X016608Y020895D02*
X016657Y020943D01*
X016657Y021088D01*
X016463Y021088D01*
X016463Y021189D02*
X016463Y021335D01*
X016512Y021383D01*
X016608Y021383D01*
X016657Y021335D01*
X016657Y021189D01*
X016753Y021189D02*
X016463Y021189D01*
X016366Y021484D02*
X016366Y021532D01*
X016657Y021532D01*
X016657Y021484D02*
X016657Y021581D01*
X016608Y021680D02*
X016512Y021680D01*
X016463Y021729D01*
X016463Y021826D01*
X016512Y021874D01*
X016560Y021874D01*
X016560Y021680D01*
X016608Y021680D02*
X016657Y021729D01*
X016657Y021826D01*
X016657Y024234D02*
X016463Y024234D01*
X016463Y024331D02*
X016463Y024379D01*
X016463Y024331D02*
X016560Y024234D01*
X016560Y024774D02*
X016463Y024871D01*
X016463Y024919D01*
X016463Y025020D02*
X016366Y025116D01*
X016657Y025116D01*
X016657Y025020D02*
X016657Y025213D01*
X016657Y025314D02*
X016657Y025363D01*
X016608Y025363D01*
X016608Y025314D01*
X016657Y025314D01*
X016608Y025462D02*
X016415Y025655D01*
X016608Y025655D01*
X016657Y025607D01*
X016657Y025510D01*
X016608Y025462D01*
X016415Y025462D01*
X016366Y025510D01*
X016366Y025607D01*
X016415Y025655D01*
X016463Y024774D02*
X016657Y024774D01*
X012957Y020933D02*
X012957Y020836D01*
X012908Y020788D01*
X012812Y020788D01*
X012763Y020836D01*
X012763Y020933D01*
X012812Y020981D01*
X012860Y020981D01*
X012860Y020788D01*
X012763Y020687D02*
X012763Y020639D01*
X012860Y020542D01*
X012957Y020542D02*
X012763Y020542D01*
X012812Y020441D02*
X012957Y020441D01*
X012957Y020296D01*
X012908Y020247D01*
X012860Y020296D01*
X012860Y020441D01*
X012812Y020441D02*
X012763Y020393D01*
X012763Y020296D01*
X012763Y020146D02*
X012908Y020146D01*
X012957Y020098D01*
X012908Y020050D01*
X012957Y020001D01*
X012908Y019953D01*
X012763Y019953D01*
X012763Y019852D02*
X012763Y019706D01*
X012812Y019658D01*
X012908Y019658D01*
X012957Y019706D01*
X012957Y019852D01*
X012666Y019852D01*
X012763Y019558D02*
X012763Y019509D01*
X012860Y019413D01*
X012957Y019413D02*
X012763Y019413D01*
X012812Y019311D02*
X012957Y019311D01*
X012957Y019166D01*
X012908Y019118D01*
X012860Y019166D01*
X012860Y019311D01*
X012812Y019311D02*
X012763Y019263D01*
X012763Y019166D01*
X012812Y019017D02*
X012812Y018823D01*
X012957Y018823D02*
X012666Y018823D01*
X012666Y019017D02*
X012957Y019017D01*
X012860Y018428D02*
X012860Y018234D01*
X012908Y018234D02*
X012812Y018234D01*
X012763Y018282D01*
X012763Y018379D01*
X012812Y018428D01*
X012860Y018428D01*
X012957Y018379D02*
X012957Y018282D01*
X012908Y018234D01*
X012957Y018133D02*
X012957Y017988D01*
X012908Y017939D01*
X012812Y017939D01*
X012763Y017988D01*
X012763Y018133D01*
X012763Y017839D02*
X012763Y017791D01*
X012860Y017694D01*
X012957Y017694D02*
X012763Y017694D01*
X012763Y017593D02*
X012957Y017593D01*
X012957Y017448D01*
X012908Y017399D01*
X012763Y017399D01*
X012812Y017298D02*
X012763Y017250D01*
X012763Y017153D01*
X012812Y017105D01*
X012908Y017105D01*
X012957Y017153D01*
X012957Y017250D01*
X012908Y017298D01*
X012812Y017298D01*
X012860Y017003D02*
X012908Y017003D01*
X012957Y016955D01*
X012957Y016858D01*
X012908Y016810D01*
X012812Y016858D02*
X012812Y016955D01*
X012860Y017003D01*
X012715Y017003D02*
X012666Y016955D01*
X012666Y016858D01*
X012715Y016810D01*
X012763Y016810D01*
X012812Y016858D01*
X013116Y016709D02*
X013165Y016709D01*
X013262Y016612D01*
X013407Y016612D01*
X013262Y016612D02*
X013165Y016515D01*
X013116Y016515D01*
X013165Y016414D02*
X013213Y016414D01*
X013262Y016366D01*
X013262Y016221D01*
X013262Y016119D02*
X013262Y015926D01*
X013358Y015825D02*
X013407Y015776D01*
X013407Y015680D01*
X013358Y015631D01*
X013165Y015631D01*
X013116Y015680D01*
X013116Y015776D01*
X013165Y015825D01*
X012957Y015776D02*
X012957Y015631D01*
X013053Y015631D02*
X012763Y015631D01*
X012763Y015776D01*
X012812Y015825D01*
X012908Y015825D01*
X012957Y015776D01*
X012908Y015926D02*
X012957Y015974D01*
X012957Y016071D01*
X012860Y016119D02*
X012860Y015926D01*
X012908Y015926D02*
X012812Y015926D01*
X012763Y015974D01*
X012763Y016071D01*
X012812Y016119D01*
X012860Y016119D01*
X012957Y016221D02*
X012763Y016221D01*
X012763Y016366D01*
X012812Y016414D01*
X012957Y016414D01*
X013116Y016366D02*
X013165Y016414D01*
X013116Y016366D02*
X013116Y016221D01*
X013407Y016221D01*
X013407Y016366D01*
X013358Y016414D01*
X013310Y016414D01*
X013262Y016366D01*
X013262Y016810D02*
X013262Y017003D01*
X013213Y017105D02*
X013262Y017153D01*
X013262Y017250D01*
X013310Y017298D01*
X013358Y017298D01*
X013407Y017250D01*
X013407Y017153D01*
X013358Y017105D01*
X013213Y017105D02*
X013165Y017105D01*
X013116Y017153D01*
X013116Y017250D01*
X013165Y017298D01*
X013213Y017399D02*
X013116Y017496D01*
X013213Y017593D01*
X013407Y017593D01*
X013262Y017593D02*
X013262Y017399D01*
X013213Y017399D02*
X013407Y017399D01*
X013358Y015530D02*
X013407Y015482D01*
X013407Y015385D01*
X013358Y015337D01*
X013165Y015337D01*
X013116Y015385D01*
X013116Y015482D01*
X013165Y015530D01*
X012957Y015482D02*
X012908Y015530D01*
X012715Y015530D01*
X012666Y015482D01*
X012666Y015385D01*
X012715Y015337D01*
X012908Y015337D01*
X012957Y015385D01*
X012957Y015482D01*
X016512Y019075D02*
X016657Y019075D01*
X016560Y019369D02*
X016512Y019369D01*
D13*
X016488Y018177D03*
X016488Y018078D03*
X016488Y017980D03*
X016488Y017882D03*
X016586Y017882D03*
X016586Y017783D03*
X016488Y017783D03*
X016389Y017783D03*
X016291Y017783D03*
X016389Y017685D03*
X016389Y017586D03*
X016291Y017586D03*
X016389Y017488D03*
X016389Y017389D03*
X016291Y017389D03*
X016291Y017291D03*
X016389Y017193D03*
X016488Y017193D03*
X016586Y017291D03*
X016586Y017389D03*
X016488Y017389D03*
X016685Y017389D03*
X016783Y017389D03*
X016783Y017488D03*
X016783Y017586D03*
X016783Y017685D03*
X016783Y017783D03*
X016685Y017783D03*
X016881Y017783D03*
X016881Y017685D03*
X016881Y017488D03*
X016881Y017291D03*
X016881Y017193D03*
X016783Y017193D03*
X016685Y017193D03*
X016586Y017094D03*
X016488Y016996D03*
X016389Y016996D03*
X016488Y016897D03*
X016586Y016897D03*
X016586Y016799D03*
X016685Y016799D03*
X016685Y016897D03*
X016783Y016996D03*
X016980Y017094D03*
X017078Y017094D03*
X017078Y017193D03*
X016980Y017193D03*
X016980Y017291D03*
X017078Y017389D03*
X017177Y017389D03*
X017177Y017291D03*
X017177Y017193D03*
X017177Y017094D03*
X017078Y016897D03*
X017078Y016700D03*
X016980Y016700D03*
X016980Y016602D03*
X016980Y016504D03*
X017078Y016504D03*
X017177Y016504D03*
X017177Y016405D03*
X017078Y016405D03*
X017078Y016307D03*
X016980Y016208D03*
X016881Y016208D03*
X016685Y016208D03*
X016586Y016208D03*
X016488Y016208D03*
X016389Y016110D03*
X016389Y016011D03*
X016389Y015913D03*
X016291Y015913D03*
X016193Y016011D03*
X016094Y015913D03*
X015996Y015913D03*
X015996Y015815D03*
X015897Y015815D03*
X015897Y015716D03*
X015799Y015716D03*
X015799Y015618D03*
X015799Y015519D03*
X015799Y015421D03*
X015700Y015421D03*
X015700Y015519D03*
X015602Y015618D03*
X015504Y015618D03*
X015504Y015519D03*
X015405Y015618D03*
X015405Y015815D03*
X015307Y015815D03*
X015307Y015913D03*
X015208Y015913D03*
X015208Y016011D03*
X015208Y016110D03*
X015307Y016110D03*
X015405Y016110D03*
X015405Y016208D03*
X015405Y016307D03*
X015405Y016405D03*
X015405Y016504D03*
X015405Y016602D03*
X015307Y016602D03*
X015307Y016504D03*
X015208Y016602D03*
X015110Y016602D03*
X015011Y016602D03*
X014913Y016602D03*
X014815Y016602D03*
X014815Y016504D03*
X014815Y016405D03*
X014716Y016307D03*
X014618Y016307D03*
X014519Y016307D03*
X014421Y016307D03*
X014421Y016405D03*
X014519Y016405D03*
X014519Y016208D03*
X014421Y016208D03*
X014421Y016011D03*
X014421Y015913D03*
X014421Y015815D03*
X014421Y015716D03*
X014421Y015618D03*
X014421Y015519D03*
X014421Y015421D03*
X014519Y015421D03*
X014618Y015421D03*
X014716Y015421D03*
X014815Y015421D03*
X014913Y015421D03*
X015011Y015421D03*
X015011Y015519D03*
X015011Y015618D03*
X015011Y015716D03*
X015011Y015815D03*
X015011Y015913D03*
X015011Y016011D03*
X014913Y016011D03*
X014815Y016011D03*
X014716Y016011D03*
X014618Y016011D03*
X014519Y016011D03*
X014618Y015815D03*
X014716Y015815D03*
X014815Y015815D03*
X014815Y015716D03*
X014815Y015618D03*
X014716Y015618D03*
X014716Y015716D03*
X014618Y015716D03*
X014618Y015618D03*
X014716Y016208D03*
X015011Y016208D03*
X015110Y016208D03*
X015307Y016307D03*
X015208Y016405D03*
X015011Y016405D03*
X014913Y016700D03*
X015011Y016799D03*
X014913Y016897D03*
X014913Y016996D03*
X015011Y016996D03*
X015110Y016996D03*
X015110Y017094D03*
X015110Y017193D03*
X015110Y017291D03*
X015011Y017193D03*
X015011Y017389D03*
X015011Y017586D03*
X014913Y017586D03*
X014815Y017586D03*
X014716Y017586D03*
X014618Y017586D03*
X014519Y017586D03*
X014421Y017586D03*
X014421Y017685D03*
X014421Y017783D03*
X014421Y017882D03*
X014421Y017980D03*
X014421Y018078D03*
X014421Y018177D03*
X014519Y018177D03*
X014618Y018177D03*
X014716Y018177D03*
X014815Y018177D03*
X014913Y018177D03*
X015011Y018177D03*
X015011Y018078D03*
X015011Y017980D03*
X015011Y017882D03*
X015011Y017783D03*
X015011Y017685D03*
X014815Y017783D03*
X014815Y017882D03*
X014815Y017980D03*
X014716Y017980D03*
X014618Y017980D03*
X014618Y017882D03*
X014716Y017882D03*
X014716Y017783D03*
X014618Y017783D03*
X014618Y017291D03*
X014519Y017193D03*
X014421Y017094D03*
X014519Y016996D03*
X014618Y016996D03*
X014618Y017094D03*
X014815Y017094D03*
X014815Y016996D03*
X014716Y016897D03*
X014716Y016799D03*
X014815Y016799D03*
X014618Y016602D03*
X014519Y016700D03*
X014421Y016700D03*
X014421Y016602D03*
X014421Y016799D03*
X014421Y016897D03*
X015110Y016897D03*
X015208Y016897D03*
X015307Y016897D03*
X015307Y016799D03*
X015307Y016700D03*
X015405Y016700D03*
X015504Y016602D03*
X015504Y016504D03*
X015602Y016504D03*
X015700Y016405D03*
X015700Y016307D03*
X015602Y016307D03*
X015504Y016307D03*
X015602Y016208D03*
X015504Y016110D03*
X015602Y016011D03*
X015504Y015913D03*
X015405Y016011D03*
X015208Y015716D03*
X015208Y015618D03*
X015208Y015421D03*
X015897Y015519D03*
X015996Y015421D03*
X016094Y015421D03*
X016094Y015519D03*
X016193Y015519D03*
X016291Y015519D03*
X016291Y015421D03*
X016389Y015421D03*
X016586Y015421D03*
X016586Y015519D03*
X016586Y015618D03*
X016586Y015716D03*
X016586Y015815D03*
X016586Y015913D03*
X016586Y016011D03*
X016685Y016011D03*
X016783Y016011D03*
X016881Y016011D03*
X016980Y016011D03*
X017078Y016011D03*
X017177Y016011D03*
X017177Y015913D03*
X017177Y015815D03*
X017177Y015716D03*
X017177Y015618D03*
X017177Y015519D03*
X017177Y015421D03*
X017078Y015421D03*
X016980Y015421D03*
X016881Y015421D03*
X016783Y015421D03*
X016685Y015421D03*
X016783Y015618D03*
X016783Y015716D03*
X016881Y015716D03*
X016881Y015618D03*
X016980Y015618D03*
X016980Y015716D03*
X016980Y015815D03*
X016881Y015815D03*
X016783Y015815D03*
X017177Y016208D03*
X016881Y016504D03*
X016881Y016602D03*
X016685Y016602D03*
X016685Y016504D03*
X016586Y016504D03*
X016586Y016405D03*
X016488Y016405D03*
X016389Y016405D03*
X016291Y016405D03*
X016291Y016307D03*
X016389Y016307D03*
X016193Y016307D03*
X016193Y016405D03*
X016291Y016504D03*
X016291Y016700D03*
X016389Y016700D03*
X016389Y016799D03*
X016291Y016799D03*
X016193Y016799D03*
X016193Y016897D03*
X016193Y016996D03*
X016193Y017094D03*
X016094Y017094D03*
X016094Y016996D03*
X015996Y016996D03*
X015996Y017094D03*
X016094Y017193D03*
X016094Y017389D03*
X015996Y017389D03*
X015897Y017389D03*
X015799Y017389D03*
X015799Y017291D03*
X015700Y017291D03*
X015602Y017389D03*
X015504Y017389D03*
X015504Y017291D03*
X015405Y017193D03*
X015307Y017094D03*
X015405Y016996D03*
X015504Y016996D03*
X015504Y017094D03*
X015700Y017094D03*
X015700Y016996D03*
X015799Y016996D03*
X015897Y016996D03*
X015799Y016897D03*
X015897Y016799D03*
X015996Y016799D03*
X016094Y016799D03*
X015996Y016897D03*
X016193Y016700D03*
X016094Y016602D03*
X016094Y016504D03*
X015996Y016405D03*
X016094Y016208D03*
X016193Y016208D03*
X015996Y016011D03*
X015897Y016110D03*
X015897Y016208D03*
X015799Y016208D03*
X015799Y016011D03*
X015799Y015913D03*
X015996Y015618D03*
X016094Y015618D03*
X016193Y015618D03*
X016586Y016307D03*
X016685Y016307D03*
X016685Y016405D03*
X016488Y016602D03*
X016685Y016700D03*
X017177Y016700D03*
X017177Y017488D03*
X017177Y017586D03*
X017078Y017586D03*
X017078Y017685D03*
X017078Y017783D03*
X017078Y017882D03*
X016980Y017882D03*
X016980Y017980D03*
X016881Y017980D03*
X016783Y017980D03*
X016881Y018078D03*
X016980Y018177D03*
X017078Y018078D03*
X017177Y018078D03*
X017177Y017882D03*
X016685Y018177D03*
X016586Y018078D03*
X016389Y017980D03*
X016291Y017980D03*
X016193Y017980D03*
X016193Y017882D03*
X016094Y017980D03*
X016094Y018078D03*
X015996Y018078D03*
X015897Y018078D03*
X015799Y018078D03*
X015799Y017980D03*
X015799Y017882D03*
X015897Y017783D03*
X015897Y017685D03*
X015799Y017685D03*
X015897Y017586D03*
X015799Y017488D03*
X015700Y017586D03*
X015602Y017488D03*
X015504Y017488D03*
X015504Y017586D03*
X015504Y017685D03*
X015405Y017685D03*
X015307Y017685D03*
X015307Y017783D03*
X015208Y017882D03*
X015208Y018078D03*
X015208Y018177D03*
X015307Y018177D03*
X015405Y018078D03*
X015405Y017980D03*
X015504Y017882D03*
X015602Y017882D03*
X015602Y017980D03*
X015700Y018078D03*
X015700Y018177D03*
X015799Y018177D03*
X015504Y018177D03*
X015996Y017783D03*
X015996Y017685D03*
X016094Y017685D03*
X016094Y017488D03*
X015996Y017488D03*
X016193Y017488D03*
X016193Y017389D03*
X016586Y017586D03*
X016389Y017882D03*
X015405Y017488D03*
X015405Y017389D03*
X015307Y017586D03*
X015208Y017586D03*
X015602Y016897D03*
X015602Y016799D03*
X015700Y016799D03*
X015799Y016700D03*
X015799Y016602D03*
X015897Y016602D03*
X015208Y016700D03*
D14*
X016162Y014902D03*
X015742Y014522D03*
X015462Y014462D03*
X015482Y014402D03*
X015302Y014122D03*
X015282Y013922D03*
X015302Y013842D03*
X015322Y013842D03*
X015582Y013822D03*
X015742Y013842D03*
X015862Y013882D03*
X015862Y013722D03*
X016002Y013762D03*
X016182Y013462D03*
X016502Y013962D03*
X016522Y013962D03*
X016482Y013982D03*
X016442Y014002D03*
X016582Y013922D03*
X016602Y013902D03*
X017322Y013742D03*
X017362Y013802D03*
X017282Y013602D03*
X017382Y013522D03*
X017402Y013482D03*
X017382Y013442D03*
X015902Y014242D03*
X015082Y014102D03*
X014822Y014042D03*
X014802Y013942D03*
X014382Y013922D03*
X014362Y013942D03*
X014322Y013902D03*
X014362Y013842D03*
X014382Y013802D03*
X014402Y013782D03*
X014442Y013722D03*
X015602Y012562D03*
X015582Y012522D03*
X015562Y012462D03*
X015542Y012422D03*
X015502Y012322D03*
X015482Y012282D03*
X015462Y012222D03*
X015422Y012162D03*
D15*
X016702Y013442D03*
X017082Y013602D03*
X017162Y013562D03*
X017182Y013562D03*
X017222Y013562D03*
X017242Y013542D03*
X017262Y013562D03*
X017302Y013602D03*
X017302Y013642D03*
X017282Y013702D03*
X017262Y013702D03*
X017222Y013722D03*
X017202Y013722D03*
X017222Y013762D03*
X017242Y013782D03*
X017162Y013782D03*
X017142Y013782D03*
X017162Y013702D03*
X017042Y013822D03*
X017022Y013822D03*
X017002Y013822D03*
X016982Y013822D03*
X016962Y013822D03*
X016942Y013822D03*
X016922Y013822D03*
X016902Y013822D03*
X016882Y013822D03*
X016862Y013822D03*
X016842Y013822D03*
X016822Y013822D03*
X016802Y013822D03*
X016782Y013822D03*
X016682Y013882D03*
X016202Y014042D03*
X016102Y013922D03*
X016142Y013882D03*
X016042Y013622D03*
X016062Y013602D03*
X016082Y013582D03*
X016102Y013582D03*
X016142Y013562D03*
X016162Y013562D03*
X016182Y013562D03*
X016162Y013462D03*
X016142Y013462D03*
X016122Y013462D03*
X016102Y013462D03*
X016082Y013462D03*
X016062Y013462D03*
X016042Y013482D03*
X016022Y013482D03*
X016002Y013502D03*
X015862Y013602D03*
X015842Y013622D03*
X015862Y013642D03*
X015842Y013582D03*
X015742Y013982D03*
X015762Y014022D03*
X015702Y014022D03*
X015802Y014342D03*
X015782Y014362D03*
X015762Y014362D03*
X015722Y014522D03*
X015702Y014522D03*
X015682Y014542D03*
X015662Y014542D03*
X015642Y014542D03*
X015622Y014542D03*
X015602Y014542D03*
X015582Y014542D03*
X015562Y014542D03*
X015542Y014542D03*
X015502Y014522D03*
X015222Y014422D03*
X015202Y014262D03*
X015182Y014182D03*
X015102Y014122D03*
X015322Y014142D03*
X015242Y013942D03*
X015202Y013842D03*
X015262Y013802D03*
X015282Y013782D03*
X015302Y013782D03*
X015322Y013782D03*
X014822Y013962D03*
X014882Y014102D03*
X014922Y014262D03*
X014322Y014002D03*
X015582Y014982D03*
X015702Y015182D03*
X015722Y015182D03*
X015742Y015162D03*
X015762Y015162D03*
X015782Y015142D03*
X015802Y015142D03*
X015822Y015122D03*
X015842Y015122D03*
X015682Y015202D03*
X015662Y015202D03*
X016022Y015082D03*
X016042Y015102D03*
X016062Y015102D03*
X016082Y015102D03*
X016102Y015122D03*
X016122Y015122D03*
X016142Y015122D03*
X016162Y015142D03*
X016142Y014862D03*
X016122Y014842D03*
X016102Y014822D03*
X016022Y014722D03*
X015962Y014662D03*
X016142Y014222D03*
X016062Y014182D03*
X017262Y013922D03*
X017302Y013902D03*
X017342Y013842D03*
X017342Y013542D03*
X017242Y013482D03*
X017222Y013482D03*
X017202Y013482D03*
X017302Y013402D03*
X017322Y013402D03*
X017342Y013402D03*
X017362Y013402D03*
D16*
X017362Y013582D03*
X017102Y013502D03*
X016482Y013822D03*
X016182Y013922D03*
X015682Y013822D03*
X015562Y013822D03*
X015342Y013822D03*
X015282Y014082D03*
X015102Y013702D03*
X014422Y013862D03*
X014502Y014442D03*
X015842Y014342D03*
X016142Y013342D03*
X015362Y012522D03*
D17*
X015442Y012172D03*
X015502Y013532D03*
X015742Y013752D03*
X015802Y013852D03*
X015842Y013872D03*
X016082Y013892D03*
X016122Y013932D03*
X016022Y014152D03*
X016042Y014172D03*
X016082Y014192D03*
X016102Y014212D03*
X016122Y014212D03*
X016222Y014252D03*
X016242Y014252D03*
X016262Y014252D03*
X016282Y014252D03*
X016302Y014252D03*
X016322Y014252D03*
X016342Y014252D03*
X016362Y014252D03*
X016402Y014032D03*
X016422Y014012D03*
X016462Y013992D03*
X016542Y013952D03*
X016562Y013932D03*
X016222Y013552D03*
X016202Y013552D03*
X016122Y013572D03*
X015882Y013612D03*
X015342Y013912D03*
X015322Y013912D03*
X015262Y013912D03*
X015242Y013892D03*
X015282Y013852D03*
X015242Y013812D03*
X015282Y013992D03*
X015282Y014172D03*
X015302Y014192D03*
X015322Y014192D03*
X015302Y014272D03*
X015242Y014412D03*
X015202Y014432D03*
X015482Y014512D03*
X015522Y014532D03*
X015662Y014372D03*
X015822Y014332D03*
X015862Y014292D03*
X015882Y014272D03*
X015942Y014652D03*
X015982Y014692D03*
X016002Y014712D03*
X016042Y014752D03*
X016062Y014772D03*
X016082Y014792D03*
X016002Y015072D03*
X015642Y015192D03*
X015622Y014912D03*
X015642Y014872D03*
X015662Y014832D03*
X015682Y014812D03*
X015702Y014772D03*
X015722Y014732D03*
X015742Y014692D03*
X014902Y014252D03*
X014922Y014212D03*
X014902Y014192D03*
X014922Y014152D03*
X014902Y014132D03*
X014902Y014032D03*
X014882Y014012D03*
X014862Y013992D03*
X014842Y013972D03*
X014802Y014012D03*
X014422Y013752D03*
X014342Y013972D03*
X014302Y014012D03*
X014242Y014032D03*
X017022Y013632D03*
X017062Y013612D03*
X017102Y013592D03*
X017142Y013712D03*
X017182Y013712D03*
X017242Y013712D03*
X017302Y013712D03*
X017342Y013772D03*
X017322Y013872D03*
X017282Y013912D03*
X017242Y013892D03*
X017122Y013792D03*
X017062Y013812D03*
X017322Y013632D03*
X017342Y013632D03*
X017262Y013472D03*
X017282Y013432D03*
X017182Y013492D03*
D18*
X017162Y013492D03*
X017122Y013712D03*
X017062Y013732D03*
X016622Y013892D03*
X016202Y013932D03*
X015982Y013732D03*
X015842Y013732D03*
X015822Y013592D03*
X016162Y013352D03*
X016182Y013372D03*
X015222Y013852D03*
X015062Y014092D03*
X015202Y014192D03*
X015202Y014352D03*
X015222Y014352D03*
X015302Y014352D03*
X015442Y014252D03*
X015642Y014372D03*
X015902Y014332D03*
X015622Y015112D03*
X014942Y014252D03*
X014482Y014472D03*
X014262Y014012D03*
X014302Y013932D03*
X014342Y013872D03*
X014402Y013892D03*
X015522Y012372D03*
D19*
X015382Y012392D03*
X015402Y012272D03*
X016102Y013332D03*
X016122Y013332D03*
X016882Y013732D03*
X016902Y013732D03*
X017022Y013732D03*
X017042Y013732D03*
X017082Y013752D03*
X017102Y013752D03*
X017082Y013512D03*
X017062Y013512D03*
X017142Y013512D03*
X016422Y014192D03*
X015982Y013872D03*
X015622Y014372D03*
X015482Y014292D03*
X015442Y014372D03*
X015322Y014312D03*
X015282Y014332D03*
X015182Y014392D03*
X015162Y014392D03*
X014962Y014272D03*
X015042Y014072D03*
X015022Y014052D03*
X014782Y013952D03*
X014762Y013912D03*
X014802Y013832D03*
X014722Y013832D03*
X014282Y013992D03*
X014522Y014412D03*
X015322Y014032D03*
D20*
X015342Y014062D03*
X015222Y014222D03*
X015362Y014302D03*
X015602Y014382D03*
X015542Y013822D03*
X015962Y013702D03*
X016222Y013422D03*
X016202Y013402D03*
X016082Y013322D03*
X016922Y013722D03*
X016942Y013722D03*
X017122Y013522D03*
X016122Y014102D03*
X016102Y014102D03*
X015602Y015002D03*
X015082Y014342D03*
X015062Y014342D03*
X015042Y014322D03*
X015022Y014322D03*
X015002Y014302D03*
X014982Y014282D03*
X014882Y014222D03*
X014562Y014342D03*
X014542Y014382D03*
X014442Y013842D03*
X015342Y012662D03*
D21*
X016002Y013312D03*
X016022Y013312D03*
X016922Y013532D03*
X017042Y013532D03*
X015422Y014312D03*
X015262Y014312D03*
X015242Y014272D03*
X015142Y013952D03*
X014822Y014212D03*
X014862Y013552D03*
D22*
X014822Y013832D03*
X015302Y013972D03*
X015362Y013852D03*
X015382Y013852D03*
X015142Y014372D03*
X015122Y014372D03*
X015102Y014352D03*
X014582Y014332D03*
X015922Y014252D03*
X015942Y014132D03*
X016002Y014072D03*
X016082Y014072D03*
X016162Y014172D03*
X016182Y014172D03*
X016202Y014172D03*
X016162Y013952D03*
X016002Y013892D03*
X016042Y013312D03*
X016062Y013312D03*
X017002Y013512D03*
X017022Y013512D03*
X016982Y013712D03*
X016962Y013712D03*
D23*
X017002Y013702D03*
X016982Y013522D03*
X016962Y013522D03*
X016942Y013522D03*
X016362Y014102D03*
X016402Y014182D03*
X015982Y014062D03*
X015582Y014362D03*
X015402Y014302D03*
X015342Y014282D03*
X015362Y014122D03*
X015242Y014062D03*
X015522Y013822D03*
X015102Y013542D03*
X015362Y012742D03*
X014622Y014282D03*
X014602Y014302D03*
X015762Y014582D03*
X016182Y015062D03*
D24*
X015982Y015062D03*
X014862Y014182D03*
X014802Y014202D03*
X014662Y014242D03*
X014642Y014262D03*
X014842Y013822D03*
X014842Y013562D03*
X014462Y013782D03*
X015122Y013922D03*
X015162Y013962D03*
X015182Y013982D03*
X015202Y014002D03*
X015222Y014022D03*
X015262Y014062D03*
X015422Y013662D03*
X015402Y013642D03*
X015382Y013642D03*
X015802Y013642D03*
X015942Y013642D03*
X015822Y013782D03*
X015942Y013902D03*
X015982Y013322D03*
X016882Y013542D03*
X016902Y013542D03*
D25*
X016862Y013612D03*
X016782Y013612D03*
X016262Y014032D03*
X015962Y013972D03*
X015862Y013372D03*
X014762Y013612D03*
D26*
X015142Y013622D03*
X015202Y013622D03*
X015842Y013362D03*
X015922Y013782D03*
X016222Y014042D03*
X016242Y014042D03*
X016582Y013642D03*
X016602Y013642D03*
X016622Y013642D03*
X016562Y013622D03*
X016802Y013622D03*
X016842Y013602D03*
X015402Y012842D03*
D27*
X015822Y013352D03*
X015942Y013352D03*
X015902Y013772D03*
X016022Y013952D03*
X016042Y013972D03*
X016062Y013992D03*
X016542Y013612D03*
X016822Y013612D03*
X015422Y013952D03*
X015242Y013612D03*
X015222Y013612D03*
X015122Y013612D03*
X014782Y013592D03*
X014682Y013612D03*
X014662Y013612D03*
D28*
X015402Y013982D03*
X015422Y012902D03*
X016662Y013682D03*
X016742Y013642D03*
X016762Y013642D03*
D29*
X016722Y013652D03*
X016642Y013692D03*
X016322Y013992D03*
D30*
X016302Y014012D03*
X016702Y013692D03*
X015922Y013392D03*
X015902Y013392D03*
D31*
X015882Y013382D03*
X015502Y013762D03*
X015182Y013642D03*
X015162Y013642D03*
X015382Y014182D03*
X015802Y014642D03*
X015962Y015002D03*
X016282Y014022D03*
X016682Y013662D03*
D32*
X016522Y013602D03*
X016502Y013602D03*
X016482Y013582D03*
X015802Y013342D03*
X015282Y013602D03*
X015262Y013602D03*
X014722Y013582D03*
X014702Y013602D03*
X014642Y013622D03*
X014622Y013642D03*
X014562Y013682D03*
X015522Y014342D03*
D33*
X015482Y013762D03*
X016462Y013662D03*
D34*
X016442Y013672D03*
X015022Y013732D03*
D35*
X015062Y013732D03*
X014902Y013732D03*
X016422Y013672D03*
D36*
X016402Y013682D03*
X016382Y013682D03*
X015082Y013742D03*
D37*
X015102Y013902D03*
X014862Y013822D03*
X014822Y013582D03*
X014502Y013742D03*
X014482Y013762D03*
X014842Y014182D03*
X015322Y013602D03*
X015882Y013782D03*
X016142Y014062D03*
X016382Y014142D03*
X016302Y013502D03*
X015782Y014602D03*
D38*
X016362Y013682D03*
X014982Y013802D03*
X014962Y013802D03*
X014942Y013782D03*
X014922Y013762D03*
D39*
X015502Y013092D03*
X016342Y013792D03*
D40*
X016322Y013532D03*
X015302Y013612D03*
X014802Y013592D03*
X014602Y013652D03*
X014582Y013672D03*
X014542Y013712D03*
X014522Y013732D03*
X015542Y014332D03*
D41*
X015562Y014352D03*
X015502Y014312D03*
X014782Y014212D03*
X014762Y014212D03*
X014742Y014212D03*
X014722Y014212D03*
X014702Y014232D03*
X014682Y014232D03*
X015342Y013612D03*
X015362Y013632D03*
X015962Y013312D03*
X016242Y013472D03*
X016262Y013472D03*
X016282Y013492D03*
X015382Y012792D03*
D42*
X015442Y012942D03*
X015742Y013462D03*
X015462Y013782D03*
X015042Y013742D03*
X014882Y013722D03*
X014742Y013682D03*
X015822Y014682D03*
X015942Y014942D03*
D43*
X015922Y014882D03*
X015842Y014722D03*
D44*
X015902Y014812D03*
X015722Y013492D03*
D45*
X015882Y014752D03*
D46*
X015862Y014742D03*
D47*
X015782Y013532D03*
D48*
X015762Y013542D03*
D49*
X015702Y013432D03*
X015682Y013312D03*
D50*
X015662Y013272D03*
D51*
X015642Y013222D03*
D52*
X015622Y013192D03*
D53*
X015602Y013232D03*
D54*
X015582Y013202D03*
D55*
X015562Y013202D03*
D56*
X015542Y013192D03*
D57*
X015522Y013202D03*
D58*
X015482Y013042D03*
D59*
X015462Y012992D03*
X015002Y013812D03*
D60*
X015442Y013792D03*
D61*
X022422Y014272D02*
X022672Y014022D01*
X023172Y014022D01*
X023422Y014272D01*
X023422Y014772D01*
X023172Y015022D01*
X023422Y015272D01*
X023422Y015772D01*
X023172Y016022D01*
X023422Y016272D01*
X023422Y016772D01*
X023172Y017022D01*
X023422Y017272D01*
X023422Y017772D01*
X023172Y018022D01*
X023422Y018272D01*
X023422Y018772D01*
X023172Y019022D01*
X023422Y019272D01*
X023422Y019772D01*
X023172Y020022D01*
X023422Y020272D01*
X023422Y020772D01*
X023172Y021022D01*
X023422Y021272D01*
X023422Y021772D01*
X023172Y022022D01*
X023422Y022272D01*
X023422Y022772D01*
X023172Y023022D01*
X023422Y023272D01*
X023422Y023772D01*
X023172Y024022D01*
X022672Y024022D01*
X022422Y023772D01*
X022422Y023272D01*
X022672Y023022D01*
X022422Y022772D01*
X022422Y022272D01*
X022672Y022022D01*
X022422Y021772D01*
X022422Y021272D01*
X022672Y021022D01*
X022422Y020772D01*
X022422Y020272D01*
X022672Y020022D01*
X022422Y019772D01*
X022422Y019272D01*
X022672Y019022D01*
X022422Y018772D01*
X022422Y018272D01*
X022672Y018022D01*
X022422Y017772D01*
X022422Y017272D01*
X022672Y017022D01*
X022422Y016772D01*
X022422Y016272D01*
X022672Y016022D01*
X022422Y015772D01*
X022422Y015272D01*
X022672Y015022D01*
X022422Y014772D01*
X022422Y014272D01*
X023708Y014307D02*
X033235Y014307D01*
X033235Y022604D01*
X030745Y025095D01*
X026198Y025095D01*
X023708Y022604D01*
X023708Y014307D01*
X033422Y014272D02*
X033672Y014022D01*
X034172Y014022D01*
X034422Y014272D01*
X034422Y014772D01*
X034172Y015022D01*
X034422Y015272D01*
X034422Y015772D01*
X034172Y016022D01*
X034422Y016272D01*
X034422Y016772D01*
X034172Y017022D01*
X034422Y017272D01*
X034422Y017772D01*
X034172Y018022D01*
X034422Y018272D01*
X034422Y018772D01*
X034172Y019022D01*
X034422Y019272D01*
X034422Y019772D01*
X034172Y020022D01*
X034422Y020272D01*
X034422Y020772D01*
X034172Y021022D01*
X034422Y021272D01*
X034422Y021772D01*
X034172Y022022D01*
X034422Y022272D01*
X034422Y022772D01*
X034172Y023022D01*
X034422Y023272D01*
X034422Y023772D01*
X034172Y024022D01*
X033672Y024022D01*
X033422Y023772D01*
X033422Y023272D01*
X033672Y023022D01*
X033422Y022772D01*
X033422Y022272D01*
X033672Y022022D01*
X033422Y021772D01*
X033422Y021272D01*
X033672Y021022D01*
X033422Y020772D01*
X033422Y020272D01*
X033672Y020022D01*
X033422Y019772D01*
X033422Y019272D01*
X033672Y019022D01*
X033422Y018772D01*
X033422Y018272D01*
X033672Y018022D01*
X033422Y017772D01*
X033422Y017272D01*
X033672Y017022D01*
X033422Y016772D01*
X033422Y016272D01*
X033672Y016022D01*
X033422Y015772D01*
X033422Y015272D01*
X033672Y015022D01*
X033422Y014772D01*
X033422Y014272D01*
X031261Y004275D02*
X026851Y004275D01*
X026851Y001716D01*
X031261Y001716D01*
X031261Y001323D01*
X026851Y001323D01*
X026851Y001716D01*
X026861Y001716D02*
X022451Y001716D01*
X022451Y004275D01*
X026861Y004275D01*
X026861Y001716D01*
X026861Y001323D01*
X022451Y001323D01*
X022451Y001716D01*
X022461Y001716D02*
X018051Y001716D01*
X018051Y004275D01*
X022461Y004275D01*
X022461Y001716D01*
X022461Y001323D01*
X018051Y001323D01*
X018051Y001716D01*
X017461Y001716D02*
X017461Y001323D01*
X013051Y001323D01*
X013051Y001716D01*
X017461Y001716D01*
X017461Y004275D01*
X013051Y004275D01*
X013051Y001716D01*
X013061Y001716D02*
X008651Y001716D01*
X008651Y004275D01*
X013061Y004275D01*
X013061Y001716D01*
X013061Y001323D01*
X008651Y001323D01*
X008651Y001716D01*
X031251Y001716D02*
X031251Y001323D01*
X035661Y001323D01*
X035661Y001716D01*
X031251Y001716D01*
X031251Y004275D01*
X035661Y004275D01*
X035661Y001716D01*
X031261Y001716D02*
X031261Y004275D01*
X028535Y027919D02*
X016409Y027919D01*
X016409Y030022D01*
X015472Y029122D02*
X015472Y028622D01*
X015222Y028372D01*
X014722Y028372D01*
X014472Y028622D01*
X014472Y029122D01*
X014722Y029372D01*
X015222Y029372D01*
X015472Y029122D01*
X014472Y029122D02*
X014222Y029372D01*
X013722Y029372D01*
X013472Y029122D01*
X013472Y028622D01*
X013222Y028372D01*
X012722Y028372D01*
X012472Y028622D01*
X012472Y029122D01*
X012722Y029372D01*
X013222Y029372D01*
X013472Y029122D01*
X013472Y028622D02*
X013722Y028372D01*
X014222Y028372D01*
X014472Y028622D01*
X012472Y028622D02*
X012222Y028372D01*
X011722Y028372D01*
X011472Y028622D01*
X011472Y029122D01*
X011722Y029372D01*
X012222Y029372D01*
X012472Y029122D01*
X011472Y029122D02*
X011222Y029372D01*
X010722Y029372D01*
X010472Y029122D01*
X010472Y028622D01*
X010222Y028372D01*
X009722Y028372D01*
X009472Y028622D01*
X009472Y029122D01*
X009722Y029372D01*
X010222Y029372D01*
X010472Y029122D01*
X010472Y028622D02*
X010722Y028372D01*
X011222Y028372D01*
X011472Y028622D01*
X028535Y027919D02*
X028535Y030022D01*
D62*
X032216Y005917D02*
X032266Y005917D01*
X032291Y005892D01*
X032191Y005792D01*
X032216Y005767D01*
X032266Y005767D01*
X032291Y005792D01*
X032291Y005892D01*
X032216Y005917D02*
X032191Y005892D01*
X032191Y005792D01*
X032339Y005792D02*
X032364Y005792D01*
X032364Y005767D01*
X032339Y005767D01*
X032339Y005792D01*
X032412Y005792D02*
X032437Y005767D01*
X032487Y005767D01*
X032512Y005792D01*
X032512Y005817D01*
X032487Y005842D01*
X032462Y005842D01*
X032487Y005842D02*
X032512Y005867D01*
X032512Y005892D01*
X032487Y005917D01*
X032437Y005917D01*
X032412Y005892D01*
X032560Y005892D02*
X032585Y005917D01*
X032635Y005917D01*
X032660Y005892D01*
X032660Y005867D01*
X032635Y005842D01*
X032660Y005817D01*
X032660Y005792D01*
X032635Y005767D01*
X032585Y005767D01*
X032560Y005792D01*
X032610Y005842D02*
X032635Y005842D01*
X032707Y005867D02*
X032707Y005792D01*
X032732Y005767D01*
X032807Y005767D01*
X032807Y005867D01*
X032854Y005842D02*
X032904Y005842D01*
X032854Y005917D02*
X032954Y005917D01*
X032854Y005917D02*
X032854Y005767D01*
X032829Y005192D02*
X032829Y005042D01*
X032779Y005042D02*
X032879Y005042D01*
X032779Y005142D02*
X032829Y005192D01*
X032732Y005167D02*
X032707Y005192D01*
X032657Y005192D01*
X032632Y005167D01*
X032632Y005067D01*
X032657Y005042D01*
X032707Y005042D01*
X032732Y005067D01*
X033652Y005052D02*
X033752Y005152D01*
X033752Y005052D01*
X033727Y005027D01*
X033677Y005027D01*
X033652Y005052D01*
X033652Y005152D01*
X033677Y005177D01*
X033727Y005177D01*
X033752Y005152D01*
X033799Y005052D02*
X033824Y005052D01*
X033824Y005027D01*
X033799Y005027D01*
X033799Y005052D01*
X033873Y005027D02*
X033973Y005027D01*
X033923Y005027D02*
X033923Y005177D01*
X033873Y005127D01*
X034020Y005127D02*
X034020Y005052D01*
X034045Y005027D01*
X034120Y005027D01*
X034120Y005127D01*
X034167Y005102D02*
X034217Y005102D01*
X034167Y005177D02*
X034267Y005177D01*
X034167Y005177D02*
X034167Y005027D01*
X033974Y005752D02*
X033874Y005752D01*
X033974Y005852D01*
X033974Y005877D01*
X033949Y005902D01*
X033899Y005902D01*
X033874Y005877D01*
X033827Y005877D02*
X033802Y005902D01*
X033752Y005902D01*
X033727Y005877D01*
X033727Y005777D01*
X033752Y005752D01*
X033802Y005752D01*
X033827Y005777D01*
X032936Y003777D02*
X032861Y003702D01*
X032961Y003702D01*
X032936Y003627D02*
X032936Y003777D01*
X032813Y003602D02*
X032713Y003602D01*
X032666Y003627D02*
X032616Y003677D01*
X032641Y003677D02*
X032566Y003677D01*
X032566Y003627D02*
X032566Y003777D01*
X032641Y003777D01*
X032666Y003752D01*
X032666Y003702D01*
X032641Y003677D01*
X032519Y003652D02*
X032519Y003752D01*
X032494Y003777D01*
X032444Y003777D01*
X032419Y003752D01*
X032419Y003652D01*
X032444Y003627D01*
X032494Y003627D01*
X032519Y003652D01*
X032371Y003777D02*
X032271Y003777D01*
X032321Y003777D02*
X032321Y003627D01*
X032224Y003652D02*
X032224Y003752D01*
X032199Y003777D01*
X032149Y003777D01*
X032124Y003752D01*
X032124Y003652D01*
X032149Y003627D01*
X032199Y003627D01*
X032224Y003652D01*
X032077Y003627D02*
X032077Y003777D01*
X032027Y003727D01*
X031977Y003777D01*
X031977Y003627D01*
X028561Y003652D02*
X028536Y003627D01*
X028486Y003627D01*
X028461Y003652D01*
X028413Y003602D02*
X028313Y003602D01*
X028266Y003627D02*
X028216Y003677D01*
X028241Y003677D02*
X028166Y003677D01*
X028166Y003627D02*
X028166Y003777D01*
X028241Y003777D01*
X028266Y003752D01*
X028266Y003702D01*
X028241Y003677D01*
X028119Y003652D02*
X028119Y003752D01*
X028094Y003777D01*
X028044Y003777D01*
X028019Y003752D01*
X028019Y003652D01*
X028044Y003627D01*
X028094Y003627D01*
X028119Y003652D01*
X027971Y003777D02*
X027871Y003777D01*
X027921Y003777D02*
X027921Y003627D01*
X027824Y003652D02*
X027824Y003752D01*
X027799Y003777D01*
X027749Y003777D01*
X027724Y003752D01*
X027724Y003652D01*
X027749Y003627D01*
X027799Y003627D01*
X027824Y003652D01*
X027677Y003627D02*
X027677Y003777D01*
X027627Y003727D01*
X027577Y003777D01*
X027577Y003627D01*
X028461Y003752D02*
X028486Y003777D01*
X028536Y003777D01*
X028561Y003752D01*
X028561Y003727D01*
X028536Y003702D01*
X028561Y003677D01*
X028561Y003652D01*
X028536Y003702D02*
X028511Y003702D01*
X024161Y003727D02*
X024161Y003752D01*
X024136Y003777D01*
X024086Y003777D01*
X024061Y003752D01*
X024161Y003727D02*
X024061Y003627D01*
X024161Y003627D01*
X024013Y003602D02*
X023913Y003602D01*
X023866Y003627D02*
X023816Y003677D01*
X023841Y003677D02*
X023766Y003677D01*
X023766Y003627D02*
X023766Y003777D01*
X023841Y003777D01*
X023866Y003752D01*
X023866Y003702D01*
X023841Y003677D01*
X023719Y003652D02*
X023719Y003752D01*
X023694Y003777D01*
X023644Y003777D01*
X023619Y003752D01*
X023619Y003652D01*
X023644Y003627D01*
X023694Y003627D01*
X023719Y003652D01*
X023571Y003777D02*
X023471Y003777D01*
X023521Y003777D02*
X023521Y003627D01*
X023424Y003652D02*
X023424Y003752D01*
X023399Y003777D01*
X023349Y003777D01*
X023324Y003752D01*
X023324Y003652D01*
X023349Y003627D01*
X023399Y003627D01*
X023424Y003652D01*
X023277Y003627D02*
X023277Y003777D01*
X023227Y003727D01*
X023177Y003777D01*
X023177Y003627D01*
X019761Y003627D02*
X019661Y003627D01*
X019711Y003627D02*
X019711Y003777D01*
X019661Y003727D01*
X019613Y003602D02*
X019513Y003602D01*
X019466Y003627D02*
X019416Y003677D01*
X019441Y003677D02*
X019366Y003677D01*
X019366Y003627D02*
X019366Y003777D01*
X019441Y003777D01*
X019466Y003752D01*
X019466Y003702D01*
X019441Y003677D01*
X019319Y003652D02*
X019319Y003752D01*
X019294Y003777D01*
X019244Y003777D01*
X019219Y003752D01*
X019219Y003652D01*
X019244Y003627D01*
X019294Y003627D01*
X019319Y003652D01*
X019171Y003777D02*
X019071Y003777D01*
X019121Y003777D02*
X019121Y003627D01*
X019024Y003652D02*
X019024Y003752D01*
X018999Y003777D01*
X018949Y003777D01*
X018924Y003752D01*
X018924Y003652D01*
X018949Y003627D01*
X018999Y003627D01*
X019024Y003652D01*
X018877Y003627D02*
X018877Y003777D01*
X018827Y003727D01*
X018777Y003777D01*
X018777Y003627D01*
X014466Y003627D02*
X014366Y003627D01*
X014416Y003627D02*
X014416Y003777D01*
X014366Y003727D01*
X014319Y003602D02*
X014219Y003602D01*
X014121Y003627D02*
X014121Y003777D01*
X014071Y003777D02*
X014171Y003777D01*
X014024Y003727D02*
X014024Y003627D01*
X014024Y003702D02*
X013924Y003702D01*
X013924Y003727D02*
X013974Y003777D01*
X014024Y003727D01*
X013924Y003727D02*
X013924Y003627D01*
X013877Y003652D02*
X013852Y003627D01*
X013777Y003627D01*
X013777Y003777D01*
X013852Y003777D01*
X013877Y003752D01*
X013877Y003727D01*
X013852Y003702D01*
X013777Y003702D01*
X013852Y003702D02*
X013877Y003677D01*
X013877Y003652D01*
X010066Y003627D02*
X009966Y003627D01*
X010066Y003727D01*
X010066Y003752D01*
X010041Y003777D01*
X009991Y003777D01*
X009966Y003752D01*
X009919Y003602D02*
X009819Y003602D01*
X009721Y003627D02*
X009721Y003777D01*
X009671Y003777D02*
X009771Y003777D01*
X009624Y003727D02*
X009624Y003627D01*
X009624Y003702D02*
X009524Y003702D01*
X009524Y003727D02*
X009574Y003777D01*
X009624Y003727D01*
X009524Y003727D02*
X009524Y003627D01*
X009477Y003652D02*
X009452Y003627D01*
X009377Y003627D01*
X009377Y003777D01*
X009452Y003777D01*
X009477Y003752D01*
X009477Y003727D01*
X009452Y003702D01*
X009377Y003702D01*
X009452Y003702D02*
X009477Y003677D01*
X009477Y003652D01*
D63*
X013012Y012772D02*
X012952Y013072D01*
X012975Y013101D02*
X013315Y013101D01*
X013322Y013122D02*
X013222Y012822D01*
X013272Y012822D01*
X013022Y012822D01*
X012972Y013122D01*
X012672Y013222D01*
X012472Y013022D01*
X012322Y013172D01*
X012472Y013472D01*
X012322Y013772D01*
X012322Y013722D01*
X012072Y013772D01*
X012072Y014022D01*
X012372Y014022D01*
X012472Y014322D01*
X012322Y014572D01*
X012422Y014722D01*
X012722Y014572D01*
X012972Y014672D01*
X013022Y014972D01*
X013272Y014972D01*
X013272Y014672D01*
X013622Y014572D01*
X013822Y014722D01*
X013972Y014572D01*
X013822Y014372D01*
X013872Y014272D01*
X013472Y014072D01*
X013272Y014272D01*
X013022Y014272D01*
X012772Y014122D01*
X012722Y013872D01*
X012822Y013572D01*
X012822Y013622D01*
X013072Y013472D01*
X013372Y013572D01*
X013472Y013672D01*
X013872Y013522D01*
X013822Y013422D01*
X013972Y013222D01*
X013822Y013072D01*
X013572Y013222D01*
X013322Y013122D01*
X013322Y013072D02*
X013272Y012772D01*
X013012Y012772D01*
X013014Y012867D02*
X013237Y012867D01*
X013256Y012926D02*
X013004Y012926D01*
X012995Y012984D02*
X013276Y012984D01*
X013295Y013043D02*
X012985Y013043D01*
X012857Y013160D02*
X013417Y013160D01*
X013563Y013218D02*
X012682Y013218D01*
X012668Y013218D02*
X012345Y013218D01*
X012334Y013160D02*
X012610Y013160D01*
X012551Y013101D02*
X012392Y013101D01*
X012451Y013043D02*
X012493Y013043D01*
X012442Y013002D02*
X012262Y013192D01*
X012442Y013452D01*
X012462Y013453D02*
X013837Y013453D01*
X013852Y013432D02*
X013912Y013532D01*
X013462Y013732D01*
X013428Y013628D02*
X013588Y013628D01*
X013744Y013570D02*
X013365Y013570D01*
X013190Y013511D02*
X013866Y013511D01*
X013852Y013432D02*
X014022Y013192D01*
X013832Y013012D01*
X013592Y013172D01*
X013577Y013218D02*
X013968Y013218D01*
X013930Y013277D02*
X012374Y013277D01*
X012404Y013335D02*
X013886Y013335D01*
X013842Y013394D02*
X012433Y013394D01*
X012452Y013511D02*
X013006Y013511D01*
X012909Y013570D02*
X012423Y013570D01*
X012393Y013628D02*
X012803Y013628D01*
X012783Y013687D02*
X012364Y013687D01*
X012342Y013702D02*
X012022Y013752D01*
X012022Y014022D01*
X012342Y014072D01*
X012377Y014038D02*
X012755Y014038D01*
X012767Y014096D02*
X012397Y014096D01*
X012416Y014155D02*
X012827Y014155D01*
X012925Y014214D02*
X012436Y014214D01*
X012455Y014272D02*
X013871Y014272D01*
X013912Y014242D02*
X013462Y014052D01*
X013447Y014096D02*
X013521Y014096D01*
X013638Y014155D02*
X013388Y014155D01*
X013330Y014214D02*
X013755Y014214D01*
X013842Y014331D02*
X012466Y014331D01*
X012442Y014322D02*
X012262Y014582D01*
X012442Y014772D01*
X012702Y014592D01*
X012618Y014623D02*
X012356Y014623D01*
X012326Y014565D02*
X013966Y014565D01*
X014022Y014582D02*
X013852Y014342D01*
X013912Y014242D01*
X013835Y014389D02*
X012431Y014389D01*
X012396Y014448D02*
X013879Y014448D01*
X013923Y014506D02*
X012361Y014506D01*
X012395Y014682D02*
X012501Y014682D01*
X012851Y014623D02*
X013441Y014623D01*
X013322Y014702D02*
X013272Y015002D01*
X013012Y015002D01*
X012952Y014702D01*
X012973Y014682D02*
X013272Y014682D01*
X013272Y014740D02*
X012983Y014740D01*
X012993Y014799D02*
X013272Y014799D01*
X013272Y014858D02*
X013003Y014858D01*
X013012Y014916D02*
X013272Y014916D01*
X013592Y014602D02*
X013832Y014772D01*
X014022Y014582D01*
X013920Y014623D02*
X013691Y014623D01*
X013769Y014682D02*
X013861Y014682D01*
X013592Y014602D02*
X013551Y014625D01*
X013508Y014646D01*
X013463Y014664D01*
X013418Y014679D01*
X013372Y014692D01*
X013325Y014702D01*
X012951Y014701D02*
X012899Y014686D01*
X012848Y014667D01*
X012798Y014645D01*
X012750Y014620D01*
X012703Y014591D01*
X012743Y013979D02*
X012072Y013979D01*
X012072Y013921D02*
X012731Y013921D01*
X012725Y013862D02*
X012072Y013862D01*
X012072Y013804D02*
X012744Y013804D01*
X012764Y013745D02*
X012335Y013745D01*
X012322Y013745D02*
X012204Y013745D01*
X012702Y013182D02*
X012442Y013002D01*
X013452Y013732D02*
X013434Y013699D01*
X013413Y013669D01*
X013389Y013640D01*
X013362Y013614D01*
X013333Y013592D01*
X013301Y013572D01*
X013268Y013555D01*
X013233Y013542D01*
X013197Y013533D01*
X013160Y013527D01*
X013123Y013525D01*
X013086Y013527D01*
X013049Y013532D01*
X013013Y013542D01*
X012978Y013554D01*
X012944Y013571D01*
X012913Y013590D01*
X012883Y013613D01*
X012856Y013639D01*
X012832Y013667D01*
X012811Y013698D01*
X012793Y013730D01*
X012778Y013764D01*
X012767Y013800D01*
X012759Y013836D01*
X012755Y013873D01*
X012755Y013911D01*
X012759Y013948D01*
X012767Y013984D01*
X012778Y014020D01*
X012793Y014054D01*
X012811Y014086D01*
X012832Y014117D01*
X012856Y014145D01*
X012883Y014171D01*
X012913Y014194D01*
X012944Y014213D01*
X012978Y014230D01*
X013013Y014242D01*
X013049Y014252D01*
X013086Y014257D01*
X013123Y014259D01*
X013160Y014257D01*
X013197Y014251D01*
X013233Y014242D01*
X013268Y014229D01*
X013301Y014212D01*
X013333Y014192D01*
X013362Y014170D01*
X013389Y014144D01*
X013413Y014115D01*
X013434Y014085D01*
X013452Y014052D01*
X013589Y013175D02*
X013539Y013147D01*
X013487Y013123D01*
X013434Y013102D01*
X013379Y013085D01*
X013323Y013072D01*
X013675Y013160D02*
X013910Y013160D01*
X013851Y013101D02*
X013772Y013101D01*
X012438Y013455D02*
X012413Y013500D01*
X012390Y013547D01*
X012371Y013595D01*
X012354Y013644D01*
X012341Y013694D01*
X012707Y013183D02*
X012753Y013156D01*
X012801Y013132D01*
X012850Y013111D01*
X012901Y013093D01*
X012952Y013079D01*
X012339Y014077D02*
X012353Y014129D01*
X012370Y014180D01*
X012390Y014230D01*
X012413Y014279D01*
X012440Y014326D01*
X022222Y008172D02*
X022222Y005872D01*
X030222Y005872D01*
X030222Y006622D01*
X030183Y006624D01*
X030144Y006630D01*
X030106Y006639D01*
X030069Y006652D01*
X030033Y006669D01*
X030000Y006689D01*
X029968Y006713D01*
X029939Y006739D01*
X029913Y006768D01*
X029889Y006800D01*
X029869Y006833D01*
X029852Y006869D01*
X029839Y006906D01*
X029830Y006944D01*
X029824Y006983D01*
X029822Y007022D01*
X029824Y007061D01*
X029830Y007100D01*
X029839Y007138D01*
X029852Y007175D01*
X029869Y007211D01*
X029889Y007244D01*
X029913Y007276D01*
X029939Y007305D01*
X029968Y007331D01*
X030000Y007355D01*
X030033Y007375D01*
X030069Y007392D01*
X030106Y007405D01*
X030144Y007414D01*
X030183Y007420D01*
X030222Y007422D01*
X030222Y008172D01*
X022222Y008172D01*
X031272Y007472D02*
X031272Y012372D01*
X031622Y012372D01*
X031622Y012972D01*
X031272Y012972D01*
X031272Y013722D01*
X035372Y013722D01*
X035372Y012972D01*
X035022Y012972D01*
X035022Y012372D01*
X035372Y012372D01*
X035372Y007472D01*
X031272Y007472D01*
X032612Y012372D02*
X032614Y012425D01*
X032620Y012478D01*
X032630Y012530D01*
X032644Y012581D01*
X032661Y012631D01*
X032682Y012680D01*
X032707Y012727D01*
X032735Y012772D01*
X032767Y012815D01*
X032802Y012855D01*
X032839Y012892D01*
X032879Y012927D01*
X032922Y012959D01*
X032967Y012987D01*
X033014Y013012D01*
X033063Y013033D01*
X033113Y013050D01*
X033164Y013064D01*
X033216Y013074D01*
X033269Y013080D01*
X033322Y013082D01*
X033375Y013080D01*
X033428Y013074D01*
X033480Y013064D01*
X033531Y013050D01*
X033581Y013033D01*
X033630Y013012D01*
X033677Y012987D01*
X033722Y012959D01*
X033765Y012927D01*
X033805Y012892D01*
X033842Y012855D01*
X033877Y012815D01*
X033909Y012772D01*
X033937Y012727D01*
X033962Y012680D01*
X033983Y012631D01*
X034000Y012581D01*
X034014Y012530D01*
X034024Y012478D01*
X034030Y012425D01*
X034032Y012372D01*
X034030Y012319D01*
X034024Y012266D01*
X034014Y012214D01*
X034000Y012163D01*
X033983Y012113D01*
X033962Y012064D01*
X033937Y012017D01*
X033909Y011972D01*
X033877Y011929D01*
X033842Y011889D01*
X033805Y011852D01*
X033765Y011817D01*
X033722Y011785D01*
X033677Y011757D01*
X033630Y011732D01*
X033581Y011711D01*
X033531Y011694D01*
X033480Y011680D01*
X033428Y011670D01*
X033375Y011664D01*
X033322Y011662D01*
X033269Y011664D01*
X033216Y011670D01*
X033164Y011680D01*
X033113Y011694D01*
X033063Y011711D01*
X033014Y011732D01*
X032967Y011757D01*
X032922Y011785D01*
X032879Y011817D01*
X032839Y011852D01*
X032802Y011889D01*
X032767Y011929D01*
X032735Y011972D01*
X032707Y012017D01*
X032682Y012064D01*
X032661Y012113D01*
X032644Y012163D01*
X032630Y012214D01*
X032620Y012266D01*
X032614Y012319D01*
X032612Y012372D01*
X031399Y018062D02*
X025171Y018062D01*
X025171Y020151D02*
X031399Y020151D01*
D64*
X035556Y009155D02*
X035556Y008735D01*
X035556Y008945D02*
X036187Y008945D01*
X036082Y008511D02*
X036187Y008406D01*
X036187Y008195D01*
X036082Y008090D01*
X035871Y008090D02*
X035766Y008300D01*
X035766Y008406D01*
X035871Y008511D01*
X036082Y008511D01*
X035556Y008511D02*
X035556Y008090D01*
X035871Y008090D01*
X035661Y007866D02*
X036082Y007446D01*
X036187Y007551D01*
X036187Y007761D01*
X036082Y007866D01*
X035661Y007866D01*
X035556Y007761D01*
X035556Y007551D01*
X035661Y007446D01*
X036082Y007446D01*
X036082Y007222D02*
X036187Y007116D01*
X036187Y006906D01*
X036082Y006801D01*
X035976Y006801D01*
X035871Y006906D01*
X035871Y007116D01*
X035976Y007222D01*
X036082Y007222D01*
X035871Y007116D02*
X035766Y007222D01*
X035661Y007222D01*
X035556Y007116D01*
X035556Y006906D01*
X035661Y006801D01*
X035766Y006801D01*
X035871Y006906D01*
X035661Y006577D02*
X035556Y006577D01*
X035556Y006157D01*
X035661Y006577D02*
X036082Y006157D01*
X036187Y006157D01*
X031137Y006207D02*
X031137Y006417D01*
X031137Y006312D02*
X030506Y006312D01*
X030506Y006207D02*
X030506Y006417D01*
X030611Y006636D02*
X031032Y006636D01*
X031137Y006741D01*
X031137Y006952D01*
X031032Y007057D01*
X031137Y007281D02*
X030716Y007701D01*
X030611Y007701D01*
X030506Y007596D01*
X030506Y007386D01*
X030611Y007281D01*
X030611Y007057D02*
X030506Y006952D01*
X030506Y006741D01*
X030611Y006636D01*
X031137Y007281D02*
X031137Y007701D01*
D65*
X031522Y007722D02*
X031522Y010972D01*
X035122Y010972D01*
X035122Y007722D01*
X031522Y007722D01*
X022409Y030063D02*
X022316Y030063D01*
X022363Y030063D02*
X022363Y030203D01*
X022316Y030157D01*
X022262Y030203D02*
X022169Y030063D01*
X022262Y030063D02*
X022169Y030203D01*
D66*
X032322Y006247D03*
X033322Y006247D03*
X034322Y006247D03*
D67*
X034322Y006922D03*
X033322Y006922D03*
X032322Y006922D03*
D68*
X032572Y005484D02*
X032572Y005460D01*
X034072Y005484D02*
X034072Y005460D01*
M02*
