G75*
G70*
%OFA0B0*%
%FSLAX24Y24*%
%IPPOS*%
%LPD*%
%AMOC8*
5,1,8,0,0,1.08239X$1,22.5*
%
%ADD10C,0.0050*%
%ADD11C,0.0030*%
%ADD12R,0.0098X0.0098*%
%ADD13R,0.0020X0.0060*%
%ADD14R,0.0020X0.0020*%
%ADD15R,0.0020X0.0100*%
%ADD16R,0.0020X0.0040*%
%ADD17R,0.0020X0.0080*%
%ADD18R,0.0020X0.0120*%
%ADD19R,0.0020X0.0140*%
%ADD20R,0.0020X0.0200*%
%ADD21R,0.0020X0.0160*%
%ADD22R,0.0020X0.0180*%
%ADD23R,0.0020X0.0220*%
%ADD24R,0.0020X0.0360*%
%ADD25R,0.0020X0.0340*%
%ADD26R,0.0020X0.0320*%
%ADD27R,0.0020X0.0420*%
%ADD28R,0.0020X0.0440*%
%ADD29R,0.0020X0.0400*%
%ADD30R,0.0020X0.0380*%
%ADD31R,0.0020X0.0300*%
%ADD32R,0.0020X0.0460*%
%ADD33R,0.0020X0.0480*%
%ADD34R,0.0020X0.0520*%
%ADD35R,0.0020X0.0540*%
%ADD36R,0.0020X0.0260*%
%ADD37R,0.0020X0.0580*%
%ADD38R,0.0020X0.0800*%
%ADD39R,0.0020X0.0280*%
%ADD40R,0.0020X0.0240*%
%ADD41R,0.0020X0.0500*%
%ADD42R,0.0020X0.0620*%
%ADD43R,0.0020X0.0760*%
%ADD44R,0.0020X0.0840*%
%ADD45R,0.0020X0.0780*%
%ADD46R,0.0020X0.0680*%
%ADD47R,0.0020X0.0660*%
%ADD48R,0.0020X0.0880*%
%ADD49R,0.0020X0.1080*%
%ADD50R,0.0020X0.1180*%
%ADD51R,0.0020X0.1240*%
%ADD52R,0.0020X0.1200*%
%ADD53R,0.0020X0.1100*%
%ADD54R,0.0020X0.1060*%
%ADD55R,0.0020X0.1040*%
%ADD56R,0.0020X0.1020*%
%ADD57R,0.0020X0.0700*%
%ADD58R,0.0020X0.0600*%
%ADD59R,0.0020X0.0560*%
%ADD60C,0.0060*%
D10*
X027697Y017397D02*
X028307Y017397D01*
X028307Y017702D01*
X028205Y017804D01*
X028002Y017804D01*
X027900Y017702D01*
X027900Y017397D01*
X027900Y017600D02*
X027697Y017804D01*
X027798Y018004D02*
X027697Y018106D01*
X027697Y018310D01*
X027798Y018411D01*
X028002Y018411D01*
X028104Y018310D01*
X028104Y018106D01*
X028002Y018004D01*
X027798Y018004D01*
X027798Y018612D02*
X027697Y018714D01*
X027697Y019019D01*
X027697Y019220D02*
X028307Y019220D01*
X028104Y019019D02*
X028104Y018714D01*
X028002Y018612D01*
X027798Y018612D01*
X027900Y019220D02*
X028104Y019525D01*
X028002Y019726D02*
X028104Y019828D01*
X028104Y020032D01*
X028002Y020133D01*
X027900Y020133D01*
X027900Y019726D01*
X027798Y019726D02*
X028002Y019726D01*
X027798Y019726D02*
X027697Y019828D01*
X027697Y020032D01*
X027798Y020436D02*
X027697Y020538D01*
X027798Y020436D02*
X028205Y020436D01*
X028104Y020334D02*
X028104Y020538D01*
X028597Y020640D02*
X028902Y020640D01*
X029004Y020538D01*
X029004Y020233D01*
X028597Y020233D01*
X028698Y020032D02*
X028902Y020032D01*
X029004Y019930D01*
X029004Y019727D01*
X028902Y019625D01*
X028698Y019625D01*
X028597Y019727D01*
X028597Y019930D01*
X028698Y020032D01*
X028597Y019423D02*
X028698Y019322D01*
X029105Y019322D01*
X029004Y019423D02*
X029004Y019220D01*
X029004Y019019D02*
X029004Y018714D01*
X028902Y018612D01*
X028800Y018714D01*
X028800Y018917D01*
X028698Y019019D01*
X028597Y018917D01*
X028597Y018612D01*
X028698Y018411D02*
X028902Y018411D01*
X029004Y018310D01*
X029004Y018106D01*
X028902Y018004D01*
X028698Y018004D01*
X028597Y018106D01*
X028597Y018310D01*
X028698Y018411D01*
X028698Y017804D02*
X028597Y017702D01*
X028597Y017397D01*
X029207Y017397D01*
X029207Y017702D01*
X029105Y017804D01*
X029004Y017804D01*
X028902Y017702D01*
X028902Y017397D01*
X028902Y017702D02*
X028800Y017804D01*
X028698Y017804D01*
X027900Y019220D02*
X027697Y019525D01*
X028307Y021347D02*
X028307Y021754D01*
X028307Y021550D02*
X027697Y021550D01*
X027798Y021955D02*
X028002Y021955D01*
X028104Y022056D01*
X028104Y022260D01*
X028002Y022362D01*
X027900Y022362D01*
X027900Y021955D01*
X027798Y021955D02*
X027697Y022056D01*
X027697Y022260D01*
X027798Y022562D02*
X027900Y022664D01*
X027900Y022969D01*
X028002Y022969D02*
X027697Y022969D01*
X027697Y022664D01*
X027798Y022562D01*
X028104Y022664D02*
X028104Y022868D01*
X028002Y022969D01*
X028104Y023170D02*
X027697Y023170D01*
X027697Y023374D02*
X028002Y023374D01*
X028104Y023475D01*
X028002Y023577D01*
X027697Y023577D01*
X028002Y023374D02*
X028104Y023272D01*
X028104Y023170D01*
X028597Y023272D02*
X029004Y023476D01*
X028902Y023676D02*
X029004Y023778D01*
X029004Y023982D01*
X028902Y024083D01*
X028800Y024083D01*
X028800Y023676D01*
X028698Y023676D02*
X028902Y023676D01*
X028698Y023676D02*
X028597Y023778D01*
X028597Y023982D01*
X028597Y024284D02*
X029004Y024284D01*
X029004Y024488D02*
X029004Y024589D01*
X029004Y024488D02*
X028800Y024284D01*
X028902Y024791D02*
X029004Y024892D01*
X029004Y025198D01*
X029004Y025398D02*
X029004Y025500D01*
X028597Y025500D01*
X028597Y025398D02*
X028597Y025602D01*
X028698Y025905D02*
X028597Y026007D01*
X028698Y025905D02*
X029105Y025905D01*
X029004Y025803D02*
X029004Y026007D01*
X029004Y026209D02*
X028698Y026209D01*
X028597Y026310D01*
X028597Y026616D01*
X028495Y026616D02*
X028393Y026514D01*
X028393Y026412D01*
X028495Y026616D02*
X029004Y026616D01*
X029207Y025500D02*
X029309Y025500D01*
X028800Y025096D02*
X028698Y025198D01*
X028597Y025096D01*
X028597Y024791D01*
X028800Y024892D02*
X028902Y024791D01*
X028800Y024892D02*
X028800Y025096D01*
X028597Y023272D02*
X029004Y023069D01*
X029004Y022765D02*
X028597Y022765D01*
X028597Y022664D02*
X028597Y022867D01*
X028597Y022463D02*
X028902Y022463D01*
X029004Y022361D01*
X029004Y022056D01*
X028597Y022056D01*
X028698Y021855D02*
X029207Y021855D01*
X029207Y021448D02*
X028698Y021448D01*
X028597Y021550D01*
X028597Y021753D01*
X028698Y021855D01*
X029004Y022664D02*
X029004Y022765D01*
X029207Y022765D02*
X029309Y022765D01*
D11*
X027325Y022297D02*
X027277Y022297D01*
X027180Y022297D02*
X026987Y022297D01*
X026987Y022345D02*
X026987Y022248D01*
X026987Y022149D02*
X027035Y022100D01*
X027229Y022100D01*
X027180Y022052D02*
X027180Y022149D01*
X027180Y022248D02*
X027180Y022297D01*
X027180Y022445D02*
X027180Y022638D01*
X026987Y022445D01*
X026987Y022638D01*
X027035Y022739D02*
X027132Y022739D01*
X027180Y022788D01*
X027180Y022884D01*
X027132Y022933D01*
X027083Y022933D01*
X027083Y022739D01*
X027035Y022739D02*
X026987Y022788D01*
X026987Y022884D01*
X026987Y023034D02*
X027180Y023034D01*
X027083Y023034D02*
X027180Y023131D01*
X027180Y023179D01*
X027180Y023574D02*
X026987Y023574D01*
X027083Y023574D02*
X027180Y023671D01*
X027180Y023719D01*
X027180Y023820D02*
X027277Y023916D01*
X026987Y023916D01*
X026987Y023820D02*
X026987Y024013D01*
X026987Y024114D02*
X026987Y024163D01*
X027035Y024163D01*
X027035Y024114D01*
X026987Y024114D01*
X027035Y024262D02*
X027229Y024455D01*
X027035Y024455D01*
X026987Y024407D01*
X026987Y024310D01*
X027035Y024262D01*
X027229Y024262D01*
X027277Y024310D01*
X027277Y024407D01*
X027229Y024455D01*
X026679Y023375D02*
X026727Y023326D01*
X026727Y023230D01*
X026679Y023181D01*
X026679Y023375D02*
X026630Y023375D01*
X026437Y023181D01*
X026437Y023375D01*
X026437Y023080D02*
X026437Y022887D01*
X026437Y022983D02*
X026727Y022983D01*
X026630Y022887D01*
X026679Y022788D02*
X026630Y022739D01*
X026679Y022788D02*
X026775Y022788D01*
X026727Y022344D02*
X026727Y022150D01*
X026437Y022150D01*
X026437Y022344D01*
X026582Y022247D02*
X026582Y022150D01*
X026727Y022049D02*
X026727Y021855D01*
X026437Y021855D01*
X026437Y022049D01*
X026582Y021952D02*
X026582Y021855D01*
X026890Y021706D02*
X026938Y021754D01*
X027180Y021754D01*
X027180Y021609D01*
X027132Y021561D01*
X027035Y021561D01*
X026987Y021609D01*
X026987Y021754D01*
X026987Y021855D02*
X026987Y021952D01*
X026987Y021904D02*
X027180Y021904D01*
X027180Y021855D01*
X027277Y021904D02*
X027325Y021904D01*
X026890Y021706D02*
X026890Y021658D01*
X026987Y021461D02*
X026987Y021364D01*
X026987Y021413D02*
X027180Y021413D01*
X027180Y021364D01*
X027277Y021413D02*
X027325Y021413D01*
X027229Y021263D02*
X027277Y021215D01*
X027277Y021070D01*
X026987Y021070D01*
X026987Y021215D01*
X027035Y021263D01*
X027229Y021263D01*
X027132Y020674D02*
X027083Y020674D01*
X027083Y020480D01*
X027035Y020480D02*
X027132Y020480D01*
X027180Y020529D01*
X027180Y020626D01*
X027132Y020674D01*
X026987Y020626D02*
X026987Y020529D01*
X027035Y020480D01*
X026987Y020381D02*
X026987Y020284D01*
X026987Y020332D02*
X027277Y020332D01*
X027277Y020284D01*
X027132Y020183D02*
X027180Y020135D01*
X027180Y019989D01*
X026890Y019989D01*
X026987Y019989D02*
X026987Y020135D01*
X027035Y020183D01*
X027132Y020183D01*
X027180Y019888D02*
X026987Y019888D01*
X026987Y019743D01*
X027035Y019695D01*
X027180Y019695D01*
X027132Y019594D02*
X027180Y019545D01*
X027180Y019448D01*
X027132Y019400D01*
X027035Y019400D01*
X026987Y019448D01*
X026987Y019545D01*
X027035Y019594D01*
X027132Y019594D01*
X027180Y019299D02*
X027180Y019154D01*
X027132Y019105D01*
X027035Y019105D01*
X026987Y019154D01*
X026987Y019299D01*
X026775Y019399D02*
X026727Y019399D01*
X026630Y019399D02*
X026437Y019399D01*
X026437Y019351D02*
X026437Y019448D01*
X026485Y019596D02*
X026437Y019644D01*
X026485Y019596D02*
X026679Y019596D01*
X026630Y019644D02*
X026630Y019547D01*
X026630Y019399D02*
X026630Y019351D01*
X026582Y019250D02*
X026437Y019250D01*
X026582Y019250D02*
X026630Y019201D01*
X026630Y019105D01*
X026582Y019056D01*
X026727Y019056D02*
X026437Y019056D01*
X026437Y018955D02*
X026727Y018955D01*
X026727Y018762D02*
X026437Y018762D01*
X026533Y018858D01*
X026437Y018955D01*
X026987Y018956D02*
X027035Y019004D01*
X027132Y019004D01*
X027180Y018956D01*
X027180Y018859D01*
X027132Y018811D01*
X027035Y018811D01*
X026987Y018859D01*
X026987Y018956D01*
X026987Y018710D02*
X027132Y018710D01*
X027180Y018661D01*
X027132Y018613D01*
X026987Y018613D01*
X026987Y018516D02*
X027180Y018516D01*
X027180Y018565D01*
X027132Y018613D01*
X027180Y018416D02*
X027180Y018367D01*
X027083Y018271D01*
X026987Y018271D02*
X027180Y018271D01*
X027132Y018169D02*
X027180Y018121D01*
X027180Y018024D01*
X027132Y017976D01*
X027035Y017976D01*
X026987Y018024D01*
X026987Y018121D01*
X027083Y018169D02*
X027083Y017976D01*
X027132Y017875D02*
X026987Y017875D01*
X027132Y017875D02*
X027180Y017826D01*
X027180Y017730D01*
X027132Y017681D01*
X027277Y017681D02*
X026987Y017681D01*
X026987Y017483D02*
X027277Y017483D01*
X027277Y017387D02*
X027277Y017580D01*
X026727Y017483D02*
X026630Y017580D01*
X026437Y017580D01*
X026437Y017681D02*
X026437Y017778D01*
X026437Y017730D02*
X026727Y017730D01*
X026727Y017681D01*
X026582Y017580D02*
X026582Y017387D01*
X026630Y017387D02*
X026727Y017483D01*
X026630Y017387D02*
X026437Y017387D01*
X026485Y017878D02*
X026582Y017878D01*
X026630Y017926D01*
X026630Y018023D01*
X026582Y018071D01*
X026533Y018071D01*
X026533Y017878D01*
X026485Y017878D02*
X026437Y017926D01*
X026437Y018023D01*
X026437Y018172D02*
X026630Y018366D01*
X026437Y018366D02*
X026630Y018172D01*
X027083Y018169D02*
X027132Y018169D01*
X026630Y019744D02*
X026630Y019841D01*
X026679Y019792D02*
X026485Y019792D01*
X026437Y019841D01*
X026485Y019940D02*
X026582Y019940D01*
X026630Y019989D01*
X026630Y020085D01*
X026582Y020134D01*
X026533Y020134D01*
X026533Y019940D01*
X026485Y019940D02*
X026437Y019989D01*
X026437Y020085D01*
X026437Y020235D02*
X026630Y020235D01*
X026630Y020283D01*
X026582Y020332D01*
X026630Y020380D01*
X026582Y020428D01*
X026437Y020428D01*
X026437Y020332D02*
X026582Y020332D01*
X026582Y020530D02*
X026485Y020530D01*
X026437Y020578D01*
X026437Y020675D01*
X026485Y020723D01*
X026582Y020723D01*
X026630Y020675D01*
X026630Y020578D01*
X026582Y020530D01*
X026630Y020824D02*
X026437Y020824D01*
X026533Y020824D02*
X026630Y020921D01*
X026630Y020969D01*
X026582Y021070D02*
X026630Y021118D01*
X026630Y021215D01*
X026582Y021263D01*
X026533Y021263D01*
X026533Y021070D01*
X026485Y021070D02*
X026582Y021070D01*
X026485Y021070D02*
X026437Y021118D01*
X026437Y021215D01*
X026340Y021364D02*
X026437Y021461D01*
X026437Y021413D01*
X026485Y021413D01*
X026485Y021461D01*
X026437Y021461D01*
X030687Y019733D02*
X030687Y019636D01*
X030735Y019588D01*
X030832Y019588D01*
X030880Y019636D01*
X030880Y019733D01*
X030832Y019781D01*
X030783Y019781D01*
X030783Y019588D01*
X030880Y019487D02*
X030880Y019439D01*
X030783Y019342D01*
X030687Y019342D02*
X030880Y019342D01*
X030832Y019241D02*
X030687Y019241D01*
X030687Y019096D01*
X030735Y019047D01*
X030783Y019096D01*
X030783Y019241D01*
X030832Y019241D02*
X030880Y019193D01*
X030880Y019096D01*
X030880Y018946D02*
X030735Y018946D01*
X030687Y018898D01*
X030735Y018850D01*
X030687Y018801D01*
X030735Y018753D01*
X030880Y018753D01*
X030880Y018652D02*
X030880Y018506D01*
X030832Y018458D01*
X030735Y018458D01*
X030687Y018506D01*
X030687Y018652D01*
X030977Y018652D01*
X030880Y018358D02*
X030880Y018309D01*
X030783Y018213D01*
X030687Y018213D02*
X030880Y018213D01*
X030832Y018111D02*
X030687Y018111D01*
X030687Y017966D01*
X030735Y017918D01*
X030783Y017966D01*
X030783Y018111D01*
X030832Y018111D02*
X030880Y018063D01*
X030880Y017966D01*
X030832Y017817D02*
X030832Y017623D01*
X030687Y017623D02*
X030977Y017623D01*
X030977Y017817D02*
X030687Y017817D01*
X030783Y017228D02*
X030783Y017034D01*
X030735Y017034D02*
X030832Y017034D01*
X030880Y017082D01*
X030880Y017179D01*
X030832Y017228D01*
X030783Y017228D01*
X030687Y017179D02*
X030687Y017082D01*
X030735Y017034D01*
X030687Y016933D02*
X030687Y016788D01*
X030735Y016739D01*
X030832Y016739D01*
X030880Y016788D01*
X030880Y016933D01*
X030880Y016639D02*
X030880Y016591D01*
X030783Y016494D01*
X030687Y016494D02*
X030880Y016494D01*
X030880Y016393D02*
X030687Y016393D01*
X030687Y016248D01*
X030735Y016199D01*
X030880Y016199D01*
X030832Y016098D02*
X030880Y016050D01*
X030880Y015953D01*
X030832Y015905D01*
X030735Y015905D01*
X030687Y015953D01*
X030687Y016050D01*
X030735Y016098D01*
X030832Y016098D01*
X030783Y015803D02*
X030735Y015803D01*
X030687Y015755D01*
X030687Y015658D01*
X030735Y015610D01*
X030832Y015658D02*
X030832Y015755D01*
X030783Y015803D01*
X030929Y015803D02*
X030977Y015755D01*
X030977Y015658D01*
X030929Y015610D01*
X030880Y015610D01*
X030832Y015658D01*
X030527Y015509D02*
X030479Y015509D01*
X030382Y015412D01*
X030237Y015412D01*
X030382Y015412D02*
X030479Y015315D01*
X030527Y015315D01*
X030479Y015214D02*
X030430Y015214D01*
X030382Y015166D01*
X030382Y015021D01*
X030382Y014919D02*
X030382Y014726D01*
X030479Y014625D02*
X030527Y014576D01*
X030527Y014480D01*
X030479Y014431D01*
X030285Y014431D01*
X030237Y014480D01*
X030237Y014576D01*
X030285Y014625D01*
X030285Y014330D02*
X030237Y014282D01*
X030237Y014185D01*
X030285Y014137D01*
X030479Y014137D01*
X030527Y014185D01*
X030527Y014282D01*
X030479Y014330D01*
X030590Y014431D02*
X030880Y014431D01*
X030880Y014576D01*
X030832Y014625D01*
X030735Y014625D01*
X030687Y014576D01*
X030687Y014431D01*
X030735Y014330D02*
X030929Y014330D01*
X030977Y014282D01*
X030977Y014185D01*
X030929Y014137D01*
X030735Y014137D01*
X030687Y014185D01*
X030687Y014282D01*
X030735Y014330D01*
X030735Y014726D02*
X030832Y014726D01*
X030880Y014774D01*
X030880Y014871D01*
X030832Y014919D01*
X030783Y014919D01*
X030783Y014726D01*
X030735Y014726D02*
X030687Y014774D01*
X030687Y014871D01*
X030687Y015021D02*
X030880Y015021D01*
X030880Y015166D01*
X030832Y015214D01*
X030687Y015214D01*
X030527Y015166D02*
X030479Y015214D01*
X030527Y015166D02*
X030527Y015021D01*
X030237Y015021D01*
X030237Y015166D01*
X030285Y015214D01*
X030333Y015214D01*
X030382Y015166D01*
X030382Y015610D02*
X030382Y015803D01*
X030430Y015905D02*
X030382Y015953D01*
X030382Y016050D01*
X030333Y016098D01*
X030285Y016098D01*
X030237Y016050D01*
X030237Y015953D01*
X030285Y015905D01*
X030430Y015905D02*
X030479Y015905D01*
X030527Y015953D01*
X030527Y016050D01*
X030479Y016098D01*
X030430Y016199D02*
X030527Y016296D01*
X030430Y016393D01*
X030237Y016393D01*
X030382Y016393D02*
X030382Y016199D01*
X030430Y016199D02*
X030237Y016199D01*
D12*
X029222Y016386D03*
X029124Y016386D03*
X029026Y016386D03*
X028927Y016386D03*
X028829Y016386D03*
X028730Y016386D03*
X028632Y016386D03*
X028632Y016485D03*
X028632Y016583D03*
X028632Y016682D03*
X028632Y016780D03*
X028632Y016878D03*
X028632Y016977D03*
X028730Y016977D03*
X028829Y016977D03*
X028927Y016977D03*
X029026Y016977D03*
X029124Y016977D03*
X029222Y016977D03*
X029222Y016878D03*
X029222Y016780D03*
X029222Y016682D03*
X029222Y016583D03*
X029222Y016485D03*
X029026Y016583D03*
X029026Y016682D03*
X029026Y016780D03*
X028927Y016780D03*
X028829Y016780D03*
X028829Y016682D03*
X028927Y016682D03*
X028927Y016583D03*
X028829Y016583D03*
X028435Y016682D03*
X028337Y016583D03*
X028337Y016485D03*
X028337Y016386D03*
X028435Y016386D03*
X028238Y016288D03*
X028140Y016288D03*
X028140Y016386D03*
X028140Y016485D03*
X028238Y016485D03*
X028140Y016682D03*
X028041Y016682D03*
X028041Y016780D03*
X027943Y016878D03*
X027844Y016878D03*
X027746Y016878D03*
X027648Y016878D03*
X027549Y016878D03*
X027549Y016780D03*
X027451Y016780D03*
X027451Y016682D03*
X027352Y016780D03*
X027254Y016780D03*
X027254Y016682D03*
X027156Y016682D03*
X027156Y016780D03*
X027156Y016878D03*
X027156Y016977D03*
X027057Y016878D03*
X026959Y016977D03*
X026860Y016780D03*
X026762Y016780D03*
X026762Y016878D03*
X026663Y016780D03*
X026663Y016682D03*
X026565Y016682D03*
X026467Y016682D03*
X026565Y016583D03*
X026565Y016485D03*
X026565Y016386D03*
X026467Y016386D03*
X026467Y016288D03*
X026467Y016189D03*
X026565Y016189D03*
X026663Y016091D03*
X026663Y015993D03*
X026565Y015993D03*
X026467Y015993D03*
X026467Y016091D03*
X026467Y015894D03*
X026565Y015894D03*
X026663Y015894D03*
X026762Y015993D03*
X026762Y016091D03*
X026860Y015993D03*
X026959Y015993D03*
X027057Y016091D03*
X027057Y016189D03*
X026959Y016189D03*
X026860Y016189D03*
X026860Y016288D03*
X026762Y016288D03*
X026860Y016386D03*
X026860Y016485D03*
X026860Y016583D03*
X026762Y016583D03*
X026762Y016485D03*
X026959Y016583D03*
X027057Y016583D03*
X027156Y016583D03*
X027254Y016583D03*
X027254Y016485D03*
X027254Y016386D03*
X027254Y016288D03*
X027254Y016189D03*
X027352Y016189D03*
X027352Y016091D03*
X027254Y015993D03*
X027156Y015993D03*
X027057Y015894D03*
X027156Y015796D03*
X027254Y015796D03*
X027156Y015697D03*
X027057Y015697D03*
X027057Y015599D03*
X026959Y015599D03*
X026959Y015697D03*
X026860Y015796D03*
X026565Y015697D03*
X026565Y015500D03*
X026663Y015500D03*
X026663Y015402D03*
X026663Y015304D03*
X026565Y015304D03*
X026467Y015304D03*
X026467Y015205D03*
X026565Y015205D03*
X026565Y015107D03*
X026663Y015008D03*
X026762Y015008D03*
X026762Y014811D03*
X026860Y014811D03*
X026959Y014811D03*
X027057Y014811D03*
X027057Y014713D03*
X027057Y014615D03*
X027057Y014516D03*
X027057Y014418D03*
X027057Y014319D03*
X027057Y014221D03*
X026959Y014221D03*
X026860Y014221D03*
X026762Y014221D03*
X026663Y014221D03*
X026565Y014221D03*
X026467Y014221D03*
X026467Y014319D03*
X026467Y014418D03*
X026467Y014516D03*
X026467Y014615D03*
X026467Y014713D03*
X026467Y014811D03*
X026565Y014811D03*
X026663Y014811D03*
X026663Y014615D03*
X026663Y014516D03*
X026663Y014418D03*
X026762Y014418D03*
X026860Y014418D03*
X026860Y014516D03*
X026762Y014516D03*
X026762Y014615D03*
X026860Y014615D03*
X026959Y015008D03*
X027057Y015008D03*
X027156Y015008D03*
X027254Y014910D03*
X027254Y014811D03*
X027254Y014713D03*
X027352Y014713D03*
X027451Y014811D03*
X027549Y014713D03*
X027648Y014713D03*
X027648Y014615D03*
X027746Y014615D03*
X027746Y014516D03*
X027844Y014516D03*
X027844Y014418D03*
X027844Y014319D03*
X027746Y014319D03*
X027648Y014221D03*
X027549Y014221D03*
X027549Y014319D03*
X027451Y014319D03*
X027352Y014319D03*
X027352Y014221D03*
X027254Y014221D03*
X027451Y014418D03*
X027549Y014418D03*
X027648Y014418D03*
X027844Y014221D03*
X027943Y014221D03*
X027943Y014319D03*
X028041Y014418D03*
X028140Y014418D03*
X028238Y014418D03*
X028140Y014319D03*
X028435Y014221D03*
X028435Y014418D03*
X028435Y014516D03*
X028337Y014615D03*
X028337Y014713D03*
X028435Y014713D03*
X028435Y014811D03*
X028435Y014910D03*
X028337Y014910D03*
X028238Y014910D03*
X028140Y014910D03*
X028238Y015008D03*
X028238Y015107D03*
X028238Y015205D03*
X028238Y015304D03*
X028238Y015402D03*
X028140Y015402D03*
X028140Y015304D03*
X028041Y015304D03*
X027943Y015205D03*
X027943Y015107D03*
X028041Y015107D03*
X028041Y015008D03*
X028140Y015107D03*
X028337Y015107D03*
X028435Y015205D03*
X028337Y015304D03*
X028337Y015402D03*
X028435Y015402D03*
X028435Y015500D03*
X028337Y015500D03*
X028238Y015500D03*
X028337Y015599D03*
X028337Y015697D03*
X028435Y015697D03*
X028533Y015697D03*
X028533Y015796D03*
X028533Y015894D03*
X028533Y015993D03*
X028533Y016091D03*
X028632Y015993D03*
X028632Y016189D03*
X028829Y015894D03*
X028829Y015796D03*
X028730Y015796D03*
X028632Y015796D03*
X028730Y015697D03*
X028632Y015599D03*
X028730Y015500D03*
X028730Y015402D03*
X028632Y015402D03*
X028533Y015402D03*
X028632Y015205D03*
X028632Y015008D03*
X028533Y015008D03*
X028632Y014811D03*
X028632Y014713D03*
X028632Y014615D03*
X028632Y014516D03*
X028632Y014418D03*
X028632Y014319D03*
X028632Y014221D03*
X028730Y014221D03*
X028829Y014221D03*
X028927Y014221D03*
X029026Y014221D03*
X029124Y014221D03*
X029222Y014221D03*
X029222Y014319D03*
X029222Y014418D03*
X029222Y014516D03*
X029222Y014615D03*
X029222Y014713D03*
X029222Y014811D03*
X029124Y014811D03*
X029026Y014811D03*
X028927Y014811D03*
X028829Y014811D03*
X028730Y014811D03*
X028829Y014615D03*
X028927Y014615D03*
X029026Y014615D03*
X029026Y014516D03*
X029026Y014418D03*
X028927Y014418D03*
X028927Y014516D03*
X028829Y014516D03*
X028829Y014418D03*
X028238Y014615D03*
X028140Y014713D03*
X028238Y014811D03*
X028041Y014811D03*
X027844Y014811D03*
X027844Y014713D03*
X027648Y014811D03*
X027746Y014910D03*
X027746Y015008D03*
X027844Y015008D03*
X027648Y015205D03*
X027549Y015304D03*
X027549Y015402D03*
X027451Y015500D03*
X027352Y015500D03*
X027254Y015500D03*
X027254Y015599D03*
X027352Y015599D03*
X027451Y015599D03*
X027549Y015599D03*
X027648Y015599D03*
X027746Y015599D03*
X027648Y015697D03*
X027648Y015796D03*
X027746Y015796D03*
X027844Y015796D03*
X027844Y015697D03*
X027943Y015599D03*
X028041Y015599D03*
X028041Y015697D03*
X027943Y015796D03*
X027943Y015894D03*
X028140Y015894D03*
X028140Y015796D03*
X028238Y015796D03*
X028337Y015894D03*
X028238Y015993D03*
X028140Y016091D03*
X028140Y016189D03*
X028238Y016189D03*
X028041Y016189D03*
X028041Y016288D03*
X027943Y016386D03*
X027844Y016288D03*
X027844Y016189D03*
X027746Y016189D03*
X027648Y016189D03*
X027549Y016189D03*
X027451Y016189D03*
X027451Y016288D03*
X027549Y016288D03*
X027648Y016288D03*
X027746Y016386D03*
X027746Y016485D03*
X027746Y016583D03*
X027648Y016583D03*
X027648Y016485D03*
X027549Y016485D03*
X027352Y016583D03*
X027352Y016386D03*
X027156Y016189D03*
X027057Y016386D03*
X027057Y016682D03*
X026663Y016977D03*
X026565Y016878D03*
X026467Y016878D03*
X027549Y015993D03*
X027549Y015894D03*
X027451Y015894D03*
X027451Y015796D03*
X027549Y015796D03*
X027648Y015894D03*
X027844Y016091D03*
X027943Y016091D03*
X027844Y016485D03*
X027844Y016682D03*
X027844Y016780D03*
X027844Y016977D03*
X027943Y016977D03*
X028140Y016977D03*
X028238Y016878D03*
X028238Y016780D03*
X028337Y016977D03*
X028435Y016977D03*
X028435Y016878D03*
X029026Y016091D03*
X029124Y015993D03*
X029026Y015894D03*
X029026Y015796D03*
X029124Y015796D03*
X029222Y015894D03*
X029222Y015697D03*
X029222Y015599D03*
X029222Y015500D03*
X029222Y015402D03*
X029124Y015500D03*
X029026Y015402D03*
X028829Y015402D03*
X028829Y015304D03*
X028829Y015205D03*
X028927Y015107D03*
X029026Y015107D03*
X029124Y015107D03*
X029124Y015205D03*
X029222Y015205D03*
X029222Y015107D03*
X029222Y015008D03*
X029124Y015008D03*
X028927Y015008D03*
X028927Y015599D03*
X028829Y015599D03*
X028927Y015697D03*
X027844Y015500D03*
X027844Y015402D03*
X027746Y015402D03*
X027451Y015205D03*
X027451Y015107D03*
X027352Y015107D03*
X027254Y015107D03*
X027254Y015205D03*
X027352Y015205D03*
X027352Y015304D03*
X027156Y015402D03*
X027057Y015304D03*
X026959Y015304D03*
X026959Y015402D03*
X026959Y015500D03*
X026762Y015402D03*
X026762Y015304D03*
X026959Y015205D03*
X027057Y015205D03*
X027057Y015107D03*
X026959Y015107D03*
X027156Y015205D03*
X027451Y015008D03*
X027549Y015008D03*
X027451Y015697D03*
X026467Y015500D03*
X026467Y015008D03*
D13*
X026242Y012082D03*
X026262Y012122D03*
X026262Y012042D03*
X026362Y012202D03*
X026322Y012342D03*
X026282Y012402D03*
X027042Y012502D03*
X027062Y012522D03*
X027122Y012562D03*
X027142Y012562D03*
X027162Y012582D03*
X027202Y012602D03*
X027642Y012362D03*
X027782Y012322D03*
X027782Y012482D03*
X027902Y012442D03*
X028062Y012422D03*
X028322Y012442D03*
X028342Y012442D03*
X028362Y012522D03*
X028342Y012722D03*
X028562Y012702D03*
X028822Y012642D03*
X028842Y012542D03*
X029262Y012522D03*
X029282Y012542D03*
X029322Y012502D03*
X029282Y012442D03*
X029262Y012402D03*
X029242Y012382D03*
X029202Y012322D03*
X028162Y013002D03*
X028182Y013062D03*
X027902Y013122D03*
X027742Y012842D03*
X027482Y013502D03*
X027462Y012062D03*
X028042Y011162D03*
X028062Y011122D03*
X028082Y011062D03*
X028102Y011022D03*
X028142Y010922D03*
X028162Y010882D03*
X028182Y010822D03*
X028222Y010762D03*
D14*
X027582Y012062D03*
X027562Y012062D03*
X027542Y012062D03*
X027522Y012062D03*
X027502Y012062D03*
X027482Y012062D03*
X027482Y012162D03*
X027502Y012162D03*
X027462Y012162D03*
X027542Y012182D03*
X027562Y012182D03*
X027582Y012202D03*
X027602Y012222D03*
X027642Y012102D03*
X027622Y012082D03*
X027602Y012082D03*
X027782Y012202D03*
X027802Y012222D03*
X027782Y012242D03*
X027802Y012182D03*
X027902Y012582D03*
X027882Y012622D03*
X027942Y012622D03*
X027842Y012942D03*
X027862Y012962D03*
X027882Y012962D03*
X027922Y013122D03*
X027942Y013122D03*
X027962Y013142D03*
X027982Y013142D03*
X028002Y013142D03*
X028022Y013142D03*
X028042Y013142D03*
X028062Y013142D03*
X028082Y013142D03*
X028102Y013142D03*
X028142Y013122D03*
X028422Y013022D03*
X028442Y012862D03*
X028462Y012782D03*
X028542Y012722D03*
X028762Y012702D03*
X028822Y012562D03*
X028722Y012862D03*
X028322Y012742D03*
X028402Y012542D03*
X028442Y012442D03*
X028382Y012402D03*
X028362Y012382D03*
X028342Y012382D03*
X028322Y012382D03*
X027542Y012522D03*
X027502Y012482D03*
X027442Y012642D03*
X027502Y012822D03*
X027582Y012782D03*
X027682Y013262D03*
X027622Y013322D03*
X027542Y013422D03*
X027522Y013442D03*
X027502Y013462D03*
X027562Y013702D03*
X027582Y013702D03*
X027602Y013702D03*
X027622Y013682D03*
X027542Y013722D03*
X027522Y013722D03*
X027502Y013722D03*
X027482Y013742D03*
X027802Y013722D03*
X027822Y013722D03*
X027842Y013742D03*
X027862Y013742D03*
X027882Y013762D03*
X027902Y013762D03*
X027922Y013782D03*
X027942Y013782D03*
X027962Y013802D03*
X027982Y013802D03*
X028062Y013582D03*
X026962Y012482D03*
X026862Y012422D03*
X026842Y012422D03*
X026822Y012422D03*
X026802Y012422D03*
X026782Y012422D03*
X026762Y012422D03*
X026742Y012422D03*
X026722Y012422D03*
X026702Y012422D03*
X026682Y012422D03*
X026662Y012422D03*
X026642Y012422D03*
X026622Y012422D03*
X026602Y012422D03*
X026502Y012382D03*
X026482Y012382D03*
X026422Y012362D03*
X026402Y012382D03*
X026422Y012322D03*
X026442Y012322D03*
X026482Y012302D03*
X026382Y012302D03*
X026362Y012302D03*
X026342Y012242D03*
X026342Y012202D03*
X026382Y012162D03*
X026402Y012142D03*
X026422Y012162D03*
X026462Y012162D03*
X026482Y012162D03*
X026562Y012202D03*
X026442Y012082D03*
X026422Y012082D03*
X026402Y012082D03*
X026342Y012002D03*
X026322Y012002D03*
X026302Y012002D03*
X026282Y012002D03*
X026302Y012142D03*
X026302Y012442D03*
X026342Y012502D03*
X026382Y012522D03*
X026942Y012042D03*
X029322Y012602D03*
D15*
X029222Y012462D03*
X029142Y013042D03*
X028362Y012682D03*
X028302Y012422D03*
X028082Y012422D03*
X027962Y012422D03*
X027462Y012522D03*
X027162Y012422D03*
X026542Y012102D03*
X026282Y012182D03*
X027502Y011942D03*
X028282Y011122D03*
X028542Y012302D03*
X027802Y012942D03*
D16*
X027822Y012932D03*
X027782Y012892D03*
X027762Y012872D03*
X027622Y012752D03*
X027602Y012772D03*
X027562Y012792D03*
X027542Y012812D03*
X027522Y012812D03*
X027422Y012852D03*
X027402Y012852D03*
X027382Y012852D03*
X027362Y012852D03*
X027342Y012852D03*
X027322Y012852D03*
X027302Y012852D03*
X027282Y012852D03*
X027242Y012632D03*
X027222Y012612D03*
X027182Y012592D03*
X027102Y012552D03*
X027082Y012532D03*
X027522Y012532D03*
X027562Y012492D03*
X027802Y012472D03*
X027842Y012452D03*
X027902Y012352D03*
X027762Y012212D03*
X027522Y012172D03*
X027442Y012152D03*
X027422Y012152D03*
X028142Y012132D03*
X028402Y012412D03*
X028362Y012452D03*
X028402Y012492D03*
X028382Y012512D03*
X028322Y012512D03*
X028302Y012512D03*
X028362Y012592D03*
X028362Y012772D03*
X028342Y012792D03*
X028322Y012792D03*
X028342Y012872D03*
X028402Y013012D03*
X028442Y013032D03*
X028162Y013112D03*
X028122Y013132D03*
X027982Y012972D03*
X027902Y013292D03*
X027922Y013332D03*
X027942Y013372D03*
X027962Y013412D03*
X027982Y013432D03*
X028002Y013472D03*
X028022Y013512D03*
X028002Y013792D03*
X027642Y013672D03*
X027562Y013392D03*
X027582Y013372D03*
X027602Y013352D03*
X027642Y013312D03*
X027662Y013292D03*
X027702Y013252D03*
X028722Y012812D03*
X028742Y012792D03*
X028722Y012752D03*
X028742Y012732D03*
X028742Y012632D03*
X028762Y012612D03*
X028782Y012592D03*
X028802Y012572D03*
X028842Y012612D03*
X028742Y012852D03*
X029302Y012572D03*
X029342Y012612D03*
X029402Y012632D03*
X029222Y012352D03*
X028202Y010772D03*
X026622Y012232D03*
X026582Y012212D03*
X026542Y012192D03*
X026502Y012312D03*
X026462Y012312D03*
X026402Y012312D03*
X026342Y012312D03*
X026302Y012372D03*
X026322Y012472D03*
X026362Y012512D03*
X026402Y012492D03*
X026522Y012392D03*
X026582Y012412D03*
X026322Y012232D03*
X026302Y012232D03*
X026382Y012072D03*
X026362Y012032D03*
X026462Y012092D03*
D17*
X026482Y012092D03*
X026522Y012312D03*
X026582Y012332D03*
X027022Y012492D03*
X027442Y012532D03*
X027662Y012332D03*
X027802Y012332D03*
X027822Y012192D03*
X027482Y011952D03*
X027462Y011972D03*
X028422Y012452D03*
X028582Y012692D03*
X028442Y012792D03*
X028442Y012952D03*
X028422Y012952D03*
X028342Y012952D03*
X028202Y012852D03*
X028002Y012972D03*
X027742Y012932D03*
X028022Y013712D03*
X028702Y012852D03*
X029162Y013072D03*
X029382Y012612D03*
X029342Y012532D03*
X029302Y012472D03*
X029242Y012492D03*
X028122Y010972D03*
D18*
X028262Y010992D03*
X028242Y010872D03*
X027542Y011932D03*
X027522Y011932D03*
X026762Y012332D03*
X026742Y012332D03*
X026622Y012332D03*
X026602Y012332D03*
X026562Y012352D03*
X026542Y012352D03*
X026562Y012112D03*
X026582Y012112D03*
X026502Y012112D03*
X027222Y012792D03*
X027662Y012472D03*
X028022Y012972D03*
X028162Y012892D03*
X028202Y012972D03*
X028322Y012912D03*
X028362Y012932D03*
X028462Y012992D03*
X028482Y012992D03*
X028682Y012872D03*
X028602Y012672D03*
X028622Y012652D03*
X028862Y012552D03*
X028882Y012512D03*
X028922Y012432D03*
X028842Y012432D03*
X029362Y012592D03*
X029122Y013012D03*
X028322Y012632D03*
D19*
X028302Y012662D03*
X028422Y012822D03*
X028282Y012902D03*
X028042Y012982D03*
X028102Y012422D03*
X027682Y012302D03*
X027422Y012022D03*
X027442Y012002D03*
X027562Y011922D03*
X027542Y012702D03*
X027522Y012702D03*
X026722Y012322D03*
X026702Y012322D03*
X026522Y012122D03*
X028302Y011262D03*
X029202Y012442D03*
X029082Y012942D03*
X029102Y012982D03*
X028762Y012822D03*
X028662Y012882D03*
X028642Y012902D03*
X028622Y012922D03*
X028602Y012922D03*
X028582Y012942D03*
X028562Y012942D03*
X028042Y013602D03*
D20*
X028222Y012912D03*
X028382Y012912D03*
X028402Y012872D03*
X028502Y012552D03*
X028822Y012812D03*
X028782Y012152D03*
X027642Y011912D03*
X027622Y011912D03*
X026722Y012132D03*
X026602Y012132D03*
D21*
X026622Y012112D03*
X026642Y012112D03*
X026662Y012312D03*
X026682Y012312D03*
X027482Y012552D03*
X027562Y012672D03*
X027642Y012672D03*
X027702Y012732D03*
X027722Y012852D03*
X027482Y012772D03*
X027462Y012772D03*
X027442Y012772D03*
X027642Y012492D03*
X028262Y012452D03*
X028282Y012452D03*
X028342Y012572D03*
X028542Y012952D03*
X028522Y012972D03*
X028502Y012972D03*
X028822Y012432D03*
X029062Y012932D03*
X027602Y011912D03*
X027582Y011912D03*
D22*
X028122Y012422D03*
X028282Y012722D03*
X028402Y012662D03*
X028302Y012882D03*
X028242Y012902D03*
X028062Y012962D03*
X027882Y013182D03*
X027462Y013662D03*
X027242Y012782D03*
X027282Y012702D03*
X027662Y012662D03*
X028542Y012142D03*
X028282Y011342D03*
X029022Y012882D03*
X029042Y012902D03*
X026702Y012122D03*
X026682Y012122D03*
X026662Y012122D03*
X026642Y012302D03*
D23*
X026742Y012142D03*
X026762Y012142D03*
X027662Y011922D03*
X027702Y012242D03*
X027842Y012242D03*
X027822Y012382D03*
X027702Y012502D03*
X028222Y012262D03*
X028242Y012242D03*
X028262Y012242D03*
X028522Y012522D03*
X028482Y012562D03*
X028462Y012582D03*
X028442Y012602D03*
X028422Y012622D03*
X028382Y012662D03*
X028782Y012782D03*
X028842Y012802D03*
X028982Y012842D03*
X029002Y012862D03*
X028802Y012422D03*
X028802Y012162D03*
X029182Y012382D03*
X027662Y013662D03*
D24*
X027382Y012632D03*
X027682Y012572D03*
X027782Y011972D03*
X026862Y012212D03*
X026782Y012212D03*
X028882Y012212D03*
D25*
X028502Y012222D03*
X028442Y012222D03*
X027802Y011962D03*
X027722Y012382D03*
X027422Y012642D03*
X027402Y012642D03*
X027062Y012242D03*
X027042Y012242D03*
X027022Y012242D03*
X027082Y012222D03*
X026842Y012222D03*
X026802Y012202D03*
X028242Y011442D03*
D26*
X027822Y011952D03*
X027702Y011952D03*
X027742Y012372D03*
X027622Y012552D03*
X027602Y012572D03*
X027582Y012592D03*
X027102Y012212D03*
X026822Y012212D03*
X028222Y012552D03*
X028402Y012212D03*
X028422Y012212D03*
X028522Y012212D03*
X028862Y012192D03*
X028962Y012212D03*
X028982Y012212D03*
D27*
X028242Y012582D03*
X028222Y011502D03*
X026982Y012282D03*
X026902Y012242D03*
X026882Y012242D03*
D28*
X026922Y012252D03*
X027002Y012292D03*
X027322Y012592D03*
D29*
X027342Y012612D03*
X026942Y012292D03*
X027722Y011992D03*
X027742Y011992D03*
D30*
X027762Y011982D03*
X028142Y012362D03*
X028462Y012242D03*
X028482Y012242D03*
X028262Y012782D03*
X027842Y013242D03*
X027682Y013602D03*
X027362Y012622D03*
X026962Y012262D03*
D31*
X027122Y012202D03*
X027142Y012202D03*
X027162Y012182D03*
X027842Y011942D03*
X028362Y012202D03*
X028382Y012202D03*
X028922Y012182D03*
X028942Y012202D03*
X029002Y012222D03*
X029022Y012242D03*
X029082Y012282D03*
X028122Y012942D03*
D32*
X028162Y012362D03*
X027182Y012262D03*
D33*
X027202Y012272D03*
X028622Y012332D03*
D34*
X028582Y012332D03*
X028742Y012332D03*
X027222Y012272D03*
D35*
X027242Y012282D03*
X027262Y012282D03*
X028562Y012342D03*
D36*
X028542Y012502D03*
X028782Y012422D03*
X028822Y012182D03*
X029142Y012342D03*
X029162Y012362D03*
X028802Y012782D03*
X028322Y012202D03*
X027762Y012382D03*
X027502Y012662D03*
X027262Y012742D03*
X027862Y013202D03*
X027342Y012102D03*
D37*
X027282Y012282D03*
X028662Y012402D03*
X028682Y012402D03*
X028702Y012382D03*
X028722Y012362D03*
D38*
X028142Y011692D03*
X027302Y012392D03*
D39*
X027322Y012132D03*
X028342Y012212D03*
X028842Y012192D03*
X029042Y012252D03*
X029062Y012272D03*
X029102Y012312D03*
X029122Y012332D03*
X028102Y012932D03*
D40*
X028082Y012952D03*
X028142Y012912D03*
X028862Y012812D03*
X028882Y012812D03*
X028902Y012812D03*
X028922Y012812D03*
X028942Y012832D03*
X028962Y012832D03*
X028302Y012212D03*
X028282Y012232D03*
X027682Y011912D03*
X027402Y012072D03*
X027382Y012072D03*
X027362Y012092D03*
X028262Y011392D03*
D41*
X028202Y011542D03*
X027902Y012062D03*
X028182Y012382D03*
X028602Y012342D03*
X028762Y012322D03*
X028902Y012282D03*
X027822Y013282D03*
X027702Y013542D03*
D42*
X027722Y013482D03*
X027802Y013322D03*
D43*
X027742Y013412D03*
X027922Y012092D03*
D44*
X027762Y013352D03*
D45*
X027782Y013342D03*
D46*
X027862Y012132D03*
D47*
X027882Y012142D03*
D48*
X027942Y012032D03*
X027962Y011912D03*
D49*
X027982Y011872D03*
D50*
X028002Y011822D03*
D51*
X028022Y011792D03*
D52*
X028042Y011832D03*
D53*
X028062Y011802D03*
D54*
X028082Y011802D03*
D55*
X028102Y011792D03*
D56*
X028122Y011802D03*
D57*
X028162Y011642D03*
D58*
X028182Y011592D03*
X028642Y012412D03*
D59*
X028202Y012392D03*
D60*
X029722Y012092D02*
X029912Y011912D01*
X030152Y012072D01*
X030145Y012106D02*
X029787Y012106D01*
X029772Y012122D02*
X029922Y011972D01*
X030172Y012122D01*
X030422Y012022D01*
X030522Y011722D01*
X030472Y011722D01*
X030722Y011722D01*
X030772Y012022D01*
X031072Y012122D01*
X031272Y011922D01*
X031422Y012072D01*
X031272Y012372D01*
X031422Y012672D01*
X031422Y012622D01*
X031672Y012672D01*
X031672Y012922D01*
X031372Y012922D01*
X031272Y013222D01*
X031422Y013472D01*
X031322Y013622D01*
X031022Y013472D01*
X030772Y013572D01*
X030722Y013872D01*
X030472Y013872D01*
X030472Y013572D01*
X030122Y013472D01*
X029922Y013622D01*
X029772Y013472D01*
X029922Y013272D01*
X029872Y013172D01*
X030272Y012972D01*
X030472Y013172D01*
X030722Y013172D01*
X030972Y013022D01*
X031022Y012772D01*
X030922Y012472D01*
X030922Y012522D01*
X030672Y012372D01*
X030372Y012472D01*
X030272Y012572D01*
X029872Y012422D01*
X029922Y012322D01*
X029772Y012122D01*
X029804Y012165D02*
X031375Y012165D01*
X031346Y012223D02*
X029848Y012223D01*
X029892Y012282D02*
X031317Y012282D01*
X031287Y012340D02*
X029912Y012340D01*
X029892Y012332D02*
X029722Y012092D01*
X029846Y012047D02*
X030048Y012047D01*
X029950Y011989D02*
X029904Y011989D01*
X030211Y012106D02*
X031025Y012106D01*
X031042Y012082D02*
X031302Y011902D01*
X031482Y012092D01*
X031302Y012352D01*
X031285Y012399D02*
X030717Y012399D01*
X030814Y012457D02*
X031314Y012457D01*
X031344Y012516D02*
X030936Y012516D01*
X030922Y012516D02*
X030912Y012516D01*
X030956Y012574D02*
X031373Y012574D01*
X031402Y012602D02*
X031722Y012652D01*
X031722Y012922D01*
X031402Y012972D01*
X031351Y012984D02*
X030979Y012984D01*
X030991Y012926D02*
X031370Y012926D01*
X031331Y013043D02*
X030937Y013043D01*
X030839Y013101D02*
X031312Y013101D01*
X031292Y013160D02*
X030742Y013160D01*
X030460Y013160D02*
X029896Y013160D01*
X029895Y013218D02*
X031273Y013218D01*
X031302Y013222D02*
X031482Y013482D01*
X031302Y013672D01*
X031042Y013492D01*
X031100Y013511D02*
X031395Y013511D01*
X031410Y013453D02*
X029786Y013453D01*
X029811Y013511D02*
X030069Y013511D01*
X030152Y013502D02*
X029912Y013672D01*
X029722Y013482D01*
X029892Y013242D01*
X029832Y013142D01*
X030282Y012952D01*
X030284Y012984D02*
X030247Y012984D01*
X030343Y013043D02*
X030130Y013043D01*
X030013Y013101D02*
X030401Y013101D01*
X030152Y013502D02*
X030193Y013525D01*
X030236Y013546D01*
X030281Y013564D01*
X030326Y013579D01*
X030372Y013592D01*
X030419Y013602D01*
X030422Y013602D02*
X030472Y013902D01*
X030732Y013902D01*
X030792Y013602D01*
X030777Y013570D02*
X030464Y013570D01*
X030472Y013628D02*
X030762Y013628D01*
X030753Y013687D02*
X030472Y013687D01*
X030472Y013745D02*
X030743Y013745D01*
X030733Y013804D02*
X030472Y013804D01*
X030472Y013862D02*
X030723Y013862D01*
X030923Y013511D02*
X030259Y013511D01*
X029991Y013570D02*
X029870Y013570D01*
X029830Y013394D02*
X031375Y013394D01*
X031340Y013335D02*
X029874Y013335D01*
X029918Y013277D02*
X031305Y013277D01*
X031356Y013570D02*
X031217Y013570D01*
X031003Y012867D02*
X031672Y012867D01*
X031672Y012809D02*
X031014Y012809D01*
X031014Y012750D02*
X031672Y012750D01*
X031672Y012691D02*
X030995Y012691D01*
X030975Y012633D02*
X031402Y012633D01*
X031422Y012633D02*
X031478Y012633D01*
X031405Y012106D02*
X031087Y012106D01*
X031146Y012047D02*
X031397Y012047D01*
X031339Y011989D02*
X031204Y011989D01*
X031263Y011930D02*
X031280Y011930D01*
X030849Y012047D02*
X030357Y012047D01*
X030433Y011989D02*
X030766Y011989D01*
X030792Y011972D02*
X030732Y011672D01*
X030472Y011672D01*
X030422Y011972D01*
X030452Y011930D02*
X030756Y011930D01*
X030747Y011872D02*
X030472Y011872D01*
X030491Y011813D02*
X030737Y011813D01*
X030727Y011755D02*
X030511Y011755D01*
X029892Y012332D02*
X029832Y012432D01*
X030282Y012632D01*
X030328Y012516D02*
X030123Y012516D01*
X029966Y012457D02*
X030415Y012457D01*
X030591Y012399D02*
X029883Y012399D01*
X030155Y012075D02*
X030205Y012047D01*
X030257Y012023D01*
X030310Y012002D01*
X030365Y011985D01*
X030421Y011972D01*
X031305Y012355D02*
X031330Y012400D01*
X031353Y012447D01*
X031372Y012495D01*
X031389Y012544D01*
X031402Y012594D01*
X030292Y012632D02*
X030310Y012599D01*
X030331Y012569D01*
X030355Y012540D01*
X030382Y012514D01*
X030411Y012492D01*
X030443Y012472D01*
X030476Y012455D01*
X030511Y012442D01*
X030547Y012433D01*
X030584Y012427D01*
X030621Y012425D01*
X030658Y012427D01*
X030695Y012432D01*
X030731Y012442D01*
X030766Y012454D01*
X030800Y012471D01*
X030831Y012490D01*
X030861Y012513D01*
X030888Y012539D01*
X030912Y012567D01*
X030933Y012598D01*
X030951Y012630D01*
X030966Y012664D01*
X030977Y012700D01*
X030985Y012736D01*
X030989Y012773D01*
X030989Y012811D01*
X030985Y012848D01*
X030977Y012884D01*
X030966Y012920D01*
X030951Y012954D01*
X030933Y012986D01*
X030912Y013017D01*
X030888Y013045D01*
X030861Y013071D01*
X030831Y013094D01*
X030800Y013113D01*
X030766Y013130D01*
X030731Y013142D01*
X030695Y013152D01*
X030658Y013157D01*
X030621Y013159D01*
X030584Y013157D01*
X030547Y013151D01*
X030511Y013142D01*
X030476Y013129D01*
X030443Y013112D01*
X030411Y013092D01*
X030382Y013070D01*
X030355Y013044D01*
X030331Y013015D01*
X030310Y012985D01*
X030292Y012952D01*
X030792Y013601D02*
X030844Y013586D01*
X030895Y013567D01*
X030945Y013545D01*
X030993Y013520D01*
X031040Y013491D01*
X031303Y013226D02*
X031330Y013179D01*
X031353Y013130D01*
X031373Y013080D01*
X031390Y013029D01*
X031404Y012977D01*
X031037Y012083D02*
X030991Y012056D01*
X030943Y012032D01*
X030894Y012011D01*
X030843Y011993D01*
X030792Y011979D01*
M02*
