G75*
G70*
%OFA0B0*%
%FSLAX24Y24*%
%IPPOS*%
%LPD*%
%AMOC8*
5,1,8,0,0,1.08239X$1,22.5*
%
%ADD10R,0.1306X0.1306*%
%ADD11R,0.0476X0.0476*%
%ADD12C,0.0520*%
%ADD13R,0.0800X0.0800*%
%ADD14C,0.0800*%
%ADD15C,0.0660*%
%ADD16C,0.0740*%
%ADD17R,0.0740X0.0740*%
%ADD18C,0.2000*%
%ADD19C,0.0515*%
%ADD20C,0.0413*%
%ADD21C,0.0320*%
%ADD22C,0.0531*%
%ADD23C,0.0472*%
%ADD24C,0.0560*%
%ADD25C,0.0317*%
%ADD26C,0.0080*%
%ADD27C,0.0160*%
%ADD28C,0.0356*%
%ADD29C,0.0240*%
D10*
X004772Y003635D03*
X004772Y008808D03*
X004772Y010635D03*
X004772Y015808D03*
X004772Y017635D03*
X004772Y022808D03*
X004772Y024635D03*
X004772Y029808D03*
X030185Y029422D03*
X035358Y029422D03*
X039772Y029808D03*
X039772Y024635D03*
X039772Y022808D03*
X039772Y017635D03*
X039772Y015808D03*
X039772Y010635D03*
X039772Y008808D03*
X039772Y003635D03*
D11*
X038984Y004844D03*
X038394Y004647D03*
X038394Y005434D03*
X038984Y005828D03*
X038394Y006222D03*
X038984Y006615D03*
X038394Y007009D03*
X038984Y007600D03*
X038394Y007797D03*
X038394Y011647D03*
X038984Y011844D03*
X038394Y012434D03*
X038984Y012828D03*
X038394Y013222D03*
X038984Y013615D03*
X038394Y014009D03*
X038394Y014797D03*
X038984Y014600D03*
X038394Y018647D03*
X038984Y018844D03*
X038394Y019434D03*
X038984Y019828D03*
X038394Y020222D03*
X038984Y020615D03*
X038394Y021009D03*
X038394Y021797D03*
X038984Y021600D03*
X038394Y025647D03*
X038984Y025844D03*
X038394Y026434D03*
X038984Y026828D03*
X038394Y027222D03*
X038984Y027615D03*
X038394Y028009D03*
X038984Y028600D03*
X038394Y028797D03*
X034346Y028044D03*
X034150Y028634D03*
X033559Y028044D03*
X033165Y028634D03*
X032772Y028044D03*
X032378Y028634D03*
X031984Y028044D03*
X031197Y028044D03*
X031394Y028634D03*
X006150Y028797D03*
X005559Y028600D03*
X006150Y028009D03*
X005559Y027615D03*
X006150Y027222D03*
X005559Y026828D03*
X006150Y026434D03*
X005559Y025844D03*
X006150Y025647D03*
X006150Y021797D03*
X005559Y021600D03*
X006150Y021009D03*
X005559Y020615D03*
X006150Y020222D03*
X005559Y019828D03*
X006150Y019434D03*
X005559Y018844D03*
X006150Y018647D03*
X006150Y014797D03*
X005559Y014600D03*
X006150Y014009D03*
X005559Y013615D03*
X006150Y013222D03*
X005559Y012828D03*
X006150Y012434D03*
X005559Y011844D03*
X006150Y011647D03*
X006150Y007797D03*
X005559Y007600D03*
X006150Y007009D03*
X005559Y006615D03*
X006150Y006222D03*
X005559Y005828D03*
X006150Y005434D03*
X006150Y004647D03*
X005559Y004844D03*
D12*
X010012Y007422D02*
X010532Y007422D01*
X010532Y008422D02*
X010012Y008422D01*
X010012Y009422D02*
X010532Y009422D01*
X010532Y010422D02*
X010012Y010422D01*
X010012Y011422D02*
X010532Y011422D01*
X010532Y012422D02*
X010012Y012422D01*
X010012Y013422D02*
X010532Y013422D01*
X010532Y014422D02*
X010012Y014422D01*
X010012Y015422D02*
X010532Y015422D01*
X010532Y016422D02*
X010012Y016422D01*
X010012Y017422D02*
X010532Y017422D01*
X010532Y018422D02*
X010012Y018422D01*
X010012Y019422D02*
X010532Y019422D01*
X010532Y020422D02*
X010012Y020422D01*
X010012Y021422D02*
X010532Y021422D01*
X010532Y022422D02*
X010012Y022422D01*
X010012Y023422D02*
X010532Y023422D01*
X010532Y024422D02*
X010012Y024422D01*
X010012Y025422D02*
X010532Y025422D01*
X010532Y026422D02*
X010012Y026422D01*
X019012Y026422D02*
X019532Y026422D01*
X019532Y025422D02*
X019012Y025422D01*
X019012Y024422D02*
X019532Y024422D01*
X019532Y023422D02*
X019012Y023422D01*
X019012Y022422D02*
X019532Y022422D01*
X019532Y021422D02*
X019012Y021422D01*
X019012Y020422D02*
X019532Y020422D01*
X019532Y019422D02*
X019012Y019422D01*
X019012Y018422D02*
X019532Y018422D01*
X019532Y017422D02*
X019012Y017422D01*
X019012Y016422D02*
X019532Y016422D01*
X019532Y015422D02*
X019012Y015422D01*
X019012Y014422D02*
X019532Y014422D01*
X019532Y013422D02*
X019012Y013422D01*
X019012Y012422D02*
X019532Y012422D01*
X019532Y011422D02*
X019012Y011422D01*
X019012Y010422D02*
X019532Y010422D01*
X019532Y009422D02*
X019012Y009422D01*
X019012Y008422D02*
X019532Y008422D01*
X019532Y007422D02*
X019012Y007422D01*
X022722Y008262D02*
X022722Y008782D01*
X023722Y008782D02*
X023722Y008262D01*
X024722Y008262D02*
X024722Y008782D01*
X025722Y008782D02*
X025722Y008262D01*
X026722Y008262D02*
X026722Y008782D01*
X027722Y008782D02*
X027722Y008262D01*
X028722Y008262D02*
X028722Y008782D01*
X029722Y008782D02*
X029722Y008262D01*
X029722Y005782D02*
X029722Y005262D01*
X028722Y005262D02*
X028722Y005782D01*
X027722Y005782D02*
X027722Y005262D01*
X026722Y005262D02*
X026722Y005782D01*
X025722Y005782D02*
X025722Y005262D01*
X024722Y005262D02*
X024722Y005782D01*
X023722Y005782D02*
X023722Y005262D01*
X022722Y005262D02*
X022722Y005782D01*
D13*
X023672Y002622D03*
X028072Y002622D03*
X032472Y002622D03*
X019272Y002622D03*
X014272Y002622D03*
X009872Y002622D03*
D14*
X011840Y002622D03*
X016240Y002622D03*
X021240Y002622D03*
X025640Y002622D03*
X030040Y002622D03*
X034440Y002622D03*
D15*
X034322Y006142D02*
X034322Y006802D01*
X033322Y006802D02*
X033322Y006142D01*
X032322Y006142D02*
X032322Y006802D01*
D16*
X033922Y014522D03*
X033922Y015522D03*
X033922Y016522D03*
X033922Y017522D03*
X033922Y018522D03*
X033922Y019522D03*
X033922Y020522D03*
X033922Y021522D03*
X033922Y022522D03*
X033922Y023522D03*
X024653Y028463D03*
X023562Y028463D03*
X022472Y028463D03*
X021381Y028463D03*
X020838Y029581D03*
X021928Y029581D03*
X023015Y029581D03*
X024106Y029581D03*
X022922Y023522D03*
X022922Y022522D03*
X022922Y021522D03*
X022922Y020522D03*
X022922Y019522D03*
X022922Y018522D03*
X022922Y017522D03*
X022922Y016522D03*
X022922Y015522D03*
X022922Y014522D03*
X014972Y028822D03*
X013972Y028922D03*
X012972Y028822D03*
X011972Y028922D03*
X010972Y028822D03*
X009972Y028922D03*
D17*
X020291Y028463D03*
D18*
X017550Y029022D03*
X027393Y029022D03*
D19*
X024141Y022565D03*
X024141Y021778D03*
X024141Y020990D03*
X024141Y020203D03*
X024141Y019415D03*
X024141Y018628D03*
X024141Y017841D03*
X024141Y017053D03*
X024141Y016266D03*
X024141Y015478D03*
X032802Y015478D03*
X032802Y016266D03*
X032802Y017053D03*
X032802Y017841D03*
X032802Y018628D03*
X032802Y019415D03*
X032802Y020203D03*
X032802Y020990D03*
X032802Y021778D03*
X032802Y022565D03*
D20*
X036272Y020222D03*
X040672Y021622D03*
X041272Y018822D03*
X040672Y014622D03*
X041272Y011822D03*
X036272Y013222D03*
X040672Y007622D03*
X041272Y004822D03*
X036272Y006222D03*
X036272Y027222D03*
X040672Y028622D03*
X008272Y027222D03*
X003872Y025822D03*
X008272Y020222D03*
X003872Y018822D03*
X008272Y013222D03*
X003872Y011822D03*
X008272Y006222D03*
X003872Y004822D03*
D21*
X003372Y007622D02*
X003372Y001222D01*
X010440Y001222D01*
X011840Y002622D01*
X014272Y002622D02*
X015572Y001322D01*
X033472Y001322D01*
X041272Y001322D01*
X041272Y004822D01*
X041272Y011822D01*
X041272Y018822D01*
X041272Y025822D01*
X021872Y031102D02*
X003372Y031102D01*
X003372Y028622D01*
X003372Y021622D01*
X003372Y014622D01*
X003372Y007622D01*
D22*
X041272Y025822D03*
D23*
X021872Y031102D03*
X003372Y028622D03*
X003372Y021622D03*
X003372Y014622D03*
X003372Y007622D03*
X033472Y001322D03*
D24*
X022722Y008522D02*
X020622Y006422D01*
X012772Y006422D01*
X009872Y003522D01*
X009872Y002622D01*
X011840Y002622D02*
X014272Y002622D01*
D25*
X007652Y007022D03*
X006992Y007822D03*
X007312Y005822D03*
X015372Y011922D03*
X007652Y014022D03*
X006992Y014822D03*
X006672Y016422D03*
X007312Y019822D03*
X007652Y021022D03*
X006992Y021822D03*
X007312Y026822D03*
X007652Y028022D03*
X006992Y028822D03*
X018372Y023922D03*
X021172Y024622D03*
X022672Y025622D03*
X023372Y025922D03*
X023372Y025322D03*
X021372Y019422D03*
X007312Y012822D03*
X036912Y012422D03*
X037552Y011622D03*
X037232Y013622D03*
X037552Y018622D03*
X036912Y019422D03*
X037232Y020622D03*
X037232Y023822D03*
X037552Y024122D03*
X037872Y024422D03*
X037552Y025622D03*
X036912Y026422D03*
X037232Y027622D03*
X037232Y006622D03*
X036912Y005422D03*
X037552Y004622D03*
D26*
X037552Y011622D01*
X037552Y018622D01*
X037552Y024122D01*
X037552Y025622D01*
X036912Y026422D02*
X036912Y019422D01*
X036912Y012422D01*
X036912Y011022D01*
X036912Y005422D01*
X037232Y006622D02*
X037232Y013622D01*
X037232Y020622D01*
X037232Y023822D01*
X037232Y027622D01*
X037872Y028009D02*
X038394Y028009D01*
X037872Y028009D02*
X037872Y024422D01*
X037872Y021009D01*
X038394Y021009D01*
X037872Y021009D02*
X037872Y014009D01*
X038394Y014009D01*
X037872Y014009D02*
X037872Y007009D01*
X038394Y007009D01*
X028722Y005522D02*
X027622Y004422D01*
X027172Y004422D01*
X027072Y004922D02*
X025372Y004922D01*
X025372Y009222D01*
X027072Y009222D01*
X027072Y004922D01*
X027072Y004934D02*
X025372Y004934D01*
X025372Y005013D02*
X027072Y005013D01*
X027072Y005091D02*
X025372Y005091D01*
X025372Y005170D02*
X027072Y005170D01*
X027072Y005249D02*
X025372Y005249D01*
X025372Y005327D02*
X027072Y005327D01*
X027072Y005406D02*
X025372Y005406D01*
X025372Y005484D02*
X027072Y005484D01*
X027072Y005563D02*
X025372Y005563D01*
X025372Y005641D02*
X027072Y005641D01*
X027072Y005720D02*
X025372Y005720D01*
X025372Y005798D02*
X027072Y005798D01*
X027072Y005877D02*
X025372Y005877D01*
X025372Y005955D02*
X027072Y005955D01*
X027072Y006034D02*
X025372Y006034D01*
X025372Y006112D02*
X027072Y006112D01*
X027072Y006191D02*
X025372Y006191D01*
X025372Y006270D02*
X027072Y006270D01*
X027072Y006348D02*
X025372Y006348D01*
X025372Y006427D02*
X027072Y006427D01*
X027072Y006505D02*
X025372Y006505D01*
X025372Y006584D02*
X027072Y006584D01*
X027072Y006662D02*
X025372Y006662D01*
X025372Y006741D02*
X027072Y006741D01*
X027072Y006819D02*
X025372Y006819D01*
X025372Y006898D02*
X027072Y006898D01*
X027072Y006976D02*
X025372Y006976D01*
X025372Y007055D02*
X027072Y007055D01*
X027072Y007134D02*
X025372Y007134D01*
X025372Y007212D02*
X027072Y007212D01*
X027072Y007291D02*
X025372Y007291D01*
X025372Y007369D02*
X027072Y007369D01*
X027072Y007448D02*
X025372Y007448D01*
X025372Y007526D02*
X027072Y007526D01*
X027072Y007605D02*
X025372Y007605D01*
X025372Y007683D02*
X027072Y007683D01*
X027072Y007762D02*
X025372Y007762D01*
X025372Y007840D02*
X027072Y007840D01*
X027072Y007919D02*
X025372Y007919D01*
X025372Y007998D02*
X027072Y007998D01*
X027072Y008076D02*
X025372Y008076D01*
X025372Y008155D02*
X027072Y008155D01*
X027072Y008233D02*
X025372Y008233D01*
X025372Y008312D02*
X027072Y008312D01*
X027072Y008390D02*
X025372Y008390D01*
X025372Y008469D02*
X027072Y008469D01*
X027072Y008547D02*
X025372Y008547D01*
X025372Y008626D02*
X027072Y008626D01*
X027072Y008704D02*
X025372Y008704D01*
X025372Y008783D02*
X027072Y008783D01*
X027072Y008861D02*
X025372Y008861D01*
X025372Y008940D02*
X027072Y008940D01*
X027072Y009019D02*
X025372Y009019D01*
X025372Y009097D02*
X027072Y009097D01*
X027072Y009176D02*
X025372Y009176D01*
X023722Y008522D02*
X021822Y010422D01*
X019272Y010422D01*
X019272Y007422D02*
X013972Y007422D01*
X012172Y009222D01*
X012172Y014322D01*
X011772Y014822D02*
X011772Y007422D01*
X010272Y007422D01*
X010272Y008422D02*
X011272Y008422D01*
X011272Y015322D01*
X011272Y016022D02*
X011272Y018422D01*
X010272Y019422D01*
X010272Y018422D02*
X008872Y018422D01*
X008872Y023922D01*
X011472Y023922D01*
X011472Y024922D02*
X008672Y024922D01*
X008672Y017422D01*
X010272Y017422D01*
X011272Y016022D02*
X015372Y011922D01*
X013672Y012822D02*
X012672Y012822D01*
X010272Y012422D02*
X009272Y012422D01*
X008672Y011822D01*
X008672Y011022D01*
X009272Y011422D02*
X010272Y010422D01*
X009272Y011422D02*
X009272Y011722D01*
X008672Y012322D02*
X008672Y016122D01*
X006992Y014822D02*
X006992Y007822D01*
X007652Y007022D02*
X007652Y014022D01*
X007652Y021022D01*
X007652Y028022D01*
X006992Y028822D02*
X006992Y021822D01*
X006992Y014822D01*
X006672Y016422D02*
X006672Y016522D01*
X006672Y019434D01*
X006672Y026434D01*
X006150Y026434D01*
X007312Y026822D02*
X007312Y019822D01*
X007312Y012822D01*
X007312Y005822D01*
X006672Y005434D02*
X006672Y012434D01*
X006672Y016422D01*
X006672Y019434D02*
X006150Y019434D01*
X010272Y020422D02*
X016872Y020422D01*
X018372Y021922D01*
X019972Y021922D01*
X023372Y025322D01*
X023372Y025922D02*
X022472Y025922D01*
X021172Y024622D01*
X020672Y024722D02*
X020672Y023422D01*
X020272Y023622D02*
X020272Y024822D01*
X021572Y026122D01*
X022572Y026122D01*
X022672Y026222D01*
X022672Y025622D02*
X022372Y025322D01*
X022372Y024622D01*
X020672Y022922D01*
X018372Y022922D01*
X016872Y021422D01*
X010272Y021422D01*
X010272Y022422D02*
X016872Y022422D01*
X018372Y023922D01*
X020672Y024722D02*
X021472Y025522D01*
X021021Y025922D02*
X012672Y025922D01*
X021021Y025922D02*
X023562Y028463D01*
X022922Y022522D02*
X021372Y020972D01*
X021372Y019422D01*
X006672Y012434D02*
X006150Y012434D01*
X006150Y005434D02*
X006672Y005434D01*
X019572Y004122D02*
X023372Y004122D01*
X023722Y004472D01*
X023722Y005522D01*
X022372Y004622D02*
X020572Y004622D01*
D27*
X015772Y001722D02*
X033072Y001722D01*
X033172Y001822D01*
X033772Y001822D01*
X033872Y001722D01*
X036972Y001722D01*
X039472Y001722D01*
X040672Y002922D01*
X040672Y007622D01*
X040672Y014622D01*
X040672Y021622D01*
X040672Y028622D01*
X036272Y027222D02*
X036272Y030322D01*
X024072Y030322D01*
X024106Y030288D01*
X024106Y029581D01*
X024072Y030322D02*
X019272Y030322D01*
X019272Y026422D01*
X019272Y030322D02*
X009972Y030322D01*
X008272Y030322D01*
X008272Y027222D01*
X008272Y020222D01*
X008272Y013222D01*
X008272Y006222D01*
X010972Y003222D02*
X010972Y002322D01*
X010272Y001622D01*
X003872Y001622D01*
X003872Y004822D01*
X003872Y011822D01*
X003872Y018822D01*
X003872Y025822D01*
X003872Y030662D01*
X008672Y030662D01*
X023072Y030662D01*
X034072Y030662D01*
X036272Y027222D02*
X036272Y020222D01*
X036272Y013222D01*
X036272Y006222D01*
X034372Y006472D02*
X034372Y007722D01*
X029722Y007722D01*
X029722Y005522D01*
X029722Y008522D01*
X034322Y006472D02*
X034372Y006472D01*
X034322Y006472D02*
X034322Y004372D01*
X036972Y001722D01*
X015772Y001722D02*
X015172Y002322D01*
X015172Y003222D01*
X010972Y003222D01*
X010272Y025422D02*
X008672Y025422D01*
X008672Y028222D01*
X010972Y028222D01*
X010972Y028822D01*
X009972Y028922D02*
X009972Y030322D01*
X008672Y029922D02*
X008672Y028222D01*
D28*
X008672Y029922D03*
X008672Y030662D03*
X012672Y025922D03*
X011472Y024922D03*
X011472Y023922D03*
X020272Y023622D03*
X020672Y023422D03*
X021472Y025522D03*
X022672Y026222D03*
X023072Y030662D03*
X034072Y030662D03*
X012172Y014322D03*
X011772Y014822D03*
X011272Y015322D03*
X008672Y016122D03*
X012672Y012822D03*
X013672Y012822D03*
X009272Y011722D03*
X008672Y012322D03*
X008672Y011022D03*
X019572Y004122D03*
X020572Y004622D03*
X022372Y004622D03*
X027172Y004422D03*
X036912Y011022D03*
D29*
X002992Y007399D02*
X002992Y000442D01*
X041852Y000442D01*
X041852Y031492D01*
X022070Y031492D01*
X022119Y031471D01*
X041852Y031471D01*
X041852Y031232D02*
X022290Y031232D01*
X022308Y031189D02*
X022241Y031349D01*
X022119Y031471D01*
X022308Y031189D02*
X022308Y031015D01*
X022277Y030942D01*
X022817Y030942D01*
X022857Y030982D01*
X022996Y031040D01*
X023147Y031040D01*
X023286Y030982D01*
X023326Y030942D01*
X033817Y030942D01*
X033857Y030982D01*
X033996Y031040D01*
X034147Y031040D01*
X034286Y030982D01*
X034392Y030876D01*
X034450Y030737D01*
X034450Y030602D01*
X036216Y030602D01*
X036327Y030602D01*
X036430Y030559D01*
X036509Y030480D01*
X036552Y030377D01*
X036552Y030244D01*
X036710Y030402D01*
X037023Y030532D01*
X037361Y030532D01*
X037673Y030402D01*
X037912Y030163D01*
X038042Y029851D01*
X038042Y029513D01*
X037912Y029200D01*
X037673Y028961D01*
X037361Y028832D01*
X037023Y028832D01*
X036710Y028961D01*
X036552Y029120D01*
X036552Y027517D01*
X036616Y027452D01*
X036678Y027303D01*
X036678Y027141D01*
X036616Y026991D01*
X036552Y026927D01*
X036552Y020517D01*
X036616Y020452D01*
X036672Y020319D01*
X036672Y026155D01*
X036608Y026219D01*
X036553Y026350D01*
X036553Y026493D01*
X036608Y026625D01*
X036709Y026726D01*
X036840Y026780D01*
X036983Y026780D01*
X036992Y026776D01*
X036992Y027355D01*
X036928Y027419D01*
X036873Y027550D01*
X036873Y027693D01*
X036928Y027825D01*
X037029Y027926D01*
X037160Y027980D01*
X037303Y027980D01*
X037435Y027926D01*
X037535Y027825D01*
X037590Y027693D01*
X037590Y027550D01*
X037535Y027419D01*
X037472Y027355D01*
X037472Y025976D01*
X037480Y025980D01*
X037623Y025980D01*
X037632Y025976D01*
X037632Y027961D01*
X037632Y028057D01*
X037668Y028145D01*
X037736Y028213D01*
X037824Y028249D01*
X037956Y028249D01*
X037956Y028330D01*
X038029Y028403D01*
X037956Y028476D01*
X037956Y029117D01*
X038073Y029234D01*
X038714Y029234D01*
X038831Y029117D01*
X038831Y029037D01*
X038933Y029037D01*
X038914Y029071D01*
X038899Y029127D01*
X038899Y029702D01*
X039665Y029702D01*
X039665Y029915D01*
X039665Y030681D01*
X039090Y030681D01*
X039034Y030666D01*
X038984Y030637D01*
X038943Y030596D01*
X038914Y030546D01*
X038899Y030490D01*
X038899Y029915D01*
X039665Y029915D01*
X039878Y029915D01*
X039878Y030681D01*
X040453Y030681D01*
X040509Y030666D01*
X040559Y030637D01*
X040600Y030596D01*
X040629Y030546D01*
X040644Y030490D01*
X040644Y029915D01*
X039878Y029915D01*
X039878Y029702D01*
X040644Y029702D01*
X040644Y029127D01*
X040629Y029071D01*
X040605Y029028D01*
X040753Y029028D01*
X040902Y028966D01*
X041016Y028852D01*
X041078Y028703D01*
X041078Y028541D01*
X041016Y028391D01*
X040952Y028327D01*
X040952Y026160D01*
X041008Y026217D01*
X041179Y026287D01*
X041364Y026287D01*
X041535Y026217D01*
X041666Y026086D01*
X041737Y025914D01*
X041737Y025729D01*
X041666Y025558D01*
X041632Y025523D01*
X041632Y019015D01*
X041678Y018903D01*
X041678Y018741D01*
X041632Y018628D01*
X041632Y012015D01*
X041678Y011903D01*
X041678Y011741D01*
X041632Y011628D01*
X041632Y005015D01*
X041678Y004903D01*
X041678Y004741D01*
X041632Y004628D01*
X041632Y001393D01*
X041632Y001250D01*
X041577Y001118D01*
X041476Y001017D01*
X041343Y000962D01*
X033729Y000962D01*
X033719Y000952D01*
X033558Y000886D01*
X033385Y000886D01*
X033225Y000952D01*
X033215Y000962D01*
X015500Y000962D01*
X015368Y001017D01*
X015266Y001118D01*
X014363Y002022D01*
X013789Y002022D01*
X013672Y002139D01*
X013672Y002142D01*
X012209Y002142D01*
X012180Y002113D01*
X011959Y002022D01*
X011749Y002022D01*
X010745Y001018D01*
X010644Y000917D01*
X010512Y000862D01*
X003443Y000862D01*
X003300Y000862D01*
X003168Y000917D01*
X003066Y001018D01*
X003012Y001150D01*
X003012Y007365D01*
X003002Y007375D01*
X002992Y007399D01*
X002992Y007378D02*
X003000Y007378D01*
X002992Y007139D02*
X003012Y007139D01*
X002992Y006901D02*
X003012Y006901D01*
X002992Y006662D02*
X003012Y006662D01*
X002992Y006424D02*
X003012Y006424D01*
X002992Y006185D02*
X003012Y006185D01*
X002992Y005947D02*
X003012Y005947D01*
X002992Y005708D02*
X003012Y005708D01*
X002992Y005470D02*
X003012Y005470D01*
X002992Y005231D02*
X003012Y005231D01*
X002992Y004993D02*
X003012Y004993D01*
X002992Y004754D02*
X003012Y004754D01*
X002992Y004516D02*
X003012Y004516D01*
X002992Y004277D02*
X003012Y004277D01*
X002992Y004038D02*
X003012Y004038D01*
X002992Y003800D02*
X003012Y003800D01*
X002992Y003561D02*
X003012Y003561D01*
X002992Y003323D02*
X003012Y003323D01*
X002992Y003084D02*
X003012Y003084D01*
X002992Y002846D02*
X003012Y002846D01*
X002992Y002607D02*
X003012Y002607D01*
X002992Y002369D02*
X003012Y002369D01*
X002992Y002130D02*
X003012Y002130D01*
X002992Y001892D02*
X003012Y001892D01*
X002992Y001653D02*
X003012Y001653D01*
X002992Y001414D02*
X003012Y001414D01*
X002992Y001176D02*
X003012Y001176D01*
X002992Y000937D02*
X003147Y000937D01*
X002992Y000699D02*
X041852Y000699D01*
X041852Y000937D02*
X033684Y000937D01*
X033260Y000937D02*
X010665Y000937D01*
X010903Y001176D02*
X015208Y001176D01*
X014970Y001414D02*
X011142Y001414D01*
X011381Y001653D02*
X014731Y001653D01*
X014493Y001892D02*
X011619Y001892D01*
X012197Y002130D02*
X013680Y002130D01*
X015452Y002438D02*
X015452Y003166D01*
X015452Y003277D01*
X015409Y003380D01*
X015330Y003459D01*
X015227Y003502D01*
X011027Y003502D01*
X010916Y003502D01*
X010813Y003459D01*
X010734Y003380D01*
X010692Y003277D01*
X010692Y002438D01*
X010472Y002218D01*
X010472Y003105D01*
X010354Y003222D01*
X010352Y003222D01*
X010352Y003323D01*
X012970Y005942D01*
X020526Y005942D01*
X020717Y005942D01*
X020894Y006015D01*
X022680Y007802D01*
X022813Y007802D01*
X022982Y007872D01*
X023112Y008001D01*
X023182Y008170D01*
X023182Y008378D01*
X023202Y008426D01*
X023202Y008617D01*
X023182Y008665D01*
X023182Y008722D01*
X023262Y008642D01*
X023262Y008170D01*
X023332Y008001D01*
X023461Y007872D01*
X023630Y007802D01*
X023813Y007802D01*
X023982Y007872D01*
X024112Y008001D01*
X024182Y008170D01*
X024182Y008873D01*
X024112Y009042D01*
X023982Y009172D01*
X023813Y009242D01*
X023630Y009242D01*
X023461Y009172D01*
X023436Y009147D01*
X021958Y010625D01*
X021869Y010662D01*
X021774Y010662D01*
X019930Y010662D01*
X019922Y010682D01*
X019792Y010812D01*
X019623Y010882D01*
X018920Y010882D01*
X018751Y010812D01*
X018622Y010682D01*
X018552Y010513D01*
X018552Y010330D01*
X018622Y010161D01*
X018751Y010032D01*
X018920Y009962D01*
X019623Y009962D01*
X019792Y010032D01*
X019922Y010161D01*
X019930Y010182D01*
X021722Y010182D01*
X022662Y009242D01*
X022630Y009242D01*
X022461Y009172D01*
X022332Y009042D01*
X022262Y008873D01*
X022262Y008741D01*
X020423Y006902D01*
X012676Y006902D01*
X012500Y006829D01*
X012365Y006694D01*
X009465Y003794D01*
X009392Y003617D01*
X009392Y003426D01*
X009392Y003222D01*
X009389Y003222D01*
X009272Y003105D01*
X009272Y002139D01*
X009389Y002022D01*
X010276Y002022D01*
X010156Y001902D01*
X004152Y001902D01*
X004152Y002762D01*
X004665Y002762D01*
X004665Y003528D01*
X004878Y003528D01*
X004878Y002762D01*
X005453Y002762D01*
X005509Y002777D01*
X005559Y002806D01*
X005600Y002847D01*
X005629Y002897D01*
X005644Y002953D01*
X005644Y003529D01*
X004878Y003529D01*
X004878Y003741D01*
X005644Y003741D01*
X005644Y004317D01*
X005629Y004373D01*
X005610Y004406D01*
X005712Y004406D01*
X005712Y004326D01*
X005829Y004209D01*
X006470Y004209D01*
X006587Y004326D01*
X006587Y004968D01*
X006514Y005041D01*
X006587Y005114D01*
X006587Y005194D01*
X006624Y005194D01*
X006719Y005194D01*
X006808Y005231D01*
X010902Y005231D01*
X010664Y004993D02*
X006562Y004993D01*
X006587Y004754D02*
X010425Y004754D01*
X010187Y004516D02*
X006587Y004516D01*
X006538Y004277D02*
X009948Y004277D01*
X009710Y004038D02*
X005644Y004038D01*
X005644Y003800D02*
X009471Y003800D01*
X009392Y003561D02*
X007682Y003561D01*
X007561Y003612D02*
X007873Y003482D01*
X008112Y003243D01*
X008242Y002931D01*
X008242Y002593D01*
X008112Y002280D01*
X007873Y002041D01*
X007561Y001912D01*
X007223Y001912D01*
X006910Y002041D01*
X006671Y002280D01*
X006542Y002593D01*
X006542Y002931D01*
X006671Y003243D01*
X006910Y003482D01*
X007223Y003612D01*
X007561Y003612D01*
X007101Y003561D02*
X004878Y003561D01*
X004878Y003742D02*
X004665Y003742D01*
X004665Y004508D01*
X004152Y004508D01*
X004152Y004527D01*
X004216Y004591D01*
X004278Y004741D01*
X004278Y004903D01*
X004216Y005052D01*
X004152Y005117D01*
X004152Y007936D01*
X004665Y007936D01*
X004665Y008702D01*
X004878Y008702D01*
X004878Y008915D01*
X004665Y008915D01*
X004665Y009681D01*
X004152Y009681D01*
X004152Y009762D01*
X004665Y009762D01*
X004665Y010528D01*
X004878Y010528D01*
X004878Y009762D01*
X005453Y009762D01*
X005509Y009777D01*
X005559Y009806D01*
X005600Y009847D01*
X005629Y009897D01*
X005644Y009953D01*
X005644Y010529D01*
X004878Y010529D01*
X004878Y010741D01*
X005644Y010741D01*
X005644Y011317D01*
X005629Y011373D01*
X005610Y011406D01*
X005712Y011406D01*
X005712Y011326D01*
X005829Y011209D01*
X006432Y011209D01*
X006432Y008234D01*
X005829Y008234D01*
X005712Y008117D01*
X005712Y008037D01*
X005610Y008037D01*
X005629Y008071D01*
X005644Y008127D01*
X005644Y008702D01*
X004878Y008702D01*
X004878Y007936D01*
X005137Y007936D01*
X005121Y007920D01*
X005121Y007279D01*
X005238Y007162D01*
X005712Y007162D01*
X005712Y007053D01*
X005238Y007053D01*
X005121Y006936D01*
X005121Y006295D01*
X005194Y006222D01*
X005121Y006149D01*
X005121Y005507D01*
X005238Y005390D01*
X005712Y005390D01*
X005712Y005282D01*
X005238Y005282D01*
X005121Y005164D01*
X005121Y004523D01*
X005137Y004508D01*
X004878Y004508D01*
X004878Y003742D01*
X004878Y003800D02*
X004665Y003800D01*
X004665Y004038D02*
X004878Y004038D01*
X004878Y004277D02*
X004665Y004277D01*
X005129Y004516D02*
X004152Y004516D01*
X004278Y004754D02*
X005121Y004754D01*
X005121Y004993D02*
X004241Y004993D01*
X004152Y005231D02*
X005188Y005231D01*
X005159Y005470D02*
X004152Y005470D01*
X004152Y005708D02*
X005121Y005708D01*
X005121Y005947D02*
X004152Y005947D01*
X004152Y006185D02*
X005158Y006185D01*
X005121Y006424D02*
X004152Y006424D01*
X004152Y006662D02*
X005121Y006662D01*
X005121Y006901D02*
X004152Y006901D01*
X004152Y007139D02*
X005712Y007139D01*
X005121Y007378D02*
X004152Y007378D01*
X004152Y007617D02*
X005121Y007617D01*
X005121Y007855D02*
X004152Y007855D01*
X004665Y008094D02*
X004878Y008094D01*
X004878Y008332D02*
X004665Y008332D01*
X004665Y008571D02*
X004878Y008571D01*
X004878Y008809D02*
X006432Y008809D01*
X006432Y008571D02*
X005644Y008571D01*
X005644Y008332D02*
X006432Y008332D01*
X006432Y009048D02*
X005644Y009048D01*
X005644Y008915D02*
X005644Y009490D01*
X005629Y009546D01*
X005600Y009596D01*
X005559Y009637D01*
X005509Y009666D01*
X005453Y009681D01*
X004878Y009681D01*
X004878Y008915D01*
X005644Y008915D01*
X005644Y009286D02*
X006432Y009286D01*
X006432Y009525D02*
X005635Y009525D01*
X005457Y009763D02*
X006432Y009763D01*
X006432Y010002D02*
X005644Y010002D01*
X005644Y010241D02*
X006432Y010241D01*
X006432Y010479D02*
X005644Y010479D01*
X005644Y010956D02*
X006432Y010956D01*
X006432Y010718D02*
X004878Y010718D01*
X004878Y010742D02*
X004665Y010742D01*
X004665Y011508D01*
X004152Y011508D01*
X004152Y011527D01*
X004216Y011591D01*
X004278Y011741D01*
X004278Y011903D01*
X004216Y012052D01*
X004152Y012117D01*
X004152Y014936D01*
X004665Y014936D01*
X004665Y015702D01*
X004878Y015702D01*
X004878Y015915D01*
X004665Y015915D01*
X004665Y016681D01*
X004152Y016681D01*
X004152Y016762D01*
X004665Y016762D01*
X004665Y017528D01*
X004878Y017528D01*
X004878Y016762D01*
X005453Y016762D01*
X005509Y016777D01*
X005559Y016806D01*
X005600Y016847D01*
X005629Y016897D01*
X005644Y016953D01*
X005644Y017529D01*
X004878Y017529D01*
X004878Y017741D01*
X005644Y017741D01*
X005644Y018317D01*
X005629Y018373D01*
X005610Y018406D01*
X005712Y018406D01*
X005712Y018326D01*
X005829Y018209D01*
X006432Y018209D01*
X006432Y016689D01*
X006368Y016625D01*
X006313Y016493D01*
X006313Y016350D01*
X006368Y016219D01*
X006432Y016155D01*
X006432Y015234D01*
X005829Y015234D01*
X005712Y015117D01*
X005712Y015037D01*
X005610Y015037D01*
X005629Y015071D01*
X005644Y015127D01*
X005644Y015702D01*
X004878Y015702D01*
X004878Y014936D01*
X005137Y014936D01*
X005121Y014920D01*
X005121Y014279D01*
X005238Y014162D01*
X005712Y014162D01*
X005712Y014053D01*
X005238Y014053D01*
X005121Y013936D01*
X005121Y013295D01*
X005194Y013222D01*
X005121Y013149D01*
X005121Y012507D01*
X005238Y012390D01*
X005712Y012390D01*
X005712Y012282D01*
X005238Y012282D01*
X005121Y012164D01*
X005121Y011523D01*
X005137Y011508D01*
X004878Y011508D01*
X004878Y010742D01*
X004878Y010956D02*
X004665Y010956D01*
X004665Y011195D02*
X004878Y011195D01*
X004878Y011433D02*
X004665Y011433D01*
X004250Y011672D02*
X005121Y011672D01*
X005121Y011910D02*
X004275Y011910D01*
X004152Y012149D02*
X005121Y012149D01*
X005121Y012626D02*
X004152Y012626D01*
X004152Y012387D02*
X005712Y012387D01*
X005121Y012865D02*
X004152Y012865D01*
X004152Y013103D02*
X005121Y013103D01*
X005121Y013342D02*
X004152Y013342D01*
X004152Y013580D02*
X005121Y013580D01*
X005121Y013819D02*
X004152Y013819D01*
X004152Y014057D02*
X005712Y014057D01*
X005121Y014296D02*
X004152Y014296D01*
X004152Y014534D02*
X005121Y014534D01*
X005121Y014773D02*
X004152Y014773D01*
X004665Y015011D02*
X004878Y015011D01*
X004878Y015250D02*
X004665Y015250D01*
X004665Y015489D02*
X004878Y015489D01*
X004878Y015727D02*
X006432Y015727D01*
X006432Y015489D02*
X005644Y015489D01*
X005644Y015250D02*
X006432Y015250D01*
X006432Y015966D02*
X005644Y015966D01*
X005644Y015915D02*
X005644Y016490D01*
X005629Y016546D01*
X005600Y016596D01*
X005559Y016637D01*
X005509Y016666D01*
X005453Y016681D01*
X004878Y016681D01*
X004878Y015915D01*
X005644Y015915D01*
X005644Y016204D02*
X006382Y016204D01*
X006313Y016443D02*
X005644Y016443D01*
X005635Y016920D02*
X006432Y016920D01*
X006432Y017158D02*
X005644Y017158D01*
X005644Y017397D02*
X006432Y017397D01*
X006432Y017635D02*
X004878Y017635D01*
X004878Y017742D02*
X004665Y017742D01*
X004665Y018508D01*
X004152Y018508D01*
X004152Y018527D01*
X004216Y018591D01*
X004278Y018741D01*
X004278Y018903D01*
X004216Y019052D01*
X004152Y019117D01*
X004152Y021936D01*
X004665Y021936D01*
X004665Y022702D01*
X004878Y022702D01*
X004878Y022915D01*
X004665Y022915D01*
X004665Y023681D01*
X004152Y023681D01*
X004152Y023762D01*
X004665Y023762D01*
X004665Y024528D01*
X004878Y024528D01*
X004878Y023762D01*
X005453Y023762D01*
X005509Y023777D01*
X005559Y023806D01*
X005600Y023847D01*
X005629Y023897D01*
X005644Y023953D01*
X005644Y024529D01*
X004878Y024529D01*
X004878Y024741D01*
X005644Y024741D01*
X005644Y025317D01*
X005629Y025373D01*
X005610Y025406D01*
X005712Y025406D01*
X005712Y025326D01*
X005829Y025209D01*
X006432Y025209D01*
X006432Y022234D01*
X005829Y022234D01*
X005712Y022117D01*
X005712Y022037D01*
X005610Y022037D01*
X005629Y022071D01*
X005644Y022127D01*
X005644Y022702D01*
X004878Y022702D01*
X004878Y021936D01*
X005137Y021936D01*
X005121Y021920D01*
X005121Y021279D01*
X005238Y021162D01*
X005712Y021162D01*
X005712Y021053D01*
X005238Y021053D01*
X005121Y020936D01*
X005121Y020295D01*
X005194Y020222D01*
X005121Y020149D01*
X005121Y019507D01*
X005238Y019390D01*
X005712Y019390D01*
X005712Y019282D01*
X005238Y019282D01*
X005121Y019164D01*
X005121Y018523D01*
X005137Y018508D01*
X004878Y018508D01*
X004878Y017742D01*
X004878Y017874D02*
X004665Y017874D01*
X004665Y018112D02*
X004878Y018112D01*
X004878Y018351D02*
X004665Y018351D01*
X004215Y018590D02*
X005121Y018590D01*
X005121Y018828D02*
X004278Y018828D01*
X004202Y019067D02*
X005121Y019067D01*
X005712Y019305D02*
X004152Y019305D01*
X004152Y019544D02*
X005121Y019544D01*
X005121Y019782D02*
X004152Y019782D01*
X004152Y020021D02*
X005121Y020021D01*
X005157Y020259D02*
X004152Y020259D01*
X004152Y020498D02*
X005121Y020498D01*
X005121Y020736D02*
X004152Y020736D01*
X004152Y020975D02*
X005160Y020975D01*
X005187Y021214D02*
X004152Y021214D01*
X004152Y021452D02*
X005121Y021452D01*
X005121Y021691D02*
X004152Y021691D01*
X004152Y021929D02*
X005130Y021929D01*
X004878Y022168D02*
X004665Y022168D01*
X004665Y022406D02*
X004878Y022406D01*
X004878Y022645D02*
X004665Y022645D01*
X004878Y022883D02*
X006432Y022883D01*
X006432Y022645D02*
X005644Y022645D01*
X005644Y022406D02*
X006432Y022406D01*
X005762Y022168D02*
X005644Y022168D01*
X005644Y022915D02*
X004878Y022915D01*
X004878Y023681D01*
X005453Y023681D01*
X005509Y023666D01*
X005559Y023637D01*
X005600Y023596D01*
X005629Y023546D01*
X005644Y023490D01*
X005644Y022915D01*
X005644Y023122D02*
X006432Y023122D01*
X006432Y023360D02*
X005644Y023360D01*
X005598Y023599D02*
X006432Y023599D01*
X006432Y023838D02*
X005591Y023838D01*
X005644Y024076D02*
X006432Y024076D01*
X006432Y024315D02*
X005644Y024315D01*
X005644Y024792D02*
X006432Y024792D01*
X006432Y025030D02*
X005644Y025030D01*
X005644Y025269D02*
X005769Y025269D01*
X005137Y025508D02*
X004878Y025508D01*
X004878Y024742D01*
X004665Y024742D01*
X004665Y025508D01*
X004152Y025508D01*
X004152Y025527D01*
X004216Y025591D01*
X004278Y025741D01*
X004278Y025903D01*
X004216Y026052D01*
X004152Y026117D01*
X004152Y028936D01*
X004665Y028936D01*
X004665Y029702D01*
X004878Y029702D01*
X004878Y029915D01*
X005644Y029915D01*
X005644Y030382D01*
X006890Y030382D01*
X006671Y030163D01*
X006542Y029851D01*
X006542Y029513D01*
X006671Y029200D01*
X006767Y029104D01*
X006688Y029025D01*
X006633Y028893D01*
X006633Y028750D01*
X006688Y028619D01*
X006752Y028555D01*
X006752Y026661D01*
X006719Y026674D01*
X006624Y026674D01*
X006587Y026674D01*
X006587Y026755D01*
X006514Y026828D01*
X006587Y026901D01*
X006587Y027542D01*
X006514Y027615D01*
X006587Y027688D01*
X006587Y028330D01*
X006514Y028403D01*
X006587Y028476D01*
X006587Y029117D01*
X006470Y029234D01*
X005829Y029234D01*
X005712Y029117D01*
X005712Y029037D01*
X005610Y029037D01*
X005629Y029071D01*
X005644Y029127D01*
X005644Y029702D01*
X004878Y029702D01*
X004878Y028936D01*
X005137Y028936D01*
X005121Y028920D01*
X005121Y028279D01*
X005238Y028162D01*
X005712Y028162D01*
X005712Y028053D01*
X005238Y028053D01*
X005121Y027936D01*
X005121Y027295D01*
X005194Y027222D01*
X005121Y027149D01*
X005121Y026507D01*
X005238Y026390D01*
X005712Y026390D01*
X005712Y026282D01*
X005238Y026282D01*
X005121Y026164D01*
X005121Y025523D01*
X005137Y025508D01*
X005121Y025746D02*
X004278Y025746D01*
X004244Y025984D02*
X005121Y025984D01*
X005180Y026223D02*
X004152Y026223D01*
X004152Y026461D02*
X005167Y026461D01*
X005121Y026700D02*
X004152Y026700D01*
X004152Y026939D02*
X005121Y026939D01*
X005150Y027177D02*
X004152Y027177D01*
X004152Y027416D02*
X005121Y027416D01*
X005121Y027654D02*
X004152Y027654D01*
X004152Y027893D02*
X005121Y027893D01*
X005712Y028131D02*
X004152Y028131D01*
X004152Y028370D02*
X005121Y028370D01*
X005121Y028608D02*
X004152Y028608D01*
X004152Y028847D02*
X005121Y028847D01*
X004878Y029085D02*
X004665Y029085D01*
X004665Y029324D02*
X004878Y029324D01*
X004878Y029563D02*
X004665Y029563D01*
X004878Y029801D02*
X006542Y029801D01*
X006542Y029563D02*
X005644Y029563D01*
X005644Y029324D02*
X006620Y029324D01*
X006587Y029085D02*
X006749Y029085D01*
X006633Y028847D02*
X006587Y028847D01*
X006587Y028608D02*
X006698Y028608D01*
X006752Y028370D02*
X006547Y028370D01*
X006587Y028131D02*
X006752Y028131D01*
X006752Y027893D02*
X006587Y027893D01*
X006553Y027654D02*
X006752Y027654D01*
X006752Y027416D02*
X006587Y027416D01*
X006587Y027177D02*
X006752Y027177D01*
X006752Y026939D02*
X006587Y026939D01*
X006587Y026700D02*
X006752Y026700D01*
X008952Y026700D02*
X009621Y026700D01*
X009601Y026673D02*
X009567Y026606D01*
X009543Y026534D01*
X009532Y026459D01*
X009532Y026422D01*
X010271Y026422D01*
X010271Y026421D01*
X010272Y026421D01*
X010272Y025942D01*
X010569Y025942D01*
X010644Y025954D01*
X010716Y025977D01*
X010783Y026011D01*
X010844Y026056D01*
X010898Y026109D01*
X010942Y026170D01*
X010976Y026237D01*
X011000Y026309D01*
X011012Y026384D01*
X011012Y026421D01*
X010272Y026421D01*
X010272Y026422D01*
X011012Y026422D01*
X011012Y026459D01*
X011000Y026534D01*
X010976Y026606D01*
X010942Y026673D01*
X010898Y026734D01*
X010844Y026788D01*
X010783Y026832D01*
X010716Y026867D01*
X010644Y026890D01*
X010569Y026902D01*
X010272Y026902D01*
X010272Y026422D01*
X010271Y026422D01*
X010271Y026902D01*
X009974Y026902D01*
X009899Y026890D01*
X009827Y026867D01*
X009760Y026832D01*
X009699Y026788D01*
X009646Y026734D01*
X009601Y026673D01*
X009532Y026461D02*
X008952Y026461D01*
X008952Y026223D02*
X009574Y026223D01*
X009567Y026237D02*
X009601Y026170D01*
X009646Y026109D01*
X009699Y026056D01*
X009760Y026011D01*
X009827Y025977D01*
X009899Y025954D01*
X009974Y025942D01*
X010271Y025942D01*
X010271Y026421D01*
X009532Y026421D01*
X009532Y026384D01*
X009543Y026309D01*
X009567Y026237D01*
X009813Y025984D02*
X008952Y025984D01*
X008952Y025746D02*
X009685Y025746D01*
X009641Y025702D02*
X008952Y025702D01*
X008952Y027942D01*
X011027Y027942D01*
X011130Y027984D01*
X011209Y028063D01*
X011252Y028166D01*
X011252Y028277D01*
X011252Y028321D01*
X011295Y028339D01*
X011455Y028499D01*
X011489Y028582D01*
X011522Y028537D01*
X011587Y028472D01*
X011662Y028417D01*
X011745Y028375D01*
X011833Y028346D01*
X011925Y028332D01*
X011971Y028332D01*
X011971Y028921D01*
X011972Y028921D01*
X011972Y028332D01*
X012018Y028332D01*
X012110Y028346D01*
X012198Y028375D01*
X012281Y028417D01*
X012356Y028472D01*
X012422Y028537D01*
X012454Y028582D01*
X012488Y028499D01*
X012649Y028339D01*
X012858Y028252D01*
X013085Y028252D01*
X013295Y028339D01*
X013455Y028499D01*
X013494Y028593D01*
X013649Y028439D01*
X013858Y028352D01*
X014085Y028352D01*
X014295Y028439D01*
X014449Y028593D01*
X014488Y028499D01*
X014649Y028339D01*
X014858Y028252D01*
X015085Y028252D01*
X015295Y028339D01*
X015455Y028499D01*
X015542Y028708D01*
X015542Y028935D01*
X015455Y029145D01*
X015295Y029305D01*
X015085Y029392D01*
X014858Y029392D01*
X014649Y029305D01*
X014494Y029150D01*
X014455Y029245D01*
X014295Y029405D01*
X014085Y029492D01*
X013858Y029492D01*
X013649Y029405D01*
X013488Y029245D01*
X013449Y029150D01*
X013295Y029305D01*
X013085Y029392D01*
X012858Y029392D01*
X012649Y029305D01*
X012509Y029166D01*
X012476Y029231D01*
X012422Y029306D01*
X012356Y029372D01*
X012281Y029426D01*
X012198Y029468D01*
X012110Y029497D01*
X012018Y029512D01*
X011972Y029512D01*
X011972Y028922D01*
X011971Y028922D01*
X011971Y029512D01*
X011925Y029512D01*
X011833Y029497D01*
X011745Y029468D01*
X011662Y029426D01*
X011587Y029372D01*
X011522Y029306D01*
X011467Y029231D01*
X011434Y029166D01*
X011295Y029305D01*
X011085Y029392D01*
X010858Y029392D01*
X010649Y029305D01*
X010494Y029150D01*
X010455Y029245D01*
X010295Y029405D01*
X010252Y029423D01*
X010252Y030042D01*
X016917Y030042D01*
X016814Y029982D01*
X016590Y029759D01*
X016432Y029485D01*
X016350Y029180D01*
X016350Y028864D01*
X016432Y028559D01*
X016590Y028285D01*
X016814Y028061D01*
X017087Y027904D01*
X017392Y027822D01*
X017708Y027822D01*
X018014Y027904D01*
X018287Y028061D01*
X018511Y028285D01*
X018669Y028559D01*
X018750Y028864D01*
X018750Y029180D01*
X018669Y029485D01*
X018511Y029759D01*
X018287Y029982D01*
X018184Y030042D01*
X018992Y030042D01*
X018992Y026882D01*
X018920Y026882D01*
X018751Y026812D01*
X018622Y026682D01*
X018552Y026513D01*
X018552Y026330D01*
X018621Y026162D01*
X012966Y026162D01*
X012886Y026242D01*
X012747Y026300D01*
X012596Y026300D01*
X012457Y026242D01*
X012351Y026136D01*
X012294Y025997D01*
X012294Y025846D01*
X012351Y025708D01*
X012457Y025601D01*
X012596Y025544D01*
X012747Y025544D01*
X012886Y025601D01*
X012966Y025682D01*
X018621Y025682D01*
X018552Y025513D01*
X018552Y025330D01*
X018622Y025161D01*
X018751Y025032D01*
X018920Y024962D01*
X019623Y024962D01*
X019792Y025032D01*
X019922Y025161D01*
X019992Y025330D01*
X019992Y025513D01*
X019922Y025682D01*
X020792Y025682D01*
X020068Y024958D01*
X020032Y024869D01*
X020032Y024774D01*
X020032Y023916D01*
X019951Y023836D01*
X019897Y023706D01*
X019792Y023812D01*
X019623Y023882D01*
X018920Y023882D01*
X018751Y023812D01*
X018688Y023748D01*
X018730Y023850D01*
X018730Y023993D01*
X018688Y024095D01*
X018751Y024032D01*
X018920Y023962D01*
X019623Y023962D01*
X019792Y024032D01*
X019922Y024161D01*
X019992Y024330D01*
X019992Y024513D01*
X019922Y024682D01*
X019792Y024812D01*
X019623Y024882D01*
X018920Y024882D01*
X018751Y024812D01*
X018622Y024682D01*
X018552Y024513D01*
X018552Y024330D01*
X018609Y024191D01*
X018575Y024226D01*
X018443Y024280D01*
X018300Y024280D01*
X018169Y024226D01*
X018068Y024125D01*
X018013Y023993D01*
X018013Y023903D01*
X016772Y022662D01*
X010930Y022662D01*
X010922Y022682D01*
X010792Y022812D01*
X010623Y022882D01*
X009920Y022882D01*
X009751Y022812D01*
X009622Y022682D01*
X009552Y022513D01*
X009552Y022330D01*
X009622Y022161D01*
X009751Y022032D01*
X009920Y021962D01*
X010623Y021962D01*
X010792Y022032D01*
X010922Y022161D01*
X010930Y022182D01*
X016824Y022182D01*
X016919Y022182D01*
X017008Y022218D01*
X018353Y023563D01*
X018443Y023563D01*
X018575Y023618D01*
X018609Y023653D01*
X018552Y023513D01*
X018552Y023330D01*
X018621Y023162D01*
X018324Y023162D01*
X018236Y023125D01*
X018168Y023058D01*
X016772Y021662D01*
X010930Y021662D01*
X010922Y021682D01*
X010792Y021812D01*
X010623Y021882D01*
X009920Y021882D01*
X009751Y021812D01*
X009622Y021682D01*
X009552Y021513D01*
X009552Y021330D01*
X009622Y021161D01*
X009751Y021032D01*
X009920Y020962D01*
X010623Y020962D01*
X010792Y021032D01*
X010922Y021161D01*
X010930Y021182D01*
X016824Y021182D01*
X016919Y021182D01*
X017008Y021218D01*
X018471Y022682D01*
X018621Y022682D01*
X018552Y022513D01*
X018552Y022330D01*
X018621Y022162D01*
X018324Y022162D01*
X018236Y022125D01*
X018168Y022058D01*
X016772Y020662D01*
X010930Y020662D01*
X010922Y020682D01*
X010792Y020812D01*
X010623Y020882D01*
X009920Y020882D01*
X009751Y020812D01*
X009622Y020682D01*
X009552Y020513D01*
X009552Y020330D01*
X009622Y020161D01*
X009751Y020032D01*
X009920Y019962D01*
X010623Y019962D01*
X010792Y020032D01*
X010922Y020161D01*
X010930Y020182D01*
X016824Y020182D01*
X016919Y020182D01*
X017008Y020218D01*
X018471Y021682D01*
X018621Y021682D01*
X018552Y021513D01*
X018552Y021330D01*
X018622Y021161D01*
X018751Y021032D01*
X018920Y020962D01*
X019623Y020962D01*
X019792Y021032D01*
X019922Y021161D01*
X019992Y021330D01*
X019992Y021513D01*
X019922Y021682D01*
X019924Y021682D01*
X020019Y021682D01*
X020108Y021718D01*
X023353Y024963D01*
X023443Y024963D01*
X023575Y025018D01*
X023675Y025119D01*
X023730Y025250D01*
X023730Y025393D01*
X023675Y025525D01*
X023578Y025622D01*
X023675Y025719D01*
X023730Y025850D01*
X023730Y025993D01*
X023675Y026125D01*
X023575Y026226D01*
X023443Y026280D01*
X023300Y026280D01*
X023169Y026226D01*
X023105Y026162D01*
X023050Y026162D01*
X023050Y026297D01*
X022992Y026436D01*
X022886Y026542D01*
X022747Y026600D01*
X022596Y026600D01*
X022457Y026542D01*
X022351Y026436D01*
X022320Y026362D01*
X021801Y026362D01*
X023366Y027927D01*
X023449Y027893D01*
X023676Y027893D01*
X024539Y027893D01*
X024766Y027893D01*
X024976Y027979D01*
X025136Y028140D01*
X025223Y028349D01*
X025223Y028576D01*
X025136Y028786D01*
X024976Y028946D01*
X024766Y029033D01*
X024539Y029033D01*
X024330Y028946D01*
X024170Y028786D01*
X024107Y028636D01*
X024045Y028786D01*
X023885Y028946D01*
X023676Y029033D01*
X023449Y029033D01*
X023239Y028946D01*
X023079Y028786D01*
X023017Y028636D01*
X022955Y028786D01*
X022795Y028946D01*
X022585Y029033D01*
X022358Y029033D01*
X022149Y028946D01*
X021988Y028786D01*
X021926Y028636D01*
X021864Y028786D01*
X021704Y028946D01*
X021494Y029033D01*
X021268Y029033D01*
X021058Y028946D01*
X020898Y028786D01*
X020861Y028695D01*
X020861Y028916D01*
X020784Y028992D01*
X020791Y028991D01*
X020838Y028991D01*
X020884Y028991D01*
X020976Y029005D01*
X021064Y029034D01*
X021147Y029076D01*
X021222Y029131D01*
X021288Y029196D01*
X021342Y029272D01*
X021385Y029354D01*
X021394Y029382D01*
X021445Y029258D01*
X021605Y029098D01*
X021815Y029011D01*
X022042Y029011D01*
X022251Y029098D01*
X022412Y029258D01*
X022472Y029403D01*
X022532Y029258D01*
X022692Y029098D01*
X022902Y029011D01*
X023128Y029011D01*
X023338Y029098D01*
X023498Y029258D01*
X023560Y029408D01*
X023622Y029258D01*
X023783Y029098D01*
X023992Y029011D01*
X024219Y029011D01*
X024428Y029098D01*
X024589Y029258D01*
X024675Y029467D01*
X024675Y029694D01*
X024589Y029904D01*
X024451Y030042D01*
X026760Y030042D01*
X026656Y029982D01*
X026433Y029759D01*
X026275Y029485D01*
X026193Y029180D01*
X026193Y028864D01*
X026275Y028559D01*
X026433Y028285D01*
X026656Y028061D01*
X026930Y027904D01*
X027235Y027822D01*
X027551Y027822D01*
X027856Y027904D01*
X028130Y028061D01*
X028353Y028285D01*
X028511Y028559D01*
X028593Y028864D01*
X028593Y029180D01*
X028511Y029485D01*
X028353Y029759D01*
X028130Y029982D01*
X028026Y030042D01*
X029312Y030042D01*
X029312Y029528D01*
X030078Y029528D01*
X030078Y029315D01*
X029312Y029315D01*
X029312Y028740D01*
X029327Y028684D01*
X029356Y028634D01*
X029397Y028593D01*
X029447Y028564D01*
X029503Y028549D01*
X030079Y028549D01*
X030079Y029315D01*
X030291Y029315D01*
X030291Y028549D01*
X030867Y028549D01*
X030923Y028564D01*
X030936Y028572D01*
X030936Y028482D01*
X030876Y028482D01*
X030759Y028364D01*
X030759Y027723D01*
X030876Y027606D01*
X031517Y027606D01*
X031591Y027679D01*
X031664Y027606D01*
X032305Y027606D01*
X032378Y027679D01*
X032451Y027606D01*
X033092Y027606D01*
X033165Y027679D01*
X033238Y027606D01*
X033880Y027606D01*
X033953Y027679D01*
X034026Y027606D01*
X034667Y027606D01*
X034784Y027723D01*
X034784Y028364D01*
X034667Y028482D01*
X034587Y028482D01*
X034587Y028604D01*
X034623Y028569D01*
X035992Y028569D01*
X035992Y027517D01*
X035927Y027452D01*
X035865Y027303D01*
X035865Y027141D01*
X035927Y026991D01*
X035992Y026927D01*
X035992Y020517D01*
X035927Y020452D01*
X035865Y020303D01*
X035865Y020141D01*
X035927Y019991D01*
X035992Y019927D01*
X035992Y013517D01*
X035927Y013452D01*
X035865Y013303D01*
X035865Y013141D01*
X035927Y012991D01*
X035992Y012927D01*
X035992Y006517D01*
X035927Y006452D01*
X035865Y006303D01*
X035865Y006141D01*
X035927Y005991D01*
X036041Y005877D01*
X036191Y005815D01*
X036353Y005815D01*
X036502Y005877D01*
X036616Y005991D01*
X036672Y006125D01*
X036672Y005689D01*
X036608Y005625D01*
X036553Y005493D01*
X036553Y005350D01*
X036608Y005219D01*
X036709Y005118D01*
X036840Y005063D01*
X036983Y005063D01*
X037115Y005118D01*
X037215Y005219D01*
X037270Y005350D01*
X037270Y005493D01*
X037215Y005625D01*
X037152Y005689D01*
X037152Y006267D01*
X037160Y006263D01*
X037303Y006263D01*
X037312Y006267D01*
X037312Y004889D01*
X037248Y004825D01*
X037193Y004693D01*
X037193Y004550D01*
X037248Y004419D01*
X037349Y004318D01*
X037480Y004263D01*
X037623Y004263D01*
X037755Y004318D01*
X037855Y004419D01*
X037910Y004550D01*
X037910Y004693D01*
X037855Y004825D01*
X037792Y004889D01*
X037792Y006783D01*
X037824Y006769D01*
X037919Y006769D01*
X037956Y006769D01*
X037956Y006688D01*
X038029Y006615D01*
X037956Y006542D01*
X037956Y005901D01*
X038029Y005828D01*
X037956Y005755D01*
X037956Y005114D01*
X038029Y005041D01*
X037956Y004968D01*
X037956Y004326D01*
X038073Y004209D01*
X038714Y004209D01*
X038831Y004326D01*
X038831Y004406D01*
X038933Y004406D01*
X038914Y004373D01*
X038899Y004317D01*
X038899Y003741D01*
X039665Y003741D01*
X039665Y003529D01*
X038899Y003529D01*
X038899Y002953D01*
X038914Y002897D01*
X038943Y002847D01*
X038984Y002806D01*
X039034Y002777D01*
X039090Y002762D01*
X039665Y002762D01*
X039665Y003528D01*
X039878Y003528D01*
X039878Y002762D01*
X040116Y002762D01*
X039356Y002002D01*
X037978Y002002D01*
X038073Y002041D01*
X038312Y002280D01*
X038442Y002593D01*
X038442Y002931D01*
X038312Y003243D01*
X038073Y003482D01*
X037761Y003612D01*
X037423Y003612D01*
X037110Y003482D01*
X036871Y003243D01*
X036742Y002931D01*
X036742Y002593D01*
X036871Y002280D01*
X037110Y002041D01*
X037206Y002002D01*
X037088Y002002D01*
X034602Y004488D01*
X034602Y005684D01*
X034622Y005692D01*
X034771Y005841D01*
X034852Y006036D01*
X034852Y006907D01*
X034771Y007102D01*
X034652Y007221D01*
X034652Y007777D01*
X034609Y007880D01*
X034530Y007959D01*
X034427Y008002D01*
X034316Y008002D01*
X030112Y008002D01*
X030182Y008170D01*
X030182Y008873D01*
X030112Y009042D01*
X029982Y009172D01*
X029813Y009242D01*
X029630Y009242D01*
X029461Y009172D01*
X029332Y009042D01*
X029262Y008873D01*
X029262Y008170D01*
X029332Y008001D01*
X029442Y007891D01*
X029442Y007777D01*
X029442Y007666D01*
X029442Y006152D01*
X029332Y006042D01*
X029262Y005873D01*
X029262Y005170D01*
X029332Y005001D01*
X029461Y004872D01*
X029630Y004802D01*
X029813Y004802D01*
X029982Y004872D01*
X030112Y005001D01*
X030182Y005170D01*
X030182Y005873D01*
X030112Y006042D01*
X030002Y006152D01*
X030002Y007442D01*
X034092Y007442D01*
X034092Y007280D01*
X034021Y007251D01*
X033872Y007102D01*
X033833Y007007D01*
X033831Y007013D01*
X033792Y007090D01*
X033741Y007160D01*
X033680Y007221D01*
X033610Y007272D01*
X033533Y007311D01*
X033450Y007338D01*
X033365Y007352D01*
X033322Y007352D01*
X033322Y006472D01*
X033321Y006472D01*
X033321Y007352D01*
X033278Y007352D01*
X033193Y007338D01*
X033111Y007311D01*
X033033Y007272D01*
X032963Y007221D01*
X032902Y007160D01*
X032851Y007090D01*
X032812Y007013D01*
X032810Y007007D01*
X032771Y007102D01*
X032622Y007251D01*
X032427Y007332D01*
X032216Y007332D01*
X032021Y007251D01*
X031872Y007102D01*
X031792Y006907D01*
X031792Y006036D01*
X031872Y005841D01*
X032021Y005692D01*
X032216Y005612D01*
X032427Y005612D01*
X032622Y005692D01*
X032771Y005841D01*
X032810Y005936D01*
X032812Y005931D01*
X032851Y005853D01*
X032902Y005783D01*
X032963Y005722D01*
X033033Y005671D01*
X033111Y005632D01*
X033193Y005605D01*
X033278Y005592D01*
X033321Y005592D01*
X033321Y006471D01*
X033322Y006471D01*
X033322Y005592D01*
X033365Y005592D01*
X033450Y005605D01*
X033533Y005632D01*
X033610Y005671D01*
X033680Y005722D01*
X033741Y005783D01*
X033792Y005853D01*
X033831Y005931D01*
X033833Y005936D01*
X033872Y005841D01*
X034021Y005692D01*
X034042Y005684D01*
X034042Y004427D01*
X034042Y004316D01*
X034084Y004213D01*
X036296Y002002D01*
X033988Y002002D01*
X033930Y002059D01*
X033827Y002102D01*
X033716Y002102D01*
X033116Y002102D01*
X033013Y002059D01*
X032956Y002002D01*
X015888Y002002D01*
X015452Y002438D01*
X015521Y002369D02*
X015673Y002369D01*
X015666Y002384D02*
X015710Y002297D01*
X015767Y002218D01*
X015836Y002149D01*
X015915Y002091D01*
X016002Y002047D01*
X016095Y002017D01*
X016191Y002002D01*
X016232Y002002D01*
X016232Y002614D01*
X015620Y002614D01*
X015620Y002573D01*
X015635Y002477D01*
X015666Y002384D01*
X015620Y002607D02*
X015452Y002607D01*
X015620Y002630D02*
X016232Y002630D01*
X016232Y003242D01*
X016191Y003242D01*
X016095Y003226D01*
X016002Y003196D01*
X015915Y003152D01*
X015836Y003095D01*
X015767Y003026D01*
X015710Y002947D01*
X015666Y002860D01*
X015635Y002767D01*
X015620Y002671D01*
X015620Y002630D01*
X015661Y002846D02*
X015452Y002846D01*
X015452Y003084D02*
X015826Y003084D01*
X016232Y003084D02*
X016248Y003084D01*
X016248Y003242D02*
X016248Y002630D01*
X016232Y002630D01*
X016232Y002614D01*
X016248Y002614D01*
X016248Y002630D01*
X016860Y002630D01*
X016860Y002671D01*
X016845Y002767D01*
X016815Y002860D01*
X016770Y002947D01*
X016713Y003026D01*
X016644Y003095D01*
X016565Y003152D01*
X016478Y003196D01*
X016385Y003226D01*
X016289Y003242D01*
X016248Y003242D01*
X016232Y002846D02*
X016248Y002846D01*
X016248Y002614D02*
X016860Y002614D01*
X016860Y002573D01*
X016845Y002477D01*
X016815Y002384D01*
X016770Y002297D01*
X016713Y002218D01*
X016644Y002149D01*
X016565Y002091D01*
X016478Y002047D01*
X016385Y002017D01*
X016289Y002002D01*
X016248Y002002D01*
X016248Y002614D01*
X016248Y002607D02*
X016232Y002607D01*
X016232Y002369D02*
X016248Y002369D01*
X016232Y002130D02*
X016248Y002130D01*
X016618Y002130D02*
X018680Y002130D01*
X018672Y002139D02*
X018789Y002022D01*
X019754Y002022D01*
X019872Y002139D01*
X019872Y003105D01*
X019754Y003222D01*
X018789Y003222D01*
X018672Y003105D01*
X018672Y002139D01*
X018672Y002369D02*
X016807Y002369D01*
X016860Y002607D02*
X018672Y002607D01*
X018672Y002846D02*
X016819Y002846D01*
X016654Y003084D02*
X018672Y003084D01*
X019357Y003801D02*
X019496Y003744D01*
X019647Y003744D01*
X019786Y003801D01*
X019866Y003882D01*
X023419Y003882D01*
X023508Y003918D01*
X023575Y003986D01*
X023925Y004336D01*
X023962Y004424D01*
X023962Y004519D01*
X023962Y004863D01*
X023982Y004872D01*
X024112Y005001D01*
X024182Y005170D01*
X024182Y005873D01*
X024112Y006042D01*
X023982Y006172D01*
X023813Y006242D01*
X023630Y006242D01*
X023461Y006172D01*
X023332Y006042D01*
X023262Y005873D01*
X023262Y005170D01*
X023332Y005001D01*
X023461Y004872D01*
X023482Y004863D01*
X023482Y004571D01*
X023272Y004362D01*
X022646Y004362D01*
X022692Y004408D01*
X022750Y004546D01*
X022750Y004697D01*
X022706Y004802D01*
X022813Y004802D01*
X022982Y004872D01*
X023112Y005001D01*
X023182Y005170D01*
X023182Y005873D01*
X023112Y006042D01*
X022982Y006172D01*
X022813Y006242D01*
X022630Y006242D01*
X022461Y006172D01*
X022332Y006042D01*
X022262Y005873D01*
X022262Y005170D01*
X022332Y005001D01*
X022333Y005000D01*
X022296Y005000D01*
X022157Y004942D01*
X022077Y004862D01*
X020866Y004862D01*
X020786Y004942D01*
X020647Y005000D01*
X020496Y005000D01*
X020357Y004942D01*
X020251Y004836D01*
X020194Y004697D01*
X020194Y004546D01*
X020251Y004408D01*
X020297Y004362D01*
X019866Y004362D01*
X019786Y004442D01*
X019647Y004500D01*
X019496Y004500D01*
X019357Y004442D01*
X019251Y004336D01*
X019194Y004197D01*
X019194Y004046D01*
X019251Y003908D01*
X019357Y003801D01*
X019361Y003800D02*
X010829Y003800D01*
X011067Y004038D02*
X019197Y004038D01*
X019227Y004277D02*
X011306Y004277D01*
X011544Y004516D02*
X020206Y004516D01*
X020217Y004754D02*
X011783Y004754D01*
X012021Y004993D02*
X020479Y004993D01*
X020664Y004993D02*
X022279Y004993D01*
X022262Y005231D02*
X012260Y005231D01*
X012498Y005470D02*
X022262Y005470D01*
X022262Y005708D02*
X012737Y005708D01*
X012095Y006424D02*
X008628Y006424D01*
X008616Y006452D02*
X008552Y006517D01*
X008552Y010662D01*
X008596Y010644D01*
X008747Y010644D01*
X008886Y010701D01*
X008992Y010808D01*
X009050Y010946D01*
X009050Y011097D01*
X008992Y011236D01*
X008912Y011316D01*
X008912Y011603D01*
X008951Y011508D01*
X009032Y011427D01*
X009032Y011374D01*
X009068Y011286D01*
X009647Y010707D01*
X009622Y010682D01*
X009552Y010513D01*
X009552Y010330D01*
X009622Y010161D01*
X009751Y010032D01*
X009920Y009962D01*
X010623Y009962D01*
X010792Y010032D01*
X010922Y010161D01*
X010992Y010330D01*
X010992Y010513D01*
X010922Y010682D01*
X010792Y010812D01*
X010623Y010882D01*
X010151Y010882D01*
X010071Y010962D01*
X010623Y010962D01*
X010792Y011032D01*
X010922Y011161D01*
X010992Y011330D01*
X010992Y011513D01*
X010922Y011682D01*
X010792Y011812D01*
X010623Y011882D01*
X009920Y011882D01*
X009751Y011812D01*
X009650Y011710D01*
X009650Y011797D01*
X009592Y011936D01*
X009486Y012042D01*
X009347Y012100D01*
X009289Y012100D01*
X009371Y012182D01*
X009613Y012182D01*
X009622Y012161D01*
X009751Y012032D01*
X009920Y011962D01*
X010623Y011962D01*
X010792Y012032D01*
X010922Y012161D01*
X010992Y012330D01*
X010992Y012513D01*
X010922Y012682D01*
X010792Y012812D01*
X010623Y012882D01*
X009920Y012882D01*
X009751Y012812D01*
X009622Y012682D01*
X009613Y012662D01*
X009224Y012662D01*
X009136Y012625D01*
X009068Y012558D01*
X009008Y012498D01*
X008992Y012536D01*
X008912Y012616D01*
X008912Y015827D01*
X008992Y015908D01*
X009050Y016046D01*
X009050Y016197D01*
X008992Y016336D01*
X008886Y016442D01*
X008747Y016500D01*
X008596Y016500D01*
X008552Y016481D01*
X008552Y017212D01*
X008624Y017182D01*
X008719Y017182D01*
X009613Y017182D01*
X009622Y017161D01*
X009751Y017032D01*
X009920Y016962D01*
X010623Y016962D01*
X010792Y017032D01*
X010922Y017161D01*
X010992Y017330D01*
X010992Y017513D01*
X010922Y017682D01*
X010792Y017812D01*
X010623Y017882D01*
X009920Y017882D01*
X009751Y017812D01*
X009622Y017682D01*
X009613Y017662D01*
X008912Y017662D01*
X008912Y018182D01*
X008919Y018182D01*
X009613Y018182D01*
X009622Y018161D01*
X009751Y018032D01*
X009920Y017962D01*
X010623Y017962D01*
X010792Y018032D01*
X010922Y018161D01*
X010992Y018330D01*
X010992Y018362D01*
X011032Y018322D01*
X011032Y015974D01*
X011068Y015886D01*
X011136Y015818D01*
X011254Y015700D01*
X011196Y015700D01*
X011057Y015642D01*
X010973Y015558D01*
X010922Y015682D01*
X010792Y015812D01*
X010623Y015882D01*
X009920Y015882D01*
X009751Y015812D01*
X009622Y015682D01*
X009552Y015513D01*
X009552Y015330D01*
X009622Y015161D01*
X009751Y015032D01*
X009920Y014962D01*
X010623Y014962D01*
X010792Y015032D01*
X010922Y015161D01*
X010925Y015170D01*
X010951Y015108D01*
X011032Y015027D01*
X011032Y008662D01*
X010930Y008662D01*
X010922Y008682D01*
X010792Y008812D01*
X010623Y008882D01*
X009920Y008882D01*
X009751Y008812D01*
X009622Y008682D01*
X009552Y008513D01*
X009552Y008330D01*
X009622Y008161D01*
X009751Y008032D01*
X009920Y007962D01*
X010623Y007962D01*
X010792Y008032D01*
X010922Y008161D01*
X010930Y008182D01*
X011319Y008182D01*
X011408Y008218D01*
X011475Y008286D01*
X011512Y008374D01*
X011512Y008469D01*
X011512Y014547D01*
X011532Y014527D01*
X011532Y007662D01*
X010930Y007662D01*
X010922Y007682D01*
X010792Y007812D01*
X010623Y007882D01*
X009920Y007882D01*
X009751Y007812D01*
X009622Y007682D01*
X009552Y007513D01*
X009552Y007330D01*
X009622Y007161D01*
X009751Y007032D01*
X009920Y006962D01*
X010623Y006962D01*
X010792Y007032D01*
X010922Y007161D01*
X010930Y007182D01*
X011819Y007182D01*
X011908Y007218D01*
X011975Y007286D01*
X012012Y007374D01*
X012012Y007469D01*
X012012Y009042D01*
X012036Y009018D01*
X013836Y007218D01*
X013924Y007182D01*
X014019Y007182D01*
X018613Y007182D01*
X018622Y007161D01*
X018751Y007032D01*
X018920Y006962D01*
X019623Y006962D01*
X019792Y007032D01*
X019922Y007161D01*
X019992Y007330D01*
X019992Y007513D01*
X019922Y007682D01*
X019792Y007812D01*
X019623Y007882D01*
X018920Y007882D01*
X018751Y007812D01*
X018622Y007682D01*
X018613Y007662D01*
X014071Y007662D01*
X012412Y009321D01*
X012412Y012547D01*
X012457Y012501D01*
X012596Y012444D01*
X012747Y012444D01*
X012886Y012501D01*
X012966Y012582D01*
X013377Y012582D01*
X013457Y012501D01*
X013596Y012444D01*
X013747Y012444D01*
X013886Y012501D01*
X013992Y012608D01*
X014050Y012746D01*
X014050Y012897D01*
X014045Y012909D01*
X015013Y011941D01*
X015013Y011850D01*
X015068Y011719D01*
X015169Y011618D01*
X015300Y011563D01*
X015443Y011563D01*
X015575Y011618D01*
X015675Y011719D01*
X015730Y011850D01*
X015730Y011993D01*
X015675Y012125D01*
X015575Y012226D01*
X015443Y012280D01*
X015353Y012280D01*
X011512Y016121D01*
X011512Y018374D01*
X011512Y018469D01*
X011475Y018558D01*
X010897Y019136D01*
X010922Y019161D01*
X010992Y019330D01*
X010992Y019513D01*
X010922Y019682D01*
X010792Y019812D01*
X010623Y019882D01*
X009920Y019882D01*
X009751Y019812D01*
X009622Y019682D01*
X009552Y019513D01*
X009552Y019330D01*
X009622Y019161D01*
X009751Y019032D01*
X009920Y018962D01*
X010392Y018962D01*
X010472Y018882D01*
X009920Y018882D01*
X009751Y018812D01*
X009622Y018682D01*
X009613Y018662D01*
X009112Y018662D01*
X009112Y023682D01*
X009621Y023682D01*
X009552Y023513D01*
X009552Y023330D01*
X009622Y023161D01*
X009751Y023032D01*
X009920Y022962D01*
X010623Y022962D01*
X010792Y023032D01*
X010922Y023161D01*
X010992Y023330D01*
X010992Y023513D01*
X010922Y023682D01*
X011177Y023682D01*
X011257Y023601D01*
X011396Y023544D01*
X011547Y023544D01*
X011686Y023601D01*
X011792Y023708D01*
X011850Y023846D01*
X011850Y023997D01*
X011792Y024136D01*
X011686Y024242D01*
X011547Y024300D01*
X011396Y024300D01*
X011257Y024242D01*
X011177Y024162D01*
X010922Y024162D01*
X010992Y024330D01*
X010992Y024513D01*
X010922Y024682D01*
X011177Y024682D01*
X011257Y024601D01*
X011396Y024544D01*
X011547Y024544D01*
X011686Y024601D01*
X011792Y024708D01*
X011850Y024846D01*
X011850Y024997D01*
X011792Y025136D01*
X011686Y025242D01*
X011547Y025300D01*
X011396Y025300D01*
X011257Y025242D01*
X011177Y025162D01*
X010922Y025162D01*
X010992Y025330D01*
X010992Y025513D01*
X010922Y025682D01*
X010792Y025812D01*
X010623Y025882D01*
X009920Y025882D01*
X009751Y025812D01*
X009641Y025702D01*
X010271Y025984D02*
X010272Y025984D01*
X010271Y026223D02*
X010272Y026223D01*
X010271Y026461D02*
X010272Y026461D01*
X010271Y026700D02*
X010272Y026700D01*
X010923Y026700D02*
X018639Y026700D01*
X018552Y026461D02*
X011011Y026461D01*
X010969Y026223D02*
X012438Y026223D01*
X012294Y025984D02*
X010731Y025984D01*
X010858Y025746D02*
X012335Y025746D01*
X011622Y025269D02*
X018577Y025269D01*
X018552Y025507D02*
X010992Y025507D01*
X010966Y025269D02*
X011322Y025269D01*
X011836Y025030D02*
X018755Y025030D01*
X018731Y024792D02*
X011827Y024792D01*
X011570Y024553D02*
X018568Y024553D01*
X018558Y024315D02*
X010985Y024315D01*
X010975Y024553D02*
X011373Y024553D01*
X011817Y024076D02*
X018048Y024076D01*
X017948Y023838D02*
X011846Y023838D01*
X011680Y023599D02*
X017709Y023599D01*
X017471Y023360D02*
X010992Y023360D01*
X010956Y023599D02*
X011263Y023599D01*
X010882Y023122D02*
X017232Y023122D01*
X016994Y022883D02*
X009112Y022883D01*
X009112Y022645D02*
X009606Y022645D01*
X009552Y022406D02*
X009112Y022406D01*
X009112Y022168D02*
X009619Y022168D01*
X009630Y021691D02*
X009112Y021691D01*
X009112Y021929D02*
X017040Y021929D01*
X017278Y022168D02*
X010924Y022168D01*
X010913Y021691D02*
X016801Y021691D01*
X017241Y021452D02*
X017563Y021452D01*
X017480Y021691D02*
X017801Y021691D01*
X017719Y021929D02*
X018040Y021929D01*
X017957Y022168D02*
X018619Y022168D01*
X018552Y022406D02*
X018196Y022406D01*
X018434Y022645D02*
X018606Y022645D01*
X017994Y022883D02*
X017673Y022883D01*
X017755Y022645D02*
X017434Y022645D01*
X017517Y022406D02*
X017196Y022406D01*
X017911Y023122D02*
X018232Y023122D01*
X018150Y023360D02*
X018552Y023360D01*
X018529Y023599D02*
X018587Y023599D01*
X018725Y023838D02*
X018814Y023838D01*
X018707Y024076D02*
X018696Y024076D01*
X019730Y023838D02*
X019953Y023838D01*
X020032Y024076D02*
X019836Y024076D01*
X019985Y024315D02*
X020032Y024315D01*
X020032Y024553D02*
X019975Y024553D01*
X020032Y024792D02*
X019812Y024792D01*
X019788Y025030D02*
X020141Y025030D01*
X019966Y025269D02*
X020379Y025269D01*
X020618Y025507D02*
X019992Y025507D01*
X019922Y026162D02*
X019992Y026330D01*
X019992Y026513D01*
X019922Y026682D01*
X019792Y026812D01*
X019623Y026882D01*
X019552Y026882D01*
X019552Y030042D01*
X020469Y030042D01*
X020453Y030031D01*
X020388Y029965D01*
X020333Y029890D01*
X020291Y029807D01*
X020262Y029719D01*
X020248Y029627D01*
X020248Y029581D01*
X020837Y029581D01*
X020837Y029581D01*
X020248Y029581D01*
X020248Y029534D01*
X020262Y029443D01*
X020291Y029354D01*
X020333Y029272D01*
X020388Y029196D01*
X020453Y029131D01*
X020529Y029076D01*
X020611Y029034D01*
X020616Y029033D01*
X019838Y029033D01*
X019721Y028916D01*
X019721Y028010D01*
X019838Y027893D01*
X019552Y027893D01*
X019552Y028131D02*
X019721Y028131D01*
X019721Y028370D02*
X019552Y028370D01*
X019552Y028608D02*
X019721Y028608D01*
X019721Y028847D02*
X019552Y028847D01*
X019552Y029085D02*
X020516Y029085D01*
X020306Y029324D02*
X019552Y029324D01*
X019552Y029563D02*
X020248Y029563D01*
X020289Y029801D02*
X019552Y029801D01*
X019552Y030040D02*
X020466Y030040D01*
X020838Y029580D02*
X020838Y029580D01*
X020838Y028991D01*
X020838Y029580D01*
X020838Y029563D02*
X020838Y029563D01*
X020838Y029324D02*
X020838Y029324D01*
X020838Y029085D02*
X020838Y029085D01*
X020861Y028847D02*
X020959Y028847D01*
X021160Y029085D02*
X021635Y029085D01*
X021803Y028847D02*
X022050Y028847D01*
X022222Y029085D02*
X022721Y029085D01*
X022893Y028847D02*
X023140Y028847D01*
X023309Y029085D02*
X023812Y029085D01*
X023984Y028847D02*
X024231Y028847D01*
X024399Y029085D02*
X026193Y029085D01*
X026197Y028847D02*
X025075Y028847D01*
X025209Y028608D02*
X026261Y028608D01*
X026384Y028370D02*
X025223Y028370D01*
X025127Y028131D02*
X026586Y028131D01*
X026970Y027893D02*
X024766Y027893D01*
X024539Y027893D02*
X024330Y027979D01*
X024170Y028140D01*
X024107Y028290D01*
X024045Y028140D01*
X023885Y027979D01*
X023676Y027893D01*
X023449Y027893D02*
X023332Y027893D01*
X023093Y027654D02*
X030828Y027654D01*
X030759Y027893D02*
X027816Y027893D01*
X028200Y028131D02*
X030759Y028131D01*
X030764Y028370D02*
X028402Y028370D01*
X028524Y028608D02*
X029382Y028608D01*
X029312Y028847D02*
X028588Y028847D01*
X028593Y029085D02*
X029312Y029085D01*
X029312Y029563D02*
X028466Y029563D01*
X028554Y029324D02*
X030078Y029324D01*
X030292Y029324D02*
X034506Y029324D01*
X034506Y029085D02*
X031685Y029085D01*
X031660Y029092D02*
X031394Y029092D01*
X031394Y028635D01*
X031393Y028635D01*
X031393Y029092D01*
X031127Y029092D01*
X031071Y029077D01*
X031058Y029069D01*
X031058Y029315D01*
X030292Y029315D01*
X030292Y029528D01*
X031058Y029528D01*
X031058Y030042D01*
X034506Y030042D01*
X034506Y029037D01*
X034470Y029072D01*
X033829Y029072D01*
X033712Y028955D01*
X033712Y028482D01*
X033603Y028482D01*
X033603Y028955D01*
X033486Y029072D01*
X032845Y029072D01*
X032772Y028999D01*
X032699Y029072D01*
X032057Y029072D01*
X031940Y028955D01*
X031940Y028482D01*
X031851Y028482D01*
X031851Y028634D01*
X031394Y028634D01*
X031394Y028634D01*
X031851Y028634D01*
X031851Y028901D01*
X031836Y028957D01*
X031808Y029007D01*
X031767Y029048D01*
X031716Y029077D01*
X031660Y029092D01*
X031394Y029085D02*
X031393Y029085D01*
X031393Y028847D02*
X031394Y028847D01*
X031102Y029085D02*
X031058Y029085D01*
X031058Y029563D02*
X034506Y029563D01*
X034506Y029801D02*
X031058Y029801D01*
X031058Y030040D02*
X034506Y030040D01*
X034442Y030755D02*
X041852Y030755D01*
X041852Y030517D02*
X040637Y030517D01*
X040644Y030278D02*
X041852Y030278D01*
X041852Y030040D02*
X040644Y030040D01*
X040644Y029563D02*
X041852Y029563D01*
X041852Y029801D02*
X039878Y029801D01*
X039878Y029702D02*
X039878Y028936D01*
X040410Y028936D01*
X040327Y028852D01*
X040265Y028703D01*
X040265Y028541D01*
X040327Y028391D01*
X040392Y028327D01*
X040392Y025508D01*
X039878Y025508D01*
X039878Y024742D01*
X039665Y024742D01*
X039665Y025508D01*
X039407Y025508D01*
X039422Y025523D01*
X039422Y026164D01*
X039305Y026282D01*
X038831Y026282D01*
X038831Y026390D01*
X039305Y026390D01*
X039422Y026507D01*
X039422Y027149D01*
X039349Y027222D01*
X039422Y027295D01*
X039422Y027936D01*
X039305Y028053D01*
X038831Y028053D01*
X038831Y028162D01*
X039305Y028162D01*
X039422Y028279D01*
X039422Y028920D01*
X039407Y028936D01*
X039665Y028936D01*
X039665Y029702D01*
X039878Y029702D01*
X039878Y029563D02*
X039665Y029563D01*
X039665Y029801D02*
X038042Y029801D01*
X038042Y029563D02*
X038899Y029563D01*
X038899Y029324D02*
X037963Y029324D01*
X037956Y029085D02*
X037797Y029085D01*
X037956Y028847D02*
X037397Y028847D01*
X036986Y028847D02*
X036552Y028847D01*
X036552Y029085D02*
X036586Y029085D01*
X036552Y028608D02*
X037956Y028608D01*
X037996Y028370D02*
X036552Y028370D01*
X036552Y028131D02*
X037663Y028131D01*
X037632Y027893D02*
X037467Y027893D01*
X037590Y027654D02*
X037632Y027654D01*
X037632Y027416D02*
X037532Y027416D01*
X037472Y027177D02*
X037632Y027177D01*
X037632Y026939D02*
X037472Y026939D01*
X037472Y026700D02*
X037632Y026700D01*
X037632Y026461D02*
X037472Y026461D01*
X037472Y026223D02*
X037632Y026223D01*
X037632Y025984D02*
X037472Y025984D01*
X036672Y025984D02*
X036552Y025984D01*
X036552Y025746D02*
X036672Y025746D01*
X036672Y025507D02*
X036552Y025507D01*
X036552Y025269D02*
X036672Y025269D01*
X036672Y025030D02*
X036552Y025030D01*
X036552Y024792D02*
X036672Y024792D01*
X036672Y024553D02*
X036552Y024553D01*
X036552Y024315D02*
X036672Y024315D01*
X036672Y024076D02*
X036552Y024076D01*
X036552Y023838D02*
X036672Y023838D01*
X036672Y023599D02*
X036552Y023599D01*
X036552Y023360D02*
X036672Y023360D01*
X036672Y023122D02*
X036552Y023122D01*
X036552Y022883D02*
X036672Y022883D01*
X036672Y022645D02*
X036552Y022645D01*
X036552Y022406D02*
X036672Y022406D01*
X036672Y022168D02*
X036552Y022168D01*
X036552Y021929D02*
X036672Y021929D01*
X036672Y021691D02*
X036552Y021691D01*
X036552Y021452D02*
X036672Y021452D01*
X036672Y021214D02*
X036552Y021214D01*
X036552Y020975D02*
X036672Y020975D01*
X036672Y020736D02*
X036552Y020736D01*
X036571Y020498D02*
X036672Y020498D01*
X035973Y020498D02*
X034492Y020498D01*
X034492Y020408D02*
X034492Y020635D01*
X034405Y020845D01*
X034245Y021005D01*
X034204Y021022D01*
X034245Y021039D01*
X034405Y021199D01*
X034492Y021408D01*
X034492Y021635D01*
X034405Y021845D01*
X034245Y022005D01*
X034204Y022022D01*
X034245Y022039D01*
X034405Y022199D01*
X034492Y022408D01*
X034492Y022635D01*
X034405Y022845D01*
X034245Y023005D01*
X034204Y023022D01*
X034245Y023039D01*
X034405Y023199D01*
X034492Y023408D01*
X034492Y023635D01*
X034405Y023845D01*
X034245Y024005D01*
X034035Y024092D01*
X033808Y024092D01*
X033599Y024005D01*
X033438Y023845D01*
X033352Y023635D01*
X033352Y023408D01*
X033438Y023199D01*
X033599Y023039D01*
X033639Y023022D01*
X033599Y023005D01*
X033438Y022845D01*
X033352Y022635D01*
X033352Y022408D01*
X033438Y022199D01*
X033599Y022039D01*
X033639Y022022D01*
X033599Y022005D01*
X033438Y021845D01*
X033352Y021635D01*
X033352Y021408D01*
X033438Y021199D01*
X033599Y021039D01*
X033639Y021022D01*
X033599Y021005D01*
X033438Y020845D01*
X033352Y020635D01*
X033352Y020408D01*
X033438Y020199D01*
X033599Y020039D01*
X033639Y020022D01*
X033599Y020005D01*
X033438Y019845D01*
X033352Y019635D01*
X033352Y019408D01*
X033438Y019199D01*
X033599Y019039D01*
X033639Y019022D01*
X033599Y019005D01*
X033438Y018845D01*
X033352Y018635D01*
X033352Y018408D01*
X033438Y018199D01*
X033599Y018039D01*
X033639Y018022D01*
X033599Y018005D01*
X033438Y017845D01*
X033352Y017635D01*
X033352Y017408D01*
X033438Y017199D01*
X033599Y017039D01*
X033639Y017022D01*
X033599Y017005D01*
X033438Y016845D01*
X033352Y016635D01*
X033352Y016408D01*
X033438Y016199D01*
X033599Y016039D01*
X033639Y016022D01*
X033599Y016005D01*
X033438Y015845D01*
X033352Y015635D01*
X033352Y015408D01*
X033438Y015199D01*
X033599Y015039D01*
X033639Y015022D01*
X033599Y015005D01*
X033438Y014845D01*
X033352Y014635D01*
X033352Y014408D01*
X033438Y014199D01*
X033599Y014039D01*
X033808Y013952D01*
X034035Y013952D01*
X034245Y014039D01*
X034405Y014199D01*
X034492Y014408D01*
X034492Y014635D01*
X034405Y014845D01*
X034245Y015005D01*
X034204Y015022D01*
X034245Y015039D01*
X034405Y015199D01*
X034492Y015408D01*
X034492Y015635D01*
X034405Y015845D01*
X034245Y016005D01*
X034204Y016022D01*
X034245Y016039D01*
X034405Y016199D01*
X034492Y016408D01*
X034492Y016635D01*
X034405Y016845D01*
X034245Y017005D01*
X034204Y017022D01*
X034245Y017039D01*
X034405Y017199D01*
X034492Y017408D01*
X034492Y017635D01*
X034405Y017845D01*
X034245Y018005D01*
X034204Y018022D01*
X034245Y018039D01*
X034405Y018199D01*
X034492Y018408D01*
X034492Y018635D01*
X034405Y018845D01*
X034245Y019005D01*
X034204Y019022D01*
X034245Y019039D01*
X034405Y019199D01*
X034492Y019408D01*
X034492Y019635D01*
X034405Y019845D01*
X034245Y020005D01*
X034204Y020022D01*
X034245Y020039D01*
X034405Y020199D01*
X034492Y020408D01*
X034430Y020259D02*
X035865Y020259D01*
X035915Y020021D02*
X034206Y020021D01*
X034431Y019782D02*
X035992Y019782D01*
X035992Y019544D02*
X034492Y019544D01*
X034449Y019305D02*
X035992Y019305D01*
X035992Y019067D02*
X034273Y019067D01*
X034412Y018828D02*
X035992Y018828D01*
X035992Y018590D02*
X034492Y018590D01*
X034468Y018351D02*
X035992Y018351D01*
X035992Y018112D02*
X034319Y018112D01*
X034376Y017874D02*
X035992Y017874D01*
X035992Y017635D02*
X034492Y017635D01*
X034487Y017397D02*
X035992Y017397D01*
X035992Y017158D02*
X034364Y017158D01*
X034330Y016920D02*
X035992Y016920D01*
X035992Y016681D02*
X034473Y016681D01*
X034492Y016443D02*
X035992Y016443D01*
X035992Y016204D02*
X034407Y016204D01*
X034284Y015966D02*
X035992Y015966D01*
X035992Y015727D02*
X034454Y015727D01*
X034492Y015489D02*
X035992Y015489D01*
X035992Y015250D02*
X034426Y015250D01*
X034229Y015011D02*
X035992Y015011D01*
X035992Y014773D02*
X034435Y014773D01*
X034492Y014534D02*
X035992Y014534D01*
X035992Y014296D02*
X034445Y014296D01*
X034263Y014057D02*
X035992Y014057D01*
X035992Y013819D02*
X019775Y013819D01*
X019792Y013812D02*
X019623Y013882D01*
X018920Y013882D01*
X018751Y013812D01*
X018622Y013682D01*
X018552Y013513D01*
X018552Y013330D01*
X018622Y013161D01*
X018751Y013032D01*
X018920Y012962D01*
X019623Y012962D01*
X019792Y013032D01*
X019922Y013161D01*
X019992Y013330D01*
X019992Y013513D01*
X019922Y013682D01*
X019792Y013812D01*
X019792Y014032D02*
X019922Y014161D01*
X019992Y014330D01*
X019992Y014513D01*
X019922Y014682D01*
X019792Y014812D01*
X019623Y014882D01*
X018920Y014882D01*
X018751Y014812D01*
X018622Y014682D01*
X018552Y014513D01*
X018552Y014330D01*
X018622Y014161D01*
X018751Y014032D01*
X018920Y013962D01*
X019623Y013962D01*
X019792Y014032D01*
X019818Y014057D02*
X022557Y014057D01*
X022537Y014072D02*
X022612Y014017D01*
X022695Y013975D01*
X022783Y013946D01*
X022875Y013932D01*
X022921Y013932D01*
X022921Y014521D01*
X022922Y014521D01*
X022922Y013932D01*
X022968Y013932D01*
X023060Y013946D01*
X023148Y013975D01*
X023231Y014017D01*
X023306Y014072D01*
X023372Y014137D01*
X023426Y014212D01*
X023468Y014295D01*
X023497Y014384D01*
X023512Y014475D01*
X023512Y014521D01*
X022922Y014521D01*
X022922Y014522D01*
X023512Y014522D01*
X023512Y014568D01*
X023497Y014660D01*
X023468Y014748D01*
X023426Y014831D01*
X023372Y014906D01*
X023306Y014972D01*
X023231Y015026D01*
X023224Y015030D01*
X023245Y015039D01*
X023405Y015199D01*
X023492Y015408D01*
X023492Y015635D01*
X023405Y015845D01*
X023245Y016005D01*
X023204Y016022D01*
X023245Y016039D01*
X023405Y016199D01*
X023492Y016408D01*
X023492Y016635D01*
X023405Y016845D01*
X023245Y017005D01*
X023204Y017022D01*
X023245Y017039D01*
X023405Y017199D01*
X023492Y017408D01*
X023492Y017635D01*
X023405Y017845D01*
X023245Y018005D01*
X023204Y018022D01*
X023245Y018039D01*
X023405Y018199D01*
X023492Y018408D01*
X023492Y018635D01*
X023405Y018845D01*
X023245Y019005D01*
X023204Y019022D01*
X023245Y019039D01*
X023405Y019199D01*
X023492Y019408D01*
X023492Y019635D01*
X023405Y019845D01*
X023245Y020005D01*
X023204Y020022D01*
X023245Y020039D01*
X023405Y020199D01*
X023492Y020408D01*
X023492Y020635D01*
X023405Y020845D01*
X023245Y021005D01*
X023204Y021022D01*
X023245Y021039D01*
X023405Y021199D01*
X023492Y021408D01*
X023492Y021635D01*
X023405Y021845D01*
X023245Y022005D01*
X023204Y022022D01*
X023245Y022039D01*
X023405Y022199D01*
X023492Y022408D01*
X023492Y022635D01*
X023405Y022845D01*
X023245Y023005D01*
X023204Y023022D01*
X023245Y023039D01*
X023405Y023199D01*
X023492Y023408D01*
X023492Y023635D01*
X023405Y023845D01*
X023245Y024005D01*
X023035Y024092D01*
X022808Y024092D01*
X022599Y024005D01*
X022438Y023845D01*
X022352Y023635D01*
X022352Y023408D01*
X022438Y023199D01*
X022599Y023039D01*
X022639Y023022D01*
X022599Y023005D01*
X022438Y022845D01*
X022352Y022635D01*
X022352Y022408D01*
X022386Y022325D01*
X021168Y021108D01*
X021132Y021019D01*
X021132Y020924D01*
X021132Y019689D01*
X021068Y019625D01*
X021013Y019493D01*
X021013Y019350D01*
X021068Y019219D01*
X021169Y019118D01*
X021300Y019063D01*
X021443Y019063D01*
X021575Y019118D01*
X021675Y019219D01*
X021730Y019350D01*
X021730Y019493D01*
X021675Y019625D01*
X021612Y019689D01*
X021612Y020872D01*
X022352Y021612D01*
X022352Y021408D01*
X022438Y021199D01*
X022599Y021039D01*
X022639Y021022D01*
X022599Y021005D01*
X022438Y020845D01*
X022352Y020635D01*
X022352Y020408D01*
X022438Y020199D01*
X022599Y020039D01*
X022639Y020022D01*
X022599Y020005D01*
X022438Y019845D01*
X022352Y019635D01*
X022352Y019408D01*
X022438Y019199D01*
X022599Y019039D01*
X022639Y019022D01*
X022599Y019005D01*
X022438Y018845D01*
X022352Y018635D01*
X022352Y018408D01*
X022438Y018199D01*
X022599Y018039D01*
X022639Y018022D01*
X022599Y018005D01*
X022438Y017845D01*
X022352Y017635D01*
X022352Y017408D01*
X022438Y017199D01*
X022599Y017039D01*
X022639Y017022D01*
X022599Y017005D01*
X022438Y016845D01*
X022352Y016635D01*
X022352Y016408D01*
X022438Y016199D01*
X022599Y016039D01*
X022639Y016022D01*
X022599Y016005D01*
X022438Y015845D01*
X022352Y015635D01*
X022352Y015408D01*
X022438Y015199D01*
X022599Y015039D01*
X022620Y015030D01*
X022612Y015026D01*
X022537Y014972D01*
X022472Y014906D01*
X022417Y014831D01*
X022375Y014748D01*
X022346Y014660D01*
X022332Y014568D01*
X022332Y014522D01*
X022921Y014522D01*
X022921Y014521D01*
X022332Y014521D01*
X022332Y014475D01*
X022346Y014384D01*
X022375Y014295D01*
X022417Y014212D01*
X022472Y014137D01*
X022537Y014072D01*
X022375Y014296D02*
X019977Y014296D01*
X019983Y014534D02*
X022332Y014534D01*
X022387Y014773D02*
X019831Y014773D01*
X019743Y015011D02*
X022592Y015011D01*
X022417Y015250D02*
X019958Y015250D01*
X019992Y015330D02*
X019992Y015513D01*
X019922Y015682D01*
X019792Y015812D01*
X019623Y015882D01*
X018920Y015882D01*
X018751Y015812D01*
X018622Y015682D01*
X018552Y015513D01*
X018552Y015330D01*
X018622Y015161D01*
X018751Y015032D01*
X018920Y014962D01*
X019623Y014962D01*
X019792Y015032D01*
X019922Y015161D01*
X019992Y015330D01*
X019992Y015489D02*
X022352Y015489D01*
X022390Y015727D02*
X019877Y015727D01*
X019792Y016032D02*
X019922Y016161D01*
X019992Y016330D01*
X019992Y016513D01*
X019922Y016682D01*
X019792Y016812D01*
X019623Y016882D01*
X018920Y016882D01*
X018751Y016812D01*
X018622Y016682D01*
X018552Y016513D01*
X018552Y016330D01*
X018622Y016161D01*
X018751Y016032D01*
X018920Y015962D01*
X019623Y015962D01*
X019792Y016032D01*
X019632Y015966D02*
X022559Y015966D01*
X022436Y016204D02*
X019939Y016204D01*
X019992Y016443D02*
X022352Y016443D01*
X022371Y016681D02*
X019922Y016681D01*
X019792Y017032D02*
X019623Y016962D01*
X018920Y016962D01*
X018751Y017032D01*
X018622Y017161D01*
X018552Y017330D01*
X018552Y017513D01*
X018622Y017682D01*
X018751Y017812D01*
X018920Y017882D01*
X019623Y017882D01*
X019792Y017812D01*
X019922Y017682D01*
X019992Y017513D01*
X019992Y017330D01*
X019922Y017161D01*
X019792Y017032D01*
X019919Y017158D02*
X022479Y017158D01*
X022514Y016920D02*
X011512Y016920D01*
X011512Y017158D02*
X018625Y017158D01*
X018552Y017397D02*
X011512Y017397D01*
X011512Y017635D02*
X018602Y017635D01*
X018901Y017874D02*
X011512Y017874D01*
X011512Y018112D02*
X018670Y018112D01*
X018622Y018161D02*
X018751Y018032D01*
X018920Y017962D01*
X019623Y017962D01*
X019792Y018032D01*
X019922Y018161D01*
X019992Y018330D01*
X019992Y018513D01*
X019922Y018682D01*
X019792Y018812D01*
X019623Y018882D01*
X018920Y018882D01*
X018751Y018812D01*
X018622Y018682D01*
X018552Y018513D01*
X018552Y018330D01*
X018622Y018161D01*
X018552Y018351D02*
X011512Y018351D01*
X011443Y018590D02*
X018583Y018590D01*
X018791Y018828D02*
X011205Y018828D01*
X010966Y019067D02*
X018716Y019067D01*
X018751Y019032D02*
X018920Y018962D01*
X019623Y018962D01*
X019792Y019032D01*
X019922Y019161D01*
X019992Y019330D01*
X019992Y019513D01*
X019922Y019682D01*
X019792Y019812D01*
X019623Y019882D01*
X018920Y019882D01*
X018751Y019812D01*
X018622Y019682D01*
X018552Y019513D01*
X018552Y019330D01*
X018622Y019161D01*
X018751Y019032D01*
X018562Y019305D02*
X010981Y019305D01*
X010979Y019544D02*
X018564Y019544D01*
X018722Y019782D02*
X010822Y019782D01*
X010766Y020021D02*
X018777Y020021D01*
X018751Y020032D02*
X018920Y019962D01*
X019623Y019962D01*
X019792Y020032D01*
X019922Y020161D01*
X019992Y020330D01*
X019992Y020513D01*
X019922Y020682D01*
X019792Y020812D01*
X019623Y020882D01*
X018920Y020882D01*
X018751Y020812D01*
X018622Y020682D01*
X018552Y020513D01*
X018552Y020330D01*
X018622Y020161D01*
X018751Y020032D01*
X018581Y020259D02*
X017049Y020259D01*
X017287Y020498D02*
X018552Y020498D01*
X018676Y020736D02*
X017526Y020736D01*
X017764Y020975D02*
X018888Y020975D01*
X018600Y021214D02*
X018003Y021214D01*
X018241Y021452D02*
X018552Y021452D01*
X019655Y020975D02*
X021132Y020975D01*
X021132Y020736D02*
X019867Y020736D01*
X019992Y020498D02*
X021132Y020498D01*
X021132Y020259D02*
X019962Y020259D01*
X019766Y020021D02*
X021132Y020021D01*
X021132Y019782D02*
X019822Y019782D01*
X019979Y019544D02*
X021034Y019544D01*
X021032Y019305D02*
X019981Y019305D01*
X019827Y019067D02*
X021292Y019067D01*
X021451Y019067D02*
X022571Y019067D01*
X022432Y018828D02*
X019753Y018828D01*
X019960Y018590D02*
X022352Y018590D01*
X022375Y018351D02*
X019992Y018351D01*
X019873Y018112D02*
X022525Y018112D01*
X022468Y017874D02*
X019642Y017874D01*
X019941Y017635D02*
X022352Y017635D01*
X022356Y017397D02*
X019992Y017397D01*
X018621Y016681D02*
X011512Y016681D01*
X011512Y016443D02*
X018552Y016443D01*
X018604Y016204D02*
X011512Y016204D01*
X011667Y015966D02*
X018911Y015966D01*
X018666Y015727D02*
X011906Y015727D01*
X012144Y015489D02*
X018552Y015489D01*
X018585Y015250D02*
X012383Y015250D01*
X012621Y015011D02*
X018800Y015011D01*
X018712Y014773D02*
X012860Y014773D01*
X013098Y014534D02*
X018560Y014534D01*
X018566Y014296D02*
X013337Y014296D01*
X013576Y014057D02*
X018726Y014057D01*
X018768Y013819D02*
X013814Y013819D01*
X014053Y013580D02*
X018579Y013580D01*
X018552Y013342D02*
X014291Y013342D01*
X014530Y013103D02*
X018680Y013103D01*
X018751Y012812D02*
X018622Y012682D01*
X018552Y012513D01*
X018552Y012330D01*
X018622Y012161D01*
X018751Y012032D01*
X018920Y011962D01*
X019623Y011962D01*
X019792Y012032D01*
X019922Y012161D01*
X019992Y012330D01*
X019992Y012513D01*
X019922Y012682D01*
X019792Y012812D01*
X019623Y012882D01*
X018920Y012882D01*
X018751Y012812D01*
X018879Y012865D02*
X014768Y012865D01*
X015007Y012626D02*
X018598Y012626D01*
X018552Y012387D02*
X015245Y012387D01*
X015651Y012149D02*
X018634Y012149D01*
X018751Y011812D02*
X018622Y011682D01*
X018552Y011513D01*
X018552Y011330D01*
X018622Y011161D01*
X018751Y011032D01*
X018920Y010962D01*
X019623Y010962D01*
X019792Y011032D01*
X019922Y011161D01*
X019992Y011330D01*
X019992Y011513D01*
X019922Y011682D01*
X019792Y011812D01*
X019623Y011882D01*
X018920Y011882D01*
X018751Y011812D01*
X018617Y011672D02*
X015629Y011672D01*
X015730Y011910D02*
X032295Y011910D01*
X032278Y011939D02*
X032425Y011684D01*
X032634Y011476D01*
X032889Y011328D01*
X033174Y011252D01*
X033469Y011252D01*
X033754Y011328D01*
X034009Y011476D01*
X034218Y011684D01*
X034365Y011939D01*
X034442Y012224D01*
X034442Y012519D01*
X034365Y012804D01*
X034218Y013059D01*
X034009Y013268D01*
X033754Y013415D01*
X033469Y013492D01*
X033174Y013492D01*
X032889Y013415D01*
X032634Y013268D01*
X032425Y013059D01*
X032278Y012804D01*
X032202Y012519D01*
X032202Y012224D01*
X032278Y011939D01*
X032222Y012149D02*
X019909Y012149D01*
X019992Y012387D02*
X032202Y012387D01*
X032230Y012626D02*
X019945Y012626D01*
X019665Y012865D02*
X032313Y012865D01*
X032469Y013103D02*
X019864Y013103D01*
X019992Y013342D02*
X032762Y013342D01*
X033580Y014057D02*
X023286Y014057D01*
X023469Y014296D02*
X033398Y014296D01*
X033352Y014534D02*
X023512Y014534D01*
X023456Y014773D02*
X033409Y014773D01*
X033614Y015011D02*
X024245Y015011D01*
X024253Y015013D02*
X024324Y015036D01*
X024391Y015070D01*
X024452Y015114D01*
X024505Y015167D01*
X024549Y015228D01*
X024583Y015295D01*
X024607Y015367D01*
X024618Y015441D01*
X024618Y015478D01*
X024141Y015478D01*
X024141Y015001D01*
X024179Y015001D01*
X024253Y015013D01*
X024141Y015011D02*
X024141Y015011D01*
X024141Y015001D02*
X024141Y015478D01*
X024141Y015478D01*
X024141Y015479D01*
X024618Y015479D01*
X024618Y015516D01*
X024607Y015590D01*
X024583Y015662D01*
X024549Y015729D01*
X024505Y015789D01*
X024452Y015843D01*
X024401Y015879D01*
X024529Y016007D01*
X024598Y016175D01*
X024598Y016357D01*
X024529Y016525D01*
X024400Y016654D01*
X024386Y016660D01*
X024400Y016665D01*
X024529Y016794D01*
X024598Y016962D01*
X024598Y017144D01*
X024529Y017312D01*
X024400Y017441D01*
X024386Y017447D01*
X024400Y017453D01*
X024529Y017581D01*
X024598Y017750D01*
X024598Y017932D01*
X024529Y018100D01*
X024400Y018228D01*
X024386Y018234D01*
X024400Y018240D01*
X024529Y018369D01*
X024598Y018537D01*
X024598Y018719D01*
X024529Y018887D01*
X024400Y019016D01*
X024386Y019022D01*
X024400Y019028D01*
X024529Y019156D01*
X024598Y019324D01*
X024598Y019506D01*
X024529Y019675D01*
X024400Y019803D01*
X024386Y019809D01*
X024400Y019815D01*
X024529Y019944D01*
X024598Y020112D01*
X024598Y020294D01*
X024529Y020462D01*
X024400Y020591D01*
X024386Y020597D01*
X024400Y020602D01*
X024529Y020731D01*
X024598Y020899D01*
X024598Y021081D01*
X024529Y021249D01*
X024400Y021378D01*
X024386Y021384D01*
X024400Y021390D01*
X024529Y021518D01*
X024598Y021687D01*
X024598Y021869D01*
X024529Y022037D01*
X024400Y022165D01*
X024386Y022171D01*
X024400Y022177D01*
X024529Y022306D01*
X024598Y022474D01*
X024598Y022656D01*
X024529Y022824D01*
X024400Y022953D01*
X024232Y023022D01*
X024050Y023022D01*
X023882Y022953D01*
X023753Y022824D01*
X023683Y022656D01*
X023683Y022474D01*
X023753Y022306D01*
X023882Y022177D01*
X023896Y022171D01*
X023882Y022165D01*
X023753Y022037D01*
X023683Y021869D01*
X023683Y021687D01*
X023753Y021518D01*
X023882Y021390D01*
X023896Y021384D01*
X023882Y021378D01*
X023753Y021249D01*
X023683Y021081D01*
X023683Y020899D01*
X023753Y020731D01*
X023882Y020602D01*
X023896Y020597D01*
X023882Y020591D01*
X023753Y020462D01*
X023683Y020294D01*
X023683Y020112D01*
X023753Y019944D01*
X023882Y019815D01*
X023896Y019809D01*
X023882Y019803D01*
X023753Y019675D01*
X023683Y019506D01*
X023683Y019324D01*
X023753Y019156D01*
X023882Y019028D01*
X023896Y019022D01*
X023882Y019016D01*
X023753Y018887D01*
X023683Y018719D01*
X023683Y018537D01*
X023753Y018369D01*
X023882Y018240D01*
X023896Y018234D01*
X023882Y018228D01*
X023753Y018100D01*
X023683Y017932D01*
X023683Y017750D01*
X023753Y017581D01*
X023882Y017453D01*
X023896Y017447D01*
X023882Y017441D01*
X023753Y017312D01*
X023683Y017144D01*
X023683Y016962D01*
X023753Y016794D01*
X023882Y016665D01*
X023896Y016660D01*
X023882Y016654D01*
X023753Y016525D01*
X023683Y016357D01*
X023683Y016175D01*
X023753Y016007D01*
X023880Y015879D01*
X023830Y015843D01*
X023777Y015789D01*
X023733Y015729D01*
X023698Y015662D01*
X023675Y015590D01*
X023663Y015516D01*
X023663Y015479D01*
X024141Y015479D01*
X024141Y015478D01*
X023663Y015478D01*
X023663Y015441D01*
X023675Y015367D01*
X023698Y015295D01*
X023733Y015228D01*
X023777Y015167D01*
X023830Y015114D01*
X023891Y015070D01*
X023958Y015036D01*
X024029Y015013D01*
X024103Y015001D01*
X024141Y015001D01*
X024037Y015011D02*
X023251Y015011D01*
X023426Y015250D02*
X023721Y015250D01*
X023663Y015489D02*
X023492Y015489D01*
X023454Y015727D02*
X023732Y015727D01*
X023794Y015966D02*
X023284Y015966D01*
X023407Y016204D02*
X023683Y016204D01*
X023719Y016443D02*
X023492Y016443D01*
X023473Y016681D02*
X023866Y016681D01*
X023701Y016920D02*
X023330Y016920D01*
X023364Y017158D02*
X023689Y017158D01*
X023838Y017397D02*
X023487Y017397D01*
X023492Y017635D02*
X023731Y017635D01*
X023683Y017874D02*
X023376Y017874D01*
X023319Y018112D02*
X023766Y018112D01*
X023771Y018351D02*
X023468Y018351D01*
X023492Y018590D02*
X023683Y018590D01*
X023729Y018828D02*
X023412Y018828D01*
X023273Y019067D02*
X023843Y019067D01*
X023691Y019305D02*
X023449Y019305D01*
X023492Y019544D02*
X023699Y019544D01*
X023861Y019782D02*
X023431Y019782D01*
X023206Y020021D02*
X023721Y020021D01*
X023683Y020259D02*
X023430Y020259D01*
X023492Y020498D02*
X023789Y020498D01*
X023751Y020736D02*
X023450Y020736D01*
X023274Y020975D02*
X023683Y020975D01*
X023738Y021214D02*
X023411Y021214D01*
X023492Y021452D02*
X023819Y021452D01*
X023683Y021691D02*
X023469Y021691D01*
X023320Y021929D02*
X023709Y021929D01*
X023887Y022168D02*
X023374Y022168D01*
X023491Y022406D02*
X023711Y022406D01*
X023683Y022645D02*
X023488Y022645D01*
X023366Y022883D02*
X023812Y022883D01*
X023328Y023122D02*
X033515Y023122D01*
X033477Y022883D02*
X033131Y022883D01*
X033190Y022824D02*
X033061Y022953D01*
X032893Y023022D01*
X032711Y023022D01*
X032543Y022953D01*
X032415Y022824D01*
X032345Y022656D01*
X032345Y022474D01*
X032415Y022306D01*
X032543Y022177D01*
X032557Y022171D01*
X032543Y022165D01*
X032415Y022037D01*
X032345Y021869D01*
X032345Y021687D01*
X032415Y021518D01*
X032543Y021390D01*
X032557Y021384D01*
X032543Y021378D01*
X032415Y021249D01*
X032345Y021081D01*
X032345Y020899D01*
X032415Y020731D01*
X032543Y020602D01*
X032557Y020596D01*
X032543Y020591D01*
X032415Y020462D01*
X032345Y020294D01*
X032345Y020112D01*
X032415Y019944D01*
X032543Y019815D01*
X032557Y019809D01*
X032543Y019803D01*
X032415Y019675D01*
X032345Y019506D01*
X032345Y019324D01*
X032415Y019156D01*
X032543Y019028D01*
X032557Y019022D01*
X032543Y019016D01*
X032415Y018887D01*
X032345Y018719D01*
X032345Y018537D01*
X032415Y018369D01*
X032543Y018240D01*
X032557Y018234D01*
X032543Y018228D01*
X032415Y018100D01*
X032345Y017932D01*
X032345Y017750D01*
X032415Y017581D01*
X032543Y017453D01*
X032557Y017447D01*
X032543Y017441D01*
X032415Y017312D01*
X032345Y017144D01*
X032345Y016962D01*
X032415Y016794D01*
X032543Y016665D01*
X032557Y016659D01*
X032543Y016654D01*
X032415Y016525D01*
X032345Y016357D01*
X032345Y016175D01*
X032415Y016007D01*
X032543Y015878D01*
X032557Y015872D01*
X032543Y015866D01*
X032415Y015738D01*
X032345Y015569D01*
X032345Y015387D01*
X032415Y015219D01*
X032543Y015091D01*
X032711Y015021D01*
X032893Y015021D01*
X033061Y015091D01*
X033190Y015219D01*
X033260Y015387D01*
X033260Y015569D01*
X033190Y015738D01*
X033061Y015866D01*
X033047Y015872D01*
X033061Y015878D01*
X033190Y016007D01*
X033260Y016175D01*
X033260Y016357D01*
X033190Y016525D01*
X033061Y016654D01*
X033047Y016659D01*
X033061Y016665D01*
X033190Y016794D01*
X033260Y016962D01*
X033260Y017144D01*
X033190Y017312D01*
X033061Y017441D01*
X033047Y017447D01*
X033061Y017453D01*
X033190Y017581D01*
X033260Y017750D01*
X033260Y017932D01*
X033190Y018100D01*
X033061Y018228D01*
X033047Y018234D01*
X033061Y018240D01*
X033190Y018369D01*
X033260Y018537D01*
X033260Y018719D01*
X033190Y018887D01*
X033061Y019016D01*
X033047Y019022D01*
X033061Y019028D01*
X033190Y019156D01*
X033260Y019324D01*
X033260Y019506D01*
X033190Y019675D01*
X033061Y019803D01*
X033047Y019809D01*
X033061Y019815D01*
X033190Y019944D01*
X033260Y020112D01*
X033260Y020294D01*
X033190Y020462D01*
X033061Y020591D01*
X033047Y020596D01*
X033061Y020602D01*
X033190Y020731D01*
X033260Y020899D01*
X033260Y021081D01*
X033190Y021249D01*
X033061Y021378D01*
X033047Y021384D01*
X033061Y021390D01*
X033190Y021518D01*
X033260Y021687D01*
X033260Y021869D01*
X033190Y022037D01*
X033061Y022165D01*
X033047Y022171D01*
X033061Y022177D01*
X033190Y022306D01*
X033260Y022474D01*
X033260Y022656D01*
X033190Y022824D01*
X033260Y022645D02*
X033356Y022645D01*
X033352Y022406D02*
X033232Y022406D01*
X033056Y022168D02*
X033470Y022168D01*
X033523Y021929D02*
X033235Y021929D01*
X033260Y021691D02*
X033375Y021691D01*
X033352Y021452D02*
X033124Y021452D01*
X033205Y021214D02*
X033432Y021214D01*
X033569Y020975D02*
X033260Y020975D01*
X033192Y020736D02*
X033394Y020736D01*
X033352Y020498D02*
X033154Y020498D01*
X033260Y020259D02*
X033413Y020259D01*
X033222Y020021D02*
X033637Y020021D01*
X033413Y019782D02*
X033082Y019782D01*
X033244Y019544D02*
X033352Y019544D01*
X033394Y019305D02*
X033252Y019305D01*
X033101Y019067D02*
X033571Y019067D01*
X033432Y018828D02*
X033215Y018828D01*
X033260Y018590D02*
X033352Y018590D01*
X033375Y018351D02*
X033172Y018351D01*
X033177Y018112D02*
X033525Y018112D01*
X033468Y017874D02*
X033260Y017874D01*
X033212Y017635D02*
X033352Y017635D01*
X033356Y017397D02*
X033106Y017397D01*
X033254Y017158D02*
X033479Y017158D01*
X033514Y016920D02*
X033242Y016920D01*
X033371Y016681D02*
X033077Y016681D01*
X033224Y016443D02*
X033352Y016443D01*
X033436Y016204D02*
X033260Y016204D01*
X033149Y015966D02*
X033559Y015966D01*
X033390Y015727D02*
X033195Y015727D01*
X033260Y015489D02*
X033352Y015489D01*
X033417Y015250D02*
X033203Y015250D01*
X032402Y015250D02*
X024560Y015250D01*
X024618Y015489D02*
X032345Y015489D01*
X032410Y015727D02*
X024550Y015727D01*
X024488Y015966D02*
X032456Y015966D01*
X032345Y016204D02*
X024598Y016204D01*
X024563Y016443D02*
X032380Y016443D01*
X032527Y016681D02*
X024416Y016681D01*
X024581Y016920D02*
X032362Y016920D01*
X032351Y017158D02*
X024593Y017158D01*
X024444Y017397D02*
X032499Y017397D01*
X032392Y017635D02*
X024551Y017635D01*
X024598Y017874D02*
X032345Y017874D01*
X032427Y018112D02*
X024516Y018112D01*
X024511Y018351D02*
X032432Y018351D01*
X032345Y018590D02*
X024598Y018590D01*
X024553Y018828D02*
X032390Y018828D01*
X032504Y019067D02*
X024439Y019067D01*
X024590Y019305D02*
X032353Y019305D01*
X032360Y019544D02*
X024583Y019544D01*
X024421Y019782D02*
X032522Y019782D01*
X032383Y020021D02*
X024561Y020021D01*
X024598Y020259D02*
X032345Y020259D01*
X032450Y020498D02*
X024493Y020498D01*
X024531Y020736D02*
X032412Y020736D01*
X032345Y020975D02*
X024598Y020975D01*
X024544Y021214D02*
X032400Y021214D01*
X032481Y021452D02*
X024462Y021452D01*
X024598Y021691D02*
X032345Y021691D01*
X032370Y021929D02*
X024573Y021929D01*
X024395Y022168D02*
X032549Y022168D01*
X032373Y022406D02*
X024570Y022406D01*
X024598Y022645D02*
X032345Y022645D01*
X032474Y022883D02*
X024470Y022883D01*
X023472Y023360D02*
X033371Y023360D01*
X033352Y023599D02*
X023492Y023599D01*
X023408Y023838D02*
X033436Y023838D01*
X033771Y024076D02*
X023073Y024076D01*
X022771Y024076D02*
X022465Y024076D01*
X022436Y023838D02*
X022227Y023838D01*
X022352Y023599D02*
X021988Y023599D01*
X021750Y023360D02*
X022371Y023360D01*
X022515Y023122D02*
X021511Y023122D01*
X021273Y022883D02*
X022477Y022883D01*
X022356Y022645D02*
X021034Y022645D01*
X020796Y022406D02*
X022352Y022406D01*
X022228Y022168D02*
X020557Y022168D01*
X020319Y021929D02*
X021990Y021929D01*
X021751Y021691D02*
X020041Y021691D01*
X019992Y021452D02*
X021513Y021452D01*
X021274Y021214D02*
X019943Y021214D01*
X021612Y020736D02*
X022394Y020736D01*
X022352Y020498D02*
X021612Y020498D01*
X021612Y020259D02*
X022413Y020259D01*
X022637Y020021D02*
X021612Y020021D01*
X021612Y019782D02*
X022413Y019782D01*
X022352Y019544D02*
X021709Y019544D01*
X021711Y019305D02*
X022394Y019305D01*
X022569Y020975D02*
X021714Y020975D01*
X021953Y021214D02*
X022432Y021214D01*
X022352Y021452D02*
X022191Y021452D01*
X022704Y024315D02*
X035992Y024315D01*
X035992Y024553D02*
X022942Y024553D01*
X023181Y024792D02*
X035992Y024792D01*
X035992Y025030D02*
X023587Y025030D01*
X023730Y025269D02*
X035992Y025269D01*
X035992Y025507D02*
X023683Y025507D01*
X023687Y025746D02*
X035992Y025746D01*
X035992Y025984D02*
X023730Y025984D01*
X023577Y026223D02*
X035992Y026223D01*
X035992Y026461D02*
X022967Y026461D01*
X023050Y026223D02*
X023166Y026223D01*
X022377Y026461D02*
X021900Y026461D01*
X022139Y026700D02*
X035992Y026700D01*
X035980Y026939D02*
X022377Y026939D01*
X022616Y027177D02*
X035865Y027177D01*
X035912Y027416D02*
X022855Y027416D01*
X022414Y027654D02*
X019552Y027654D01*
X019552Y027416D02*
X022176Y027416D01*
X021937Y027177D02*
X019552Y027177D01*
X019552Y026939D02*
X021699Y026939D01*
X021460Y026700D02*
X019904Y026700D01*
X019992Y026461D02*
X021222Y026461D01*
X020983Y026223D02*
X019947Y026223D01*
X019922Y026162D02*
X020922Y026162D01*
X022701Y027941D01*
X022585Y027893D01*
X022653Y027893D01*
X022585Y027893D02*
X022358Y027893D01*
X021495Y027893D01*
X021494Y027893D02*
X021704Y027979D01*
X021864Y028140D01*
X021926Y028290D01*
X021988Y028140D01*
X022149Y027979D01*
X022358Y027893D01*
X021997Y028131D02*
X021856Y028131D01*
X021494Y027893D02*
X021268Y027893D01*
X021058Y027979D01*
X020898Y028140D01*
X020861Y028230D01*
X020861Y028010D01*
X020743Y027893D01*
X019838Y027893D01*
X018992Y027893D02*
X017973Y027893D01*
X018357Y028131D02*
X018992Y028131D01*
X018992Y028370D02*
X018560Y028370D01*
X018682Y028608D02*
X018992Y028608D01*
X018992Y028847D02*
X018746Y028847D01*
X018750Y029085D02*
X018992Y029085D01*
X018992Y029324D02*
X018712Y029324D01*
X018624Y029563D02*
X018992Y029563D01*
X018992Y029801D02*
X018468Y029801D01*
X018187Y030040D02*
X018992Y030040D01*
X016914Y030040D02*
X010252Y030040D01*
X010252Y029801D02*
X016633Y029801D01*
X016477Y029563D02*
X010252Y029563D01*
X010375Y029324D02*
X010695Y029324D01*
X011248Y029324D02*
X011540Y029324D01*
X011971Y029324D02*
X011972Y029324D01*
X011971Y029085D02*
X011972Y029085D01*
X011971Y028847D02*
X011972Y028847D01*
X011971Y028608D02*
X011972Y028608D01*
X011971Y028370D02*
X011972Y028370D01*
X012182Y028370D02*
X012617Y028370D01*
X013326Y028370D02*
X013814Y028370D01*
X014129Y028370D02*
X014617Y028370D01*
X015326Y028370D02*
X016541Y028370D01*
X016419Y028608D02*
X015500Y028608D01*
X015542Y028847D02*
X016355Y028847D01*
X016350Y029085D02*
X015479Y029085D01*
X015248Y029324D02*
X016389Y029324D01*
X016744Y028131D02*
X011237Y028131D01*
X011326Y028370D02*
X011761Y028370D01*
X012404Y029324D02*
X012695Y029324D01*
X013248Y029324D02*
X013568Y029324D01*
X014375Y029324D02*
X014695Y029324D01*
X017127Y027893D02*
X008952Y027893D01*
X008952Y027654D02*
X018992Y027654D01*
X018992Y027416D02*
X008952Y027416D01*
X008952Y027177D02*
X018992Y027177D01*
X018992Y026939D02*
X008952Y026939D01*
X006432Y024553D02*
X004878Y024553D01*
X004878Y024315D02*
X004665Y024315D01*
X004665Y024076D02*
X004878Y024076D01*
X004878Y023838D02*
X004665Y023838D01*
X004665Y023599D02*
X004878Y023599D01*
X004878Y023360D02*
X004665Y023360D01*
X004665Y023122D02*
X004878Y023122D01*
X004878Y024792D02*
X004665Y024792D01*
X004665Y025030D02*
X004878Y025030D01*
X004878Y025269D02*
X004665Y025269D01*
X004665Y025507D02*
X004878Y025507D01*
X005633Y029085D02*
X005712Y029085D01*
X005644Y030040D02*
X006620Y030040D01*
X006786Y030278D02*
X005644Y030278D01*
X012905Y026223D02*
X018596Y026223D01*
X020743Y027893D02*
X021267Y027893D01*
X020906Y028131D02*
X020861Y028131D01*
X021369Y029324D02*
X021418Y029324D01*
X022439Y029324D02*
X022504Y029324D01*
X023526Y029324D02*
X023595Y029324D01*
X024453Y030040D02*
X026756Y030040D01*
X026475Y029801D02*
X024631Y029801D01*
X024675Y029563D02*
X026320Y029563D01*
X026232Y029324D02*
X024616Y029324D01*
X024178Y028131D02*
X024037Y028131D01*
X023258Y030994D02*
X033885Y030994D01*
X034258Y030994D02*
X041852Y030994D01*
X039878Y030517D02*
X039665Y030517D01*
X039665Y030278D02*
X039878Y030278D01*
X039878Y030040D02*
X039665Y030040D01*
X039665Y029324D02*
X039878Y029324D01*
X039878Y029085D02*
X039665Y029085D01*
X039422Y028847D02*
X040325Y028847D01*
X040265Y028608D02*
X039422Y028608D01*
X039422Y028370D02*
X040348Y028370D01*
X040392Y028131D02*
X038831Y028131D01*
X039422Y027893D02*
X040392Y027893D01*
X040392Y027654D02*
X039422Y027654D01*
X039422Y027416D02*
X040392Y027416D01*
X040392Y027177D02*
X039394Y027177D01*
X039422Y026939D02*
X040392Y026939D01*
X040392Y026700D02*
X039422Y026700D01*
X039376Y026461D02*
X040392Y026461D01*
X040392Y026223D02*
X039363Y026223D01*
X039422Y025984D02*
X040392Y025984D01*
X040392Y025746D02*
X039422Y025746D01*
X039665Y025507D02*
X039878Y025507D01*
X039878Y025269D02*
X039665Y025269D01*
X039665Y025030D02*
X039878Y025030D01*
X039878Y024792D02*
X039665Y024792D01*
X039665Y024741D02*
X039665Y024529D01*
X038899Y024529D01*
X038899Y023953D01*
X038914Y023897D01*
X038943Y023847D01*
X038984Y023806D01*
X039034Y023777D01*
X039090Y023762D01*
X039665Y023762D01*
X039665Y024528D01*
X039878Y024528D01*
X039878Y023762D01*
X040392Y023762D01*
X040392Y023681D01*
X039878Y023681D01*
X039878Y022915D01*
X039665Y022915D01*
X039665Y023681D01*
X039090Y023681D01*
X039034Y023666D01*
X038984Y023637D01*
X038943Y023596D01*
X038914Y023546D01*
X038899Y023490D01*
X038899Y022915D01*
X039665Y022915D01*
X039665Y022702D01*
X038899Y022702D01*
X038899Y022127D01*
X038914Y022071D01*
X038933Y022037D01*
X038831Y022037D01*
X038831Y022117D01*
X038714Y022234D01*
X038112Y022234D01*
X038112Y024155D01*
X038175Y024219D01*
X038230Y024350D01*
X038230Y024493D01*
X038175Y024625D01*
X038112Y024689D01*
X038112Y025209D01*
X038714Y025209D01*
X038831Y025326D01*
X038831Y025406D01*
X038933Y025406D01*
X038914Y025373D01*
X038899Y025317D01*
X038899Y024741D01*
X039665Y024741D01*
X039665Y024553D02*
X038205Y024553D01*
X038215Y024315D02*
X038899Y024315D01*
X038899Y024076D02*
X038112Y024076D01*
X038112Y023838D02*
X038953Y023838D01*
X038946Y023599D02*
X038112Y023599D01*
X038112Y023360D02*
X038899Y023360D01*
X038899Y023122D02*
X038112Y023122D01*
X038112Y022883D02*
X039665Y022883D01*
X039665Y022702D02*
X039878Y022702D01*
X039878Y021936D01*
X040392Y021936D01*
X040392Y021917D01*
X040327Y021852D01*
X040265Y021703D01*
X040265Y021541D01*
X040327Y021391D01*
X040392Y021327D01*
X040392Y018508D01*
X039878Y018508D01*
X039878Y017742D01*
X039665Y017742D01*
X039665Y018508D01*
X039407Y018508D01*
X039422Y018523D01*
X039422Y019164D01*
X039305Y019282D01*
X038831Y019282D01*
X038831Y019390D01*
X039305Y019390D01*
X039422Y019507D01*
X039422Y020149D01*
X039349Y020222D01*
X039422Y020295D01*
X039422Y020936D01*
X039305Y021053D01*
X038831Y021053D01*
X038831Y021162D01*
X039305Y021162D01*
X039422Y021279D01*
X039422Y021920D01*
X039407Y021936D01*
X039665Y021936D01*
X039665Y022702D01*
X039665Y022645D02*
X039878Y022645D01*
X039878Y022406D02*
X039665Y022406D01*
X039665Y022168D02*
X039878Y022168D01*
X039413Y021929D02*
X040392Y021929D01*
X040265Y021691D02*
X039422Y021691D01*
X039422Y021452D02*
X040302Y021452D01*
X040392Y021214D02*
X039357Y021214D01*
X039383Y020975D02*
X040392Y020975D01*
X040392Y020736D02*
X039422Y020736D01*
X039422Y020498D02*
X040392Y020498D01*
X040392Y020259D02*
X039387Y020259D01*
X039422Y020021D02*
X040392Y020021D01*
X040392Y019782D02*
X039422Y019782D01*
X039422Y019544D02*
X040392Y019544D01*
X040392Y019305D02*
X038831Y019305D01*
X039422Y019067D02*
X040392Y019067D01*
X040392Y018828D02*
X039422Y018828D01*
X039422Y018590D02*
X040392Y018590D01*
X039878Y018351D02*
X039665Y018351D01*
X039665Y018112D02*
X039878Y018112D01*
X039878Y017874D02*
X039665Y017874D01*
X039665Y017741D02*
X039665Y017529D01*
X038899Y017529D01*
X038899Y016953D01*
X038914Y016897D01*
X038943Y016847D01*
X038984Y016806D01*
X039034Y016777D01*
X039090Y016762D01*
X039665Y016762D01*
X039665Y017528D01*
X039878Y017528D01*
X039878Y016762D01*
X040392Y016762D01*
X040392Y016681D01*
X039878Y016681D01*
X039878Y015915D01*
X039665Y015915D01*
X039665Y016681D01*
X039090Y016681D01*
X039034Y016666D01*
X038984Y016637D01*
X038943Y016596D01*
X038914Y016546D01*
X038899Y016490D01*
X038899Y015915D01*
X039665Y015915D01*
X039665Y015702D01*
X038899Y015702D01*
X038899Y015127D01*
X038914Y015071D01*
X038933Y015037D01*
X038831Y015037D01*
X038831Y015117D01*
X038714Y015234D01*
X038112Y015234D01*
X038112Y018209D01*
X038714Y018209D01*
X038831Y018326D01*
X038831Y018406D01*
X038933Y018406D01*
X038914Y018373D01*
X038899Y018317D01*
X038899Y017741D01*
X039665Y017741D01*
X039665Y017635D02*
X038112Y017635D01*
X038112Y017397D02*
X038899Y017397D01*
X038899Y017158D02*
X038112Y017158D01*
X038112Y016920D02*
X038908Y016920D01*
X038899Y016443D02*
X038112Y016443D01*
X038112Y016681D02*
X040392Y016681D01*
X039878Y016443D02*
X039665Y016443D01*
X039665Y016204D02*
X039878Y016204D01*
X039878Y015966D02*
X039665Y015966D01*
X039665Y015727D02*
X038112Y015727D01*
X038112Y015489D02*
X038899Y015489D01*
X038899Y015250D02*
X038112Y015250D01*
X038112Y015966D02*
X038899Y015966D01*
X038899Y016204D02*
X038112Y016204D01*
X039407Y014936D02*
X039665Y014936D01*
X039665Y015702D01*
X039878Y015702D01*
X039878Y014936D01*
X040392Y014936D01*
X040392Y014917D01*
X040327Y014852D01*
X040265Y014703D01*
X040265Y014541D01*
X040327Y014391D01*
X040392Y014327D01*
X040392Y011508D01*
X039878Y011508D01*
X039878Y010742D01*
X039665Y010742D01*
X039665Y011508D01*
X039407Y011508D01*
X039422Y011523D01*
X039422Y012164D01*
X039305Y012282D01*
X038831Y012282D01*
X038831Y012390D01*
X039305Y012390D01*
X039422Y012507D01*
X039422Y013149D01*
X039349Y013222D01*
X039422Y013295D01*
X039422Y013936D01*
X039305Y014053D01*
X038831Y014053D01*
X038831Y014162D01*
X039305Y014162D01*
X039422Y014279D01*
X039422Y014920D01*
X039407Y014936D01*
X039422Y014773D02*
X040294Y014773D01*
X040268Y014534D02*
X039422Y014534D01*
X039422Y014296D02*
X040392Y014296D01*
X040392Y014057D02*
X038831Y014057D01*
X039422Y013819D02*
X040392Y013819D01*
X040392Y013580D02*
X039422Y013580D01*
X039422Y013342D02*
X040392Y013342D01*
X040392Y013103D02*
X039422Y013103D01*
X039422Y012865D02*
X040392Y012865D01*
X040392Y012626D02*
X039422Y012626D01*
X039422Y012149D02*
X040392Y012149D01*
X040392Y012387D02*
X038831Y012387D01*
X039422Y011910D02*
X040392Y011910D01*
X040392Y011672D02*
X039422Y011672D01*
X039665Y011433D02*
X039878Y011433D01*
X039878Y011195D02*
X039665Y011195D01*
X039665Y010956D02*
X039878Y010956D01*
X039665Y010741D02*
X039665Y010529D01*
X038899Y010529D01*
X038899Y009953D01*
X038914Y009897D01*
X038943Y009847D01*
X038984Y009806D01*
X039034Y009777D01*
X039090Y009762D01*
X039665Y009762D01*
X039665Y010528D01*
X039878Y010528D01*
X039878Y009762D01*
X040392Y009762D01*
X040392Y009681D01*
X039878Y009681D01*
X039878Y008915D01*
X039665Y008915D01*
X039665Y009681D01*
X039090Y009681D01*
X039034Y009666D01*
X038984Y009637D01*
X038943Y009596D01*
X038914Y009546D01*
X038899Y009490D01*
X038899Y008915D01*
X039665Y008915D01*
X039665Y008702D01*
X038899Y008702D01*
X038899Y008127D01*
X038914Y008071D01*
X038933Y008037D01*
X038831Y008037D01*
X038831Y008117D01*
X038714Y008234D01*
X038112Y008234D01*
X038112Y011209D01*
X038714Y011209D01*
X038831Y011326D01*
X038831Y011406D01*
X038933Y011406D01*
X038914Y011373D01*
X038899Y011317D01*
X038899Y010741D01*
X039665Y010741D01*
X039665Y010718D02*
X038112Y010718D01*
X038112Y010956D02*
X038899Y010956D01*
X038899Y011195D02*
X038112Y011195D01*
X038112Y010479D02*
X038899Y010479D01*
X038899Y010241D02*
X038112Y010241D01*
X038112Y010002D02*
X038899Y010002D01*
X039086Y009763D02*
X038112Y009763D01*
X038112Y009525D02*
X038908Y009525D01*
X038899Y009286D02*
X038112Y009286D01*
X038112Y009048D02*
X038899Y009048D01*
X038899Y008571D02*
X038112Y008571D01*
X038112Y008809D02*
X039665Y008809D01*
X039665Y008702D02*
X039878Y008702D01*
X039878Y007936D01*
X040392Y007936D01*
X040392Y007917D01*
X040327Y007852D01*
X040265Y007703D01*
X040265Y007541D01*
X040327Y007391D01*
X040392Y007327D01*
X040392Y004508D01*
X039878Y004508D01*
X039878Y003742D01*
X039665Y003742D01*
X039665Y004508D01*
X039407Y004508D01*
X039422Y004523D01*
X039422Y005164D01*
X039305Y005282D01*
X038831Y005282D01*
X038831Y005390D01*
X039305Y005390D01*
X039422Y005507D01*
X039422Y006149D01*
X039349Y006222D01*
X039422Y006295D01*
X039422Y006936D01*
X039305Y007053D01*
X038831Y007053D01*
X038831Y007162D01*
X039305Y007162D01*
X039422Y007279D01*
X039422Y007920D01*
X039407Y007936D01*
X039665Y007936D01*
X039665Y008702D01*
X039665Y008571D02*
X039878Y008571D01*
X039878Y008332D02*
X039665Y008332D01*
X039665Y008094D02*
X039878Y008094D01*
X040330Y007855D02*
X039422Y007855D01*
X039422Y007617D02*
X040265Y007617D01*
X040340Y007378D02*
X039422Y007378D01*
X039422Y006901D02*
X040392Y006901D01*
X040392Y007139D02*
X038831Y007139D01*
X039422Y006662D02*
X040392Y006662D01*
X040392Y006424D02*
X039422Y006424D01*
X039385Y006185D02*
X040392Y006185D01*
X040392Y005947D02*
X039422Y005947D01*
X039422Y005708D02*
X040392Y005708D01*
X040392Y005470D02*
X039384Y005470D01*
X039355Y005231D02*
X040392Y005231D01*
X040392Y004993D02*
X039422Y004993D01*
X039422Y004754D02*
X040392Y004754D01*
X040392Y004516D02*
X039414Y004516D01*
X039665Y004277D02*
X039878Y004277D01*
X039878Y004038D02*
X039665Y004038D01*
X039665Y003800D02*
X039878Y003800D01*
X039665Y003561D02*
X037882Y003561D01*
X038233Y003323D02*
X038899Y003323D01*
X038899Y003084D02*
X038378Y003084D01*
X038442Y002846D02*
X038944Y002846D01*
X038442Y002607D02*
X039961Y002607D01*
X039878Y002846D02*
X039665Y002846D01*
X039665Y003084D02*
X039878Y003084D01*
X039878Y003323D02*
X039665Y003323D01*
X038899Y003800D02*
X035289Y003800D01*
X035051Y004038D02*
X038899Y004038D01*
X038899Y004277D02*
X038782Y004277D01*
X038005Y004277D02*
X037656Y004277D01*
X037447Y004277D02*
X034812Y004277D01*
X034602Y004516D02*
X037208Y004516D01*
X037219Y004754D02*
X034602Y004754D01*
X034602Y004993D02*
X037312Y004993D01*
X037312Y005231D02*
X037221Y005231D01*
X037270Y005470D02*
X037312Y005470D01*
X037312Y005708D02*
X037152Y005708D01*
X037152Y005947D02*
X037312Y005947D01*
X037312Y006185D02*
X037152Y006185D01*
X036672Y005947D02*
X036572Y005947D01*
X036672Y005708D02*
X034638Y005708D01*
X034602Y005470D02*
X036553Y005470D01*
X036603Y005231D02*
X034602Y005231D01*
X034042Y005231D02*
X030182Y005231D01*
X030182Y005470D02*
X034042Y005470D01*
X034006Y005708D02*
X033661Y005708D01*
X033322Y005708D02*
X033321Y005708D01*
X033321Y005947D02*
X033322Y005947D01*
X033321Y006185D02*
X033322Y006185D01*
X033321Y006424D02*
X033322Y006424D01*
X033321Y006662D02*
X033322Y006662D01*
X033321Y006901D02*
X033322Y006901D01*
X033321Y007139D02*
X033322Y007139D01*
X033756Y007139D02*
X033910Y007139D01*
X034092Y007378D02*
X030002Y007378D01*
X030002Y007139D02*
X031910Y007139D01*
X031792Y006901D02*
X030002Y006901D01*
X030002Y006662D02*
X031792Y006662D01*
X031792Y006424D02*
X030002Y006424D01*
X030002Y006185D02*
X031792Y006185D01*
X031829Y005947D02*
X030151Y005947D01*
X030182Y005708D02*
X032006Y005708D01*
X032638Y005708D02*
X032983Y005708D01*
X034042Y004993D02*
X030103Y004993D01*
X029340Y004993D02*
X029103Y004993D01*
X029112Y005001D02*
X029182Y005170D01*
X029182Y005873D01*
X029112Y006042D01*
X028982Y006172D01*
X028813Y006242D01*
X028630Y006242D01*
X028461Y006172D01*
X028332Y006042D01*
X028262Y005873D01*
X028262Y005401D01*
X028182Y005321D01*
X028182Y005873D01*
X028112Y006042D01*
X027982Y006172D01*
X027813Y006242D01*
X027630Y006242D01*
X027461Y006172D01*
X027332Y006042D01*
X027262Y005873D01*
X027262Y005170D01*
X027332Y005001D01*
X027461Y004872D01*
X027630Y004802D01*
X027662Y004802D01*
X027522Y004662D01*
X027466Y004662D01*
X027386Y004742D01*
X027247Y004800D01*
X027096Y004800D01*
X026957Y004742D01*
X026851Y004636D01*
X026794Y004497D01*
X026794Y004346D01*
X026851Y004208D01*
X026957Y004101D01*
X027096Y004044D01*
X027247Y004044D01*
X027386Y004101D01*
X027466Y004182D01*
X027574Y004182D01*
X027669Y004182D01*
X027758Y004218D01*
X028436Y004897D01*
X028461Y004872D01*
X028630Y004802D01*
X028813Y004802D01*
X028982Y004872D01*
X029112Y005001D01*
X029182Y005231D02*
X029262Y005231D01*
X029262Y005470D02*
X029182Y005470D01*
X029182Y005708D02*
X029262Y005708D01*
X029292Y005947D02*
X029151Y005947D01*
X028949Y006185D02*
X029442Y006185D01*
X029442Y006424D02*
X021303Y006424D01*
X021541Y006662D02*
X029442Y006662D01*
X029442Y006901D02*
X021780Y006901D01*
X022018Y007139D02*
X029442Y007139D01*
X029442Y007378D02*
X022257Y007378D01*
X022495Y007617D02*
X029442Y007617D01*
X029442Y007855D02*
X028942Y007855D01*
X028982Y007872D02*
X028813Y007802D01*
X028630Y007802D01*
X028461Y007872D01*
X028332Y008001D01*
X028262Y008170D01*
X028262Y008873D01*
X028332Y009042D01*
X028461Y009172D01*
X028630Y009242D01*
X028813Y009242D01*
X028982Y009172D01*
X029112Y009042D01*
X029182Y008873D01*
X029182Y008170D01*
X029112Y008001D01*
X028982Y007872D01*
X029150Y008094D02*
X029293Y008094D01*
X029262Y008332D02*
X029182Y008332D01*
X029182Y008571D02*
X029262Y008571D01*
X029262Y008809D02*
X029182Y008809D01*
X029106Y009048D02*
X029337Y009048D01*
X030106Y009048D02*
X035992Y009048D01*
X035992Y009286D02*
X023296Y009286D01*
X023058Y009525D02*
X035992Y009525D01*
X035992Y009763D02*
X022819Y009763D01*
X022581Y010002D02*
X035992Y010002D01*
X035992Y010241D02*
X025052Y010241D01*
X024973Y010161D02*
X025212Y010400D01*
X025342Y010713D01*
X025342Y011051D01*
X025212Y011363D01*
X024973Y011602D01*
X024661Y011732D01*
X024323Y011732D01*
X024010Y011602D01*
X023771Y011363D01*
X023642Y011051D01*
X023642Y010713D01*
X023771Y010400D01*
X024010Y010161D01*
X024323Y010032D01*
X024661Y010032D01*
X024973Y010161D01*
X025245Y010479D02*
X035992Y010479D01*
X035992Y010718D02*
X025342Y010718D01*
X025342Y010956D02*
X035992Y010956D01*
X035992Y011195D02*
X025282Y011195D01*
X025142Y011433D02*
X032707Y011433D01*
X032438Y011672D02*
X024805Y011672D01*
X024178Y011672D02*
X019926Y011672D01*
X019992Y011433D02*
X023841Y011433D01*
X023701Y011195D02*
X019935Y011195D01*
X019886Y010718D02*
X023642Y010718D01*
X023642Y010956D02*
X012412Y010956D01*
X012412Y010718D02*
X018657Y010718D01*
X018552Y010479D02*
X012412Y010479D01*
X012412Y010241D02*
X018589Y010241D01*
X018823Y010002D02*
X012412Y010002D01*
X012412Y009763D02*
X018703Y009763D01*
X018751Y009812D02*
X018622Y009682D01*
X018552Y009513D01*
X018552Y009330D01*
X018622Y009161D01*
X018751Y009032D01*
X018920Y008962D01*
X019623Y008962D01*
X019792Y009032D01*
X019922Y009161D01*
X019992Y009330D01*
X019992Y009513D01*
X019922Y009682D01*
X019792Y009812D01*
X019623Y009882D01*
X018920Y009882D01*
X018751Y009812D01*
X018557Y009525D02*
X012412Y009525D01*
X012446Y009286D02*
X018570Y009286D01*
X018735Y009048D02*
X012685Y009048D01*
X012923Y008809D02*
X018749Y008809D01*
X018751Y008812D02*
X018622Y008682D01*
X018552Y008513D01*
X018552Y008330D01*
X018622Y008161D01*
X018751Y008032D01*
X018920Y007962D01*
X019623Y007962D01*
X019792Y008032D01*
X019922Y008161D01*
X019992Y008330D01*
X019992Y008513D01*
X019922Y008682D01*
X019792Y008812D01*
X019623Y008882D01*
X018920Y008882D01*
X018751Y008812D01*
X018576Y008571D02*
X013162Y008571D01*
X013401Y008332D02*
X018552Y008332D01*
X018689Y008094D02*
X013639Y008094D01*
X013878Y007855D02*
X018856Y007855D01*
X018643Y007139D02*
X010900Y007139D01*
X010687Y007855D02*
X011532Y007855D01*
X011532Y008094D02*
X010854Y008094D01*
X011494Y008332D02*
X011532Y008332D01*
X011512Y008571D02*
X011532Y008571D01*
X011512Y008809D02*
X011532Y008809D01*
X011512Y009048D02*
X011532Y009048D01*
X011512Y009286D02*
X011532Y009286D01*
X011512Y009525D02*
X011532Y009525D01*
X011512Y009763D02*
X011532Y009763D01*
X011512Y010002D02*
X011532Y010002D01*
X011512Y010241D02*
X011532Y010241D01*
X011512Y010479D02*
X011532Y010479D01*
X011512Y010718D02*
X011532Y010718D01*
X011512Y010956D02*
X011532Y010956D01*
X011512Y011195D02*
X011532Y011195D01*
X011512Y011433D02*
X011532Y011433D01*
X011512Y011672D02*
X011532Y011672D01*
X011512Y011910D02*
X011532Y011910D01*
X011512Y012149D02*
X011532Y012149D01*
X011512Y012387D02*
X011532Y012387D01*
X011512Y012626D02*
X011532Y012626D01*
X011512Y012865D02*
X011532Y012865D01*
X011512Y013103D02*
X011532Y013103D01*
X011512Y013342D02*
X011532Y013342D01*
X011512Y013580D02*
X011532Y013580D01*
X011512Y013819D02*
X011532Y013819D01*
X011512Y014057D02*
X011532Y014057D01*
X011512Y014296D02*
X011532Y014296D01*
X011512Y014534D02*
X011524Y014534D01*
X011032Y014534D02*
X010983Y014534D01*
X010992Y014513D02*
X010922Y014682D01*
X010792Y014812D01*
X010623Y014882D01*
X009920Y014882D01*
X009751Y014812D01*
X009622Y014682D01*
X009552Y014513D01*
X009552Y014330D01*
X009622Y014161D01*
X009751Y014032D01*
X009920Y013962D01*
X010623Y013962D01*
X010792Y014032D01*
X010922Y014161D01*
X010992Y014330D01*
X010992Y014513D01*
X010977Y014296D02*
X011032Y014296D01*
X011032Y014057D02*
X010818Y014057D01*
X010775Y013819D02*
X011032Y013819D01*
X010922Y013682D02*
X010792Y013812D01*
X010623Y013882D01*
X009920Y013882D01*
X009751Y013812D01*
X009622Y013682D01*
X009552Y013513D01*
X009552Y013330D01*
X009622Y013161D01*
X009751Y013032D01*
X009920Y012962D01*
X010623Y012962D01*
X010792Y013032D01*
X010922Y013161D01*
X010992Y013330D01*
X010992Y013513D01*
X010922Y013682D01*
X010964Y013580D02*
X011032Y013580D01*
X011032Y013342D02*
X010992Y013342D01*
X011032Y013103D02*
X010864Y013103D01*
X011032Y012865D02*
X010665Y012865D01*
X010945Y012626D02*
X011032Y012626D01*
X011032Y012387D02*
X010992Y012387D01*
X011032Y012149D02*
X010909Y012149D01*
X011032Y011910D02*
X009603Y011910D01*
X009634Y012149D02*
X009338Y012149D01*
X009138Y012626D02*
X008912Y012626D01*
X008912Y012865D02*
X009879Y012865D01*
X009680Y013103D02*
X008912Y013103D01*
X008912Y013342D02*
X009552Y013342D01*
X009579Y013580D02*
X008912Y013580D01*
X008912Y013819D02*
X009768Y013819D01*
X009726Y014057D02*
X008912Y014057D01*
X008912Y014296D02*
X009566Y014296D01*
X009560Y014534D02*
X008912Y014534D01*
X008912Y014773D02*
X009712Y014773D01*
X009800Y015011D02*
X008912Y015011D01*
X008912Y015250D02*
X009585Y015250D01*
X009552Y015489D02*
X008912Y015489D01*
X008912Y015727D02*
X009666Y015727D01*
X009751Y016032D02*
X009920Y015962D01*
X010623Y015962D01*
X010792Y016032D01*
X010922Y016161D01*
X010992Y016330D01*
X010992Y016513D01*
X010922Y016682D01*
X010792Y016812D01*
X010623Y016882D01*
X009920Y016882D01*
X009751Y016812D01*
X009622Y016682D01*
X009552Y016513D01*
X009552Y016330D01*
X009622Y016161D01*
X009751Y016032D01*
X009911Y015966D02*
X009016Y015966D01*
X009047Y016204D02*
X009604Y016204D01*
X009552Y016443D02*
X008885Y016443D01*
X008552Y016681D02*
X009621Y016681D01*
X009625Y017158D02*
X008552Y017158D01*
X008552Y016920D02*
X011032Y016920D01*
X011032Y017158D02*
X010919Y017158D01*
X010992Y017397D02*
X011032Y017397D01*
X011032Y017635D02*
X010941Y017635D01*
X011032Y017874D02*
X010642Y017874D01*
X010873Y018112D02*
X011032Y018112D01*
X011003Y018351D02*
X010992Y018351D01*
X009901Y017874D02*
X008912Y017874D01*
X008912Y018112D02*
X009670Y018112D01*
X009791Y018828D02*
X009112Y018828D01*
X009112Y019067D02*
X009716Y019067D01*
X009562Y019305D02*
X009112Y019305D01*
X009112Y019544D02*
X009564Y019544D01*
X009722Y019782D02*
X009112Y019782D01*
X009112Y020021D02*
X009777Y020021D01*
X009581Y020259D02*
X009112Y020259D01*
X009112Y020498D02*
X009552Y020498D01*
X009676Y020736D02*
X009112Y020736D01*
X009112Y020975D02*
X009888Y020975D01*
X009600Y021214D02*
X009112Y021214D01*
X009112Y021452D02*
X009552Y021452D01*
X010655Y020975D02*
X017086Y020975D01*
X016996Y021214D02*
X017324Y021214D01*
X016847Y020736D02*
X010867Y020736D01*
X009661Y023122D02*
X009112Y023122D01*
X009112Y023360D02*
X009552Y023360D01*
X009587Y023599D02*
X009112Y023599D01*
X006432Y018112D02*
X005644Y018112D01*
X005644Y017874D02*
X006432Y017874D01*
X005712Y018351D02*
X005635Y018351D01*
X004878Y017397D02*
X004665Y017397D01*
X004665Y017158D02*
X004878Y017158D01*
X004878Y016920D02*
X004665Y016920D01*
X004665Y016443D02*
X004878Y016443D01*
X004878Y016204D02*
X004665Y016204D01*
X004665Y015966D02*
X004878Y015966D01*
X004152Y016681D02*
X006424Y016681D01*
X010632Y015966D02*
X011035Y015966D01*
X011032Y016204D02*
X010939Y016204D01*
X010992Y016443D02*
X011032Y016443D01*
X011032Y016681D02*
X010922Y016681D01*
X010877Y015727D02*
X011227Y015727D01*
X011032Y015011D02*
X010743Y015011D01*
X010831Y014773D02*
X011032Y014773D01*
X012412Y012387D02*
X014566Y012387D01*
X014328Y012626D02*
X014000Y012626D01*
X014050Y012865D02*
X014089Y012865D01*
X014805Y012149D02*
X012412Y012149D01*
X012412Y011910D02*
X015013Y011910D01*
X015115Y011672D02*
X012412Y011672D01*
X012412Y011433D02*
X018552Y011433D01*
X018608Y011195D02*
X012412Y011195D01*
X011032Y011195D02*
X010935Y011195D01*
X010992Y011433D02*
X011032Y011433D01*
X011032Y011672D02*
X010926Y011672D01*
X011032Y010956D02*
X010077Y010956D01*
X009636Y010718D02*
X008902Y010718D01*
X009050Y010956D02*
X009398Y010956D01*
X009159Y011195D02*
X009009Y011195D01*
X009025Y011433D02*
X008912Y011433D01*
X008552Y010479D02*
X009552Y010479D01*
X009589Y010241D02*
X008552Y010241D01*
X008552Y010002D02*
X009823Y010002D01*
X009920Y009882D02*
X009751Y009812D01*
X009622Y009682D01*
X009552Y009513D01*
X009552Y009330D01*
X009622Y009161D01*
X009751Y009032D01*
X009920Y008962D01*
X010623Y008962D01*
X010792Y009032D01*
X010922Y009161D01*
X010992Y009330D01*
X010992Y009513D01*
X010922Y009682D01*
X010792Y009812D01*
X010623Y009882D01*
X009920Y009882D01*
X009703Y009763D02*
X008552Y009763D01*
X008552Y009525D02*
X009557Y009525D01*
X009570Y009286D02*
X008552Y009286D01*
X008552Y009048D02*
X009735Y009048D01*
X009749Y008809D02*
X008552Y008809D01*
X008552Y008571D02*
X009576Y008571D01*
X009552Y008332D02*
X008552Y008332D01*
X008552Y008094D02*
X009689Y008094D01*
X009856Y007855D02*
X008552Y007855D01*
X008552Y007617D02*
X009594Y007617D01*
X009552Y007378D02*
X008552Y007378D01*
X008552Y007139D02*
X009643Y007139D01*
X008552Y006901D02*
X012674Y006901D01*
X012334Y006662D02*
X008552Y006662D01*
X008616Y006452D02*
X008678Y006303D01*
X008678Y006141D01*
X008616Y005991D01*
X008502Y005877D01*
X008353Y005815D01*
X008191Y005815D01*
X008041Y005877D01*
X007927Y005991D01*
X007865Y006141D01*
X007865Y006303D01*
X007927Y006452D01*
X007992Y006517D01*
X007992Y006906D01*
X007955Y006819D01*
X007855Y006718D01*
X007723Y006663D01*
X007580Y006663D01*
X007552Y006675D01*
X007552Y006089D01*
X007615Y006025D01*
X007670Y005893D01*
X007670Y005750D01*
X007615Y005619D01*
X007515Y005518D01*
X007383Y005463D01*
X007240Y005463D01*
X007109Y005518D01*
X007008Y005619D01*
X006953Y005750D01*
X006953Y005893D01*
X007008Y006025D01*
X007072Y006089D01*
X007072Y007467D01*
X007063Y007463D01*
X006920Y007463D01*
X006912Y007467D01*
X006912Y005387D01*
X006875Y005298D01*
X006808Y005231D01*
X006912Y005470D02*
X007225Y005470D01*
X007398Y005470D02*
X011141Y005470D01*
X011379Y005708D02*
X007653Y005708D01*
X007648Y005947D02*
X007971Y005947D01*
X007865Y006185D02*
X007552Y006185D01*
X007552Y006424D02*
X007915Y006424D01*
X007992Y006662D02*
X007552Y006662D01*
X007072Y006662D02*
X006912Y006662D01*
X006912Y006424D02*
X007072Y006424D01*
X007072Y006185D02*
X006912Y006185D01*
X006912Y005947D02*
X006976Y005947D01*
X006971Y005708D02*
X006912Y005708D01*
X006912Y006901D02*
X007072Y006901D01*
X007072Y007139D02*
X006912Y007139D01*
X006912Y007378D02*
X007072Y007378D01*
X007989Y006901D02*
X007992Y006901D01*
X008678Y006185D02*
X011856Y006185D01*
X011618Y005947D02*
X008572Y005947D01*
X010590Y003561D02*
X034736Y003561D01*
X034975Y003323D02*
X015433Y003323D01*
X015759Y002130D02*
X015862Y002130D01*
X019863Y002130D02*
X020862Y002130D01*
X020836Y002149D02*
X020915Y002091D01*
X021002Y002047D01*
X021095Y002017D01*
X021191Y002002D01*
X021232Y002002D01*
X021232Y002614D01*
X020620Y002614D01*
X020620Y002573D01*
X020635Y002477D01*
X020666Y002384D01*
X020710Y002297D01*
X020767Y002218D01*
X020836Y002149D01*
X020673Y002369D02*
X019872Y002369D01*
X019872Y002607D02*
X020620Y002607D01*
X020620Y002630D02*
X021232Y002630D01*
X021232Y003242D01*
X021191Y003242D01*
X021095Y003226D01*
X021002Y003196D01*
X020915Y003152D01*
X020836Y003095D01*
X020767Y003026D01*
X020710Y002947D01*
X020666Y002860D01*
X020635Y002767D01*
X020620Y002671D01*
X020620Y002630D01*
X020661Y002846D02*
X019872Y002846D01*
X019872Y003084D02*
X020826Y003084D01*
X021232Y003084D02*
X021248Y003084D01*
X021248Y003242D02*
X021248Y002630D01*
X021232Y002630D01*
X021232Y002614D01*
X021248Y002614D01*
X021248Y002630D01*
X021860Y002630D01*
X021860Y002671D01*
X021845Y002767D01*
X021815Y002860D01*
X021770Y002947D01*
X021713Y003026D01*
X021644Y003095D01*
X021565Y003152D01*
X021478Y003196D01*
X021385Y003226D01*
X021289Y003242D01*
X021248Y003242D01*
X021232Y002846D02*
X021248Y002846D01*
X021248Y002614D02*
X021860Y002614D01*
X021860Y002573D01*
X021845Y002477D01*
X021815Y002384D01*
X021770Y002297D01*
X021713Y002218D01*
X021644Y002149D01*
X021565Y002091D01*
X021478Y002047D01*
X021385Y002017D01*
X021289Y002002D01*
X021248Y002002D01*
X021248Y002614D01*
X021248Y002607D02*
X021232Y002607D01*
X021232Y002369D02*
X021248Y002369D01*
X021232Y002130D02*
X021248Y002130D01*
X021618Y002130D02*
X023080Y002130D01*
X023072Y002139D02*
X023189Y002022D01*
X024154Y002022D01*
X024272Y002139D01*
X024272Y003105D01*
X024154Y003222D01*
X023189Y003222D01*
X023072Y003105D01*
X023072Y002139D01*
X023072Y002369D02*
X021807Y002369D01*
X021860Y002607D02*
X023072Y002607D01*
X023072Y002846D02*
X021819Y002846D01*
X021654Y003084D02*
X023072Y003084D01*
X023628Y004038D02*
X034259Y004038D01*
X034058Y004277D02*
X027816Y004277D01*
X028055Y004516D02*
X034042Y004516D01*
X034042Y004754D02*
X028293Y004754D01*
X027615Y004754D02*
X027357Y004754D01*
X027340Y004993D02*
X027119Y004993D01*
X027132Y005010D02*
X027166Y005077D01*
X027190Y005149D01*
X027202Y005224D01*
X027202Y005521D01*
X026722Y005521D01*
X026722Y004782D01*
X026759Y004782D01*
X026834Y004794D01*
X026906Y004817D01*
X026973Y004851D01*
X027034Y004896D01*
X027088Y004949D01*
X027132Y005010D01*
X027202Y005231D02*
X027262Y005231D01*
X027262Y005470D02*
X027202Y005470D01*
X027202Y005522D02*
X027202Y005819D01*
X027190Y005894D01*
X027166Y005966D01*
X027132Y006033D01*
X027088Y006094D01*
X027034Y006148D01*
X026973Y006192D01*
X026906Y006227D01*
X026834Y006250D01*
X026759Y006262D01*
X026722Y006262D01*
X026722Y005522D01*
X027202Y005522D01*
X027202Y005708D02*
X027262Y005708D01*
X027292Y005947D02*
X027173Y005947D01*
X026983Y006185D02*
X027494Y006185D01*
X027949Y006185D02*
X028494Y006185D01*
X028292Y005947D02*
X028151Y005947D01*
X028182Y005708D02*
X028262Y005708D01*
X028262Y005470D02*
X028182Y005470D01*
X026986Y004754D02*
X023962Y004754D01*
X023962Y004516D02*
X026801Y004516D01*
X026822Y004277D02*
X023866Y004277D01*
X023426Y004516D02*
X022737Y004516D01*
X022726Y004754D02*
X023482Y004754D01*
X023340Y004993D02*
X023103Y004993D01*
X023182Y005231D02*
X023262Y005231D01*
X023262Y005470D02*
X023182Y005470D01*
X023182Y005708D02*
X023262Y005708D01*
X023292Y005947D02*
X023151Y005947D01*
X022949Y006185D02*
X023494Y006185D01*
X023949Y006185D02*
X024494Y006185D01*
X024461Y006172D02*
X024332Y006042D01*
X024262Y005873D01*
X024262Y005170D01*
X024332Y005001D01*
X024461Y004872D01*
X024630Y004802D01*
X024813Y004802D01*
X024982Y004872D01*
X025112Y005001D01*
X025182Y005170D01*
X025182Y005873D01*
X025112Y006042D01*
X024982Y006172D01*
X024813Y006242D01*
X024630Y006242D01*
X024461Y006172D01*
X024292Y005947D02*
X024151Y005947D01*
X024182Y005708D02*
X024262Y005708D01*
X024262Y005470D02*
X024182Y005470D01*
X024182Y005231D02*
X024262Y005231D01*
X024340Y004993D02*
X024103Y004993D01*
X025103Y004993D02*
X025324Y004993D01*
X025311Y005010D02*
X025356Y004949D01*
X025409Y004896D01*
X025470Y004851D01*
X025537Y004817D01*
X025609Y004794D01*
X025684Y004782D01*
X025721Y004782D01*
X025721Y005521D01*
X025722Y005521D01*
X025722Y004782D01*
X025759Y004782D01*
X025834Y004794D01*
X025906Y004817D01*
X025973Y004851D01*
X026034Y004896D01*
X026088Y004949D01*
X026132Y005010D01*
X026166Y005077D01*
X026190Y005149D01*
X026202Y005224D01*
X026202Y005521D01*
X025722Y005521D01*
X025722Y005522D01*
X026202Y005522D01*
X026202Y005819D01*
X026190Y005894D01*
X026166Y005966D01*
X026132Y006033D01*
X026088Y006094D01*
X026034Y006148D01*
X025973Y006192D01*
X025906Y006227D01*
X025834Y006250D01*
X025759Y006262D01*
X025722Y006262D01*
X025722Y005522D01*
X025721Y005522D01*
X025721Y005521D01*
X025242Y005521D01*
X025242Y005224D01*
X025253Y005149D01*
X025277Y005077D01*
X025311Y005010D01*
X025242Y005231D02*
X025182Y005231D01*
X025182Y005470D02*
X025242Y005470D01*
X025242Y005522D02*
X025721Y005522D01*
X025721Y006262D01*
X025684Y006262D01*
X025609Y006250D01*
X025537Y006227D01*
X025470Y006192D01*
X025409Y006148D01*
X025356Y006094D01*
X025311Y006033D01*
X025277Y005966D01*
X025253Y005894D01*
X025242Y005819D01*
X025242Y005522D01*
X025242Y005708D02*
X025182Y005708D01*
X025151Y005947D02*
X025271Y005947D01*
X025461Y006185D02*
X024949Y006185D01*
X025721Y006185D02*
X025722Y006185D01*
X025721Y005947D02*
X025722Y005947D01*
X025721Y005708D02*
X025722Y005708D01*
X025721Y005470D02*
X025722Y005470D01*
X025721Y005231D02*
X025722Y005231D01*
X025721Y004993D02*
X025722Y004993D01*
X026119Y004993D02*
X026324Y004993D01*
X026311Y005010D02*
X026356Y004949D01*
X026409Y004896D01*
X026470Y004851D01*
X026537Y004817D01*
X026609Y004794D01*
X026684Y004782D01*
X026721Y004782D01*
X026721Y005521D01*
X026722Y005521D01*
X026722Y005522D01*
X026721Y005522D01*
X026721Y005521D01*
X026242Y005521D01*
X026242Y005224D01*
X026253Y005149D01*
X026277Y005077D01*
X026311Y005010D01*
X026242Y005231D02*
X026202Y005231D01*
X026202Y005470D02*
X026242Y005470D01*
X026242Y005522D02*
X026721Y005522D01*
X026721Y006262D01*
X026684Y006262D01*
X026609Y006250D01*
X026537Y006227D01*
X026470Y006192D01*
X026409Y006148D01*
X026356Y006094D01*
X026311Y006033D01*
X026277Y005966D01*
X026253Y005894D01*
X026242Y005819D01*
X026242Y005522D01*
X026242Y005708D02*
X026202Y005708D01*
X026173Y005947D02*
X026271Y005947D01*
X026461Y006185D02*
X025983Y006185D01*
X026721Y006185D02*
X026722Y006185D01*
X026721Y005947D02*
X026722Y005947D01*
X026721Y005708D02*
X026722Y005708D01*
X026721Y005470D02*
X026722Y005470D01*
X026721Y005231D02*
X026722Y005231D01*
X026721Y004993D02*
X026722Y004993D01*
X027589Y003222D02*
X027472Y003105D01*
X027472Y002139D01*
X027589Y002022D01*
X028554Y002022D01*
X028672Y002139D01*
X028672Y003105D01*
X028554Y003222D01*
X027589Y003222D01*
X027472Y003084D02*
X026054Y003084D01*
X026044Y003095D02*
X025965Y003152D01*
X025878Y003196D01*
X025785Y003226D01*
X025689Y003242D01*
X025648Y003242D01*
X025648Y002630D01*
X025632Y002630D01*
X025632Y003242D01*
X025591Y003242D01*
X025495Y003226D01*
X025402Y003196D01*
X025315Y003152D01*
X025236Y003095D01*
X025167Y003026D01*
X025110Y002947D01*
X025066Y002860D01*
X025035Y002767D01*
X025020Y002671D01*
X025020Y002630D01*
X025632Y002630D01*
X025632Y002614D01*
X025020Y002614D01*
X025020Y002573D01*
X025035Y002477D01*
X025066Y002384D01*
X025110Y002297D01*
X025167Y002218D01*
X025236Y002149D01*
X025315Y002091D01*
X025402Y002047D01*
X025495Y002017D01*
X025591Y002002D01*
X025632Y002002D01*
X025632Y002614D01*
X025648Y002614D01*
X025648Y002630D01*
X026260Y002630D01*
X026260Y002671D01*
X026245Y002767D01*
X026215Y002860D01*
X026170Y002947D01*
X026113Y003026D01*
X026044Y003095D01*
X026219Y002846D02*
X027472Y002846D01*
X027472Y002607D02*
X026260Y002607D01*
X026260Y002614D02*
X025648Y002614D01*
X025648Y002002D01*
X025689Y002002D01*
X025785Y002017D01*
X025878Y002047D01*
X025965Y002091D01*
X026044Y002149D01*
X026113Y002218D01*
X026170Y002297D01*
X026215Y002384D01*
X026245Y002477D01*
X026260Y002573D01*
X026260Y002614D01*
X026207Y002369D02*
X027472Y002369D01*
X027480Y002130D02*
X026018Y002130D01*
X025648Y002130D02*
X025632Y002130D01*
X025632Y002369D02*
X025648Y002369D01*
X025632Y002607D02*
X025648Y002607D01*
X025632Y002846D02*
X025648Y002846D01*
X025632Y003084D02*
X025648Y003084D01*
X025226Y003084D02*
X024272Y003084D01*
X024272Y002846D02*
X025061Y002846D01*
X025020Y002607D02*
X024272Y002607D01*
X024272Y002369D02*
X025073Y002369D01*
X025262Y002130D02*
X024263Y002130D01*
X022292Y005947D02*
X020729Y005947D01*
X021064Y006185D02*
X022494Y006185D01*
X021138Y007617D02*
X019949Y007617D01*
X019992Y007378D02*
X020899Y007378D01*
X020661Y007139D02*
X019900Y007139D01*
X019687Y007855D02*
X021376Y007855D01*
X021615Y008094D02*
X019854Y008094D01*
X019992Y008332D02*
X021853Y008332D01*
X022092Y008571D02*
X019968Y008571D01*
X019795Y008809D02*
X022262Y008809D01*
X022337Y009048D02*
X019808Y009048D01*
X019973Y009286D02*
X022618Y009286D01*
X022379Y009525D02*
X019987Y009525D01*
X019840Y009763D02*
X022140Y009763D01*
X021902Y010002D02*
X019720Y010002D01*
X022104Y010479D02*
X023738Y010479D01*
X023931Y010241D02*
X022342Y010241D01*
X023202Y008571D02*
X023262Y008571D01*
X023262Y008332D02*
X023182Y008332D01*
X023150Y008094D02*
X023293Y008094D01*
X023501Y007855D02*
X022942Y007855D01*
X023942Y007855D02*
X024501Y007855D01*
X024461Y007872D02*
X024630Y007802D01*
X024813Y007802D01*
X024982Y007872D01*
X025112Y008001D01*
X025182Y008170D01*
X025182Y008873D01*
X025112Y009042D01*
X024982Y009172D01*
X024813Y009242D01*
X024630Y009242D01*
X024461Y009172D01*
X024332Y009042D01*
X024262Y008873D01*
X024262Y008170D01*
X024332Y008001D01*
X024461Y007872D01*
X024293Y008094D02*
X024150Y008094D01*
X024182Y008332D02*
X024262Y008332D01*
X024262Y008571D02*
X024182Y008571D01*
X024182Y008809D02*
X024262Y008809D01*
X024337Y009048D02*
X024106Y009048D01*
X025106Y009048D02*
X025322Y009048D01*
X025311Y009033D02*
X025277Y008966D01*
X025253Y008894D01*
X025242Y008819D01*
X025242Y008522D01*
X025721Y008522D01*
X025721Y008521D01*
X025722Y008521D01*
X025722Y007782D01*
X025759Y007782D01*
X025834Y007794D01*
X025906Y007817D01*
X025973Y007851D01*
X026034Y007896D01*
X026088Y007949D01*
X026132Y008010D01*
X026166Y008077D01*
X026190Y008149D01*
X026202Y008224D01*
X026202Y008521D01*
X025722Y008521D01*
X025722Y008522D01*
X026202Y008522D01*
X026202Y008819D01*
X026190Y008894D01*
X026166Y008966D01*
X026132Y009033D01*
X026088Y009094D01*
X026034Y009148D01*
X025973Y009192D01*
X025906Y009227D01*
X025834Y009250D01*
X025759Y009262D01*
X025722Y009262D01*
X025722Y008522D01*
X025721Y008522D01*
X025721Y009262D01*
X025684Y009262D01*
X025609Y009250D01*
X025537Y009227D01*
X025470Y009192D01*
X025409Y009148D01*
X025356Y009094D01*
X025311Y009033D01*
X025242Y008809D02*
X025182Y008809D01*
X025182Y008571D02*
X025242Y008571D01*
X025242Y008521D02*
X025242Y008224D01*
X025253Y008149D01*
X025277Y008077D01*
X025311Y008010D01*
X025356Y007949D01*
X025409Y007896D01*
X025470Y007851D01*
X025537Y007817D01*
X025609Y007794D01*
X025684Y007782D01*
X025721Y007782D01*
X025721Y008521D01*
X025242Y008521D01*
X025242Y008332D02*
X025182Y008332D01*
X025150Y008094D02*
X025272Y008094D01*
X025465Y007855D02*
X024942Y007855D01*
X025721Y007855D02*
X025722Y007855D01*
X025721Y008094D02*
X025722Y008094D01*
X025721Y008332D02*
X025722Y008332D01*
X025721Y008571D02*
X025722Y008571D01*
X025721Y008809D02*
X025722Y008809D01*
X025721Y009048D02*
X025722Y009048D01*
X026122Y009048D02*
X026322Y009048D01*
X026311Y009033D02*
X026277Y008966D01*
X026253Y008894D01*
X026242Y008819D01*
X026242Y008522D01*
X026721Y008522D01*
X026721Y008521D01*
X026722Y008521D01*
X026722Y007782D01*
X026759Y007782D01*
X026834Y007794D01*
X026906Y007817D01*
X026973Y007851D01*
X027034Y007896D01*
X027088Y007949D01*
X027132Y008010D01*
X027166Y008077D01*
X027190Y008149D01*
X027202Y008224D01*
X027202Y008521D01*
X026722Y008521D01*
X026722Y008522D01*
X027202Y008522D01*
X027202Y008819D01*
X027190Y008894D01*
X027166Y008966D01*
X027132Y009033D01*
X027088Y009094D01*
X027034Y009148D01*
X026973Y009192D01*
X026906Y009227D01*
X026834Y009250D01*
X026759Y009262D01*
X026722Y009262D01*
X026722Y008522D01*
X026721Y008522D01*
X026721Y009262D01*
X026684Y009262D01*
X026609Y009250D01*
X026537Y009227D01*
X026470Y009192D01*
X026409Y009148D01*
X026356Y009094D01*
X026311Y009033D01*
X026242Y008809D02*
X026202Y008809D01*
X026202Y008571D02*
X026242Y008571D01*
X026242Y008521D02*
X026242Y008224D01*
X026253Y008149D01*
X026277Y008077D01*
X026311Y008010D01*
X026356Y007949D01*
X026409Y007896D01*
X026470Y007851D01*
X026537Y007817D01*
X026609Y007794D01*
X026684Y007782D01*
X026721Y007782D01*
X026721Y008521D01*
X026242Y008521D01*
X026242Y008332D02*
X026202Y008332D01*
X026172Y008094D02*
X026272Y008094D01*
X026465Y007855D02*
X025979Y007855D01*
X026721Y007855D02*
X026722Y007855D01*
X026721Y008094D02*
X026722Y008094D01*
X026721Y008332D02*
X026722Y008332D01*
X026721Y008571D02*
X026722Y008571D01*
X026721Y008809D02*
X026722Y008809D01*
X026721Y009048D02*
X026722Y009048D01*
X027122Y009048D02*
X027337Y009048D01*
X027332Y009042D02*
X027262Y008873D01*
X027262Y008170D01*
X027332Y008001D01*
X027461Y007872D01*
X027630Y007802D01*
X027813Y007802D01*
X027982Y007872D01*
X028112Y008001D01*
X028182Y008170D01*
X028182Y008873D01*
X028112Y009042D01*
X027982Y009172D01*
X027813Y009242D01*
X027630Y009242D01*
X027461Y009172D01*
X027332Y009042D01*
X027262Y008809D02*
X027202Y008809D01*
X027202Y008571D02*
X027262Y008571D01*
X027262Y008332D02*
X027202Y008332D01*
X027172Y008094D02*
X027293Y008094D01*
X027501Y007855D02*
X026979Y007855D01*
X027942Y007855D02*
X028501Y007855D01*
X028293Y008094D02*
X028150Y008094D01*
X028182Y008332D02*
X028262Y008332D01*
X028262Y008571D02*
X028182Y008571D01*
X028182Y008809D02*
X028262Y008809D01*
X028337Y009048D02*
X028106Y009048D01*
X030182Y008809D02*
X035992Y008809D01*
X035992Y008571D02*
X030182Y008571D01*
X030182Y008332D02*
X035992Y008332D01*
X035992Y008094D02*
X030150Y008094D01*
X032733Y007139D02*
X032887Y007139D01*
X034652Y007378D02*
X035992Y007378D01*
X035992Y007139D02*
X034733Y007139D01*
X034852Y006901D02*
X035992Y006901D01*
X035992Y006662D02*
X034852Y006662D01*
X034852Y006424D02*
X035915Y006424D01*
X035865Y006185D02*
X034852Y006185D01*
X034815Y005947D02*
X035971Y005947D01*
X037792Y005947D02*
X037956Y005947D01*
X037956Y006185D02*
X037792Y006185D01*
X037792Y006424D02*
X037956Y006424D01*
X037982Y006662D02*
X037792Y006662D01*
X037792Y005708D02*
X037956Y005708D01*
X037956Y005470D02*
X037792Y005470D01*
X037792Y005231D02*
X037956Y005231D01*
X037981Y004993D02*
X037792Y004993D01*
X037885Y004754D02*
X037956Y004754D01*
X037956Y004516D02*
X037896Y004516D01*
X037301Y003561D02*
X035528Y003561D01*
X035766Y003323D02*
X036951Y003323D01*
X036805Y003084D02*
X036005Y003084D01*
X036244Y002846D02*
X036742Y002846D01*
X036742Y002607D02*
X036482Y002607D01*
X036721Y002369D02*
X036834Y002369D01*
X036959Y002130D02*
X037021Y002130D01*
X036167Y002130D02*
X034818Y002130D01*
X034844Y002149D02*
X034913Y002218D01*
X034970Y002297D01*
X035015Y002384D01*
X035045Y002477D01*
X035060Y002573D01*
X035060Y002614D01*
X034448Y002614D01*
X034448Y002630D01*
X034432Y002630D01*
X034432Y003242D01*
X034391Y003242D01*
X034295Y003226D01*
X034202Y003196D01*
X034115Y003152D01*
X034036Y003095D01*
X033967Y003026D01*
X033910Y002947D01*
X033866Y002860D01*
X033835Y002767D01*
X033820Y002671D01*
X033820Y002630D01*
X034432Y002630D01*
X034432Y002614D01*
X033820Y002614D01*
X033820Y002573D01*
X033835Y002477D01*
X033866Y002384D01*
X033910Y002297D01*
X033967Y002218D01*
X034036Y002149D01*
X034115Y002091D01*
X034202Y002047D01*
X034295Y002017D01*
X034391Y002002D01*
X034432Y002002D01*
X034432Y002614D01*
X034448Y002614D01*
X034448Y002002D01*
X034489Y002002D01*
X034585Y002017D01*
X034678Y002047D01*
X034765Y002091D01*
X034844Y002149D01*
X035007Y002369D02*
X035929Y002369D01*
X035690Y002607D02*
X035060Y002607D01*
X035060Y002630D02*
X035060Y002671D01*
X035045Y002767D01*
X035015Y002860D01*
X034970Y002947D01*
X034913Y003026D01*
X034844Y003095D01*
X034765Y003152D01*
X034678Y003196D01*
X034585Y003226D01*
X034489Y003242D01*
X034448Y003242D01*
X034448Y002630D01*
X035060Y002630D01*
X035019Y002846D02*
X035452Y002846D01*
X035213Y003084D02*
X034854Y003084D01*
X034448Y003084D02*
X034432Y003084D01*
X034432Y002846D02*
X034448Y002846D01*
X034432Y002607D02*
X034448Y002607D01*
X034432Y002369D02*
X034448Y002369D01*
X034432Y002130D02*
X034448Y002130D01*
X034062Y002130D02*
X033063Y002130D01*
X033072Y002139D02*
X032954Y002022D01*
X031989Y002022D01*
X031872Y002139D01*
X031872Y003105D01*
X031989Y003222D01*
X032954Y003222D01*
X033072Y003105D01*
X033072Y002139D01*
X033072Y002369D02*
X033873Y002369D01*
X033820Y002607D02*
X033072Y002607D01*
X033072Y002846D02*
X033861Y002846D01*
X034026Y003084D02*
X033072Y003084D01*
X031872Y003084D02*
X030454Y003084D01*
X030444Y003095D02*
X030365Y003152D01*
X030278Y003196D01*
X030185Y003226D01*
X030089Y003242D01*
X030048Y003242D01*
X030048Y002630D01*
X030032Y002630D01*
X030032Y003242D01*
X029991Y003242D01*
X029895Y003226D01*
X029802Y003196D01*
X029715Y003152D01*
X029636Y003095D01*
X029567Y003026D01*
X029510Y002947D01*
X029466Y002860D01*
X029435Y002767D01*
X029420Y002671D01*
X029420Y002630D01*
X030032Y002630D01*
X030032Y002614D01*
X029420Y002614D01*
X029420Y002573D01*
X029435Y002477D01*
X029466Y002384D01*
X029510Y002297D01*
X029567Y002218D01*
X029636Y002149D01*
X029715Y002091D01*
X029802Y002047D01*
X029895Y002017D01*
X029991Y002002D01*
X030032Y002002D01*
X030032Y002614D01*
X030048Y002614D01*
X030048Y002630D01*
X030660Y002630D01*
X030660Y002671D01*
X030645Y002767D01*
X030615Y002860D01*
X030570Y002947D01*
X030513Y003026D01*
X030444Y003095D01*
X030619Y002846D02*
X031872Y002846D01*
X031872Y002607D02*
X030660Y002607D01*
X030660Y002614D02*
X030048Y002614D01*
X030048Y002002D01*
X030089Y002002D01*
X030185Y002017D01*
X030278Y002047D01*
X030365Y002091D01*
X030444Y002149D01*
X030513Y002218D01*
X030570Y002297D01*
X030615Y002384D01*
X030645Y002477D01*
X030660Y002573D01*
X030660Y002614D01*
X030607Y002369D02*
X031872Y002369D01*
X031880Y002130D02*
X030418Y002130D01*
X030048Y002130D02*
X030032Y002130D01*
X030032Y002369D02*
X030048Y002369D01*
X030032Y002607D02*
X030048Y002607D01*
X030032Y002846D02*
X030048Y002846D01*
X030032Y003084D02*
X030048Y003084D01*
X029626Y003084D02*
X028672Y003084D01*
X028672Y002846D02*
X029461Y002846D01*
X029420Y002607D02*
X028672Y002607D01*
X028672Y002369D02*
X029473Y002369D01*
X029662Y002130D02*
X028663Y002130D01*
X034498Y003800D02*
X019783Y003800D01*
X013676Y007378D02*
X012012Y007378D01*
X012012Y007617D02*
X013437Y007617D01*
X013199Y007855D02*
X012012Y007855D01*
X012012Y008094D02*
X012960Y008094D01*
X012722Y008332D02*
X012012Y008332D01*
X012012Y008571D02*
X012483Y008571D01*
X012245Y008809D02*
X012012Y008809D01*
X011032Y008809D02*
X010795Y008809D01*
X010808Y009048D02*
X011032Y009048D01*
X011032Y009286D02*
X010973Y009286D01*
X010987Y009525D02*
X011032Y009525D01*
X011032Y009763D02*
X010840Y009763D01*
X010720Y010002D02*
X011032Y010002D01*
X011032Y010241D02*
X010954Y010241D01*
X010992Y010479D02*
X011032Y010479D01*
X011032Y010718D02*
X010886Y010718D01*
X006432Y011195D02*
X005644Y011195D01*
X004878Y010479D02*
X004665Y010479D01*
X004665Y010241D02*
X004878Y010241D01*
X004878Y010002D02*
X004665Y010002D01*
X004665Y009763D02*
X004878Y009763D01*
X004878Y009525D02*
X004665Y009525D01*
X004665Y009286D02*
X004878Y009286D01*
X004878Y009048D02*
X004665Y009048D01*
X005636Y008094D02*
X005712Y008094D01*
X005644Y004277D02*
X005761Y004277D01*
X005644Y003323D02*
X006751Y003323D01*
X006605Y003084D02*
X005644Y003084D01*
X005599Y002846D02*
X006542Y002846D01*
X006542Y002607D02*
X004152Y002607D01*
X004152Y002369D02*
X006634Y002369D01*
X006821Y002130D02*
X004152Y002130D01*
X004665Y002846D02*
X004878Y002846D01*
X004878Y003084D02*
X004665Y003084D01*
X004665Y003323D02*
X004878Y003323D01*
X007962Y002130D02*
X009280Y002130D01*
X009272Y002369D02*
X008149Y002369D01*
X008242Y002607D02*
X009272Y002607D01*
X009272Y002846D02*
X008242Y002846D01*
X008178Y003084D02*
X009272Y003084D01*
X009392Y003323D02*
X008033Y003323D01*
X010352Y003323D02*
X010710Y003323D01*
X010692Y003084D02*
X010472Y003084D01*
X010472Y002846D02*
X010692Y002846D01*
X010692Y002607D02*
X010472Y002607D01*
X010472Y002369D02*
X010623Y002369D01*
X002992Y000460D02*
X041852Y000460D01*
X041852Y001176D02*
X041601Y001176D01*
X041632Y001414D02*
X041852Y001414D01*
X041852Y001653D02*
X041632Y001653D01*
X041632Y001892D02*
X041852Y001892D01*
X041852Y002130D02*
X041632Y002130D01*
X041632Y002369D02*
X041852Y002369D01*
X041852Y002607D02*
X041632Y002607D01*
X041632Y002846D02*
X041852Y002846D01*
X041852Y003084D02*
X041632Y003084D01*
X041632Y003323D02*
X041852Y003323D01*
X041852Y003561D02*
X041632Y003561D01*
X041632Y003800D02*
X041852Y003800D01*
X041852Y004038D02*
X041632Y004038D01*
X041632Y004277D02*
X041852Y004277D01*
X041852Y004516D02*
X041632Y004516D01*
X041678Y004754D02*
X041852Y004754D01*
X041852Y004993D02*
X041641Y004993D01*
X041632Y005231D02*
X041852Y005231D01*
X041852Y005470D02*
X041632Y005470D01*
X041632Y005708D02*
X041852Y005708D01*
X041852Y005947D02*
X041632Y005947D01*
X041632Y006185D02*
X041852Y006185D01*
X041852Y006424D02*
X041632Y006424D01*
X041632Y006662D02*
X041852Y006662D01*
X041852Y006901D02*
X041632Y006901D01*
X041632Y007139D02*
X041852Y007139D01*
X041852Y007378D02*
X041632Y007378D01*
X041632Y007617D02*
X041852Y007617D01*
X041852Y007855D02*
X041632Y007855D01*
X041632Y008094D02*
X041852Y008094D01*
X041852Y008332D02*
X041632Y008332D01*
X041632Y008571D02*
X041852Y008571D01*
X041852Y008809D02*
X041632Y008809D01*
X041632Y009048D02*
X041852Y009048D01*
X041852Y009286D02*
X041632Y009286D01*
X041632Y009525D02*
X041852Y009525D01*
X041852Y009763D02*
X041632Y009763D01*
X041632Y010002D02*
X041852Y010002D01*
X041852Y010241D02*
X041632Y010241D01*
X041632Y010479D02*
X041852Y010479D01*
X041852Y010718D02*
X041632Y010718D01*
X041632Y010956D02*
X041852Y010956D01*
X041852Y011195D02*
X041632Y011195D01*
X041632Y011433D02*
X041852Y011433D01*
X041852Y011672D02*
X041650Y011672D01*
X041675Y011910D02*
X041852Y011910D01*
X041852Y012149D02*
X041632Y012149D01*
X041632Y012387D02*
X041852Y012387D01*
X041852Y012626D02*
X041632Y012626D01*
X041632Y012865D02*
X041852Y012865D01*
X041852Y013103D02*
X041632Y013103D01*
X041632Y013342D02*
X041852Y013342D01*
X041852Y013580D02*
X041632Y013580D01*
X041632Y013819D02*
X041852Y013819D01*
X041852Y014057D02*
X041632Y014057D01*
X041632Y014296D02*
X041852Y014296D01*
X041852Y014534D02*
X041632Y014534D01*
X041632Y014773D02*
X041852Y014773D01*
X041852Y015011D02*
X041632Y015011D01*
X041632Y015250D02*
X041852Y015250D01*
X041852Y015489D02*
X041632Y015489D01*
X041632Y015727D02*
X041852Y015727D01*
X041852Y015966D02*
X041632Y015966D01*
X041632Y016204D02*
X041852Y016204D01*
X041852Y016443D02*
X041632Y016443D01*
X041632Y016681D02*
X041852Y016681D01*
X041852Y016920D02*
X041632Y016920D01*
X041632Y017158D02*
X041852Y017158D01*
X041852Y017397D02*
X041632Y017397D01*
X041632Y017635D02*
X041852Y017635D01*
X041852Y017874D02*
X041632Y017874D01*
X041632Y018112D02*
X041852Y018112D01*
X041852Y018351D02*
X041632Y018351D01*
X041632Y018590D02*
X041852Y018590D01*
X041852Y018828D02*
X041678Y018828D01*
X041632Y019067D02*
X041852Y019067D01*
X041852Y019305D02*
X041632Y019305D01*
X041632Y019544D02*
X041852Y019544D01*
X041852Y019782D02*
X041632Y019782D01*
X041632Y020021D02*
X041852Y020021D01*
X041852Y020259D02*
X041632Y020259D01*
X041632Y020498D02*
X041852Y020498D01*
X041852Y020736D02*
X041632Y020736D01*
X041632Y020975D02*
X041852Y020975D01*
X041852Y021214D02*
X041632Y021214D01*
X041632Y021452D02*
X041852Y021452D01*
X041852Y021691D02*
X041632Y021691D01*
X041632Y021929D02*
X041852Y021929D01*
X041852Y022168D02*
X041632Y022168D01*
X041632Y022406D02*
X041852Y022406D01*
X041852Y022645D02*
X041632Y022645D01*
X041632Y022883D02*
X041852Y022883D01*
X041852Y023122D02*
X041632Y023122D01*
X041632Y023360D02*
X041852Y023360D01*
X041852Y023599D02*
X041632Y023599D01*
X041632Y023838D02*
X041852Y023838D01*
X041852Y024076D02*
X041632Y024076D01*
X041632Y024315D02*
X041852Y024315D01*
X041852Y024553D02*
X041632Y024553D01*
X041632Y024792D02*
X041852Y024792D01*
X041852Y025030D02*
X041632Y025030D01*
X041632Y025269D02*
X041852Y025269D01*
X041852Y025507D02*
X041632Y025507D01*
X041737Y025746D02*
X041852Y025746D01*
X041852Y025984D02*
X041708Y025984D01*
X041852Y026223D02*
X041520Y026223D01*
X041852Y026461D02*
X040952Y026461D01*
X040952Y026223D02*
X041023Y026223D01*
X040952Y026700D02*
X041852Y026700D01*
X041852Y026939D02*
X040952Y026939D01*
X040952Y027177D02*
X041852Y027177D01*
X041852Y027416D02*
X040952Y027416D01*
X040952Y027654D02*
X041852Y027654D01*
X041852Y027893D02*
X040952Y027893D01*
X040952Y028131D02*
X041852Y028131D01*
X041852Y028370D02*
X040995Y028370D01*
X041078Y028608D02*
X041852Y028608D01*
X041852Y028847D02*
X041019Y028847D01*
X040633Y029085D02*
X041852Y029085D01*
X041852Y029324D02*
X040644Y029324D01*
X038910Y029085D02*
X038831Y029085D01*
X038899Y030040D02*
X037963Y030040D01*
X037797Y030278D02*
X038899Y030278D01*
X038906Y030517D02*
X037397Y030517D01*
X036987Y030517D02*
X036473Y030517D01*
X036552Y030278D02*
X036586Y030278D01*
X035992Y028370D02*
X034779Y028370D01*
X034784Y028131D02*
X035992Y028131D01*
X035992Y027893D02*
X034784Y027893D01*
X034715Y027654D02*
X035992Y027654D01*
X036552Y027654D02*
X036873Y027654D01*
X036931Y027416D02*
X036632Y027416D01*
X036678Y027177D02*
X036992Y027177D01*
X036992Y026939D02*
X036564Y026939D01*
X036552Y026700D02*
X036683Y026700D01*
X036552Y026461D02*
X036553Y026461D01*
X036552Y026223D02*
X036606Y026223D01*
X036552Y027893D02*
X036996Y027893D01*
X033978Y027654D02*
X033928Y027654D01*
X033190Y027654D02*
X033141Y027654D01*
X032403Y027654D02*
X032353Y027654D01*
X031615Y027654D02*
X031566Y027654D01*
X031851Y028608D02*
X031940Y028608D01*
X031940Y028847D02*
X031851Y028847D01*
X030291Y028847D02*
X030079Y028847D01*
X030079Y029085D02*
X030291Y029085D01*
X030291Y028608D02*
X030079Y028608D01*
X029312Y029801D02*
X028311Y029801D01*
X028030Y030040D02*
X029312Y030040D01*
X033603Y028847D02*
X033712Y028847D01*
X033712Y028608D02*
X033603Y028608D01*
X038112Y025030D02*
X038899Y025030D01*
X038899Y024792D02*
X038112Y024792D01*
X038774Y025269D02*
X038899Y025269D01*
X039665Y024315D02*
X039878Y024315D01*
X039878Y024076D02*
X039665Y024076D01*
X039665Y023838D02*
X039878Y023838D01*
X039878Y023599D02*
X039665Y023599D01*
X039665Y023360D02*
X039878Y023360D01*
X039878Y023122D02*
X039665Y023122D01*
X038899Y022645D02*
X038112Y022645D01*
X038112Y022406D02*
X038899Y022406D01*
X038899Y022168D02*
X038781Y022168D01*
X035992Y022168D02*
X034374Y022168D01*
X034320Y021929D02*
X035992Y021929D01*
X035992Y021691D02*
X034469Y021691D01*
X034492Y021452D02*
X035992Y021452D01*
X035992Y021214D02*
X034411Y021214D01*
X034274Y020975D02*
X035992Y020975D01*
X035992Y020736D02*
X034450Y020736D01*
X034491Y022406D02*
X035992Y022406D01*
X035992Y022645D02*
X034488Y022645D01*
X034366Y022883D02*
X035992Y022883D01*
X035992Y023122D02*
X034328Y023122D01*
X034472Y023360D02*
X035992Y023360D01*
X035992Y023599D02*
X034492Y023599D01*
X034408Y023838D02*
X035992Y023838D01*
X035992Y024076D02*
X034073Y024076D01*
X038112Y018112D02*
X038899Y018112D01*
X038899Y017874D02*
X038112Y017874D01*
X038831Y018351D02*
X038908Y018351D01*
X039665Y017397D02*
X039878Y017397D01*
X039878Y017158D02*
X039665Y017158D01*
X039665Y016920D02*
X039878Y016920D01*
X039878Y015489D02*
X039665Y015489D01*
X039665Y015250D02*
X039878Y015250D01*
X039878Y015011D02*
X039665Y015011D01*
X035992Y013580D02*
X019964Y013580D01*
X022921Y014057D02*
X022922Y014057D01*
X022921Y014296D02*
X022922Y014296D01*
X024141Y015250D02*
X024141Y015250D01*
X033882Y013342D02*
X035881Y013342D01*
X035881Y013103D02*
X034174Y013103D01*
X034330Y012865D02*
X035992Y012865D01*
X035992Y012626D02*
X034413Y012626D01*
X034442Y012387D02*
X035992Y012387D01*
X035992Y012149D02*
X034421Y012149D01*
X034348Y011910D02*
X035992Y011910D01*
X035992Y011672D02*
X034206Y011672D01*
X033936Y011433D02*
X035992Y011433D01*
X038112Y008332D02*
X038899Y008332D01*
X038908Y008094D02*
X038831Y008094D01*
X039665Y009048D02*
X039878Y009048D01*
X039878Y009286D02*
X039665Y009286D01*
X039665Y009525D02*
X039878Y009525D01*
X039878Y009763D02*
X039665Y009763D01*
X039665Y010002D02*
X039878Y010002D01*
X039878Y010241D02*
X039665Y010241D01*
X039665Y010479D02*
X039878Y010479D01*
X035992Y007855D02*
X034619Y007855D01*
X034652Y007617D02*
X035992Y007617D01*
X038349Y002369D02*
X039723Y002369D01*
X039484Y002130D02*
X038162Y002130D01*
X022885Y030994D02*
X022299Y030994D01*
M02*
