%
M48
M72
T01C0.0197
T02C0.0236
T03C0.0276
T04C0.0315
T05C0.0320
T06C0.0354
T07C0.0400
T08C0.0440
T09C0.0512
T10C0.0906
T11C0.1260
T12C0.1300
%
T01
X7312Y5822
X7652Y7022
X6992Y7822
X7312Y12822
X7652Y14022
X6992Y14822
X6672Y16422
X7312Y19822
X7652Y21022
X6992Y21822
X7312Y26822
X7652Y28022
X6992Y28822
X18372Y23922
X21172Y24622
X22672Y25622
X23372Y25922
X23372Y25322
X21372Y19422
X15372Y11922
X36912Y12422
X37552Y11622
X37232Y13622
X37552Y18622
X36912Y19422
X37232Y20622
X37232Y23822
X37552Y24122
X37872Y24422
X37552Y25622
X36912Y26422
X37232Y27622
X37232Y6622
X36912Y5422
X37552Y4622
T02
X36912Y11022
X27172Y4422
X22372Y4622
X20572Y4622
X19572Y4122
X9272Y11722
X8672Y12322
X8672Y11022
X12672Y12822
X13672Y12822
X12172Y14322
X11772Y14822
X11272Y15322
X8672Y16122
X11472Y23922
X11472Y24922
X12672Y25922
X8672Y29922
X8672Y30662
X20272Y23622
X20672Y23422
X21472Y25522
X22672Y26222
X23072Y30662
X34072Y30662
T03
X34150Y28634
X34346Y28044
X33559Y28044
X33165Y28634
X32772Y28044
X32378Y28634
X31984Y28044
X31197Y28044
X31394Y28634
X36272Y27222
X38394Y27222
X38984Y26828
X38394Y26434
X38984Y25844
X38394Y25647
X38984Y27615
X38394Y28009
X38984Y28600
X38394Y28797
X40672Y28622
X40672Y21622
X38984Y21600
X38394Y21797
X38394Y21009
X38984Y20615
X38394Y20222
X38984Y19828
X38394Y19434
X38984Y18844
X38394Y18647
X36272Y20222
X41272Y18822
X40672Y14622
X38984Y14600
X38394Y14797
X38394Y14009
X38984Y13615
X38394Y13222
X38984Y12828
X38394Y12434
X38984Y11844
X38394Y11647
X36272Y13222
X41272Y11822
X38394Y7797
X38984Y7600
X38394Y7009
X38984Y6615
X38394Y6222
X38984Y5828
X38394Y5434
X38394Y4647
X38984Y4844
X41272Y4822
X40672Y7622
X36272Y6222
X8272Y6222
X6150Y6222
X5559Y6615
X6150Y7009
X5559Y7600
X6150Y7797
X5559Y5828
X6150Y5434
X6150Y4647
X5559Y4844
X3872Y4822
X6150Y11647
X5559Y11844
X6150Y12434
X5559Y12828
X6150Y13222
X5559Y13615
X6150Y14009
X6150Y14797
X5559Y14600
X8272Y13222
X3872Y11822
X6150Y18647
X5559Y18844
X6150Y19434
X5559Y19828
X6150Y20222
X5559Y20615
X6150Y21009
X6150Y21797
X5559Y21600
X8272Y20222
X3872Y18822
X3872Y25822
X5559Y25844
X6150Y25647
X6150Y26434
X5559Y26828
X6150Y27222
X5559Y27615
X6150Y28009
X5559Y28600
X6150Y28797
X8272Y27222
T04
X3372Y28622
X3372Y21622
X3372Y14622
X3372Y7622
X24141Y15478
X24141Y16266
X24141Y17053
X24141Y17841
X24141Y18628
X24141Y19415
X24141Y20203
X24141Y20990
X24141Y21778
X24141Y22565
X32802Y22565
X32802Y21778
X32802Y20990
X32802Y20203
X32802Y19415
X32802Y18628
X32802Y17841
X32802Y17053
X32802Y16266
X32802Y15478
X33472Y1322
X21872Y31102
T05
X19272Y26422
X19272Y25422
X19272Y24422
X19272Y23422
X19272Y22422
X19272Y21422
X19272Y20422
X19272Y19422
X19272Y18422
X19272Y17422
X19272Y16422
X19272Y15422
X19272Y14422
X19272Y13422
X19272Y12422
X19272Y11422
X19272Y10422
X19272Y9422
X19272Y8422
X19272Y7422
X22722Y8522
X23722Y8522
X24722Y8522
X25722Y8522
X26722Y8522
X27722Y8522
X28722Y8522
X29722Y8522
X29722Y5522
X28722Y5522
X27722Y5522
X26722Y5522
X25722Y5522
X24722Y5522
X23722Y5522
X22722Y5522
X10272Y7422
X10272Y8422
X10272Y9422
X10272Y10422
X10272Y11422
X10272Y12422
X10272Y13422
X10272Y14422
X10272Y15422
X10272Y16422
X10272Y17422
X10272Y18422
X10272Y19422
X10272Y20422
X10272Y21422
X10272Y22422
X10272Y23422
X10272Y24422
X10272Y25422
X10272Y26422
T06
X41272Y25822
T07
X33922Y23522
X33922Y22522
X33922Y21522
X33922Y20522
X33922Y19522
X33922Y18522
X33922Y17522
X33922Y16522
X33922Y15522
X33922Y14522
X22922Y14522
X22922Y15522
X22922Y16522
X22922Y17522
X22922Y18522
X22922Y19522
X22922Y20522
X22922Y21522
X22922Y22522
X22922Y23522
X22472Y28463
X23562Y28463
X24653Y28463
X24106Y29581
X23015Y29581
X21928Y29581
X20838Y29581
X21381Y28463
X20291Y28463
X14972Y28822
X13972Y28922
X12972Y28822
X11972Y28922
X10972Y28822
X9972Y28922
T08
X32322Y6472
X33322Y6472
X34322Y6472
T09
X34440Y2622
X32472Y2622
X30040Y2622
X28072Y2622
X25640Y2622
X23672Y2622
X21240Y2622
X19272Y2622
X16240Y2622
X14272Y2622
X11840Y2622
X9872Y2622
T10
X4772Y3635
X4772Y8808
X4772Y10635
X4772Y15808
X4772Y17635
X4772Y22808
X4772Y24635
X4772Y29808
X30185Y29422
X35358Y29422
X39772Y29808
X39772Y24635
X39772Y22808
X39772Y17635
X39772Y15808
X39772Y10635
X39772Y8808
X39772Y3635
T11
X37592Y2762
X24492Y10882
X7392Y2762
X7392Y29682
X37192Y29682
T12
X27393Y29022
X17550Y29022
X33322Y12372
M30
