G75*
G70*
%OFA0B0*%
%FSLAX24Y24*%
%IPPOS*%
%LPD*%
%AMOC8*
5,1,8,0,0,1.08239X$1,22.5*
%
%ADD10C,0.1300*%
%ADD11R,0.1346X0.1346*%
%ADD12R,0.0516X0.0516*%
%ADD13C,0.0560*%
%ADD14R,0.0840X0.0840*%
%ADD15C,0.0840*%
%ADD16C,0.0700*%
%ADD17C,0.1340*%
%ADD18C,0.0780*%
%ADD19R,0.0780X0.0780*%
%ADD20C,0.2040*%
%ADD21C,0.0555*%
D10*
X007392Y002762D03*
X024492Y010882D03*
X037592Y002762D03*
X037192Y029682D03*
X007392Y029682D03*
D11*
X004772Y003635D03*
X004772Y008808D03*
X004772Y010635D03*
X004772Y015808D03*
X004772Y017635D03*
X004772Y022808D03*
X004772Y024635D03*
X004772Y029808D03*
X030185Y029422D03*
X035358Y029422D03*
X039772Y029808D03*
X039772Y024635D03*
X039772Y022808D03*
X039772Y017635D03*
X039772Y015808D03*
X039772Y010635D03*
X039772Y008808D03*
X039772Y003635D03*
D12*
X038984Y004844D03*
X038394Y004647D03*
X038394Y005434D03*
X038984Y005828D03*
X038394Y006222D03*
X038984Y006615D03*
X038394Y007009D03*
X038984Y007600D03*
X038394Y007797D03*
X038394Y011647D03*
X038984Y011844D03*
X038394Y012434D03*
X038984Y012828D03*
X038394Y013222D03*
X038984Y013615D03*
X038394Y014009D03*
X038394Y014797D03*
X038984Y014600D03*
X038394Y018647D03*
X038984Y018844D03*
X038394Y019434D03*
X038984Y019828D03*
X038394Y020222D03*
X038984Y020615D03*
X038394Y021009D03*
X038394Y021797D03*
X038984Y021600D03*
X038394Y025647D03*
X038984Y025844D03*
X038394Y026434D03*
X038984Y026828D03*
X038394Y027222D03*
X038984Y027615D03*
X038394Y028009D03*
X038984Y028600D03*
X038394Y028797D03*
X034346Y028044D03*
X034150Y028634D03*
X033559Y028044D03*
X033165Y028634D03*
X032772Y028044D03*
X032378Y028634D03*
X031984Y028044D03*
X031197Y028044D03*
X031394Y028634D03*
X006150Y028797D03*
X005559Y028600D03*
X006150Y028009D03*
X005559Y027615D03*
X006150Y027222D03*
X005559Y026828D03*
X006150Y026434D03*
X005559Y025844D03*
X006150Y025647D03*
X006150Y021797D03*
X005559Y021600D03*
X006150Y021009D03*
X005559Y020615D03*
X006150Y020222D03*
X005559Y019828D03*
X006150Y019434D03*
X005559Y018844D03*
X006150Y018647D03*
X006150Y014797D03*
X005559Y014600D03*
X006150Y014009D03*
X005559Y013615D03*
X006150Y013222D03*
X005559Y012828D03*
X006150Y012434D03*
X005559Y011844D03*
X006150Y011647D03*
X006150Y007797D03*
X005559Y007600D03*
X006150Y007009D03*
X005559Y006615D03*
X006150Y006222D03*
X005559Y005828D03*
X006150Y005434D03*
X006150Y004647D03*
X005559Y004844D03*
D13*
X010012Y007422D02*
X010532Y007422D01*
X010532Y008422D02*
X010012Y008422D01*
X010012Y009422D02*
X010532Y009422D01*
X010532Y010422D02*
X010012Y010422D01*
X010012Y011422D02*
X010532Y011422D01*
X010532Y012422D02*
X010012Y012422D01*
X010012Y013422D02*
X010532Y013422D01*
X010532Y014422D02*
X010012Y014422D01*
X010012Y015422D02*
X010532Y015422D01*
X010532Y016422D02*
X010012Y016422D01*
X010012Y017422D02*
X010532Y017422D01*
X010532Y018422D02*
X010012Y018422D01*
X010012Y019422D02*
X010532Y019422D01*
X010532Y020422D02*
X010012Y020422D01*
X010012Y021422D02*
X010532Y021422D01*
X010532Y022422D02*
X010012Y022422D01*
X010012Y023422D02*
X010532Y023422D01*
X010532Y024422D02*
X010012Y024422D01*
X010012Y025422D02*
X010532Y025422D01*
X010532Y026422D02*
X010012Y026422D01*
X019012Y026422D02*
X019532Y026422D01*
X019532Y025422D02*
X019012Y025422D01*
X019012Y024422D02*
X019532Y024422D01*
X019532Y023422D02*
X019012Y023422D01*
X019012Y022422D02*
X019532Y022422D01*
X019532Y021422D02*
X019012Y021422D01*
X019012Y020422D02*
X019532Y020422D01*
X019532Y019422D02*
X019012Y019422D01*
X019012Y018422D02*
X019532Y018422D01*
X019532Y017422D02*
X019012Y017422D01*
X019012Y016422D02*
X019532Y016422D01*
X019532Y015422D02*
X019012Y015422D01*
X019012Y014422D02*
X019532Y014422D01*
X019532Y013422D02*
X019012Y013422D01*
X019012Y012422D02*
X019532Y012422D01*
X019532Y011422D02*
X019012Y011422D01*
X019012Y010422D02*
X019532Y010422D01*
X019532Y009422D02*
X019012Y009422D01*
X019012Y008422D02*
X019532Y008422D01*
X019532Y007422D02*
X019012Y007422D01*
X022722Y008262D02*
X022722Y008782D01*
X023722Y008782D02*
X023722Y008262D01*
X024722Y008262D02*
X024722Y008782D01*
X025722Y008782D02*
X025722Y008262D01*
X026722Y008262D02*
X026722Y008782D01*
X027722Y008782D02*
X027722Y008262D01*
X028722Y008262D02*
X028722Y008782D01*
X029722Y008782D02*
X029722Y008262D01*
X029722Y005782D02*
X029722Y005262D01*
X028722Y005262D02*
X028722Y005782D01*
X027722Y005782D02*
X027722Y005262D01*
X026722Y005262D02*
X026722Y005782D01*
X025722Y005782D02*
X025722Y005262D01*
X024722Y005262D02*
X024722Y005782D01*
X023722Y005782D02*
X023722Y005262D01*
X022722Y005262D02*
X022722Y005782D01*
D14*
X023672Y002622D03*
X028072Y002622D03*
X032472Y002622D03*
X019272Y002622D03*
X014272Y002622D03*
X009872Y002622D03*
D15*
X011840Y002622D03*
X016240Y002622D03*
X021240Y002622D03*
X025640Y002622D03*
X030040Y002622D03*
X034440Y002622D03*
D16*
X034322Y006142D02*
X034322Y006802D01*
X033322Y006802D02*
X033322Y006142D01*
X032322Y006142D02*
X032322Y006802D01*
D17*
X033322Y012372D03*
D18*
X033922Y014522D03*
X033922Y015522D03*
X033922Y016522D03*
X033922Y017522D03*
X033922Y018522D03*
X033922Y019522D03*
X033922Y020522D03*
X033922Y021522D03*
X033922Y022522D03*
X033922Y023522D03*
X024653Y028463D03*
X023562Y028463D03*
X022472Y028463D03*
X021381Y028463D03*
X020838Y029581D03*
X021928Y029581D03*
X023015Y029581D03*
X024106Y029581D03*
X022922Y023522D03*
X022922Y022522D03*
X022922Y021522D03*
X022922Y020522D03*
X022922Y019522D03*
X022922Y018522D03*
X022922Y017522D03*
X022922Y016522D03*
X022922Y015522D03*
X022922Y014522D03*
X014972Y028822D03*
X013972Y028922D03*
X012972Y028822D03*
X011972Y028922D03*
X010972Y028822D03*
X009972Y028922D03*
D19*
X020291Y028463D03*
D20*
X017550Y029022D03*
X027393Y029022D03*
D21*
X024141Y022565D03*
X024141Y021778D03*
X024141Y020990D03*
X024141Y020203D03*
X024141Y019415D03*
X024141Y018628D03*
X024141Y017841D03*
X024141Y017053D03*
X024141Y016266D03*
X024141Y015478D03*
X032802Y015478D03*
X032802Y016266D03*
X032802Y017053D03*
X032802Y017841D03*
X032802Y018628D03*
X032802Y019415D03*
X032802Y020203D03*
X032802Y020990D03*
X032802Y021778D03*
X032802Y022565D03*
M02*
